<?xml version="1.0" encoding="UTF-8" standalone="no"?>
<!-- Created with Inkscape (http://www.inkscape.org/) -->

<svg
   xmlns:dc="http://purl.org/dc/elements/1.1/"
   xmlns:cc="http://creativecommons.org/ns#"
   xmlns:rdf="http://www.w3.org/1999/02/22-rdf-syntax-ns#"
   xmlns:svg="http://www.w3.org/2000/svg"
   xmlns="http://www.w3.org/2000/svg"
   xmlns:sodipodi="http://sodipodi.sourceforge.net/DTD/sodipodi-0.dtd"
   xmlns:inkscape="http://www.inkscape.org/namespaces/inkscape"
   width="761.54553"
   height="476.61444"
   id="svg2"
   version="1.1"
   inkscape:version="0.92.1 r15371"
   sodipodi:docname="JohnsonNoiseEquivalentCircuits.svg">
  <defs
     id="defs4">
    <marker
       inkscape:stockid="Arrow2Mend"
       orient="auto"
       refY="0"
       refX="0"
       id="Arrow2Mend"
       style="overflow:visible"
       inkscape:isstock="true">
      <path
         id="path4340"
         style="fill:#000000;fill-opacity:1;fill-rule:evenodd;stroke:#000000;stroke-width:0.40000001;stroke-linejoin:round;stroke-opacity:1"
         d="M -5.5798962,-2.5815905 1.4126653,-0.01024849 -5.5798966,2.561093 c 1.117119,-1.518119 1.1106821,-3.5951692 4e-7,-5.1426835 z"
         inkscape:connector-curvature="0" />
    </marker>
    <marker
       inkscape:stockid="Arrow1Mend"
       orient="auto"
       refY="0"
       refX="0"
       id="marker4721"
       style="overflow:visible"
       inkscape:isstock="true">
      <path
         id="path4723"
         d="M -4.2666667,0 -6.4,2.1333333 1.0666667,0 -6.4,-2.1333333 Z"
         style="fill:#000000;fill-opacity:1;fill-rule:evenodd;stroke:#000000;stroke-width:0.42666668pt;stroke-opacity:1"
         inkscape:connector-curvature="0" />
    </marker>
    <marker
       inkscape:stockid="Arrow2Mstart"
       orient="auto"
       refY="0"
       refX="0"
       id="Arrow2Mstart"
       style="overflow:visible"
       inkscape:isstock="true">
      <path
         id="path4337"
         style="fill:#000000;fill-opacity:1;fill-rule:evenodd;stroke:#000000;stroke-width:0.40000001;stroke-linejoin:round;stroke-opacity:1"
         d="M 5.5798962,2.5815905 -1.4126653,0.01024849 5.5798966,-2.561093 c -1.117119,1.518119 -1.1106821,3.5951692 -4e-7,5.1426835 z"
         inkscape:connector-curvature="0" />
    </marker>
    <marker
       inkscape:stockid="Arrow1Mend"
       orient="auto"
       refY="0"
       refX="0"
       id="Arrow1Mend"
       style="overflow:visible"
       inkscape:isstock="true">
      <path
         id="path4322"
         d="M -4.2666667,0 -6.4,2.1333333 1.0666667,0 -6.4,-2.1333333 Z"
         style="fill:#000000;fill-opacity:1;fill-rule:evenodd;stroke:#000000;stroke-width:0.42666668pt;stroke-opacity:1"
         inkscape:connector-curvature="0" />
    </marker>
    <marker
       inkscape:stockid="Arrow1Mstart"
       orient="auto"
       refY="0"
       refX="0"
       id="Arrow1Mstart"
       style="overflow:visible"
       inkscape:isstock="true">
      <path
         id="path4319"
         d="M 4.2666667,0 6.4,-2.1333333 -1.0666667,0 6.4,2.1333333 Z"
         style="fill:#000000;fill-opacity:1;fill-rule:evenodd;stroke:#000000;stroke-width:0.42666668pt;stroke-opacity:1"
         inkscape:connector-curvature="0" />
    </marker>
    <marker
       inkscape:stockid="Arrow1Lstart"
       orient="auto"
       refY="0"
       refX="0"
       id="Arrow1Lstart"
       style="overflow:visible"
       inkscape:isstock="true">
      <path
         id="path4313"
         d="M 10.666667,0 14.933333,-4.2666667 0,0 14.933333,4.2666667 Z"
         style="fill:#000000;fill-opacity:1;fill-rule:evenodd;stroke:#000000;stroke-width:0.85333335pt;stroke-opacity:1"
         inkscape:connector-curvature="0" />
    </marker>
  </defs>
  <sodipodi:namedview
     id="base"
     pagecolor="#ffffff"
     bordercolor="#666666"
     borderopacity="1.0"
     inkscape:pageopacity="1"
     inkscape:pageshadow="2"
     inkscape:zoom="0.66635149"
     inkscape:cx="215.4688"
     inkscape:cy="90.477627"
     inkscape:document-units="px"
     inkscape:current-layer="layer1"
     showgrid="false"
     inkscape:window-width="1920"
     inkscape:window-height="986"
     inkscape:window-x="-11"
     inkscape:window-y="-11"
     inkscape:window-maximized="1"
     fit-margin-top="20"
     fit-margin-left="20"
     fit-margin-right="20"
     fit-margin-bottom="20">
    <inkscape:grid
       type="xygrid"
       id="grid4032"
       originx="-24.613991"
       originy="-593.37556"
       spacingx="1.0666667"
       spacingy="1.0666667" />
  </sodipodi:namedview>
  <metadata
     id="metadata7">
    <rdf:RDF>
      <cc:Work
         rdf:about="">
        <dc:format>image/svg+xml</dc:format>
        <dc:type
           rdf:resource="http://purl.org/dc/dcmitype/StillImage" />
        <dc:title></dc:title>
      </cc:Work>
    </rdf:RDF>
  </metadata>
  <g
     inkscape:label="Layer 1"
     inkscape:groupmode="layer"
     id="layer1"
     transform="translate(-24.613991,-52.529721)">
    <path
       style="fill:none;stroke:#000000;stroke-width:5.33333349;stroke-linecap:butt;stroke-linejoin:miter;stroke-miterlimit:4;stroke-dasharray:none;stroke-opacity:1"
       d="m 104.66381,211.97776 h 236.49742 l 10.64314,42.66667 21.28632,-85.33334 21.2863,85.33334 21.28632,-85.33334 21.2863,85.33334 21.28632,-85.33334 10.64314,42.66667 h 260.66216"
       id="path4036"
       inkscape:connector-curvature="0"
       sodipodi:nodetypes="cccccccccc" />
    <g
       style="font-style:normal;font-variant:normal;font-weight:normal;font-stretch:normal;font-size:40px;line-height:125%;font-family:sans-serif;-inkscape-font-specification:sans-serif;text-align:center;letter-spacing:0px;word-spacing:0px;text-anchor:middle;fill:#000000;fill-opacity:1;stroke:none"
       id="text4038">
      <path
         d="m 316.04515,90.363054 q 1.35417,0.458333 2.625,1.958333 1.29166,1.5 2.58333,4.125 l 4.27084,8.500003 h -4.52083 l -3.97917,-7.97917 q -1.54167,-3.125 -3,-4.145833 -1.4375,-1.020833 -3.9375,-1.020833 h -4.58333 v 13.145836 h -4.20834 V 73.84222 h 9.5 q 5.33333,0 7.95833,2.229167 2.62501,2.229167 2.62501,6.729167 0,2.937499 -1.375,4.874999 -1.35418,1.937501 -3.95834,2.687501 z m -10.54166,-13.0625 V 88.34222 h 5.29166 q 3.04167,0 4.58334,-1.395833 1.56249,-1.416666 1.56249,-4.145833 0,-2.729167 -1.56249,-4.104167 -1.54167,-1.395833 -4.58334,-1.395833 z"
         id="path4239"
         inkscape:connector-curvature="0"
         style="stroke-width:1.06666672" />
      <path
         d="m 348.83682,92.321387 v 1.875 h -17.625 q 0.24999,3.958333 2.375,6.041663 2.14583,2.0625 5.95833,2.0625 2.20833,0 4.27083,-0.54166 2.08334,-0.54167 4.125,-1.625 v 3.625 q -2.06249,0.875 -4.22916,1.33333 -2.16667,0.45833 -4.39584,0.45833 -5.58333,0 -8.85417,-3.25 -3.24999,-3.249996 -3.24999,-8.791664 0,-5.729165 3.08333,-9.083333 3.10417,-3.374999 8.35416,-3.374999 4.70834,0 7.43751,3.041666 2.75,3.020834 2.75,8.229167 z m -3.83333,-1.125 q -0.0417,-3.145833 -1.77084,-5.020834 -1.70833,-1.874999 -4.54166,-1.874999 -3.20834,0 -5.14584,1.8125 -1.91667,1.812499 -2.20833,5.104166 z"
         id="path4241"
         inkscape:connector-curvature="0"
         style="stroke-width:1.06666672" />
      <path
         d="m 370.00349,82.300554 v 3.624999 q -1.625,-0.833333 -3.37501,-1.25 -1.74999,-0.416667 -3.62499,-0.416667 -2.85418,0 -4.29167,0.875001 -1.41667,0.874999 -1.41667,2.624999 0,1.333334 1.02083,2.104168 1.02084,0.75 4.10417,1.4375 l 1.3125,0.291666 q 4.08333,0.875 5.79167,2.479167 1.72916,1.583333 1.72916,4.437499 0,3.250004 -2.58333,5.145834 -2.5625,1.89583 -7.0625,1.89583 -1.875,0 -3.91666,-0.375 -2.02084,-0.35416 -4.27084,-1.08333 v -3.95833 q 2.125,1.10416 4.1875,1.66666 2.0625,0.54167 4.08334,0.54167 2.70833,0 4.16666,-0.91667 1.45833,-0.9375 1.45833,-2.624996 0,-1.562501 -1.0625,-2.395834 -1.04166,-0.833333 -4.60417,-1.604166 l -1.33333,-0.312501 q -3.5625,-0.75 -5.14583,-2.291666 -1.58333,-1.5625 -1.58333,-4.270834 0,-3.291666 2.33333,-5.083333 2.33333,-1.791666 6.625,-1.791666 2.125,0 4,0.3125 1.875,0.312499 3.45834,0.9375 z"
         id="path4243"
         inkscape:connector-curvature="0"
         style="stroke-width:1.06666672" />
      <path
         d="m 377.37849,81.613054 h 3.83333 v 23.333336 h -3.83333 z m 0,-9.083333 h 3.83333 v 4.854166 h -3.83333 z"
         id="path4245"
         inkscape:connector-curvature="0"
         style="stroke-width:1.06666672" />
      <path
         d="m 404.08682,82.300554 v 3.624999 q -1.62501,-0.833333 -3.375,-1.25 -1.75001,-0.416667 -3.625,-0.416667 -2.85417,0 -4.29167,0.875001 -1.41666,0.874999 -1.41666,2.624999 0,1.333334 1.02083,2.104168 1.02083,0.75 4.10417,1.4375 l 1.31249,0.291666 q 4.08334,0.875 5.79167,2.479167 1.72917,1.583333 1.72917,4.437499 0,3.250004 -2.58334,5.145834 -2.56249,1.89583 -7.06249,1.89583 -1.87501,0 -3.91668,-0.375 -2.02083,-0.35416 -4.27082,-1.08333 v -3.95833 q 2.12499,1.10416 4.1875,1.66666 2.06249,0.54167 4.08332,0.54167 2.70834,0 4.16667,-0.91667 1.45834,-0.9375 1.45834,-2.624996 0,-1.562501 -1.0625,-2.395834 -1.04167,-0.833333 -4.60417,-1.604166 l -1.33333,-0.312501 q -3.5625,-0.75 -5.14584,-2.291666 -1.58333,-1.5625 -1.58333,-4.270834 0,-3.291666 2.33334,-5.083333 2.33333,-1.791666 6.62499,-1.791666 2.125,0 4,0.3125 1.87501,0.312499 3.45834,0.9375 z"
         id="path4247"
         inkscape:connector-curvature="0"
         style="stroke-width:1.06666672" />
      <path
         d="m 415.25348,74.988053 v 6.625001 h 7.89583 v 2.979166 h -7.89583 v 12.666666 q 0,2.854164 0.77084,3.666664 0.79166,0.8125 3.1875,0.8125 h 3.93749 v 3.20834 h -3.93749 q -4.43751,0 -6.125,-1.64584 -1.6875,-1.66666 -1.6875,-6.041664 V 84.59222 h -2.8125 v -2.979166 h 2.8125 v -6.625001 z"
         id="path4249"
         inkscape:connector-curvature="0"
         style="stroke-width:1.06666672" />
      <path
         d="m 437.25348,84.300554 q -3.08333,0 -4.87499,2.416666 -1.79167,2.395834 -1.79167,6.583334 0,4.187499 1.77083,6.604166 1.79166,2.39583 4.89583,2.39583 3.0625,0 4.85417,-2.416663 1.79167,-2.416667 1.79167,-6.583333 0,-4.145834 -1.79167,-6.562501 -1.79167,-2.437499 -4.85417,-2.437499 z m 0,-3.25 q 5,0 7.85417,3.25 2.85416,3.25 2.85416,9 0,5.729167 -2.85416,8.999996 -2.85417,3.25 -7.85417,3.25 -5.02083,0 -7.87499,-3.25 -2.83334,-3.270829 -2.83334,-8.999996 0,-5.75 2.83334,-9 2.85416,-3.25 7.87499,-3.25 z"
         id="path4251"
         inkscape:connector-curvature="0"
         style="stroke-width:1.06666672" />
      <path
         d="m 467.81598,85.196387 q -0.64583,-0.375 -1.41666,-0.541667 -0.75001,-0.1875 -1.66667,-0.1875 -3.25,0 -5,2.125 -1.72916,2.104167 -1.72916,6.0625 v 12.29167 h -3.85418 V 81.613054 h 3.85418 v 3.624999 q 1.20833,-2.124999 3.14582,-3.145833 1.93751,-1.041666 4.70834,-1.041666 0.39583,0 0.875,0.0625 0.47917,0.04166 1.0625,0.145832 l 0.0208,3.937501 z"
         id="path4253"
         inkscape:connector-curvature="0"
         style="stroke-width:1.06666672" />
      <path
         d="m 496.06598,93.21722 q -4.64583,0 -6.4375,1.062501 -1.79166,1.062499 -1.79166,3.624999 0,2.041667 1.33333,3.25 1.35417,1.1875 3.66667,1.1875 3.1875,0 5.10416,-2.25 1.93751,-2.270833 1.93751,-6.020833 V 93.21722 Z m 7.64584,-1.583333 v 13.312503 h -3.83333 v -3.54167 q -1.31251,2.125 -3.27084,3.14583 -1.95834,1 -4.79167,1 -3.58333,0 -5.70833,-2 -2.10416,-2.02083 -2.10416,-5.39583 0,-3.9375 2.62499,-5.9375 2.64583,-2 7.87501,-2 h 5.375 v -0.375 q 0,-2.645833 -1.75001,-4.083334 -1.72916,-1.458332 -4.875,-1.458332 -2,0 -3.89583,0.479167 -1.89584,0.479165 -3.64583,1.437499 v -3.541667 q 2.10416,-0.812499 4.08333,-1.208333 1.97916,-0.416666 3.85416,-0.416666 5.06251,0 7.56251,2.624999 2.5,2.625001 2.5,7.958334 z"
         id="path4255"
         inkscape:connector-curvature="0"
         style="stroke-width:1.06666672" />
      <path
         d="m 515.42015,74.988053 v 6.625001 h 7.89583 v 2.979166 h -7.89583 v 12.666666 q 0,2.854164 0.77084,3.666664 0.79166,0.8125 3.1875,0.8125 h 3.93749 v 3.20834 h -3.93749 q -4.43751,0 -6.12501,-1.64584 -1.6875,-1.66666 -1.6875,-6.041664 V 84.59222 h -2.8125 v -2.979166 h 2.8125 v -6.625001 z"
         id="path4257"
         inkscape:connector-curvature="0"
         style="stroke-width:1.06666672" />
      <path
         d="m 264.5139,128.32139 v 6.625 h 7.89583 v 2.97917 h -7.89583 v 12.66666 q 0,2.85417 0.77084,3.66667 0.79165,0.8125 3.18749,0.8125 h 3.9375 v 3.20833 h -3.9375 q -4.4375,0 -6.125,-1.64583 -1.6875,-1.66667 -1.6875,-6.04167 v -12.66666 h -2.8125 v -2.97917 h 2.8125 v -6.625 z"
         id="path4259"
         inkscape:connector-curvature="0"
         style="stroke-width:1.06666672" />
      <path
         d="m 297.43057,145.65472 v 1.875 h -17.625 q 0.24999,3.95833 2.375,6.04167 2.14583,2.0625 5.95833,2.0625 2.20833,0 4.27083,-0.54167 2.08334,-0.54167 4.125,-1.625 v 3.625 q -2.0625,0.875 -4.22916,1.33334 -2.16667,0.45832 -4.39584,0.45832 -5.58333,0 -8.85417,-3.24999 -3.24999,-3.25001 -3.24999,-8.79167 0,-5.72916 3.08333,-9.08333 3.10417,-3.37501 8.35416,-3.37501 4.70834,0 7.43751,3.04168 2.75,3.02083 2.75,8.22916 z m -3.83333,-1.125 q -0.0417,-3.14584 -1.77084,-5.02083 -1.70833,-1.875 -4.54166,-1.875 -3.20835,0 -5.14584,1.8125 -1.91667,1.8125 -2.20833,5.10416 l 13.66667,-0.0208 z"
         id="path4261"
         inkscape:connector-curvature="0"
         style="stroke-width:1.06666672" />
      <path
         d="m 321.8889,139.42556 q 1.4375,-2.58334 3.4375,-3.8125 2,-1.22918 4.70833,-1.22918 3.64584,0 5.625,2.56251 1.97917,2.54166 1.97917,7.24999 v 14.08334 h -3.85416 v -13.95833 q 0,-3.35417 -1.1875,-4.97917 -1.18751,-1.625 -3.62501,-1.625 -2.97916,0 -4.70833,1.97916 -1.72917,1.97917 -1.72917,5.39584 v 13.1875 h -3.85416 v -13.95833 q 0,-3.375 -1.1875,-4.97917 -1.1875,-1.625 -3.66667,-1.625 -2.9375,0 -4.66667,2 -1.72916,1.97916 -1.72916,5.375 v 13.1875 h -3.85418 v -23.33333 h 3.85418 v 3.625 q 1.31249,-2.14583 3.14582,-3.16666 1.83334,-1.02085 4.35418,-1.02085 2.54166,0 4.31249,1.29167 1.79167,1.29167 2.64584,3.75001 z"
         id="path4263"
         inkscape:connector-curvature="0"
         style="stroke-width:1.06666672" />
      <path
         d="m 349.0139,154.77972 v 12.375 h -3.85417 v -32.20833 h 3.85417 v 3.54166 q 1.20833,-2.08332 3.04166,-3.08332 1.85417,-1.02085 4.41667,-1.02085 4.25,0 6.89583,3.37501 2.66667,3.375 2.66667,8.875 0,5.5 -2.66667,8.875 -2.64583,3.37499 -6.89583,3.37499 -2.5625,0 -4.41667,-1 -1.83333,-1.02083 -3.04166,-3.10416 z m 13.04166,-8.14583 q 0,-4.22916 -1.74999,-6.625 -1.72918,-2.41667 -4.77084,-2.41667 -3.04166,0 -4.79167,2.41667 -1.72916,2.39584 -1.72916,6.625 0,4.22916 1.72916,6.64583 1.75001,2.39583 4.79167,2.39583 3.04166,0 4.77084,-2.39583 1.74999,-2.41667 1.74999,-6.64583 z"
         id="path4265"
         inkscape:connector-curvature="0"
         style="stroke-width:1.06666672" />
      <path
         d="m 392.34723,145.65472 v 1.875 h -17.625 q 0.25,3.95833 2.37501,6.04167 2.14582,2.0625 5.95832,2.0625 2.20834,0 4.27084,-0.54167 2.08333,-0.54167 4.125,-1.625 v 3.625 q -2.0625,0.875 -4.22917,1.33334 -2.16667,0.45832 -4.39583,0.45832 -5.58334,0 -8.85417,-3.24999 -3.25,-3.25001 -3.25,-8.79167 0,-5.72916 3.08334,-9.08333 3.10416,-3.37501 8.35416,-3.37501 4.70833,0 7.43751,3.04168 2.74999,3.02083 2.74999,8.22916 z m -3.83333,-1.125 q -0.0417,-3.14584 -1.77084,-5.02083 -1.70833,-1.875 -4.54166,-1.875 -3.20833,0 -5.14584,1.8125 -1.91666,1.8125 -2.20833,5.10416 l 13.66667,-0.0208 z"
         id="path4267"
         inkscape:connector-curvature="0"
         style="stroke-width:1.06666672" />
      <path
         d="m 412.15973,138.52972 q -0.64583,-0.375 -1.41667,-0.54167 -0.74999,-0.1875 -1.66667,-0.1875 -3.24999,0 -5,2.12501 -1.72916,2.10416 -1.72916,6.06249 v 12.29167 h -3.85416 v -23.33333 h 3.85416 v 3.625 q 1.20833,-2.125 3.14584,-3.14583 1.9375,-1.04168 4.70833,-1.04168 0.39584,0 0.87499,0.0625 0.47917,0.0417 1.06251,0.14583 l 0.0208,3.9375 z"
         id="path4269"
         inkscape:connector-curvature="0"
         style="stroke-width:1.06666672" />
      <path
         d="m 426.8264,146.55055 q -4.64583,0 -6.4375,1.06251 -1.79166,1.06249 -1.79166,3.625 0,2.04166 1.33333,3.24999 1.35417,1.1875 3.66667,1.1875 3.1875,0 5.10416,-2.24999 1.9375,-2.27084 1.9375,-6.02083 v -0.85418 z m 7.64583,-1.58333 v 13.3125 h -3.83333 v -3.54166 q -1.3125,2.12499 -3.27084,3.14582 -1.95833,1 -4.79167,1 -3.58332,0 -5.70833,-2 -2.10416,-2.02083 -2.10416,-5.39583 0,-3.9375 2.625,-5.9375 2.64583,-2 7.875,-2 h 5.375 v -0.375 q 0,-2.64583 -1.75,-4.08333 -1.72917,-1.45833 -4.875,-1.45833 -2,0 -3.89583,0.47917 -1.89584,0.47916 -3.64584,1.43749 v -3.54166 q 2.10416,-0.81251 4.08333,-1.20834 1.97917,-0.41667 3.85417,-0.41667 5.0625,0 7.5625,2.62501 2.5,2.625 2.5,7.95833 z"
         id="path4271"
         inkscape:connector-curvature="0"
         style="stroke-width:1.06666672" />
      <path
         d="m 446.18057,128.32139 v 6.625 h 7.89582 v 2.97917 h -7.89582 v 12.66666 q 0,2.85417 0.77083,3.66667 0.79166,0.8125 3.1875,0.8125 h 3.93749 v 3.20833 h -3.93749 q -4.4375,0 -6.125,-1.64583 -1.6875,-1.66667 -1.6875,-6.04167 v -12.66666 h -2.8125 v -2.97917 h 2.8125 v -6.625 z"
         id="path4273"
         inkscape:connector-curvature="0"
         style="stroke-width:1.06666672" />
      <path
         d="m 458.74306,149.07139 v -14.125 h 3.83333 v 13.97917 q 0,3.3125 1.29167,4.97917 1.29167,1.64582 3.875,1.64582 3.10417,0 4.89584,-1.97916 1.8125,-1.97917 1.8125,-5.39584 v -13.22916 h 3.83334 v 23.33333 h -3.83334 v -3.58334 q -1.39584,2.12501 -3.25,3.16667 -1.83334,1.02083 -4.27083,1.02083 -4.02084,0 -6.10417,-2.5 -2.08334,-2.5 -2.08334,-7.31249 z m 9.64584,-14.68751 z"
         id="path4275"
         inkscape:connector-curvature="0"
         style="stroke-width:1.06666672" />
      <path
         d="m 499.74306,138.52972 q -0.64582,-0.375 -1.41666,-0.54167 -0.75001,-0.1875 -1.66667,-0.1875 -3.25,0 -5,2.12501 -1.72916,2.10416 -1.72916,6.06249 v 12.29167 h -3.85418 v -23.33333 h 3.85418 v 3.625 q 1.20833,-2.125 3.14582,-3.14583 1.93751,-1.04168 4.70835,-1.04168 0.39583,0 0.87499,0.0625 0.47917,0.0417 1.0625,0.14583 l 0.0208,3.9375 z"
         id="path4277"
         inkscape:connector-curvature="0"
         style="stroke-width:1.06666672" />
      <path
         d="m 522.8264,145.65472 v 1.875 h -17.625 q 0.25,3.95833 2.37499,6.04167 2.14584,2.0625 5.95834,2.0625 2.20833,0 4.27084,-0.54167 2.08333,-0.54167 4.125,-1.625 v 3.625 q -2.06251,0.875 -4.22917,1.33334 -2.16667,0.45832 -4.39583,0.45832 -5.58334,0 -8.85417,-3.24999 -3.25,-3.25001 -3.25,-8.79167 0,-5.72916 3.08334,-9.08333 3.10416,-3.37501 8.35416,-3.37501 4.70833,0 7.43749,3.04168 2.75001,3.02083 2.75001,8.22916 z m -3.83333,-1.125 q -0.0417,-3.14584 -1.77084,-5.02083 -1.70833,-1.875 -4.54166,-1.875 -3.20834,0 -5.14584,1.8125 -1.91666,1.8125 -2.20833,5.10416 l 13.66667,-0.0208 z"
         id="path4279"
         inkscape:connector-curvature="0"
         style="stroke-width:1.06666672" />
      <path
         d="m 538.55556,127.17555 h 26.3125 v 3.54167 H 553.8264 v 27.5625 h -4.22916 v -27.5625 h -11.04168 z"
         id="path4281"
         inkscape:connector-curvature="0"
         style="stroke-width:1.06666672" />
    </g>
    <circle
       style="fill:#ffffff;fill-opacity:1;stroke:#000000;stroke-width:5.33333349;stroke-miterlimit:4;stroke-dasharray:none;stroke-dashoffset:0;stroke-opacity:1"
       id="path4062"
       cx="96.895302"
       cy="211.29243"
       r="10.295536" />
    <circle
       style="fill:#ffffff;fill-opacity:1;stroke:#000000;stroke-width:5.33333349;stroke-miterlimit:4;stroke-dasharray:none;stroke-dashoffset:0;stroke-opacity:1"
       id="path4062-3"
       cx="733.02649"
       cy="211.87645"
       r="10.295536" />
    <path
       style="fill:none;stroke:#000000;stroke-width:5.33333349;stroke-linecap:butt;stroke-linejoin:miter;stroke-miterlimit:4;stroke-dasharray:none;stroke-opacity:1"
       d="m 102.4,465.83205 h 96.14109 l 10.64314,42.66668 21.28632,-85.33334 21.2863,85.33334 21.28632,-85.33334 21.2863,85.33334 21.28632,-85.33334 10.64314,42.66666 H 733.1449"
       id="path4036-0"
       inkscape:connector-curvature="0"
       sodipodi:nodetypes="cccccccccc" />
    <g
       style="font-style:normal;font-variant:normal;font-weight:normal;font-stretch:normal;font-size:40px;line-height:125%;font-family:sans-serif;-inkscape-font-specification:sans-serif;text-align:center;letter-spacing:0px;word-spacing:0px;text-anchor:middle;fill:#000000;fill-opacity:1;stroke:none"
       id="text4038-8">
      <path
         d="m 155.5402,322.79769 h 5.66667 l 13.79167,26.02083 v -26.02083 h 4.08333 v 31.10417 h -5.66667 l -13.79167,-26.02084 v 26.02084 h -4.08333 z"
         style="font-family:sans-serif;-inkscape-font-specification:sans-serif;stroke-width:1.06666672"
         id="path4338"
         inkscape:connector-curvature="0" />
      <path
         d="m 196.33187,333.25602 q -3.08334,0 -4.87501,2.41667 -1.79165,2.39583 -1.79165,6.58333 0,4.1875 1.77082,6.60417 1.79167,2.39583 4.89584,2.39583 3.0625,0 4.85417,-2.41666 1.79167,-2.41667 1.79167,-6.58334 0,-4.14583 -1.79167,-6.56249 -1.79167,-2.43751 -4.85417,-2.43751 z m 0,-3.24999 q 5,0 7.85417,3.24999 2.85416,3.25001 2.85416,9 0,5.72916 -2.85416,9 -2.85417,3.25001 -7.85417,3.25001 -5.02083,0 -7.87501,-3.25001 -2.83333,-3.27084 -2.83333,-9 0,-5.74999 2.83333,-9 2.85418,-3.24999 7.87501,-3.24999 z"
         style="font-family:sans-serif;-inkscape-font-specification:sans-serif;stroke-width:1.06666672"
         id="path4341"
         inkscape:connector-curvature="0" />
      <path
         d="m 213.37354,330.56852 h 3.83333 v 23.33334 h -3.83333 z m 0,-9.08334 h 3.83333 v 4.85418 h -3.83333 z"
         style="font-family:sans-serif;-inkscape-font-specification:sans-serif;stroke-width:1.06666672"
         id="path4343"
         inkscape:connector-curvature="0" />
      <path
         d="m 240.08187,331.25602 v 3.625 q -1.62501,-0.83333 -3.375,-1.25 -1.75001,-0.41666 -3.625,-0.41666 -2.85417,0 -4.29167,0.87499 -1.41666,0.875 -1.41666,2.62501 0,1.33333 1.02083,2.10416 1.02083,0.75 4.10417,1.4375 l 1.3125,0.29167 q 4.08333,0.875 5.79166,2.47917 1.72917,1.58333 1.72917,4.43749 0,3.25001 -2.58334,5.14584 -2.56249,1.89584 -7.06249,1.89584 -1.875,0 -3.91667,-0.37501 -2.02084,-0.35417 -4.27083,-1.08333 v -3.95834 q 2.12499,1.10418 4.1875,1.66667 2.06249,0.54167 4.08333,0.54167 2.70834,0 4.16666,-0.91667 1.45834,-0.9375 1.45834,-2.625 0,-1.56249 -1.0625,-2.39583 -1.04167,-0.83333 -4.60417,-1.60417 l -1.33333,-0.3125 q -3.5625,-0.74999 -5.14584,-2.29167 -1.58332,-1.5625 -1.58332,-4.27083 0,-3.29167 2.33333,-5.08333 2.33333,-1.79166 6.62499,-1.79166 2.125,0 4,0.31249 1.87501,0.3125 3.45834,0.9375 z"
         style="font-family:sans-serif;-inkscape-font-specification:sans-serif;stroke-width:1.06666672"
         id="path4345"
         inkscape:connector-curvature="0" />
      <path
         d="m 267.4152,341.27685 v 1.875 h -17.625 q 0.25,3.95834 2.37501,6.04168 2.14583,2.06249 5.95832,2.06249 2.20834,0 4.27084,-0.54166 2.08334,-0.54167 4.125,-1.62501 v 3.62501 q -2.06251,0.87499 -4.22917,1.33333 -2.16667,0.45834 -4.39583,0.45834 -5.58333,0 -8.85417,-3.25001 -3.25,-3.24999 -3.25,-8.79167 0,-5.72916 3.08334,-9.08333 3.10417,-3.37499 8.35416,-3.37499 4.70833,0 7.43751,3.04166 2.74999,3.02083 2.74999,8.22916 z m -3.83333,-1.125 q -0.0417,-3.14582 -1.77083,-5.02083 -1.70834,-1.875 -4.54167,-1.875 -3.20834,0 -5.14584,1.8125 -1.91666,1.8125 -2.20833,5.10417 l 13.66667,-0.0208 z"
         style="font-family:sans-serif;-inkscape-font-specification:sans-serif;stroke-width:1.06666672"
         id="path4347"
         inkscape:connector-curvature="0" />
      <path
         d="m 273.70687,321.48518 h 3.83333 v 32.41668 h -3.83333 z"
         style="font-family:sans-serif;-inkscape-font-specification:sans-serif;stroke-width:1.06666672"
         id="path4349"
         inkscape:connector-curvature="0" />
      <path
         d="m 305.49854,341.27685 v 1.875 h -17.625 q 0.24999,3.95834 2.37499,6.04168 2.14584,2.06249 5.95834,2.06249 2.20833,0 4.27084,-0.54166 2.08332,-0.54167 4.12499,-1.62501 v 3.62501 q -2.0625,0.87499 -4.22916,1.33333 -2.16667,0.45834 -4.39583,0.45834 -5.58334,0 -8.85418,-3.25001 -3.24999,-3.24999 -3.24999,-8.79167 0,-5.72916 3.08332,-9.08333 3.10417,-3.37499 8.35418,-3.37499 4.70833,0 7.43749,3.04166 2.75001,3.02083 2.75001,8.22916 z m -3.83333,-1.125 q -0.0417,-3.14582 -1.77084,-5.02083 -1.70833,-1.875 -4.54167,-1.875 -3.20833,0 -5.14583,1.8125 -1.91667,1.8125 -2.20833,5.10417 l 13.66667,-0.0208 z"
         style="font-family:sans-serif;-inkscape-font-specification:sans-serif;stroke-width:1.06666672"
         id="path4351"
         inkscape:connector-curvature="0" />
      <path
         d="m 326.66521,331.25602 v 3.625 q -1.62501,-0.83333 -3.37501,-1.25 -1.75,-0.41666 -3.62499,-0.41666 -2.85417,0 -4.29167,0.87499 -1.41668,0.875 -1.41668,2.62501 0,1.33333 1.02085,2.10416 1.02083,0.75 4.10416,1.4375 l 1.3125,0.29167 q 4.08334,0.875 5.79167,2.47917 1.72916,1.58333 1.72916,4.43749 0,3.25001 -2.58333,5.14584 -2.5625,1.89584 -7.0625,1.89584 -1.875,0 -3.91667,-0.37501 -2.02083,-0.35417 -4.27083,-1.08333 v -3.95834 q 2.125,1.10418 4.1875,1.66667 2.0625,0.54167 4.08333,0.54167 2.70833,0 4.16667,-0.91667 1.45834,-0.9375 1.45834,-2.625 0,-1.56249 -1.06251,-2.39583 -1.04166,-0.83333 -4.60416,-1.60417 l -1.33333,-0.3125 q -3.56251,-0.74999 -5.14584,-2.29167 -1.58334,-1.5625 -1.58334,-4.27083 0,-3.29167 2.33334,-5.08333 2.33333,-1.79166 6.625,-1.79166 2.125,0 4,0.31249 1.875,0.3125 3.45834,0.9375 z"
         style="font-family:sans-serif;-inkscape-font-specification:sans-serif;stroke-width:1.06666672"
         id="path4353"
         inkscape:connector-curvature="0" />
      <path
         d="m 348.9152,331.25602 v 3.625 q -1.625,-0.83333 -3.375,-1.25 -1.75,-0.41666 -3.625,-0.41666 -2.85417,0 -4.29167,0.87499 -1.41666,0.875 -1.41666,2.62501 0,1.33333 1.02083,2.10416 1.02083,0.75 4.10417,1.4375 l 1.3125,0.29167 q 4.08333,0.875 5.79166,2.47917 1.72918,1.58333 1.72918,4.43749 0,3.25001 -2.58334,5.14584 -2.5625,1.89584 -7.0625,1.89584 -1.875,0 -3.91667,-0.37501 -2.02083,-0.35417 -4.27083,-1.08333 v -3.95834 q 2.12499,1.10418 4.1875,1.66667 2.0625,0.54167 4.08333,0.54167 2.70834,0 4.16667,-0.91667 1.45833,-0.9375 1.45833,-2.625 0,-1.56249 -1.06249,-2.39583 -1.04168,-0.83333 -4.60418,-1.60417 l -1.33333,-0.3125 q -3.56249,-0.74999 -5.14583,-2.29167 -1.58333,-1.5625 -1.58333,-4.27083 0,-3.29167 2.33333,-5.08333 2.33334,-1.79166 6.62499,-1.79166 2.12501,0 4,0.31249 1.87501,0.3125 3.45834,0.9375 z"
         style="font-family:sans-serif;-inkscape-font-specification:sans-serif;stroke-width:1.06666672"
         id="path4355"
         inkscape:connector-curvature="0" />
      <path
         d="m 189.52978,387.48518 q -0.64583,-0.37499 -1.41666,-0.54166 -0.75001,-0.1875 -1.66667,-0.1875 -3.25,0 -5,2.125 -1.72917,2.10416 -1.72917,6.0625 v 12.29167 h -3.85417 v -23.33333 h 3.85417 v 3.625 q 1.20834,-2.125 3.14583,-3.14584 1.93751,-1.04166 4.70835,-1.04166 0.39583,0 0.87499,0.0625 0.47917,0.0417 1.0625,0.14583 l 0.0208,3.93749 z"
         style="font-family:sans-serif;-inkscape-font-specification:sans-serif;stroke-width:1.06666672"
         id="path4357"
         inkscape:connector-curvature="0" />
      <path
         d="m 212.61312,394.61019 v 1.87499 h -17.625 q 0.25,3.95834 2.37499,6.04168 2.14584,2.06249 5.95834,2.06249 2.20833,0 4.27084,-0.54166 2.08333,-0.54166 4.12499,-1.625 v 3.625 q -2.0625,0.875 -4.22916,1.33333 -2.16667,0.45834 -4.39583,0.45834 -5.58334,0 -8.85417,-3.25001 -3.25,-3.24999 -3.25,-8.79166 0,-5.72917 3.08334,-9.08333 3.10416,-3.375 8.35416,-3.375 4.70833,0 7.43749,3.04166 2.75001,3.02084 2.75001,8.22917 z m -3.83333,-1.12501 q -0.0417,-3.14582 -1.77084,-5.02083 -1.70833,-1.875 -4.54166,-1.875 -3.20834,0 -5.14584,1.81251 -1.91666,1.8125 -2.20833,5.10417 l 13.66667,-0.0208 z"
         style="font-family:sans-serif;-inkscape-font-specification:sans-serif;stroke-width:1.06666672"
         id="path4359"
         inkscape:connector-curvature="0" />
      <path
         d="m 233.77979,384.58935 v 3.62501 q -1.62501,-0.83334 -3.375,-1.25001 -1.75001,-0.41666 -3.625,-0.41666 -2.85417,0 -4.29167,0.875 -1.41666,0.875 -1.41666,2.625 0,1.33333 1.02083,2.10416 1.02083,0.75001 4.10416,1.4375 l 1.3125,0.29167 q 4.08334,0.875 5.79167,2.47917 1.72916,1.58333 1.72916,4.4375 0,3.25 -2.58333,5.14583 -2.5625,1.89584 -7.0625,1.89584 -1.875,0 -3.91666,-0.37501 -2.02084,-0.35416 -4.27084,-1.08333 v -3.95833 q 2.125,1.10417 4.1875,1.66666 2.0625,0.54167 4.08334,0.54167 2.70833,0 4.16666,-0.91666 1.45834,-0.93751 1.45834,-2.62501 0,-1.56249 -1.06251,-2.39582 -1.04166,-0.83334 -4.60416,-1.60418 l -1.33333,-0.3125 q -3.56251,-0.74999 -5.14584,-2.29167 -1.58334,-1.56249 -1.58334,-4.27082 0,-3.29167 2.33334,-5.08334 2.33333,-1.79166 6.625,-1.79166 2.125,0 4,0.31249 1.875,0.3125 3.45834,0.9375 z"
         style="font-family:sans-serif;-inkscape-font-specification:sans-serif;stroke-width:1.06666672"
         id="path4361"
         inkscape:connector-curvature="0" />
      <path
         d="m 241.15478,383.90186 h 3.83334 v 23.33333 h -3.83334 z m 0,-9.08334 h 3.83334 v 4.85417 h -3.83334 z"
         style="font-family:sans-serif;-inkscape-font-specification:sans-serif;stroke-width:1.06666672"
         id="path4363"
         inkscape:connector-curvature="0" />
      <path
         d="m 267.86311,384.58935 v 3.62501 q -1.62499,-0.83334 -3.37499,-1.25001 -1.75,-0.41666 -3.62501,-0.41666 -2.85416,0 -4.29165,0.875 -1.41668,0.875 -1.41668,2.625 0,1.33333 1.02084,2.10416 1.02083,0.75001 4.10417,1.4375 l 1.3125,0.29167 q 4.08333,0.875 5.79166,2.47917 1.72917,1.58333 1.72917,4.4375 0,3.25 -2.58334,5.14583 -2.56249,1.89584 -7.06249,1.89584 -1.875,0 -3.91668,-0.37501 -2.02083,-0.35416 -4.27082,-1.08333 v -3.95833 q 2.125,1.10417 4.1875,1.66666 2.06249,0.54167 4.08332,0.54167 2.70834,0 4.16667,-0.91666 1.45834,-0.93751 1.45834,-2.62501 0,-1.56249 -1.0625,-2.39582 -1.04166,-0.83334 -4.60417,-1.60418 l -1.33333,-0.3125 q -3.5625,-0.74999 -5.14584,-2.29167 -1.58333,-1.56249 -1.58333,-4.27082 0,-3.29167 2.33334,-5.08334 2.33333,-1.79166 6.625,-1.79166 2.12499,0 4,0.31249 1.875,0.3125 3.45832,0.9375 z"
         style="font-family:sans-serif;-inkscape-font-specification:sans-serif;stroke-width:1.06666672"
         id="path4365"
         inkscape:connector-curvature="0" />
      <path
         d="m 279.02978,377.27685 v 6.62501 h 7.89584 v 2.97916 h -7.89584 v 12.66667 q 0,2.85417 0.77084,3.66667 0.79167,0.8125 3.1875,0.8125 h 3.9375 v 3.20833 h -3.9375 q -4.43751,0 -6.12501,-1.64584 -1.68749,-1.66666 -1.68749,-6.04166 v -12.66667 h -2.81251 v -2.97916 h 2.81251 v -6.62501 z"
         style="font-family:sans-serif;-inkscape-font-specification:sans-serif;stroke-width:1.06666672"
         id="path4367"
         inkscape:connector-curvature="0" />
      <path
         d="m 301.02978,386.58935 q -3.08333,0 -4.875,2.41668 -1.79167,2.39583 -1.79167,6.58332 0,4.1875 1.77084,6.60418 1.79167,2.39582 4.89583,2.39582 3.06251,0 4.85417,-2.41666 1.79167,-2.41667 1.79167,-6.58334 0,-4.14583 -1.79167,-6.56249 -1.79166,-2.43751 -4.85417,-2.43751 z m 0,-3.24999 q 5,0 7.85417,3.24999 2.85417,3.25001 2.85417,9 0,5.72917 -2.85417,9 -2.85417,3.25001 -7.85417,3.25001 -5.02083,0 -7.875,-3.25001 -2.83333,-3.27083 -2.83333,-9 0,-5.74999 2.83333,-9 2.85417,-3.24999 7.875,-3.24999 z"
         style="font-family:sans-serif;-inkscape-font-specification:sans-serif;stroke-width:1.06666672"
         id="path4369"
         inkscape:connector-curvature="0" />
      <path
         d="m 331.59229,387.48518 q -0.64584,-0.37499 -1.41667,-0.54166 -0.75,-0.1875 -1.66667,-0.1875 -3.25,0 -5,2.125 -1.72916,2.10416 -1.72916,6.0625 v 12.29167 h -3.85417 v -23.33333 h 3.85417 v 3.625 q 1.20833,-2.125 3.14583,-3.14584 1.93749,-1.04166 4.70833,-1.04166 0.39583,0 0.875,0.0625 0.47917,0.0417 1.06251,0.14583 l 0.0208,3.93749 z"
         style="font-family:sans-serif;-inkscape-font-specification:sans-serif;stroke-width:1.06666672"
         id="path4371"
         inkscape:connector-curvature="0" />
    </g>
    <circle
       style="fill:#ffffff;fill-opacity:1;stroke:#000000;stroke-width:5.33333349;stroke-miterlimit:4;stroke-dasharray:none;stroke-dashoffset:0;stroke-opacity:1"
       id="path4062-4"
       cx="96.895302"
       cy="465.14673"
       r="10.295536" />
    <circle
       style="fill:#ffffff;fill-opacity:1;stroke:#000000;stroke-width:5.33333349;stroke-miterlimit:4;stroke-dasharray:none;stroke-dashoffset:0;stroke-opacity:1"
       id="path4062-3-9"
       cx="733.02649"
       cy="466.86267"
       r="10.295536" />
    <circle
       style="fill:#ffffff;fill-opacity:1;stroke:#000000;stroke-width:5.33333349;stroke-miterlimit:4;stroke-dasharray:none;stroke-dashoffset:0;stroke-opacity:1"
       id="path4112"
       cx="585.59015"
       cy="464.73245"
       r="41.182144" />
    <g
       style="font-style:normal;font-variant:normal;font-weight:normal;font-stretch:normal;font-size:40px;line-height:125%;font-family:sans-serif;-inkscape-font-specification:sans-serif;letter-spacing:0px;word-spacing:0px;fill:#000000;fill-opacity:1;stroke:none"
       id="text4114">
      <path
         d="m 608.64681,459.86032 v 5.79427 q -3.41797,2.57162 -6.34765,3.67838 -2.89714,1.10677 -6.05469,1.10677 -3.58074,0 -8.33333,-1.92057 -0.35808,-0.13021 -0.52084,-0.19531 -0.22787,-0.0977 -0.71615,-0.26041 -5.04557,-2.01823 -8.10547,-2.01823 -2.86457,0 -5.66406,1.26952 -2.79948,1.23698 -5.98958,3.93881 v -5.79428 q 3.41796,-2.57161 6.3151,-3.67837 2.92969,-1.13933 6.08725,-1.13933 3.58072,0 8.36587,1.95313 0.32553,0.13021 0.48829,0.19531 0.26042,0.0976 0.71614,0.26041 5.04558,2.01823 8.10547,2.01823 2.79948,0 5.53386,-1.23698 2.76692,-1.23697 6.11979,-3.97135 z"
         style="font-size:62.5px;font-family:sans-serif;-inkscape-font-specification:sans-serif;stroke-width:1.06666672"
         id="path4464"
         inkscape:connector-curvature="0" />
    </g>
    <g
       style="font-style:normal;font-variant:normal;font-weight:normal;font-stretch:normal;font-size:40px;line-height:125%;font-family:sans-serif;-inkscape-font-specification:sans-serif;text-align:center;letter-spacing:0px;word-spacing:0px;text-anchor:middle;fill:#000000;fill-opacity:1;stroke:none"
       id="text4038-8-0">
      <path
         d="m 441.17063,314.94633 h 5.66667 l 13.79167,26.02083 v -26.02083 h 4.08334 v 31.10416 h -5.66667 l -13.79167,-26.02084 v 26.02084 h -4.08334 z"
         id="path4284"
         inkscape:connector-curvature="0"
         style="stroke-width:1.06666672" />
      <path
         d="m 481.9623,325.40465 q -3.08332,0 -4.87499,2.41667 -1.79167,2.39583 -1.79167,6.58333 0,4.18751 1.77083,6.60417 1.79166,2.39583 4.89583,2.39583 3.0625,0 4.85417,-2.41666 1.79167,-2.41667 1.79167,-6.58334 0,-4.14582 -1.79167,-6.5625 -1.79167,-2.4375 -4.85417,-2.4375 z m 0,-3.24999 q 5,0 7.85417,3.24999 2.85416,3.25001 2.85416,9 0,5.72917 -2.85416,9 -2.85417,3.25001 -7.85417,3.25001 -5.02083,0 -7.87499,-3.25001 -2.83334,-3.27083 -2.83334,-9 0,-5.74999 2.83334,-9 2.85416,-3.24999 7.87499,-3.24999 z"
         id="path4286"
         inkscape:connector-curvature="0"
         style="stroke-width:1.06666672" />
      <path
         d="m 499.00397,322.71715 h 3.83333 v 23.33334 h -3.83333 z m 0,-9.08333 h 3.83333 v 4.85417 h -3.83333 z"
         id="path4288"
         inkscape:connector-curvature="0"
         style="stroke-width:1.06666672" />
      <path
         d="m 525.71231,323.40465 v 3.625 q -1.625,-0.83333 -3.37501,-1.24999 -1.74999,-0.41667 -3.62499,-0.41667 -2.85418,0 -4.29167,0.87499 -1.41667,0.87501 -1.41667,2.62501 0,1.33333 1.02083,2.10417 1.02084,0.74999 4.10417,1.43749 l 1.3125,0.29167 q 4.08333,0.875 5.79167,2.47917 1.72916,1.58334 1.72916,4.4375 0,3.25 -2.58332,5.14584 -2.56251,1.89583 -7.06251,1.89583 -1.875,0 -3.91666,-0.375 -2.02083,-0.35417 -4.27084,-1.08334 v -3.95834 q 2.125,1.10417 4.1875,1.66667 2.06251,0.54168 4.08334,0.54168 2.70833,0 4.16666,-0.91668 1.45833,-0.93749 1.45833,-2.625 0,-1.5625 -1.0625,-2.39583 -1.04166,-0.83333 -4.60417,-1.60417 l -1.33333,-0.31249 q -3.5625,-0.75001 -5.14582,-2.29167 -1.58334,-1.56251 -1.58334,-4.27084 0,-3.29167 2.33333,-5.08332 2.33333,-1.79167 6.625,-1.79167 2.12501,0 4,0.3125 1.875,0.3125 3.45834,0.93749 z"
         id="path4290"
         inkscape:connector-curvature="0"
         style="stroke-width:1.06666672" />
      <path
         d="m 553.04564,333.42549 v 1.875 h -17.625 q 0.24999,3.95834 2.375,6.04166 2.14583,2.0625 5.95833,2.0625 2.20833,0 4.27083,-0.54166 2.08334,-0.54167 4.125,-1.62501 v 3.62501 q -2.06249,0.87499 -4.22916,1.33333 -2.16667,0.45834 -4.39584,0.45834 -5.58333,0 -8.85417,-3.25001 -3.24999,-3.24999 -3.24999,-8.79166 0,-5.72917 3.08333,-9.08334 3.10417,-3.37499 8.35416,-3.37499 4.70834,0 7.43751,3.04166 2.75,3.02083 2.75,8.22917 z m -3.83333,-1.125 q -0.0417,-3.14583 -1.77084,-5.02083 -1.70833,-1.87501 -4.54166,-1.87501 -3.20834,0 -5.14584,1.8125 -1.91667,1.8125 -2.20833,5.10417 l 13.66667,-0.0208 z"
         id="path4292"
         inkscape:connector-curvature="0"
         style="stroke-width:1.06666672" />
      <path
         d="m 570.17063,322.71715 h 4.06251 l 7.29166,19.58334 7.29167,-19.58334 h 4.06251 l -8.75001,23.33334 h -5.20833 z"
         id="path4294"
         inkscape:connector-curvature="0"
         style="stroke-width:1.06666672" />
      <path
         d="m 607.21231,325.40465 q -3.08334,0 -4.87501,2.41667 -1.79166,2.39583 -1.79166,6.58333 0,4.18751 1.77083,6.60417 1.79167,2.39583 4.89584,2.39583 3.0625,0 4.85416,-2.41666 1.79166,-2.41667 1.79166,-6.58334 0,-4.14582 -1.79166,-6.5625 -1.79166,-2.4375 -4.85416,-2.4375 z m 0,-3.24999 q 5,0 7.85416,3.24999 2.85417,3.25001 2.85417,9 0,5.72917 -2.85417,9 -2.85416,3.25001 -7.85416,3.25001 -5.02084,0 -7.87501,-3.25001 -2.83333,-3.27083 -2.83333,-9 0,-5.74999 2.83333,-9 2.85417,-3.24999 7.87501,-3.24999 z"
         id="path4296"
         inkscape:connector-curvature="0"
         style="stroke-width:1.06666672" />
      <path
         d="m 624.25397,313.63382 h 3.83334 v 32.41667 h -3.83334 z"
         id="path4298"
         inkscape:connector-curvature="0"
         style="stroke-width:1.06666672" />
      <path
         d="m 639.87898,316.09216 v 6.62499 h 7.89583 v 2.97917 h -7.89583 v 12.66667 q 0,2.85416 0.77082,3.66666 0.79167,0.8125 3.1875,0.8125 h 3.93751 v 3.20834 h -3.93751 q -4.43749,0 -6.12499,-1.64584 -1.68751,-1.66667 -1.68751,-6.04166 v -12.66667 h -2.81249 v -2.97917 h 2.81249 v -6.62499 z"
         id="path4300"
         inkscape:connector-curvature="0"
         style="stroke-width:1.06666672" />
      <path
         d="m 663.44147,334.32132 q -4.64583,0 -6.4375,1.0625 -1.79166,1.06251 -1.79166,3.625 0,2.04167 1.33333,3.25001 1.35417,1.1875 3.66667,1.1875 3.1875,0 5.10416,-2.25001 1.9375,-2.27083 1.9375,-6.02083 v -0.85417 z m 7.64584,-1.58334 v 13.31251 h -3.83334 v -3.54167 q -1.3125,2.125 -3.27083,3.14584 -1.95834,1 -4.79167,1 -3.58333,0 -5.70833,-2 -2.10416,-2.02084 -2.10416,-5.39583 0,-3.93751 2.62499,-5.93751 2.64583,-2 7.87501,-2 h 5.37499 v -0.37499 q 0,-2.64584 -1.75,-4.08334 -1.72916,-1.45834 -4.875,-1.45834 -2,0 -3.89583,0.47917 -1.89584,0.47917 -3.64583,1.4375 v -3.54166 q 2.10416,-0.8125 4.08332,-1.20834 1.97917,-0.41666 3.85417,-0.41666 5.06251,0 7.56251,2.625 2.5,2.62499 2.5,7.95832 z"
         id="path4302"
         inkscape:connector-curvature="0"
         style="stroke-width:1.06666672" />
      <path
         d="m 694.35813,334.11299 q 0,-4.16666 -1.72916,-6.45833 -1.70833,-2.29167 -4.8125,-2.29167 -3.08333,0 -4.8125,2.29167 -1.70833,2.29167 -1.70833,6.45833 0,4.14584 1.70833,6.4375 1.72917,2.29166 4.8125,2.29166 3.10417,0 4.8125,-2.29166 1.72916,-2.29166 1.72916,-6.4375 z m 3.83334,9.04167 q 0,5.95833 -2.64583,8.85416 -2.64583,2.91667 -8.10417,2.91667 -2.02083,0 -3.8125,-0.3125 -1.79167,-0.29167 -3.47917,-0.91667 v -3.72916 q 1.6875,0.91666 3.33334,1.35416 1.64583,0.43751 3.35416,0.43751 3.77084,0 5.64584,-1.97917 1.87499,-1.95834 1.87499,-5.93751 v -1.89582 q -1.1875,2.06249 -3.04166,3.08332 -1.85417,1.02084 -4.43749,1.02084 -4.29167,0 -6.91668,-3.27083 -2.625,-3.27084 -2.625,-8.66667 0,-5.41667 2.625,-8.6875 2.62501,-3.27083 6.91668,-3.27083 2.58332,0 4.43749,1.02083 1.85416,1.02083 3.04166,3.08334 v -3.54168 h 3.83334 z"
         id="path4304"
         inkscape:connector-curvature="0"
         style="stroke-width:1.06666672" />
      <path
         d="m 726.04564,333.42549 v 1.875 h -17.625 q 0.24999,3.95834 2.375,6.04166 2.14583,2.0625 5.95833,2.0625 2.20833,0 4.27083,-0.54166 2.08334,-0.54167 4.125,-1.62501 v 3.62501 q -2.06249,0.87499 -4.22916,1.33333 -2.16667,0.45834 -4.39584,0.45834 -5.58333,0 -8.85417,-3.25001 -3.24999,-3.24999 -3.24999,-8.79166 0,-5.72917 3.08333,-9.08334 3.10417,-3.37499 8.35416,-3.37499 4.70834,0 7.43751,3.04166 2.75,3.02083 2.75,8.22917 z m -3.83333,-1.125 q -0.0417,-3.14583 -1.77084,-5.02083 -1.70833,-1.87501 -4.54166,-1.87501 -3.20834,0 -5.14584,1.8125 -1.91667,1.8125 -2.20833,5.10417 l 13.66667,-0.0208 z"
         id="path4306"
         inkscape:connector-curvature="0"
         style="stroke-width:1.06666672" />
      <path
         d="m 414.34772,399.38382 -11.87499,-31.10416 h 4.39582 l 9.85417,26.1875 9.875,-26.1875 h 4.37501 l -11.85417,31.10416 z"
         id="path4308"
         inkscape:connector-curvature="0"
         style="stroke-width:1.06666672" />
      <path
         d="m 442.70814,395.07966 q -0.4198,-0.24376 -0.92083,-0.35209 -0.4875,-0.12187 -1.08334,-0.12187 -2.1125,0 -3.25,1.38124 -1.12395,1.36772 -1.12395,3.94063 v 7.98958 h -2.50522 v -15.16666 h 2.50522 v 2.35625 q 0.78541,-1.38125 2.04479,-2.0448 1.25937,-0.67708 3.06041,-0.67708 0.25729,0 0.56875,0.0406 0.31146,0.0271 0.69062,0.0948 l 0.0136,2.55938 z"
         style="font-style:normal;font-variant:normal;font-weight:normal;font-stretch:normal;font-size:64.99999762%;font-family:sans-serif;-inkscape-font-specification:sans-serif;text-align:center;baseline-shift:sub;text-anchor:middle;stroke-width:1.06666672"
         id="path4310"
         inkscape:connector-curvature="0" />
      <path
         d="m 456.6696,395.66194 q 0.93437,-1.67916 2.23437,-2.47812 1.3,-0.79896 3.06041,-0.79896 2.3698,0 3.65626,1.66563 1.28645,1.65208 1.28645,4.7125 v 9.15416 h -2.5052 v -9.07292 q 0,-2.1802 -0.77187,-3.23645 -0.77189,-1.05625 -2.35626,-1.05625 -1.93646,0 -3.06042,1.28645 -1.12395,1.28647 -1.12395,3.5073 v 8.57187 h -2.50521 v -9.07292 q 0,-2.19374 -0.77187,-3.23645 -0.77188,-1.05625 -2.38334,-1.05625 -1.90938,0 -3.03333,1.3 -1.12396,1.28645 -1.12396,3.49375 v 8.57187 h -2.50521 v -15.16666 h 2.50521 v 2.35625 q 0.85312,-1.39479 2.04479,-2.05833 1.19167,-0.66355 2.83021,-0.66355 1.65208,0 2.80312,0.83959 1.16459,0.83958 1.7198,2.43749 z"
         style="font-style:normal;font-variant:normal;font-weight:normal;font-stretch:normal;font-size:64.99999762%;font-family:sans-serif;-inkscape-font-specification:sans-serif;text-align:center;baseline-shift:sub;text-anchor:middle;stroke-width:1.06666672"
         id="path4312"
         inkscape:connector-curvature="0" />
      <path
         d="m 481.55918,393.19737 v 2.35624 q -1.05625,-0.54166 -2.19375,-0.8125 -1.1375,-0.27083 -2.35625,-0.27083 -1.85521,0 -2.78959,0.56875 -0.92083,0.56875 -0.92083,1.70625 0,0.86667 0.66354,1.36771 0.66355,0.4875 2.66772,0.93437 l 0.85312,0.18959 q 2.65416,0.56875 3.76458,1.61146 1.12396,1.02916 1.12396,2.88437 0,2.1125 -1.67917,3.34479 -1.66562,1.2323 -4.59062,1.2323 -1.21875,0 -2.54584,-0.24376 -1.31353,-0.23021 -2.77604,-0.70417 v -2.57291 q 1.38125,0.71771 2.72188,1.08333 1.34063,0.35209 2.65416,0.35209 1.76042,0 2.70833,-0.59584 0.94793,-0.60937 0.94793,-1.70624 0,-1.01563 -0.69064,-1.5573 -0.67707,-0.54167 -2.9927,-1.0427 l -0.86667,-0.20313 q -2.31562,-0.48751 -3.34479,-1.48959 -1.02917,-1.01562 -1.02917,-2.77604 0,-2.13958 1.51667,-3.30416 1.51666,-1.16459 4.30625,-1.16459 1.38125,0 2.6,0.20313 1.21876,0.20312 2.24792,0.60938 z"
         style="font-style:normal;font-variant:normal;font-weight:normal;font-stretch:normal;font-size:64.99999762%;font-family:sans-serif;-inkscape-font-specification:sans-serif;text-align:center;baseline-shift:sub;text-anchor:middle;stroke-width:1.06666672"
         id="path4314"
         inkscape:connector-curvature="0" />
      <path
         d="m 489.06126,380.01507 h 9.54688 v 2.30208 h -12.83751 v -2.30208 q 1.5573,-1.61145 4.23855,-4.3198 2.69479,-2.72186 3.38541,-3.50728 1.31355,-1.47604 1.82813,-2.49167 0.52813,-1.02916 0.52813,-2.01771 0,-1.61145 -1.13751,-2.62708 -1.12395,-1.01563 -2.93853,-1.01563 -1.28647,0 -2.72188,0.44688 -1.42188,0.44687 -3.04687,1.35417 v -2.76251 q 1.65207,-0.66354 3.0875,-1.00208 1.43541,-0.33854 2.62708,-0.33854 3.14166,0 5.01041,1.57083 1.86876,1.57084 1.86876,4.19792 0,1.24584 -0.47396,2.36979 -0.46042,1.11042 -1.69271,2.62709 -0.33855,0.39271 -2.15313,2.27499 -1.81458,1.86876 -5.11875,5.24063 z"
         style="font-style:normal;font-variant:normal;font-weight:normal;font-stretch:normal;font-size:64.99999762%;font-family:sans-serif;-inkscape-font-specification:sans-serif;text-align:center;baseline-shift:super;text-anchor:middle;stroke-width:1.06666672"
         id="path4316"
         inkscape:connector-curvature="0" />
      <path
         d="m 525.81439,368.27966 h 3.54166 l -10.83333,35.06249 h -3.54166 z"
         id="path4318"
         inkscape:connector-curvature="0"
         style="stroke-width:1.06666672" />
      <path
         d="m 557.56438,372.42549 -8.54166,23.45833 h 17.10417 z m -14.24999,26.95833 11.875,-31.10416 h 4.77083 l 11.85417,31.10416 z"
         id="path4320"
         inkscape:connector-curvature="0"
         style="stroke-width:1.06666672" />
      <path
         d="m 587.98106,366.96716 v 3.1875 h -3.66667 q -2.0625,0 -2.875,0.83333 -0.79167,0.83333 -0.79167,3 v 2.0625 h 6.3125 v 2.97916 h -6.3125 v 20.35417 h -3.85416 v -20.35417 h -3.66667 v -2.97916 h 3.66667 v -1.625 q 0,-3.89584 1.8125,-5.66666 1.8125,-1.79167 5.74999,-1.79167 z"
         id="path4323"
         inkscape:connector-curvature="0"
         style="stroke-width:1.06666672" />
      <path
         d="m 591.66855,380.00882 h 26.70834 v 3.5 h -26.70834 z m 0,8.5 h 26.70834 v 3.54167 h -26.70834 z"
         id="path4325"
         inkscape:connector-curvature="0"
         style="stroke-width:1.06666672" />
      <path
         d="m 652.60606,371.94633 -10.625,16.60416 h 10.625 z m -1.10417,-3.66667 h 5.29167 v 20.27083 h 4.43749 v 3.5 h -4.43749 v 7.33333 h -4.1875 v -7.33333 h -14.04168 v -4.0625 z"
         id="path4327"
         inkscape:connector-curvature="0"
         style="stroke-width:1.06666672" />
      <path
         d="m 667.52272,366.96716 h 3.85417 v 19.14583 l 11.4375,-10.0625 h 4.89583 l -12.375,10.91667 12.89583,12.41666 h -5 l -11.85416,-11.39583 v 11.39583 h -3.85417 z"
         id="path4329"
         inkscape:connector-curvature="0"
         style="stroke-width:1.06666672" />
      <path
         d="m 693.85501,398.26194 v 7.4073 h 4.38751 q 2.20728,0 3.26354,-0.9073 1.06979,-0.92083 1.06979,-2.80311 0,-1.89584 -1.06979,-2.78959 -1.05626,-0.9073 -3.26354,-0.9073 z m 0,-8.31458 v 6.09375 h 4.04896 q 2.00417,0 2.97917,-0.74479 0.98854,-0.75834 0.98854,-2.30208 0,-1.53021 -0.98854,-2.28854 -0.975,-0.75834 -2.97917,-0.75834 z m -2.73542,-2.24791 h 6.9875 q 3.12813,0 4.82084,1.3 1.69271,1.3 1.69271,3.69687 0,1.85521 -0.86667,2.95209 -0.86666,1.09687 -2.54583,1.36771 2.01771,0.43333 3.12813,1.81458 1.12395,1.3677 1.12395,3.42604 0,2.70833 -1.84166,4.18437 -1.84167,1.47604 -5.24063,1.47604 h -7.25834 z"
         style="font-style:normal;font-variant:normal;font-weight:normal;font-stretch:normal;font-size:64.99999762%;font-family:sans-serif;-inkscape-font-specification:sans-serif;text-align:center;baseline-shift:sub;text-anchor:middle;stroke-width:1.06666672"
         id="path4331"
         inkscape:connector-curvature="0" />
      <path
         d="m 707.28523,368.27966 h 26.31249 v 3.54166 h -11.04167 v 27.5625 h -4.22916 v -27.5625 h -11.04166 z"
         id="path4333"
         inkscape:connector-curvature="0"
         style="stroke-width:1.06666672" />
      <path
         d="m 752.43105,384.80049 q 1.35418,0.45834 2.625,1.95834 1.29167,1.5 2.58334,4.12499 l 4.27083,8.5 h -4.52083 l -3.97917,-7.97917 q -1.54167,-3.12499 -3,-4.14582 -1.43749,-1.02085 -3.93749,-1.02085 h -4.58334 v 13.14584 h -4.20833 v -31.10416 h 9.5 q 5.33333,0 7.95833,2.22916 2.62499,2.22916 2.62499,6.72916 0,2.93751 -1.37499,4.87501 -1.35417,1.9375 -3.95834,2.6875 z m -10.54166,-13.06251 v 11.04168 h 5.29167 q 3.04166,0 4.58332,-1.39584 1.56251,-1.41666 1.56251,-4.14584 0,-2.72916 -1.56251,-4.10416 -1.54166,-1.39584 -4.58332,-1.39584 z"
         id="path4335"
         inkscape:connector-curvature="0"
         style="stroke-width:1.06666672" />
    </g>
    <g
       style="font-style:normal;font-weight:normal;font-size:40px;line-height:125%;font-family:Sans;letter-spacing:0px;word-spacing:0px;fill:#000000;fill-opacity:1;stroke:none"
       id="text4159">
      <path
         d="M 69.735665,128.58992 H 62.00129 q -3.984375,-6.4323 -5.885417,-12.21355 -1.901041,-5.80728 -1.901041,-11.51041 0,-5.703126 1.901041,-11.536459 1.927084,-5.859376 5.885417,-12.239584 h 7.734375 q -3.333333,6.171875 -5,12.083333 -1.666667,5.885417 -1.666667,11.64063 0,5.75521 1.640625,11.66666 1.666667,5.91146 5.026042,12.10938 z"
         style="font-variant:normal;font-weight:bold;font-stretch:normal;font-size:50px;font-family:sans-serif;-inkscape-font-specification:'sans-serif Bold';stroke-width:1.06666672"
         id="path4232"
         inkscape:connector-curvature="0" />
      <path
         d="M 102.49608,114.47534 H 86.818998 l -2.473958,7.08333 H 74.266915 L 88.667956,82.678459 h 11.953124 l 14.40104,38.880211 H 104.944 Z M 89.318998,107.26179 H 99.970039 L 94.65754,91.793042 Z"
         style="font-variant:normal;font-weight:bold;font-stretch:normal;font-size:50px;font-family:sans-serif;-inkscape-font-specification:'sans-serif Bold';stroke-width:1.06666672"
         id="path4234"
         inkscape:connector-curvature="0" />
      <path
         d="m 119.52733,128.58992 q 3.33333,-6.19792 5,-12.10938 1.66666,-5.91145 1.66666,-11.66666 0,-5.755213 -1.66666,-11.64063 -1.66667,-5.911458 -5,-12.083333 h 7.73438 q 3.95833,6.380208 5.85937,12.239584 1.92708,5.833333 1.92708,11.536459 0,5.70313 -1.90103,11.51041 -1.90105,5.78125 -5.88542,12.21355 z"
         style="font-variant:normal;font-weight:bold;font-stretch:normal;font-size:50px;font-family:sans-serif;-inkscape-font-specification:'sans-serif Bold';stroke-width:1.06666672"
         id="path4236"
         inkscape:connector-curvature="0" />
    </g>
    <g
       style="font-style:normal;font-weight:normal;font-size:40px;line-height:125%;font-family:Sans;letter-spacing:0px;word-spacing:0px;fill:#000000;fill-opacity:1;stroke:none"
       id="text4159-8">
      <path
         d="M 70.048165,332.70706 H 62.31379 q -3.984376,-6.43229 -5.885417,-12.21353 -1.901042,-5.8073 -1.901042,-11.51043 0,-5.70312 1.901042,-11.53645 1.927084,-5.85938 5.885417,-12.23959 h 7.734375 q -3.333333,6.17188 -5,12.08334 -1.666666,5.88542 -1.666666,11.64062 0,5.75521 1.640625,11.66667 1.666666,5.91146 5.026041,12.10937 z"
         style="font-variant:normal;font-weight:bold;font-stretch:normal;font-size:50px;font-family:sans-serif;-inkscape-font-specification:'sans-serif Bold';stroke-width:1.06666672"
         id="path4225"
         inkscape:connector-curvature="0" />
      <path
         d="m 94.787748,301.84769 q 2.369792,0 3.593751,-1.04166 1.223958,-1.04168 1.223958,-3.07292 0,-2.00522 -1.223958,-3.04688 -1.223959,-1.06771 -3.593751,-1.06771 h -5.546874 v 8.22917 z m 0.338542,17.00521 q 3.020833,0 4.53125,-1.27605 1.53646,-1.27604 1.53646,-3.85416 0,-2.52604 -1.510418,-3.77604 -1.510417,-1.27605 -4.557292,-1.27605 h -5.885416 v 10.1823 z m 9.32292,-13.98438 q 3.22916,0.93751 5,3.46354 1.77083,2.52604 1.77083,6.19792 0,5.625 -3.80209,8.38541 -3.80208,2.76043 -11.562493,2.76043 H 79.214832 v -38.88021 h 15.052083 q 8.098955,0 11.718755,2.44791 3.64583,2.44791 3.64583,7.83854 0,2.83855 -1.32813,4.84375 -1.32812,1.97917 -3.85416,2.94271 z"
         style="font-variant:normal;font-weight:bold;font-stretch:normal;font-size:50px;font-family:sans-serif;-inkscape-font-specification:'sans-serif Bold';stroke-width:1.06666672"
         id="path4227"
         inkscape:connector-curvature="0" />
      <path
         d="m 119.21483,332.70706 q 3.33333,-6.19791 5,-12.10937 1.66666,-5.91146 1.66666,-11.66667 0,-5.7552 -1.66666,-11.64062 -1.66667,-5.91146 -5,-12.08334 h 7.73438 q 3.95833,6.38021 5.85938,12.23959 1.92708,5.83333 1.92708,11.53645 0,5.70313 -1.90105,11.51043 -1.90104,5.78124 -5.88541,12.21353 z"
         style="font-variant:normal;font-weight:bold;font-stretch:normal;font-size:50px;font-family:sans-serif;-inkscape-font-specification:'sans-serif Bold';stroke-width:1.06666672"
         id="path4229"
         inkscape:connector-curvature="0" />
    </g>
    <path
       style="fill:none;stroke:#000000;stroke-width:8.53333378;stroke-linecap:butt;stroke-linejoin:miter;stroke-miterlimit:4;stroke-dasharray:none;stroke-opacity:1"
       d="M 44.613991,271.55139 H 766.15951"
       id="path4184"
       inkscape:connector-curvature="0" />
  </g>
</svg>
