<?xml version="1.0" encoding="utf-8" standalone="no"?>
<!DOCTYPE svg PUBLIC "-//W3C//DTD SVG 1.1//EN"
  "http://www.w3.org/Graphics/SVG/1.1/DTD/svg11.dtd">
<!-- Created with matplotlib (http://matplotlib.org/) -->
<svg height="288pt" version="1.1" viewBox="0 0 432 288" width="432pt" xmlns="http://www.w3.org/2000/svg" xmlns:xlink="http://www.w3.org/1999/xlink">
 <defs>
  <style type="text/css">
*{stroke-linecap:butt;stroke-linejoin:round;}
  </style>
 </defs>
 <g id="figure_1">
  <g id="patch_1">
   <path d="M 0 288 
L 432 288 
L 432 0 
L 0 0 
z
" style="fill:#ffffff;"/>
  </g>
  <g id="axes_1">
   <g id="patch_2">
    <path d="M 54 252 
L 388.8 252 
L 388.8 34.56 
L 54 34.56 
z
" style="fill:#ffffff;"/>
   </g>
   <g id="PolyCollection_1">
    <defs>
     <path d="M 69.218182 -243.556364 
L 69.218182 -48.398389 
L 70.411765 -48.418235 
L 71.605348 -48.438397 
L 72.79893 -48.458881 
L 73.992513 -48.479697 
L 75.186096 -48.500851 
L 76.379679 -48.522353 
L 77.573262 -48.54421 
L 78.766845 -48.566432 
L 79.960428 -48.589029 
L 81.154011 -48.612008 
L 82.347594 -48.635382 
L 83.541176 -48.659158 
L 84.734759 -48.683349 
L 85.928342 -48.707964 
L 87.121925 -48.733016 
L 88.315508 -48.758516 
L 89.509091 -48.784475 
L 90.702674 -48.810908 
L 91.896257 -48.837826 
L 93.08984 -48.865242 
L 94.283422 -48.893172 
L 95.477005 -48.92163 
L 96.670588 -48.95063 
L 97.864171 -48.980188 
L 99.057754 -49.010321 
L 100.251337 -49.041046 
L 101.44492 -49.072379 
L 102.638503 -49.10434 
L 103.832086 -49.136947 
L 105.025668 -49.17022 
L 106.219251 -49.20418 
L 107.412834 -49.238847 
L 108.606417 -49.274246 
L 109.8 -49.310397 
L 110.993583 -49.347327 
L 112.187166 -49.38506 
L 113.380749 -49.423624 
L 114.574332 -49.463044 
L 115.767914 -49.503351 
L 116.961497 -49.544574 
L 118.15508 -49.586745 
L 119.348663 -49.629898 
L 120.542246 -49.674066 
L 121.735829 -49.719286 
L 122.929412 -49.765595 
L 124.122995 -49.813035 
L 125.316578 -49.861645 
L 126.51016 -49.911471 
L 127.703743 -49.962558 
L 128.897326 -50.014955 
L 130.090909 -50.068712 
L 131.284492 -50.123883 
L 132.478075 -50.180525 
L 133.671658 -50.238697 
L 134.865241 -50.298461 
L 136.058824 -50.359884 
L 137.252406 -50.423036 
L 138.445989 -50.48799 
L 139.639572 -50.554824 
L 140.833155 -50.623622 
L 142.026738 -50.694469 
L 143.220321 -50.767461 
L 144.413904 -50.842694 
L 145.607487 -50.920273 
L 146.80107 -51.000309 
L 147.994652 -51.082921 
L 149.188235 -51.168235 
L 150.381818 -51.256384 
L 151.575401 -51.347512 
L 152.768984 -51.441772 
L 153.962567 -51.539328 
L 155.15615 -51.640353 
L 156.349733 -51.745038 
L 157.543316 -51.853581 
L 158.736898 -51.966201 
L 159.930481 -52.083129 
L 161.124064 -52.204617 
L 162.317647 -52.330936 
L 163.51123 -52.462376 
L 164.704813 -52.599255 
L 165.898396 -52.741914 
L 167.091979 -52.890726 
L 168.285561 -53.046095 
L 169.479144 -53.20846 
L 170.672727 -53.378302 
L 171.86631 -53.556144 
L 173.059893 -53.742561 
L 174.253476 -53.938183 
L 175.447059 -54.143702 
L 176.640642 -54.359883 
L 177.834225 -54.587567 
L 179.027807 -54.827688 
L 180.22139 -55.081282 
L 181.414973 -55.349501 
L 182.608556 -55.633632 
L 183.802139 -55.935113 
L 184.995722 -56.255562 
L 186.189305 -56.596795 
L 187.382888 -56.960871 
L 188.576471 -57.350118 
L 189.770053 -57.767189 
L 190.963636 -58.215114 
L 192.157219 -58.69737 
L 193.350802 -59.217959 
L 194.544385 -59.781517 
L 195.737968 -60.393432 
L 196.931551 -61.059999 
L 198.125134 -61.788615 
L 199.318717 -62.588014 
L 200.512299 -63.468567 
L 201.705882 -64.442662 
L 202.899465 -65.525182 
L 204.093048 -66.734103 
L 205.286631 -68.091264 
L 206.480214 -69.623324 
L 207.673797 -71.362948 
L 208.86738 -73.350246 
L 210.060963 -75.634428 
L 211.254545 -78.275517 
L 212.448128 -81.345716 
L 213.641711 -84.929489 
L 214.835294 -89.120529 
L 216.028877 -94.012471 
L 217.22246 -99.67904 
L 218.416043 -106.14046 
L 219.609626 -113.320329 
L 220.803209 -121.012797 
L 221.996791 -128.892657 
L 223.190374 -136.585126 
L 224.383957 -143.764994 
L 225.57754 -150.226415 
L 226.771123 -155.892983 
L 227.964706 -160.784925 
L 229.158289 -164.975966 
L 230.351872 -168.559738 
L 231.545455 -171.629937 
L 232.739037 -174.271027 
L 233.93262 -176.555209 
L 235.126203 -178.542507 
L 236.319786 -180.282131 
L 237.513369 -181.81419 
L 238.706952 -183.171352 
L 239.900535 -184.380273 
L 241.094118 -185.462792 
L 242.287701 -186.436888 
L 243.481283 -187.317441 
L 244.674866 -188.116839 
L 245.868449 -188.845455 
L 247.062032 -189.512023 
L 248.255615 -190.123937 
L 249.449198 -190.687495 
L 250.642781 -191.208085 
L 251.836364 -191.69034 
L 253.029947 -192.138266 
L 254.223529 -192.555337 
L 255.417112 -192.944584 
L 256.610695 -193.308659 
L 257.804278 -193.649893 
L 258.997861 -193.970341 
L 260.191444 -194.271823 
L 261.385027 -194.555953 
L 262.57861 -194.824173 
L 263.772193 -195.077767 
L 264.965775 -195.317888 
L 266.159358 -195.545572 
L 267.352941 -195.761752 
L 268.546524 -195.967272 
L 269.740107 -196.162894 
L 270.93369 -196.349311 
L 272.127273 -196.527153 
L 273.320856 -196.696994 
L 274.514439 -196.859359 
L 275.708021 -197.014728 
L 276.901604 -197.16354 
L 278.095187 -197.3062 
L 279.28877 -197.443079 
L 280.482353 -197.574519 
L 281.675936 -197.700837 
L 282.869519 -197.822325 
L 284.063102 -197.939254 
L 285.256684 -198.051873 
L 286.450267 -198.160417 
L 287.64385 -198.265101 
L 288.837433 -198.366127 
L 290.031016 -198.463682 
L 291.224599 -198.557942 
L 292.418182 -198.64907 
L 293.611765 -198.73722 
L 294.805348 -198.822533 
L 295.99893 -198.905145 
L 297.192513 -198.985182 
L 298.386096 -199.062761 
L 299.579679 -199.137994 
L 300.773262 -199.210985 
L 301.966845 -199.281833 
L 303.160428 -199.35063 
L 304.354011 -199.417465 
L 305.547594 -199.482419 
L 306.741176 -199.54557 
L 307.934759 -199.606993 
L 309.128342 -199.666758 
L 310.321925 -199.724929 
L 311.515508 -199.781571 
L 312.709091 -199.836742 
L 313.902674 -199.8905 
L 315.096257 -199.942896 
L 316.28984 -199.993983 
L 317.483422 -200.043809 
L 318.677005 -200.09242 
L 319.870588 -200.139859 
L 321.064171 -200.186169 
L 322.257754 -200.231389 
L 323.451337 -200.275557 
L 324.64492 -200.318709 
L 325.838503 -200.360881 
L 327.032086 -200.402104 
L 328.225668 -200.442411 
L 329.419251 -200.481831 
L 330.612834 -200.520394 
L 331.806417 -200.558127 
L 333 -200.595057 
L 334.193583 -200.631209 
L 335.387166 -200.666607 
L 336.580749 -200.701275 
L 337.774332 -200.735235 
L 338.967914 -200.768508 
L 340.161497 -200.801114 
L 341.35508 -200.833075 
L 342.548663 -200.864409 
L 343.742246 -200.895133 
L 344.935829 -200.925266 
L 346.129412 -200.954825 
L 347.322995 -200.983825 
L 348.516578 -201.012282 
L 349.71016 -201.040212 
L 350.903743 -201.067629 
L 352.097326 -201.094547 
L 353.290909 -201.120979 
L 354.484492 -201.146939 
L 355.678075 -201.172438 
L 356.871658 -201.19749 
L 358.065241 -201.222106 
L 359.258824 -201.246296 
L 360.452406 -201.270073 
L 361.645989 -201.293446 
L 362.839572 -201.316426 
L 364.033155 -201.339022 
L 365.226738 -201.361244 
L 366.420321 -201.383102 
L 367.613904 -201.404603 
L 368.807487 -201.425758 
L 370.00107 -201.446573 
L 371.194652 -201.467058 
L 372.388235 -201.487219 
L 373.581818 -201.507065 
L 373.581818 -243.556364 
L 373.581818 -243.556364 
L 372.388235 -243.556364 
L 371.194652 -243.556364 
L 370.00107 -243.556364 
L 368.807487 -243.556364 
L 367.613904 -243.556364 
L 366.420321 -243.556364 
L 365.226738 -243.556364 
L 364.033155 -243.556364 
L 362.839572 -243.556364 
L 361.645989 -243.556364 
L 360.452406 -243.556364 
L 359.258824 -243.556364 
L 358.065241 -243.556364 
L 356.871658 -243.556364 
L 355.678075 -243.556364 
L 354.484492 -243.556364 
L 353.290909 -243.556364 
L 352.097326 -243.556364 
L 350.903743 -243.556364 
L 349.71016 -243.556364 
L 348.516578 -243.556364 
L 347.322995 -243.556364 
L 346.129412 -243.556364 
L 344.935829 -243.556364 
L 343.742246 -243.556364 
L 342.548663 -243.556364 
L 341.35508 -243.556364 
L 340.161497 -243.556364 
L 338.967914 -243.556364 
L 337.774332 -243.556364 
L 336.580749 -243.556364 
L 335.387166 -243.556364 
L 334.193583 -243.556364 
L 333 -243.556364 
L 331.806417 -243.556364 
L 330.612834 -243.556364 
L 329.419251 -243.556364 
L 328.225668 -243.556364 
L 327.032086 -243.556364 
L 325.838503 -243.556364 
L 324.64492 -243.556364 
L 323.451337 -243.556364 
L 322.257754 -243.556364 
L 321.064171 -243.556364 
L 319.870588 -243.556364 
L 318.677005 -243.556364 
L 317.483422 -243.556364 
L 316.28984 -243.556364 
L 315.096257 -243.556364 
L 313.902674 -243.556364 
L 312.709091 -243.556364 
L 311.515508 -243.556364 
L 310.321925 -243.556364 
L 309.128342 -243.556364 
L 307.934759 -243.556364 
L 306.741176 -243.556364 
L 305.547594 -243.556364 
L 304.354011 -243.556364 
L 303.160428 -243.556364 
L 301.966845 -243.556364 
L 300.773262 -243.556364 
L 299.579679 -243.556364 
L 298.386096 -243.556364 
L 297.192513 -243.556364 
L 295.99893 -243.556364 
L 294.805348 -243.556364 
L 293.611765 -243.556364 
L 292.418182 -243.556364 
L 291.224599 -243.556364 
L 290.031016 -243.556364 
L 288.837433 -243.556364 
L 287.64385 -243.556364 
L 286.450267 -243.556364 
L 285.256684 -243.556364 
L 284.063102 -243.556364 
L 282.869519 -243.556364 
L 281.675936 -243.556364 
L 280.482353 -243.556364 
L 279.28877 -243.556364 
L 278.095187 -243.556364 
L 276.901604 -243.556364 
L 275.708021 -243.556364 
L 274.514439 -243.556364 
L 273.320856 -243.556364 
L 272.127273 -243.556364 
L 270.93369 -243.556364 
L 269.740107 -243.556364 
L 268.546524 -243.556364 
L 267.352941 -243.556364 
L 266.159358 -243.556364 
L 264.965775 -243.556364 
L 263.772193 -243.556364 
L 262.57861 -243.556364 
L 261.385027 -243.556364 
L 260.191444 -243.556364 
L 258.997861 -243.556364 
L 257.804278 -243.556364 
L 256.610695 -243.556364 
L 255.417112 -243.556364 
L 254.223529 -243.556364 
L 253.029947 -243.556364 
L 251.836364 -243.556364 
L 250.642781 -243.556364 
L 249.449198 -243.556364 
L 248.255615 -243.556364 
L 247.062032 -243.556364 
L 245.868449 -243.556364 
L 244.674866 -243.556364 
L 243.481283 -243.556364 
L 242.287701 -243.556364 
L 241.094118 -243.556364 
L 239.900535 -243.556364 
L 238.706952 -243.556364 
L 237.513369 -243.556364 
L 236.319786 -243.556364 
L 235.126203 -243.556364 
L 233.93262 -243.556364 
L 232.739037 -243.556364 
L 231.545455 -243.556364 
L 230.351872 -243.556364 
L 229.158289 -243.556364 
L 227.964706 -243.556364 
L 226.771123 -243.556364 
L 225.57754 -243.556364 
L 224.383957 -243.556364 
L 223.190374 -243.556364 
L 221.996791 -243.556364 
L 220.803209 -243.556364 
L 219.609626 -243.556364 
L 218.416043 -243.556364 
L 217.22246 -243.556364 
L 216.028877 -243.556364 
L 214.835294 -243.556364 
L 213.641711 -243.556364 
L 212.448128 -243.556364 
L 211.254545 -243.556364 
L 210.060963 -243.556364 
L 208.86738 -243.556364 
L 207.673797 -243.556364 
L 206.480214 -243.556364 
L 205.286631 -243.556364 
L 204.093048 -243.556364 
L 202.899465 -243.556364 
L 201.705882 -243.556364 
L 200.512299 -243.556364 
L 199.318717 -243.556364 
L 198.125134 -243.556364 
L 196.931551 -243.556364 
L 195.737968 -243.556364 
L 194.544385 -243.556364 
L 193.350802 -243.556364 
L 192.157219 -243.556364 
L 190.963636 -243.556364 
L 189.770053 -243.556364 
L 188.576471 -243.556364 
L 187.382888 -243.556364 
L 186.189305 -243.556364 
L 184.995722 -243.556364 
L 183.802139 -243.556364 
L 182.608556 -243.556364 
L 181.414973 -243.556364 
L 180.22139 -243.556364 
L 179.027807 -243.556364 
L 177.834225 -243.556364 
L 176.640642 -243.556364 
L 175.447059 -243.556364 
L 174.253476 -243.556364 
L 173.059893 -243.556364 
L 171.86631 -243.556364 
L 170.672727 -243.556364 
L 169.479144 -243.556364 
L 168.285561 -243.556364 
L 167.091979 -243.556364 
L 165.898396 -243.556364 
L 164.704813 -243.556364 
L 163.51123 -243.556364 
L 162.317647 -243.556364 
L 161.124064 -243.556364 
L 159.930481 -243.556364 
L 158.736898 -243.556364 
L 157.543316 -243.556364 
L 156.349733 -243.556364 
L 155.15615 -243.556364 
L 153.962567 -243.556364 
L 152.768984 -243.556364 
L 151.575401 -243.556364 
L 150.381818 -243.556364 
L 149.188235 -243.556364 
L 147.994652 -243.556364 
L 146.80107 -243.556364 
L 145.607487 -243.556364 
L 144.413904 -243.556364 
L 143.220321 -243.556364 
L 142.026738 -243.556364 
L 140.833155 -243.556364 
L 139.639572 -243.556364 
L 138.445989 -243.556364 
L 137.252406 -243.556364 
L 136.058824 -243.556364 
L 134.865241 -243.556364 
L 133.671658 -243.556364 
L 132.478075 -243.556364 
L 131.284492 -243.556364 
L 130.090909 -243.556364 
L 128.897326 -243.556364 
L 127.703743 -243.556364 
L 126.51016 -243.556364 
L 125.316578 -243.556364 
L 124.122995 -243.556364 
L 122.929412 -243.556364 
L 121.735829 -243.556364 
L 120.542246 -243.556364 
L 119.348663 -243.556364 
L 118.15508 -243.556364 
L 116.961497 -243.556364 
L 115.767914 -243.556364 
L 114.574332 -243.556364 
L 113.380749 -243.556364 
L 112.187166 -243.556364 
L 110.993583 -243.556364 
L 109.8 -243.556364 
L 108.606417 -243.556364 
L 107.412834 -243.556364 
L 106.219251 -243.556364 
L 105.025668 -243.556364 
L 103.832086 -243.556364 
L 102.638503 -243.556364 
L 101.44492 -243.556364 
L 100.251337 -243.556364 
L 99.057754 -243.556364 
L 97.864171 -243.556364 
L 96.670588 -243.556364 
L 95.477005 -243.556364 
L 94.283422 -243.556364 
L 93.08984 -243.556364 
L 91.896257 -243.556364 
L 90.702674 -243.556364 
L 89.509091 -243.556364 
L 88.315508 -243.556364 
L 87.121925 -243.556364 
L 85.928342 -243.556364 
L 84.734759 -243.556364 
L 83.541176 -243.556364 
L 82.347594 -243.556364 
L 81.154011 -243.556364 
L 79.960428 -243.556364 
L 78.766845 -243.556364 
L 77.573262 -243.556364 
L 76.379679 -243.556364 
L 75.186096 -243.556364 
L 73.992513 -243.556364 
L 72.79893 -243.556364 
L 71.605348 -243.556364 
L 70.411765 -243.556364 
L 69.218182 -243.556364 
z
" id="m5edca2a24c" style="stroke:#d3d3d3;"/>
    </defs>
    <g clip-path="url(#p80a01afe53)">
     <use style="fill:#d3d3d3;stroke:#d3d3d3;" x="0" xlink:href="#m5edca2a24c" y="288"/>
    </g>
   </g>
   <g id="matplotlib.axis_1">
    <g id="text_1">
     <!-- x -->
     <defs>
      <path d="M 24.796875 22.09375 
L 41.5 42.796875 
L 32.796875 42.796875 
L 21.296875 27.765625 
L 9.40625 42.796875 
L 0.5 42.796875 
L 17.796875 22.09375 
L 0 0 
L 8.796875 0 
L 21.296875 17.515625 
L 34.296875 0 
L 43.09375 0 
z
" id="CMSS17-120"/>
     </defs>
     <g transform="translate(217.830097 267.069588)scale(0.16 -0.16)">
      <use transform="scale(0.996264)" xlink:href="#CMSS17-120"/>
     </g>
    </g>
   </g>
   <g id="matplotlib.axis_2"/>
   <g id="LineCollection_1">
    <path clip-path="url(#p80a01afe53)" d="M 221.4 242.116364 
L 221.4 44.443636 
" style="fill:none;stroke:#000000;stroke-dasharray:5.6,2.4;stroke-dashoffset:0;stroke-width:1.5;"/>
   </g>
   <g id="LineCollection_2">
    <path clip-path="url(#p80a01afe53)" d="M 69.218182 44.443636 
L 373.581818 44.443636 
" style="fill:none;stroke:#000000;stroke-width:1.5;"/>
   </g>
   <g id="line2d_1">
    <path clip-path="url(#p80a01afe53)" d="M 69.218182 239.601611 
L 97.864171 239.019812 
L 119.348663 238.370102 
L 134.865241 237.701539 
L 147.994652 236.917079 
L 157.543316 236.146419 
L 165.898396 235.258086 
L 173.059893 234.257439 
L 179.027807 233.172312 
L 183.802139 232.064887 
L 187.382888 231.039129 
L 190.963636 229.784886 
L 194.544385 228.218483 
L 196.931551 226.940001 
L 199.318717 225.411986 
L 201.705882 223.557338 
L 204.093048 221.265897 
L 205.286631 219.908736 
L 206.480214 218.376676 
L 207.673797 216.637052 
L 208.86738 214.649754 
L 210.060963 212.365572 
L 211.254545 209.724483 
L 212.448128 206.654284 
L 213.641711 203.070511 
L 214.835294 198.879471 
L 216.028877 193.987529 
L 217.22246 188.32096 
L 218.416043 181.85954 
L 220.803209 166.987203 
L 223.190374 151.414874 
L 224.383957 144.235006 
L 225.57754 137.773585 
L 226.771123 132.107017 
L 227.964706 127.215075 
L 229.158289 123.024034 
L 230.351872 119.440262 
L 231.545455 116.370063 
L 232.739037 113.728973 
L 233.93262 111.444791 
L 235.126203 109.457493 
L 236.319786 107.717869 
L 238.706952 104.828648 
L 241.094118 102.537208 
L 243.481283 100.682559 
L 245.868449 99.154545 
L 248.255615 97.876063 
L 250.642781 96.791915 
L 254.223529 95.444663 
L 257.804278 94.350107 
L 262.57861 93.175827 
L 267.352941 92.238248 
L 273.320856 91.303006 
L 280.482353 90.425481 
L 288.837433 89.633873 
L 299.579679 88.862006 
L 312.709091 88.163258 
L 329.419251 87.518169 
L 350.903743 86.932371 
L 373.581818 86.492935 
L 373.581818 86.492935 
" style="fill:none;stroke:#1f77b4;stroke-linecap:square;stroke-width:1.5;"/>
   </g>
   <g id="line2d_2">
    <path clip-path="url(#p80a01afe53)" d="M 69.218182 143.526475 
L 114.574332 143.778923 
L 138.445989 144.104648 
L 153.962567 144.522471 
L 164.704813 145.028787 
L 171.86631 145.558514 
L 177.834225 146.205777 
L 182.608556 146.941962 
L 186.189305 147.689719 
L 189.770053 148.686949 
L 192.157219 149.547484 
L 194.544385 150.624744 
L 196.931551 151.995238 
L 199.318717 153.77065 
L 200.512299 154.85936 
L 201.705882 156.117622 
L 202.899465 157.580127 
L 204.093048 159.290051 
L 205.286631 161.301268 
L 206.480214 163.68103 
L 207.673797 166.513021 
L 208.86738 169.900419 
L 210.060963 173.968001 
L 211.254545 178.861091 
L 212.448128 184.736762 
L 213.641711 191.738696 
L 214.835294 199.941534 
L 217.22246 219.224869 
L 218.416043 228.942573 
L 219.609626 236.931505 
L 220.803209 241.512091 
L 221.996791 241.512091 
L 223.190374 236.931505 
L 224.383957 228.942573 
L 227.964706 199.941534 
L 229.158289 191.738696 
L 230.351872 184.736762 
L 231.545455 178.861091 
L 232.739037 173.968001 
L 233.93262 169.900419 
L 235.126203 166.513021 
L 236.319786 163.68103 
L 237.513369 161.301268 
L 238.706952 159.290051 
L 239.900535 157.580127 
L 241.094118 156.117622 
L 242.287701 154.85936 
L 244.674866 152.823505 
L 247.062032 151.267366 
L 249.449198 150.054895 
L 251.836364 149.093904 
L 255.417112 147.989598 
L 258.997861 147.168864 
L 263.772193 146.367709 
L 269.740107 145.669669 
L 276.901604 145.103409 
L 286.450267 144.614081 
L 299.579679 144.20747 
L 317.483422 143.895985 
L 346.129412 143.646464 
L 373.581818 143.526475 
L 373.581818 143.526475 
" style="fill:none;stroke:#ff7f0e;stroke-linecap:square;stroke-width:1.5;"/>
   </g>
   <g id="patch_3">
    <path d="M 54 252 
L 54 34.56 
" style="fill:none;stroke:#000000;stroke-linecap:square;stroke-linejoin:miter;stroke-width:0.8;"/>
   </g>
   <g id="patch_4">
    <path d="M 388.8 252 
L 388.8 34.56 
" style="fill:none;stroke:#000000;stroke-linecap:square;stroke-linejoin:miter;stroke-width:0.8;"/>
   </g>
   <g id="patch_5">
    <path d="M 54 252 
L 388.8 252 
" style="fill:none;stroke:#000000;stroke-linecap:square;stroke-linejoin:miter;stroke-width:0.8;"/>
   </g>
   <g id="patch_6">
    <path d="M 54 34.56 
L 388.8 34.56 
" style="fill:none;stroke:#000000;stroke-linecap:square;stroke-linejoin:miter;stroke-width:0.8;"/>
   </g>
   <g id="text_2">
    <!-- P -->
    <defs>
     <path d="M 32.90625 29 
C 44.90625 29 54.703125 38.328125 54.703125 49.34375 
C 54.703125 60.15625 45.296875 69.578125 32.296875 69.578125 
L 8.90625 69.578125 
L 8.90625 0 
L 17.296875 0 
L 17.296875 29 
z
M 30.09375 64 
C 41.703125 64 46.796875 56.671875 46.796875 49.328125 
C 46.796875 42.5 42.09375 34.78125 30.09375 34.78125 
L 17.09375 34.78125 
L 17.09375 64 
z
" id="CMSS17-80"/>
    </defs>
    <g transform="translate(145.309091 133.396364)scale(0.16 -0.16)">
     <use transform="scale(0.996264)" xlink:href="#CMSS17-80"/>
    </g>
   </g>
   <g id="text_3">
    <!-- N -->
    <defs>
     <path d="M 22.90625 65.3125 
L 21.09375 69 
L 8.796875 69 
L 8.796875 0 
L 16.59375 0 
L 16.59375 61.34375 
L 16.703125 61.4375 
C 17.40625 59.640625 17.796875 58.75 21.90625 49.90625 
L 43.296875 3.6875 
L 45.09375 0 
L 57.40625 0 
L 57.40625 69 
L 49.59375 69 
L 49.59375 7.65625 
L 49.5 7.546875 
C 48.796875 9.34375 48.40625 10.234375 44.296875 19.078125 
z
" id="CMSS17-78"/>
    </defs>
    <g transform="translate(297.490909 133.396364)scale(0.16 -0.16)">
     <use transform="scale(0.996264)" xlink:href="#CMSS17-78"/>
    </g>
   </g>
   <g id="legend_1">
    <g id="patch_7">
     <path d="M 292.902751 244 
L 377.6 244 
Q 380.8 244 380.8 240.8 
L 380.8 168.784093 
Q 380.8 165.584093 377.6 165.584093 
L 292.902751 165.584093 
Q 289.702751 165.584093 289.702751 168.784093 
L 289.702751 240.8 
Q 289.702751 244 292.902751 244 
z
" style="fill:#ffffff;opacity:0.8;stroke:#cccccc;stroke-linejoin:miter;"/>
    </g>
    <g id="line2d_3">
     <path d="M 296.102751 178.339261 
L 328.102751 178.339261 
" style="fill:none;stroke:#1f77b4;stroke-linecap:square;stroke-width:1.5;"/>
    </g>
    <g id="line2d_4"/>
    <g id="text_4">
     <!-- V(x) -->
     <defs>
      <path d="M 61.09375 69 
L 53.296875 69 
L 36 21.28125 
C 35.5 19.890625 32.40625 10.75 31.796875 7.5625 
L 31.703125 7.5625 
C 30.90625 11.34375 27.703125 20.1875 26 25.0625 
L 14.40625 57.375 
L 10.09375 69 
L 1.296875 69 
L 26.796875 0 
L 35.59375 0 
z
" id="CMSS17-86"/>
      <path d="M 25.203125 74.5 
C 19.796875 69.015625 7.40625 56.265625 7.40625 24.8125 
C 7.40625 -6.765625 19.796875 -19.421875 25.203125 -25 
L 31.296875 -25 
C 19 -12.25 15 5.578125 15 24.703125 
C 15 43.71875 18.796875 61.65625 31.296875 74.5 
z
" id="CMSS17-40"/>
      <path d="M 11.296875 -25 
C 16.703125 -19.515625 29.09375 -6.765625 29.09375 24.703125 
C 29.09375 56.265625 16.703125 68.921875 11.296875 74.5 
L 5.203125 74.5 
C 17.5 61.75 21.5 43.921875 21.5 24.8125 
C 21.5 5.78125 17.703125 -12.15625 5.203125 -25 
z
" id="CMSS17-41"/>
     </defs>
     <g transform="translate(340.902751 183.939261)scale(0.16 -0.16)">
      <use transform="scale(0.996264)" xlink:href="#CMSS17-86"/>
      <use transform="translate(62.217855 0)scale(0.996264)" xlink:href="#CMSS17-40"/>
      <use transform="translate(98.651769 0)scale(0.996264)" xlink:href="#CMSS17-120"/>
      <use transform="translate(141.651911 0)scale(0.996264)" xlink:href="#CMSS17-41"/>
     </g>
    </g>
    <g id="line2d_5">
     <path d="M 296.102751 205.715468 
L 328.102751 205.715468 
" style="fill:none;stroke:#ff7f0e;stroke-linecap:square;stroke-width:1.5;"/>
    </g>
    <g id="line2d_6"/>
    <g id="text_5">
     <!-- $\vec{E}(x)$ -->
     <defs>
      <path d="M 53.5 59.921875 
C 52.296875 58.8125 48.59375 55.3125 48.59375 53.921875 
C 48.59375 52.921875 49.5 52.015625 50.5 52.015625 
C 51.40625 52.015625 51.796875 52.625 52.5 53.625 
C 54.90625 56.625 57.59375 58.515625 59.90625 59.8125 
C 60.90625 60.421875 61.59375 60.71875 61.59375 61.8125 
C 61.59375 62.71875 60.796875 63.21875 60.203125 63.71875 
C 57.40625 65.625 56.703125 68.3125 56.40625 69.515625 
C 56.09375 70.3125 55.796875 71.515625 54.40625 71.515625 
C 53.796875 71.515625 52.59375 71.125 52.59375 69.625 
C 52.59375 68.71875 53.203125 66.3125 55.09375 63.625 
L 21.5 63.625 
C 19.796875 63.625 18.09375 63.625 18.09375 61.71875 
C 18.09375 59.921875 19.90625 59.921875 21.5 59.921875 
z
" id="CMMI12-126"/>
      <path d="M 69.5 23.265625 
C 69.59375 23.5625 69.90625 24.28125 69.90625 24.671875 
C 69.90625 25.171875 69.5 25.671875 68.90625 25.671875 
C 68.5 25.671875 68.296875 25.578125 68 25.265625 
C 67.796875 25.171875 67.796875 24.96875 66.90625 22.953125 
C 61 8.90625 56.703125 2.890625 40.703125 2.890625 
L 26.09375 2.890625 
C 24.703125 2.890625 24.5 2.890625 23.90625 3 
C 22.796875 3.09375 22.703125 3.296875 22.703125 4.09375 
C 22.703125 4.796875 22.90625 5.390625 23.09375 6.296875 
L 30 34 
L 39.90625 34 
C 47.703125 34 48.296875 32.28125 48.296875 29.28125 
C 48.296875 28.28125 48.296875 27.375 47.59375 24.375 
C 47.40625 23.96875 47.296875 23.5625 47.296875 23.265625 
C 47.296875 22.5625 47.796875 22.265625 48.40625 22.265625 
C 49.296875 22.265625 49.40625 22.953125 49.796875 24.359375 
L 55.5 47.53125 
C 55.5 48.015625 55.09375 48.515625 54.5 48.515625 
C 53.59375 48.515625 53.5 48.125 53.09375 46.71875 
C 51.09375 39.078125 49.09375 36.890625 40.203125 36.890625 
L 30.703125 36.890625 
L 36.90625 61.40625 
C 37.796875 64.90625 38 64.90625 42.09375 64.90625 
L 56.40625 64.90625 
C 68.703125 64.90625 71.203125 61.609375 71.203125 54.03125 
C 71.203125 53.921875 71.203125 51.140625 70.796875 47.84375 
C 70.703125 47.4375 70.59375 46.84375 70.59375 46.640625 
C 70.59375 45.84375 71.09375 45.546875 71.703125 45.546875 
C 72.40625 45.546875 72.796875 45.953125 73 47.734375 
L 75.09375 65.21875 
C 75.09375 65.546875 75.296875 66.609375 75.296875 66.828125 
C 75.296875 68 74.40625 68 72.59375 68 
L 23.796875 68 
C 21.90625 68 20.90625 68 20.90625 66.078125 
C 20.90625 64.90625 21.59375 64.90625 23.296875 64.90625 
C 29.5 64.90625 29.5 64.28125 29.5 63.3125 
C 29.5 62.8125 29.40625 62.40625 29.09375 61.3125 
L 15.59375 7.390625 
C 14.703125 3.890625 14.5 2.890625 7.5 2.890625 
C 5.59375 2.890625 4.59375 2.890625 4.59375 1.09375 
C 4.59375 0 5.203125 0 7.203125 0 
L 57.40625 0 
C 59.59375 0 59.703125 0.09375 60.40625 1.71875 
z
" id="CMMI12-69"/>
      <path d="M 30.59375 -24.390625 
C 30.59375 -24.296875 30.59375 -24.09375 30.296875 -23.796875 
C 25.703125 -19.125 13.40625 -6.359375 13.40625 24.703125 
C 13.40625 55.765625 25.5 68.421875 30.40625 73.390625 
C 30.40625 73.5 30.59375 73.703125 30.59375 74 
C 30.59375 74.296875 30.296875 74.5 29.90625 74.5 
C 28.796875 74.5 20.296875 67.125 15.40625 56.15625 
C 10.40625 45.109375 9 34.359375 9 24.8125 
C 9 17.625 9.703125 5.484375 15.703125 -7.359375 
C 20.5 -17.734375 28.703125 -25 29.90625 -25 
C 30.40625 -25 30.59375 -24.796875 30.59375 -24.390625 
" id="CMR17-40"/>
      <path d="M 47.40625 40.71875 
C 44.203125 40.109375 43 37.71875 43 35.828125 
C 43 33.421875 44.90625 32.625 46.296875 32.625 
C 49.296875 32.625 51.40625 35.21875 51.40625 37.921875 
C 51.40625 42.109375 46.59375 44 42.40625 44 
C 36.296875 44 32.90625 38.015625 32 36.125 
C 29.703125 44 23.5 44 21.703125 44 
C 11.5 44 6.09375 30.9375 6.09375 28.734375 
C 6.09375 28.34375 6.5 27.84375 7.203125 27.84375 
C 8 27.84375 8.203125 28.4375 8.40625 28.84375 
C 11.796875 39.921875 18.5 42.015625 21.40625 42.015625 
C 25.90625 42.015625 26.796875 37.8125 26.796875 35.421875 
C 26.796875 33.234375 26.203125 30.9375 25 26.140625 
L 21.59375 12.46875 
C 20.09375 6.484375 17.203125 1 11.90625 1 
C 11.40625 1 8.90625 1 6.796875 2.296875 
C 10.40625 3 11.203125 5.984375 11.203125 7.1875 
C 11.203125 9.1875 9.703125 10.375 7.796875 10.375 
C 5.40625 10.375 2.796875 8.28125 2.796875 5.09375 
C 2.796875 0.890625 7.5 -1 11.796875 -1 
C 16.59375 -1 20 2.796875 22.09375 6.890625 
C 23.703125 1 28.703125 -1 32.40625 -1 
C 42.59375 -1 48 12.078125 48 14.265625 
C 48 14.765625 47.59375 15.171875 47 15.171875 
C 46.09375 15.171875 46 14.671875 45.703125 13.875 
C 43 5.09375 37.203125 1 32.703125 1 
C 29.203125 1 27.296875 3.59375 27.296875 7.6875 
C 27.296875 9.875 27.703125 11.46875 29.296875 18.0625 
L 32.796875 31.625 
C 34.296875 37.625 37.703125 42.015625 42.296875 42.015625 
C 42.5 42.015625 45.296875 42.015625 47.40625 40.71875 
" id="CMMI12-120"/>
      <path d="M 26.296875 24.703125 
C 26.296875 31.875 25.59375 44.015625 19.59375 56.859375 
C 14.796875 67.234375 6.59375 74.5 5.40625 74.5 
C 5.09375 74.5 4.703125 74.390625 4.703125 73.890625 
C 4.703125 73.703125 4.796875 73.59375 4.90625 73.390625 
C 9.703125 68.40625 21.90625 55.75 21.90625 24.75 
C 21.90625 -6.359375 9.796875 -19.015625 4.90625 -24.015625 
C 4.796875 -24.203125 4.703125 -24.3125 4.703125 -24.5 
C 4.703125 -25 5.09375 -25 5.40625 -25 
C 6.5 -25 15 -17.625 19.90625 -6.65625 
C 24.90625 4.390625 26.296875 15.140625 26.296875 24.703125 
" id="CMR17-41"/>
     </defs>
     <g transform="translate(340.902751 211.315468)scale(0.16 -0.16)">
      <use transform="translate(15.105297 25.183273)scale(0.996264)" xlink:href="#CMMI12-126"/>
      <use transform="scale(0.996264)" xlink:href="#CMMI12-69"/>
      <use transform="translate(78.051636 0)scale(0.996264)" xlink:href="#CMR17-40"/>
      <use transform="translate(113.332404 0)scale(0.996264)" xlink:href="#CMMI12-120"/>
      <use transform="translate(168.766464 0)scale(0.996264)" xlink:href="#CMR17-41"/>
     </g>
    </g>
    <g id="line2d_7">
     <path d="M 296.102751 228.900524 
L 328.102751 228.900524 
" style="fill:none;stroke:#000000;stroke-width:1.5;"/>
    </g>
    <g id="text_6">
     <!-- $\mu$ -->
     <defs>
      <path d="M 14.40625 2.1875 
C 16.90625 -0.09375 20.59375 -1 24 -1 
C 30.40625 -1 34.796875 3.25 37.09375 6.328125 
C 38.09375 1.078125 42.296875 -1 45.796875 -1 
C 48.796875 -1 51.203125 0.78125 53 4.328125 
C 54.59375 7.703125 56 13.734375 56 14.109375 
C 56 14.609375 55.59375 15 55 15 
C 54.09375 15 54 14.5 53.59375 13.03125 
C 52.09375 7.203125 50.203125 1 46.09375 1 
C 43.203125 1 43 3.578125 43 5.59375 
C 43 7.875 43.90625 11.484375 44.59375 14.46875 
L 47.40625 25.234375 
C 47.796875 27.140625 48.90625 31.609375 49.40625 33.421875 
C 50 35.8125 51.09375 40.109375 51.09375 40.5 
C 51.09375 42 49.90625 43 48.40625 43 
C 47.5 43 45.40625 42.59375 44.59375 39.609375 
L 37.59375 11.875 
C 37.09375 9.875 37.09375 9.671875 35.796875 8.078125 
C 34.59375 6.390625 30.703125 1 24.40625 1 
C 18.796875 1 17 5.09375 17 9.765625 
C 17 12.671875 17.90625 16.15625 18.296875 17.859375 
L 22.796875 35.828125 
C 23.296875 37.71875 24.09375 40.90625 24.09375 41.515625 
C 24.09375 43.109375 22.796875 44 21.5 44 
C 20.59375 44 18.40625 43.703125 17.59375 40.5 
L 3.09375 -17.296875 
C 3 -17.796875 2.796875 -18.390625 2.796875 -19 
C 2.796875 -20.5 4 -21.5 5.5 -21.5 
C 8.40625 -21.5 9 -19.1875 9.703125 -16.40625 
z
" id="CMMI12-22"/>
     </defs>
     <g transform="translate(340.902751 234.500524)scale(0.16 -0.16)">
      <use transform="scale(0.996264)" xlink:href="#CMMI12-22"/>
     </g>
    </g>
   </g>
  </g>
 </g>
 <defs>
  <clipPath id="p80a01afe53">
   <rect height="217.44" width="334.8" x="54" y="34.56"/>
  </clipPath>
 </defs>
</svg>
