<?xml version="1.0" encoding="UTF-8" standalone="no"?>
<!-- Created with Inkscape (http://www.inkscape.org/) -->

<svg
   xmlns:dc="http://purl.org/dc/elements/1.1/"
   xmlns:cc="http://creativecommons.org/ns#"
   xmlns:rdf="http://www.w3.org/1999/02/22-rdf-syntax-ns#"
   xmlns:svg="http://www.w3.org/2000/svg"
   xmlns="http://www.w3.org/2000/svg"
   xmlns:sodipodi="http://sodipodi.sourceforge.net/DTD/sodipodi-0.dtd"
   xmlns:inkscape="http://www.inkscape.org/namespaces/inkscape"
   width="45.161842mm"
   height="25.467907mm"
   viewBox="0 0 45.161842 25.467907"
   version="1.1"
   id="svg8"
   inkscape:version="0.92.1 r15371"
   sodipodi:docname="descricao_vetorial.svg"
   inkscape:export-filename="deslocamento_angular_vetorial.png"
   inkscape:export-xdpi="301"
   inkscape:export-ydpi="301">
  <defs
     id="defs2">
    <marker
       inkscape:isstock="true"
       style="overflow:visible"
       id="marker8135"
       refX="0"
       refY="0"
       orient="auto"
       inkscape:stockid="Arrow1Send">
      <path
         transform="matrix(-0.2,0,0,-0.2,-1.2,0)"
         style="fill:#000000;fill-opacity:1;fill-rule:evenodd;stroke:#000000;stroke-width:1.00000003pt;stroke-opacity:1"
         d="M 0,0 5,-5 -12.5,0 5,5 Z"
         id="path8133"
         inkscape:connector-curvature="0" />
    </marker>
    <marker
       inkscape:stockid="Arrow1Mend"
       orient="auto"
       refY="0"
       refX="0"
       id="marker7849"
       style="overflow:visible"
       inkscape:isstock="true">
      <path
         id="path7847"
         d="M 0,0 5,-5 -12.5,0 5,5 Z"
         style="fill:#000000;fill-opacity:1;fill-rule:evenodd;stroke:#000000;stroke-width:1.00000003pt;stroke-opacity:1"
         transform="matrix(-0.4,0,0,-0.4,-4,0)"
         inkscape:connector-curvature="0" />
    </marker>
    <marker
       inkscape:stockid="Arrow1Mend"
       orient="auto"
       refY="0"
       refX="0"
       id="marker7739"
       style="overflow:visible"
       inkscape:isstock="true">
      <path
         id="path7737"
         d="M 0,0 5,-5 -12.5,0 5,5 Z"
         style="fill:#000000;fill-opacity:1;fill-rule:evenodd;stroke:#000000;stroke-width:1.00000003pt;stroke-opacity:1"
         transform="matrix(-0.4,0,0,-0.4,-4,0)"
         inkscape:connector-curvature="0" />
    </marker>
    <marker
       inkscape:isstock="true"
       style="overflow:visible"
       id="marker7639"
       refX="0"
       refY="0"
       orient="auto"
       inkscape:stockid="Arrow1Mend">
      <path
         inkscape:connector-curvature="0"
         transform="matrix(-0.4,0,0,-0.4,-4,0)"
         style="fill:#000000;fill-opacity:1;fill-rule:evenodd;stroke:#000000;stroke-width:1.00000003pt;stroke-opacity:1"
         d="M 0,0 5,-5 -12.5,0 5,5 Z"
         id="path7637" />
    </marker>
    <marker
       inkscape:isstock="true"
       style="overflow:visible"
       id="marker7171"
       refX="0"
       refY="0"
       orient="auto"
       inkscape:stockid="Arrow1Mend">
      <path
         inkscape:connector-curvature="0"
         transform="matrix(-0.4,0,0,-0.4,-4,0)"
         style="fill:#000000;fill-opacity:1;fill-rule:evenodd;stroke:#000000;stroke-width:1.00000003pt;stroke-opacity:1"
         d="M 0,0 5,-5 -12.5,0 5,5 Z"
         id="path7169" />
    </marker>
    <marker
       inkscape:isstock="true"
       style="overflow:visible"
       id="marker7077"
       refX="0"
       refY="0"
       orient="auto"
       inkscape:stockid="Arrow1Mend"
       inkscape:collect="always">
      <path
         inkscape:connector-curvature="0"
         transform="matrix(-0.4,0,0,-0.4,-4,0)"
         style="fill:#000000;fill-opacity:1;fill-rule:evenodd;stroke:#000000;stroke-width:1.00000003pt;stroke-opacity:1"
         d="M 0,0 5,-5 -12.5,0 5,5 Z"
         id="path7075" />
    </marker>
    <marker
       inkscape:isstock="true"
       style="overflow:visible"
       id="marker6665"
       refX="0"
       refY="0"
       orient="auto"
       inkscape:stockid="Arrow1Mend"
       inkscape:collect="always">
      <path
         inkscape:connector-curvature="0"
         transform="matrix(-0.4,0,0,-0.4,-4,0)"
         style="fill:#000000;fill-opacity:1;fill-rule:evenodd;stroke:#000000;stroke-width:1.00000003pt;stroke-opacity:1"
         d="M 0,0 5,-5 -12.5,0 5,5 Z"
         id="path6663" />
    </marker>
    <marker
       inkscape:stockid="Arrow1Send"
       orient="auto"
       refY="0"
       refX="0"
       id="marker6836"
       style="overflow:visible"
       inkscape:isstock="true">
      <path
         id="path6834"
         d="M 0,0 5,-5 -12.5,0 5,5 Z"
         style="fill:#000000;fill-opacity:1;fill-rule:evenodd;stroke:#000000;stroke-width:1.00000003pt;stroke-opacity:1"
         transform="matrix(-0.2,0,0,-0.2,-1.2,0)"
         inkscape:connector-curvature="0" />
    </marker>
    <marker
       inkscape:stockid="Arrow1Send"
       orient="auto"
       refY="0"
       refX="0"
       id="Arrow1Send"
       style="overflow:visible"
       inkscape:isstock="true"
       inkscape:collect="always">
      <path
         id="path4659"
         d="M 0,0 5,-5 -12.5,0 5,5 Z"
         style="fill:#000000;fill-opacity:1;fill-rule:evenodd;stroke:#000000;stroke-width:1.00000003pt;stroke-opacity:1"
         transform="matrix(-0.2,0,0,-0.2,-1.2,0)"
         inkscape:connector-curvature="0" />
    </marker>
    <marker
       inkscape:isstock="true"
       style="overflow:visible"
       id="marker4856"
       refX="0"
       refY="0"
       orient="auto"
       inkscape:stockid="Arrow1Mend">
      <path
         inkscape:connector-curvature="0"
         transform="matrix(-0.4,0,0,-0.4,-4,0)"
         style="fill:#000000;fill-opacity:1;fill-rule:evenodd;stroke:#000000;stroke-width:1.00000003pt;stroke-opacity:1"
         d="M 0,0 5,-5 -12.5,0 5,5 Z"
         id="path4854" />
    </marker>
    <marker
       inkscape:stockid="Arrow1Mend"
       orient="auto"
       refY="0"
       refX="0"
       id="marker6278"
       style="overflow:visible"
       inkscape:isstock="true">
      <path
         inkscape:connector-curvature="0"
         id="path6276"
         d="M 0,0 5,-5 -12.5,0 5,5 Z"
         style="fill:#000000;fill-opacity:1;fill-rule:evenodd;stroke:#000000;stroke-width:1.00000003pt;stroke-opacity:1"
         transform="matrix(-0.4,0,0,-0.4,-4,0)" />
    </marker>
    <marker
       inkscape:stockid="Arrow1Mend"
       orient="auto"
       refY="0"
       refX="0"
       id="marker6085"
       style="overflow:visible"
       inkscape:isstock="true">
      <path
         id="path6083"
         d="M 0,0 5,-5 -12.5,0 5,5 Z"
         style="fill:#000000;fill-opacity:1;fill-rule:evenodd;stroke:#000000;stroke-width:1.00000003pt;stroke-opacity:1"
         transform="matrix(-0.4,0,0,-0.4,-4,0)"
         inkscape:connector-curvature="0" />
    </marker>
    <marker
       inkscape:stockid="Arrow1Mend"
       orient="auto"
       refY="0"
       refX="0"
       id="marker5793"
       style="overflow:visible"
       inkscape:isstock="true">
      <path
         id="path5791"
         d="M 0,0 5,-5 -12.5,0 5,5 Z"
         style="fill:#000000;fill-opacity:1;fill-rule:evenodd;stroke:#000000;stroke-width:1.00000003pt;stroke-opacity:1"
         transform="matrix(-0.4,0,0,-0.4,-4,0)"
         inkscape:connector-curvature="0" />
    </marker>
    <marker
       inkscape:stockid="Arrow1Mend"
       orient="auto"
       refY="0"
       refX="0"
       id="marker5689"
       style="overflow:visible"
       inkscape:isstock="true">
      <path
         id="path5687"
         d="M 0,0 5,-5 -12.5,0 5,5 Z"
         style="fill:#000000;fill-opacity:1;fill-rule:evenodd;stroke:#000000;stroke-width:1.00000003pt;stroke-opacity:1"
         transform="matrix(-0.4,0,0,-0.4,-4,0)"
         inkscape:connector-curvature="0" />
    </marker>
    <marker
       inkscape:stockid="Arrow1Mend"
       orient="auto"
       refY="0"
       refX="0"
       id="marker5503"
       style="overflow:visible"
       inkscape:isstock="true">
      <path
         id="path5501"
         d="M 0,0 5,-5 -12.5,0 5,5 Z"
         style="fill:#000000;fill-opacity:1;fill-rule:evenodd;stroke:#000000;stroke-width:1.00000003pt;stroke-opacity:1"
         transform="matrix(-0.4,0,0,-0.4,-4,0)"
         inkscape:connector-curvature="0" />
    </marker>
    <marker
       inkscape:stockid="Arrow1Mend"
       orient="auto"
       refY="0"
       refX="0"
       id="marker4883"
       style="overflow:visible"
       inkscape:isstock="true"
       inkscape:collect="always">
      <path
         id="path4881"
         d="M 0,0 5,-5 -12.5,0 5,5 Z"
         style="fill:#000000;fill-opacity:1;fill-rule:evenodd;stroke:#000000;stroke-width:1.00000003pt;stroke-opacity:1"
         transform="matrix(-0.4,0,0,-0.4,-4,0)"
         inkscape:connector-curvature="0" />
    </marker>
    <marker
       inkscape:stockid="Arrow1Sstart"
       orient="auto"
       refY="0"
       refX="0"
       id="Arrow1Sstart"
       style="overflow:visible">
      <path
         inkscape:connector-curvature="0"
         id="path3250"
         d="M 0,0 5,-5 -12.5,0 5,5 Z"
         style="fill-rule:evenodd;stroke:#000000;stroke-width:1.00000003pt;marker-start:none"
         transform="matrix(0.2,0,0,0.2,1.2,0)" />
    </marker>
  </defs>
  <sodipodi:namedview
     id="base"
     pagecolor="#ffffff"
     bordercolor="#666666"
     borderopacity="1.0"
     inkscape:pageopacity="0.0"
     inkscape:pageshadow="2"
     inkscape:zoom="5.6"
     inkscape:cx="87.538521"
     inkscape:cy="66.10722"
     inkscape:document-units="mm"
     inkscape:current-layer="layer1"
     showgrid="false"
     showguides="false"
     inkscape:lockguides="true"
     fit-margin-top="0"
     fit-margin-left="0"
     fit-margin-right="0"
     fit-margin-bottom="0"
     inkscape:window-width="1920"
     inkscape:window-height="986"
     inkscape:window-x="2869"
     inkscape:window-y="-11"
     inkscape:window-maximized="1" />
  <metadata
     id="metadata5">
    <rdf:RDF>
      <cc:Work
         rdf:about="">
        <dc:format>image/svg+xml</dc:format>
        <dc:type
           rdf:resource="http://purl.org/dc/dcmitype/StillImage" />
        <dc:title></dc:title>
      </cc:Work>
    </rdf:RDF>
  </metadata>
  <g
     inkscape:label="Camada 1"
     inkscape:groupmode="layer"
     id="layer1"
     transform="translate(-52.191175,-3.9431653)">
    <g
       id="g7067">
      <path
         id="path4664"
         transform="matrix(0.26458333,0,0,0.26458333,49.204163,2.7730957)"
         d="m 46.517578,40.9375 a 22.232143,6.1607142 0 0 0 -22.232422,6.160156 v 6 A 22.232143,6.1607141 0 0 0 46.517578,59.259766 22.232143,6.1607141 0 0 0 68.75,53.097656 v -6 A 22.232143,6.1607142 0 0 0 46.517578,40.9375 Z"
         style="fill:#cccccc;fill-opacity:1;fill-rule:nonzero;stroke:#000000;stroke-width:1.00157475;stroke-linecap:round;stroke-linejoin:round;stroke-miterlimit:4;stroke-dasharray:none;stroke-dashoffset:0;stroke-opacity:1"
         inkscape:connector-curvature="0" />
      <ellipse
         ry="1.6300223"
         rx="5.8822546"
         cy="15.23457"
         cx="61.512012"
         id="path4657"
         style="fill:#cccccc;fill-opacity:1;fill-rule:nonzero;stroke:#000000;stroke-width:0.26499999;stroke-linecap:round;stroke-linejoin:round;stroke-miterlimit:4;stroke-dasharray:none;stroke-dashoffset:0;stroke-opacity:1" />
    </g>
    <path
       style="fill:none;stroke:#000000;stroke-width:0.26458332px;stroke-linecap:butt;stroke-linejoin:miter;stroke-opacity:1;marker-end:url(#marker4883)"
       d="m 53.747744,13.775089 c 0,0 -3.708364,1.50339 0.835218,4.777442"
       id="path5153"
       inkscape:connector-curvature="0"
       sodipodi:nodetypes="cc" />
    <path
       sodipodi:nodetypes="cc"
       inkscape:connector-curvature="0"
       id="path6661"
       d="m 69.385363,18.601122 c 0,0 3.708364,-1.50339 -0.835218,-4.777442"
       style="fill:none;stroke:#000000;stroke-width:0.26458332px;stroke-linecap:butt;stroke-linejoin:miter;stroke-opacity:1;marker-end:url(#marker6665)" />
    <path
       style="fill:none;stroke:#000000;stroke-width:0.26458332px;stroke-linecap:butt;stroke-linejoin:miter;stroke-opacity:1;marker-end:url(#marker7077)"
       d="M 61.512012,15.378705 V 4.8215593"
       id="path7063"
       inkscape:connector-curvature="0" />
    <text
       xml:space="preserve"
       style="font-style:normal;font-variant:normal;font-weight:normal;font-stretch:normal;font-size:2.82222223px;line-height:1.25;font-family:'Book Antiqua';-inkscape-font-specification:'Book Antiqua';letter-spacing:0px;word-spacing:0px;fill:#000000;fill-opacity:1;stroke:none;stroke-width:0.26458332"
       x="63.970802"
       y="11.068985"
       id="text7159"><tspan
         sodipodi:role="line"
         id="tspan7157"
         x="63.970802"
         y="11.068985"
         style="font-style:italic;stroke-width:0.26458332">ω</tspan></text>
    <path
       style="fill:none;stroke:#000000;stroke-width:0.16500001;stroke-linecap:butt;stroke-linejoin:miter;stroke-miterlimit:4;stroke-dasharray:none;stroke-opacity:1;marker-end:url(#Arrow1Send)"
       d="M 64.054326,9.4653674 H 65.683"
       id="path7161"
       inkscape:connector-curvature="0"
       sodipodi:nodetypes="cc" />
    <g
       id="g7595"
       transform="rotate(-24.082929,71.954376,-1.072578)">
      <path
         id="path2849"
         d="m 70.492192,9.5221533 -0.786776,1.6573737 c -0.02296,0.0067 -0.153299,-0.04842 -0.158814,-0.06721 l 0.773684,-1.6635467"
         style="fill:#000000;stroke-width:0.02121981"
         inkscape:connector-curvature="0" />
      <path
         sodipodi:nodetypes="ccccccc"
         id="path2843"
         d="m 70.320286,9.4487703 1.99349,-4.2249363 -0.188979,-0.09007 c 0.176066,-0.1327772 0.342057,-0.2805442 0.527271,-0.4005271 0.01144,0.00215 0.02855,0.6129967 0.01795,0.6410983 l -0.175817,-0.079717 -2.002013,4.2275351"
         style="fill:#000000;stroke-width:0.02121981"
         inkscape:connector-curvature="0" />
      <g
         transform="matrix(0.02121981,0,0,0.02121981,61.072726,-6.8661311)"
         id="g3635">
        <path
           style="fill:#000000"
           d="m 519.34032,820.55079 -10.91845,-5.67423 c -1.54951,-1.21879 -3.31137,-2.3517 -3.91525,-2.51757 -1.33255,-0.36601 -4.79099,-4.47735 -10.46678,-12.44273 -5.8026,-8.14336 -8.53575,-17.46385 -7.37311,-25.14355 0.46564,-3.07579 1.17836,-5.96175 1.58382,-6.41327 0.40545,-0.4515 -0.15162,-3.12438 -1.23793,-5.93971 -3.47681,-9.01057 -3.05251,-14.17773 2.00446,-24.40987 2.47003,-4.99778 4.39933,-10.42143 4.28733,-12.05253 -0.11198,-1.63112 0.0107,-5.5067 0.2727,-8.61242 0.63142,-7.48574 4.77229,-12.11774 13.86386,-15.50816 l 6.32501,-2.35874 0.28067,-5.02902 c 0.17558,-3.14605 1.4293,-6.94275 3.34842,-10.1402 2.72745,-4.54425 3.75014,-5.39347 9.21983,-7.65591 9.5668,-3.95713 35.30661,4.18116 56.48083,10.893"
           id="path2847"
           sodipodi:nodetypes="ccsssssssscccsss"
           inkscape:connector-curvature="0" />
        <path
           style="fill:#000000"
           d="m 583.09573,687.54588 c 0.27463,0.93556 19.1549,9.07861 24.05528,10.37503 5.32628,1.40908 8.36427,0.2428 10.39872,-3.99207 1.12517,-2.34213 3.65691,-12.9571 7.75606,-32.51918 2.84642,-13.58385 5.41415,-16.98955 21.30699,-28.26052 9.51627,-6.74881 12.29578,-7.95253 17.8772,-7.74217 13.49664,0.50873 19.00744,15.23297 9.38947,25.08763 -4.12421,4.22568 -7.26095,12.34529 -7.47612,19.35229 -0.092,2.99724 -0.5971,7.45162 -1.12238,9.89864 -1.12724,5.25138 -0.76232,11.55563 1.57196,27.15666 1.73568,11.60024 1.88781,20.57794 0.47571,28.07277 -1.45802,7.73858 0.2664,30.83041 3.42175,45.82102 1.08463,5.15288 3.50678,11.63377 8.07299,21.60069 5.01618,10.94913 7.10503,16.6817 9.04061,24.81068 1.38445,5.81437 2.35933,10.86059 2.16641,11.21384 l -7.53532,1.36366 -2.58698,-10.91771 c -2.03311,-8.5802 -3.7844,-13.40749 -8.17974,-22.54672 -3.07602,-6.39597 -6.4829,-14.66149 -7.57086,-18.36782 -4.24335,-14.45587 -6.45716,-41.21374 -4.66377,-56.36981 0.94519,-7.98781 0.37891,-16.40952 -2.20654,-32.8157 -1.21738,-7.72507 -1.23038,-14.95495 -0.0384,-21.37747 0.59974,-3.2315 1.09757,-8.13152 1.10626,-10.88893 0.015,-4.75759 3.65384,-12.82919 10.58897,-23.48825 2.6695,-4.10296 1.2236,-8.42247 -3.1003,-9.2618 -4.39747,-0.85362 -5.19768,-0.53355 -13.85847,5.5429 -15.33347,10.75805 -16.3017,12.25988 -20.46119,31.73712 -4.84944,22.7081 -6.12527,26.92307 -9.18679,30.35081 -4.28914,4.8022 -10.984,6.48477 -17.71907,4.45318 -5.2231,-1.57551 -21.9594,-8.7714 -24.55448,-10.55739 -1.12596,-0.7749 -2.00331,0.319 -4.24273,5.29 -3.90564,8.66961 -3.90301,8.41618 -0.13771,13.25787 4.2803,5.50393 7.4115,15.55883 6.26048,20.10362 -0.44319,1.74994 -1.66677,4.0282 -2.71909,5.0628 -1.27228,1.25088 -1.55497,2.32141 -0.84376,3.19537 0.58822,0.72285 1.88726,3.29402 2.88672,5.71369 1.45615,3.52529 1.60999,5.61029 0.77423,10.49376 -1.40809,8.22789 -3.2383,10.20414 -10.93162,11.80406 l -6.1097,1.2706 2.00037,5.78806 c 3.59651,10.40654 -0.34329,17.40833 -11.67009,20.73999 -5.18949,1.52645 -6.38953,2.19822 -6.04197,3.38227 0.75881,2.58506 -1.08251,9.82049 -3.38079,13.2846 -1.22127,1.84081 -3.56748,4.03277 -5.21378,4.87103 l -2.99327,1.52411 8.91774,9.77073 c 9.23414,8.19583 15.68858,9.83631 27.74171,14.02478 19.21133,6.67593 29.13382,3.01546 34.60415,10.05476 2.33852,3.00922 12.11951,8.98444 11.9285,9.20697 -0.77535,0.90326 -1.53092,1.831 -1.98259,2.38326 -0.45166,0.55227 -0.40374,0.31374 -2.38354,2.94272 0,0 -9.17112,-4.61704 -13.98383,-10.11183 -2.25175,-2.57088 -13.63922,-1.70543 -31.15118,-6.63538 -15.37584,-4.32858 -20.78742,-8.72516 -29.89633,-15.52542 -7.73376,-5.77365 -9.99627,-10.12366 -15.28678,-12.9498 l -6.86852,-3.66909"
           id="path2845"
           inkscape:connector-curvature="0" />
        <path
           style="fill:#ffffff;fill-opacity:1"
           d="m 540.1948,808.52091 c 3.0723,-6.94325 -0.38671,-11.37788 -12.04692,-15.4448 -9.63719,-3.36131 -17.76427,-7.51484 -26.40744,-13.4962 -4.12416,-2.85404 -6.75469,-4.07675 -7.16284,-3.32942 -1.42671,2.61232 1.75929,12.62448 5.95574,18.71619 6.33058,9.1897 8.91449,11.47984 17.40236,15.42384 10.70444,4.97398 19.56004,4.23016 22.2591,-1.86961 z"
           id="path2841"
           inkscape:connector-curvature="0" />
        <path
           style="fill:#ffffff;fill-opacity:1"
           d="m 559.4718,786.36352 c 1.7788,-3.257 0.20174,-8.53607 -3.90283,-13.06432 -2.50494,-2.76351 -4.70415,-3.85886 -10.32189,-5.141 -3.9263,-0.89609 -7.52906,-1.97977 -8.00613,-2.40817 -0.47708,-0.4284 -4.58752,-1.97909 -9.13434,-3.44597 -11.50467,-3.71161 -19.18988,-8.32854 -25.99248,-15.6151 l -5.82123,-6.23538 -1.87095,4.82714 c -1.67829,4.33004 -1.6732,5.50087 0.0494,11.36933 1.34719,4.79224 4.34379,8.52757 7.00185,12.67499 3.75278,3.87355 19.77602,12.80335 28.01661,15.61375 4.79787,1.63628 10.8676,3.86987 13.48827,4.96352 4.06264,1.69541 5.52924,1.76409 9.95141,0.46601 3.90721,-1.14692 5.52098,-2.13478 6.54229,-4.0048 z"
           id="path2839"
           inkscape:connector-curvature="0" />
        <path
           style="fill:#ffffff;fill-opacity:1"
           d="m 573.78519,759.00912 c 1.33064,-3.94266 0.50038,-8.55239 -2.12319,-11.78811 -1.74461,-2.1517 -4.30422,-3.38743 -9.89592,-4.77756 -5.01714,-1.24728 -12.10114,-4.45955 -21.15709,-9.59374 -13.74606,-7.79321 -19.5508,-12.66518 -22.87983,-19.20321 -2.56462,-5.03676 -4.48494,-5.82011 -9.00073,-3.67159 -7.30356,3.47487 -8.39143,6.44038 -6.83384,18.62866 0.84637,6.62289 0.86806,6.66431 6.80142,12.98646 6.81701,7.26371 9.49191,8.75306 26.29826,14.64237 12.98792,4.55126 18.88787,5.93243 27.40469,6.41539 7.34693,0.41662 10.34044,-0.54001 11.38623,-3.63867 z"
           id="path2837"
           inkscape:connector-curvature="0" />
        <path
           style="fill:#ffffff;fill-opacity:1"
           d="m 573.15364,733.32767 c 1.24909,-1.22808 1.25896,-2.57858 0.0489,-6.70074 -1.28113,-4.36446 -2.83734,-6.57419 -10.06507,-14.29185 -9.37111,-10.00633 -13.8979,-17.825 -10.07587,-17.40303 1.12471,0.12417 3.07828,0.15129 4.34126,0.0603 1.263,-0.091 2.52149,0.53447 2.79665,1.38999 0.27515,0.85552 1.66405,2.74244 3.08645,4.19314 l 10.20952,10.23114 3.88678,-7.74471 c 1.27362,-2.92447 2.97966,-7.14761 2.81957,-7.69301 -0.87705,-2.98784 -41.84007,-14.32972 -46.97674,-12.80971 -4.81334,1.42433 -8.97972,4.78251 -10.15861,8.18804 -3.22604,10.36067 0.88726,18.8667 8.00629,26.3852 6.52775,5.51073 27.37662,16.60605 33.0933,17.61154 5.51845,0.97062 6.75855,0.7752 8.98753,-1.41627 z"
           id="path2453"
           sodipodi:nodetypes="cssssscccssccscc"
           inkscape:connector-curvature="0" />
      </g>
      <path
         id="path3233"
         d="m 69.081311,11.447131 c -0.507408,-0.303529 -0.807727,-0.681394 -0.700835,-0.925876 0.131332,-0.300381 0.827886,-0.286227 1.55481,0.0316 0.726923,0.317823 1.210301,0.819553 1.07897,1.119935 v 0 c -0.100933,0.230853 -0.53571,0.275927 -1.061547,0.140156"
         style="fill:none;stroke:#000000;stroke-width:0.19097823;stroke-linecap:round;stroke-linejoin:round;stroke-miterlimit:4;stroke-dashoffset:0;stroke-opacity:1;marker-start:url(#Arrow1Sstart)"
         inkscape:connector-curvature="0" />
    </g>
    <g
       id="g7601"
       transform="translate(26.411086)">
      <path
         style="fill:#cccccc;fill-opacity:1;fill-rule:nonzero;stroke:#000000;stroke-width:1.00157475;stroke-linecap:round;stroke-linejoin:round;stroke-miterlimit:4;stroke-dasharray:none;stroke-dashoffset:0;stroke-opacity:1"
         d="m 46.517578,40.9375 a 22.232143,6.1607142 0 0 0 -22.232422,6.160156 v 6 A 22.232143,6.1607141 0 0 0 46.517578,59.259766 22.232143,6.1607141 0 0 0 68.75,53.097656 v -6 A 22.232143,6.1607142 0 0 0 46.517578,40.9375 Z"
         transform="matrix(0.26458333,0,0,0.26458333,49.204163,2.7730957)"
         id="path7597"
         inkscape:connector-curvature="0" />
      <ellipse
         style="fill:#cccccc;fill-opacity:1;fill-rule:nonzero;stroke:#000000;stroke-width:0.26499999;stroke-linecap:round;stroke-linejoin:round;stroke-miterlimit:4;stroke-dasharray:none;stroke-dashoffset:0;stroke-opacity:1"
         id="ellipse7599"
         cx="61.512012"
         cy="15.23457"
         rx="5.8822546"
         ry="1.6300223" />
    </g>
    <g
       id="g7845"
       transform="matrix(-1,0,0,1,175.95528,0)">
      <path
         style="fill:none;stroke:#000000;stroke-width:0.26458332px;stroke-linecap:butt;stroke-linejoin:miter;stroke-opacity:1;marker-end:url(#marker7639)"
         d="m 80.15883,13.775089 c 0,0 -3.708364,1.50339 0.835218,4.777442"
         id="path7603"
         inkscape:connector-curvature="0"
         sodipodi:nodetypes="cc" />
      <path
         sodipodi:nodetypes="cc"
         inkscape:connector-curvature="0"
         id="path7605"
         d="m 95.796449,18.601122 c 0,0 3.708364,-1.50339 -0.835218,-4.777442"
         style="fill:none;stroke:#000000;stroke-width:0.26458332px;stroke-linecap:butt;stroke-linejoin:miter;stroke-opacity:1;marker-end:url(#marker7739)" />
    </g>
    <path
       inkscape:connector-curvature="0"
       id="path7607"
       d="M 87.923098,18.332516 V 28.889662"
       style="fill:none;stroke:#000000;stroke-width:0.26458332px;stroke-linecap:butt;stroke-linejoin:miter;stroke-opacity:1;marker-end:url(#marker7849)" />
    <text
       id="text7611"
       y="23.920176"
       x="89.342453"
       style="font-style:normal;font-variant:normal;font-weight:normal;font-stretch:normal;font-size:2.82222223px;line-height:1.25;font-family:'Book Antiqua';-inkscape-font-specification:'Book Antiqua';letter-spacing:0px;word-spacing:0px;fill:#000000;fill-opacity:1;stroke:none;stroke-width:0.26458332"
       xml:space="preserve"><tspan
         style="font-style:italic;stroke-width:0.26458332"
         y="23.920176"
         x="89.342453"
         id="tspan7609"
         sodipodi:role="line">ω</tspan></text>
    <path
       sodipodi:nodetypes="cc"
       inkscape:connector-curvature="0"
       id="path7613"
       d="m 89.425977,22.316558 h 1.628674"
       style="fill:none;stroke:#000000;stroke-width:0.16500001;stroke-linecap:butt;stroke-linejoin:miter;stroke-miterlimit:4;stroke-dasharray:none;stroke-opacity:1;marker-end:url(#marker8135)" />
  </g>
</svg>
