<?xml version="1.0" encoding="UTF-8" standalone="no"?>
<!-- Created with Inkscape (http://www.inkscape.org/) -->

<svg
   xmlns:dc="http://purl.org/dc/elements/1.1/"
   xmlns:cc="http://creativecommons.org/ns#"
   xmlns:rdf="http://www.w3.org/1999/02/22-rdf-syntax-ns#"
   xmlns:svg="http://www.w3.org/2000/svg"
   xmlns="http://www.w3.org/2000/svg"
   xmlns:sodipodi="http://sodipodi.sourceforge.net/DTD/sodipodi-0.dtd"
   xmlns:inkscape="http://www.inkscape.org/namespaces/inkscape"
   width="39.717945mm"
   height="25.674536mm"
   viewBox="0 0 140.73288 90.972764"
   id="svg4310"
   version="1.1"
   inkscape:version="0.91 r13725"
   sodipodi:docname="duas-barras-girando.svg">
  <sodipodi:namedview
     id="base"
     pagecolor="#ffffff"
     bordercolor="#666666"
     borderopacity="1.0"
     inkscape:pageopacity="0.0"
     inkscape:pageshadow="2"
     inkscape:zoom="3.959798"
     inkscape:cx="66.915776"
     inkscape:cy="38.349881"
     inkscape:document-units="px"
     inkscape:current-layer="g7412"
     showgrid="false"
     inkscape:window-width="1301"
     inkscape:window-height="744"
     inkscape:window-x="65"
     inkscape:window-y="24"
     inkscape:window-maximized="1"
     fit-margin-top="0"
     fit-margin-left="0"
     fit-margin-right="0"
     fit-margin-bottom="0" />
  <defs
     id="defs4312">
    <marker
       inkscape:isstock="true"
       style="overflow:visible"
       id="Arrow2Mend"
       refX="0"
       refY="0"
       orient="auto"
       inkscape:stockid="Arrow2Mend">
      <path
         inkscape:connector-curvature="0"
         transform="scale(-0.6,-0.6)"
         d="M 8.7185878,4.0337352 -2.2072895,0.01601326 8.7185884,-4.0017078 c -1.7454984,2.3720609 -1.7354408,5.6174519 -6e-7,8.035443 z"
         style="fill:#000000;fill-opacity:1;fill-rule:evenodd;stroke:#000000;stroke-width:0.625;stroke-linejoin:round;stroke-opacity:1"
         id="path4907" />
    </marker>
    <marker
       inkscape:isstock="true"
       style="overflow:visible"
       id="Arrow1Mend"
       refX="0"
       refY="0"
       orient="auto"
       inkscape:stockid="Arrow1Mend">
      <path
         inkscape:connector-curvature="0"
         transform="matrix(-0.4,0,0,-0.4,-4,0)"
         style="fill:#000000;fill-opacity:1;fill-rule:evenodd;stroke:#000000;stroke-width:1pt;stroke-opacity:1"
         d="M 0,0 5,-5 -12.5,0 5,5 0,0 Z"
         id="path4889" />
    </marker>
    <inkscape:path-effect
       is_visible="true"
       id="path-effect6777"
       effect="spiro" />
    <marker
       style="overflow:visible"
       id="marker5445"
       refX="0"
       refY="0"
       orient="auto"
       inkscape:stockid="DistanceStart"
       inkscape:isstock="true">
      <g
         id="g5447"
         style="fill:#000000;fill-opacity:1;stroke:#000000;stroke-opacity:1">
        <path
           inkscape:connector-curvature="0"
           style="fill:#000000;fill-opacity:1;stroke:#000000;stroke-width:1.14999998;stroke-linecap:square;stroke-opacity:1"
           d="M 0,0 2,0"
           id="path5449" />
        <path
           inkscape:connector-curvature="0"
           style="fill:#000000;fill-opacity:1;fill-rule:evenodd;stroke:#000000;stroke-opacity:1"
           d="M 0,0 13,4 9,0 13,-4 0,0 Z"
           id="path5451" />
        <path
           inkscape:connector-curvature="0"
           style="fill:#000000;fill-opacity:1;stroke:#000000;stroke-width:1;stroke-linecap:square;stroke-opacity:1"
           d="M 0,-4 0,40"
           id="path5453" />
      </g>
    </marker>
    <marker
       style="overflow:visible"
       id="marker5345"
       refX="0"
       refY="0"
       orient="auto"
       inkscape:stockid="DistanceEnd"
       inkscape:isstock="true">
      <g
         id="g5347"
         style="fill:#000000;fill-opacity:1;stroke:#000000;stroke-opacity:1">
        <path
           inkscape:connector-curvature="0"
           style="fill:#000000;fill-opacity:1;stroke:#000000;stroke-width:1.14999998;stroke-linecap:square;stroke-opacity:1"
           d="M 0,0 -2,0"
           id="path5349" />
        <path
           inkscape:connector-curvature="0"
           style="fill:#000000;fill-opacity:1;fill-rule:evenodd;stroke:#000000;stroke-opacity:1"
           d="M 0,0 -13,4 -9,0 -13,-4 0,0 Z"
           id="path5351" />
        <path
           inkscape:connector-curvature="0"
           style="fill:#000000;fill-opacity:1;stroke:#000000;stroke-width:1;stroke-linecap:square;stroke-opacity:1"
           d="M 0,-4 0,40"
           id="path5353" />
      </g>
    </marker>
    <inkscape:path-effect
       is_visible="true"
       id="path-effect5328"
       effect="spiro" />
    <marker
       inkscape:collect="always"
       inkscape:isstock="true"
       inkscape:stockid="DistanceStart"
       orient="auto"
       refY="0"
       refX="0"
       id="DistanceStart"
       style="overflow:visible">
      <g
         style="fill:#000000;fill-opacity:1;stroke:#000000;stroke-opacity:1"
         id="g2300">
        <path
           inkscape:connector-curvature="0"
           id="path2306"
           d="M 0,0 2,0"
           style="fill:#000000;fill-opacity:1;stroke:#000000;stroke-width:1.14999998;stroke-linecap:square;stroke-opacity:1" />
        <path
           inkscape:connector-curvature="0"
           id="path2302"
           d="M 0,0 13,4 9,0 13,-4 0,0 Z"
           style="fill:#000000;fill-opacity:1;fill-rule:evenodd;stroke:#000000;stroke-opacity:1" />
        <path
           inkscape:connector-curvature="0"
           id="path2304"
           d="M 0,-4 0,40"
           style="fill:#000000;fill-opacity:1;stroke:#000000;stroke-width:1;stroke-linecap:square;stroke-opacity:1" />
      </g>
    </marker>
    <marker
       inkscape:collect="always"
       inkscape:isstock="true"
       inkscape:stockid="DistanceEnd"
       orient="auto"
       refY="0"
       refX="0"
       id="DistanceEnd"
       style="overflow:visible">
      <g
         style="fill:#000000;fill-opacity:1;stroke:#000000;stroke-opacity:1"
         id="g2301">
        <path
           inkscape:connector-curvature="0"
           id="path2316"
           d="M 0,0 -2,0"
           style="fill:#000000;fill-opacity:1;stroke:#000000;stroke-width:1.14999998;stroke-linecap:square;stroke-opacity:1" />
        <path
           inkscape:connector-curvature="0"
           id="path2312"
           d="M 0,0 -13,4 -9,0 -13,-4 0,0 Z"
           style="fill:#000000;fill-opacity:1;fill-rule:evenodd;stroke:#000000;stroke-opacity:1" />
        <path
           inkscape:connector-curvature="0"
           id="path2314"
           d="M 0,-4 0,40"
           style="fill:#000000;fill-opacity:1;stroke:#000000;stroke-width:1;stroke-linecap:square;stroke-opacity:1" />
      </g>
    </marker>
    <inkscape:path-effect
       is_visible="true"
       id="path-effect4874"
       effect="spiro" />
    <inkscape:path-effect
       is_visible="true"
       id="path-effect4868"
       effect="spiro" />
    <inkscape:path-effect
       is_visible="true"
       id="path-effect4864"
       effect="spiro" />
    <inkscape:path-effect
       is_visible="true"
       id="path-effect4860"
       effect="spiro" />
  </defs>
  <metadata
     id="metadata4315">
    <rdf:RDF>
      <cc:Work
         rdf:about="">
        <dc:format>image/svg+xml</dc:format>
        <dc:type
           rdf:resource="http://purl.org/dc/dcmitype/StillImage" />
        <dc:title />
      </cc:Work>
    </rdf:RDF>
  </metadata>
  <g
     transform="translate(-145.07419,-520.35373)"
     id="layer1"
     inkscape:groupmode="layer"
     inkscape:label="Layer 1">
    <circle
       r="3.9285715"
       cy="585.57654"
       cx="164.64287"
       id="path4870"
       style="opacity:0.99299999;fill:#333333;fill-opacity:1;fill-rule:evenodd;stroke:none;stroke-width:3;stroke-linecap:round;stroke-linejoin:round;stroke-miterlimit:4;stroke-dasharray:none;stroke-dashoffset:0;stroke-opacity:1" />
    <path
       inkscape:connector-curvature="0"
       inkscape:original-d="m 164.37806,585.88098 44.81532,-39.8947"
       inkscape:path-effect="#path-effect4860"
       id="path4858"
       d="m 164.37806,585.88098 44.81532,-39.8947"
       style="fill:none;fill-rule:evenodd;stroke:#000000;stroke-width:3;stroke-linecap:round;stroke-linejoin:miter;stroke-miterlimit:4;stroke-dasharray:none;stroke-opacity:1" />
    <path
       inkscape:connector-curvature="0"
       inkscape:original-d="m 284.28571,585.93363 -120,0"
       inkscape:path-effect="#path-effect4868"
       id="path4866"
       d="m 284.28571,585.93363 -120,0"
       style="fill:none;fill-rule:evenodd;stroke:#000000;stroke-width:3;stroke-linecap:round;stroke-linejoin:miter;stroke-miterlimit:4;stroke-dasharray:none;stroke-opacity:1" />
    <path
       inkscape:connector-curvature="0"
       inkscape:original-d="m 284.64287,609.0765 -120.71429,0"
       inkscape:path-effect="#path-effect4874"
       id="path4872"
       d="m 284.64287,609.0765 -120.71429,0"
       style="fill:none;fill-rule:evenodd;stroke:#000000;stroke-width:0.5;stroke-linecap:butt;stroke-linejoin:miter;stroke-miterlimit:4;stroke-dasharray:none;stroke-opacity:1;marker-start:url(#DistanceStart);marker-end:url(#DistanceEnd)" />
    <path
       inkscape:connector-curvature="0"
       inkscape:original-d="m 148.21428,569.14792 45,-41.78572"
       inkscape:path-effect="#path-effect5328"
       id="path5326"
       d="m 148.21428,569.14792 45,-41.78572"
       style="fill:none;fill-rule:evenodd;stroke:#000000;stroke-width:0.5;stroke-linecap:butt;stroke-linejoin:miter;stroke-miterlimit:4;stroke-dasharray:none;stroke-opacity:1;marker-start:url(#marker5445);marker-end:url(#marker5345)" />
    <path
       sodipodi:nodetypes="csc"
       inkscape:connector-curvature="0"
       inkscape:original-d="m 207.5,529.14792 c 0,0 7.50443,2.27055 11.07143,5.35714 3.70081,3.20239 7.5,11.07143 7.5,11.07143"
       inkscape:path-effect="#path-effect6777"
       id="path6775"
       d="m 207.5,529.14792 c 4.06102,0.8212 7.90733,2.68231 11.07143,5.35714 3.44698,2.91396 6.07236,6.78952 7.5,11.07143"
       style="fill:none;fill-rule:evenodd;stroke:#000000;stroke-width:1px;stroke-linecap:butt;stroke-linejoin:miter;stroke-opacity:1;marker-end:url(#Arrow2Mend)" />
    <text
       sodipodi:linespacing="125%"
       id="text7311"
       y="600.2193"
       x="143.92857"
       style="font-style:normal;font-variant:normal;font-weight:500;font-stretch:normal;font-size:20px;line-height:125%;font-family:jsMath-cmsy10;-inkscape-font-specification:'jsMath-cmsy10 Medium';letter-spacing:0px;word-spacing:0px;fill:#000000;fill-opacity:1;stroke:none;stroke-width:1px;stroke-linecap:butt;stroke-linejoin:miter;stroke-opacity:1"
       xml:space="preserve"><tspan
         y="600.2193"
         x="143.92857"
         id="tspan7313"
         sodipodi:role="line">O</tspan></text>
    <g
       transform="translate(-34.686234,-65.304673)"
       id="g7412"
       style="fill:#000000;fill-opacity:1">
      <g
         id="g5123"
         transform="matrix(3.3225784,0,0,3.3225784,116.18616,454.22771)">
        <g
           id="content"
           transform="matrix(0.09189637,-0.09189637,-0.09189637,-0.09189637,28.614718,136.5029)"
           xml:space="preserve"
           stroke-miterlimit="10.433"
           font-style="normal"
           font-variant="normal"
           font-weight="normal"
           font-stretch="normal"
           font-size-adjust="none"
           letter-spacing="normal"
           word-spacing="normal"
           style="font-style:normal;font-variant:normal;font-weight:normal;font-stretch:normal;letter-spacing:normal;word-spacing:normal;text-anchor:start;fill:none;fill-opacity:1;fill-rule:evenodd;stroke:#000000;stroke-linecap:butt;stroke-linejoin:miter;stroke-miterlimit:10.43299961;stroke-dasharray:none;stroke-dashoffset:0;stroke-opacity:1"><path
             d="m 460.38,408.94 -0.01,-0.07 -0.02,-0.08 -0.01,-0.07 -0.02,-0.08 -0.03,-0.16 -0.04,-0.16 -0.04,-0.16 -0.03,-0.16 -0.04,-0.16 -0.04,-0.16 -0.01,-0.08 -0.02,-0.07 -0.02,-0.07 -0.01,-0.07 -0.02,-0.07 -0.01,-0.07 -0.01,-0.06 -0.02,-0.06 -0.01,-0.05 -0.01,-0.06 -0.01,-0.05 0,-0.04 -0.01,-0.04 0,-0.04 -0.01,-0.03 0,-0.02 c 0,-0.9 0.7,-1.35 1.45,-1.35 0.6,0 1.5,0.4 1.84,1.4 0.05,0.1 0.65,2.44 0.95,3.68 l 1.1,4.49 c 0.29,1.09 0.59,2.19 0.84,3.34 0.2,0.84 0.6,2.28 0.65,2.48 0.75,1.55 3.39,6.08 8.12,6.08 2.24,0 2.69,-1.84 2.69,-3.49 0,-1.24 -0.35,-2.64 -0.75,-4.13 l -1.39,-5.78 -1,-3.79 c -0.2,-0.99 -0.64,-2.68 -0.64,-2.93 0,-0.9 0.69,-1.35 1.44,-1.35 1.54,0 1.84,1.25 2.24,2.84 0.7,2.79 2.54,10.07 2.99,12.01 0.15,0.65 2.79,6.62 8.22,6.62 2.14,0 2.69,-1.69 2.69,-3.49 0,-2.84 -2.1,-8.51 -3.09,-11.15 -0.45,-1.2 -0.65,-1.75 -0.65,-2.74 0,-2.34 1.75,-4.09 4.08,-4.09 4.69,0 6.53,7.28 6.53,7.67 0,0.5 -0.45,0.5 -0.6,0.5 -0.5,0 -0.5,-0.15 -0.74,-0.89 -0.75,-2.64 -2.35,-6.18 -5.08,-6.18 -0.85,0 -1.2,0.5 -1.2,1.64 0,1.25 0.45,2.44 0.9,3.54 0.94,2.59 3.03,8.12 3.03,10.96 0,3.24 -1.99,5.33 -5.72,5.33 -3.74,0 -6.28,-2.2 -8.12,-4.84 -0.05,0.65 -0.2,2.35 -1.6,3.54 -1.24,1.05 -2.84,1.3 -4.08,1.3 -4.48,0 -6.92,-3.19 -7.77,-4.34 -0.25,2.84 -2.34,4.34 -4.58,4.34 -2.3,0 -3.24,-1.95 -3.69,-2.84 -0.9,-1.75 -1.54,-4.68 -1.54,-4.83 0,-0.5 0.49,-0.5 0.59,-0.5 0.5,0 0.55,0.05 0.85,1.14 0.84,3.54 1.84,5.93 3.64,5.93 0.79,0 1.54,-0.4 1.54,-2.29 0,-1.04 -0.15,-1.59 -0.8,-4.18 z"
             id="path5126"
             inkscape:connector-curvature="0"
             style="fill:#000000;stroke-width:0" /><path
             d="m 510.68,421.18 0,0.04 0,0.04 0,0.04 0,0.04 0,0.04 0,0.04 0,0.03 0,0.04 -0.01,0.03 0,0.03 0,0.04 0,0.03 -0.01,0.02 0,0.03 0,0.03 -0.01,0.03 0,0.02 0,0.02 -0.02,0.05 -0.01,0.04 -0.01,0.04 -0.02,0.03 -0.02,0.03 -0.02,0.03 -0.03,0.03 -0.02,0.02 -0.03,0.02 -0.04,0.02 -0.03,0.01 -0.04,0.01 -0.05,0.02 -0.05,0 -0.02,0.01 -0.03,0 -0.03,0.01 -0.02,0 -0.03,0 -0.03,0 -0.04,0 -0.03,0.01 -0.03,0 -0.04,0 -0.03,0 -0.04,0 -0.04,0 -0.04,0 -0.04,0 -0.04,0 -0.05,0 -0.04,0 c -2.24,-2.19 -5.41,-2.23 -6.84,-2.23 l 0,-1.25 c 0.84,0 3.14,0 5.06,0.97 l 0,-17.78 c 0,-1.15 0,-1.61 -3.49,-1.61 l -1.33,0 0,-1.25 12.45,0 0,1.25 -1.32,0 c -3.49,0 -3.49,0.46 -3.49,1.61 z"
             id="path5128"
             inkscape:connector-curvature="0"
             style="fill:#000000;stroke-width:0" /></g>      </g>
      <g
         id="g5251"
         transform="matrix(3.3225784,0,0,3.3225784,136.90045,469.94199)">
        <g
           word-spacing="normal"
           letter-spacing="normal"
           font-size-adjust="none"
           font-stretch="normal"
           font-weight="normal"
           font-variant="normal"
           font-style="normal"
           stroke-miterlimit="10.433"
           xml:space="preserve"
           transform="matrix(0.12996109,0,0,-0.12996109,-22.743191,105.54966)"
           id="g5253"
           style="font-style:normal;font-variant:normal;font-weight:normal;font-stretch:normal;letter-spacing:normal;word-spacing:normal;text-anchor:start;fill:none;fill-opacity:1;fill-rule:evenodd;stroke:#000000;stroke-linecap:butt;stroke-linejoin:miter;stroke-miterlimit:10.43299961;stroke-dasharray:none;stroke-dashoffset:0;stroke-opacity:1"><path
             id="path5255"
             d="m 460.38,408.94 -0.01,-0.07 -0.02,-0.08 -0.01,-0.07 -0.02,-0.08 -0.03,-0.16 -0.04,-0.16 -0.04,-0.16 -0.03,-0.16 -0.04,-0.16 -0.04,-0.16 -0.01,-0.08 -0.02,-0.07 -0.02,-0.07 -0.01,-0.07 -0.02,-0.07 -0.01,-0.07 -0.01,-0.06 -0.02,-0.06 -0.01,-0.05 -0.01,-0.06 -0.01,-0.05 0,-0.04 -0.01,-0.04 0,-0.04 -0.01,-0.03 0,-0.02 c 0,-0.9 0.7,-1.35 1.45,-1.35 0.6,0 1.5,0.4 1.84,1.4 0.05,0.1 0.65,2.44 0.95,3.68 l 1.1,4.49 c 0.29,1.09 0.59,2.19 0.84,3.34 0.2,0.84 0.6,2.28 0.65,2.48 0.75,1.55 3.39,6.08 8.12,6.08 2.24,0 2.69,-1.84 2.69,-3.49 0,-1.24 -0.35,-2.64 -0.75,-4.13 l -1.39,-5.78 -1,-3.79 c -0.2,-0.99 -0.64,-2.68 -0.64,-2.93 0,-0.9 0.69,-1.35 1.44,-1.35 1.54,0 1.84,1.25 2.24,2.84 0.7,2.79 2.54,10.07 2.99,12.01 0.15,0.65 2.79,6.62 8.22,6.62 2.14,0 2.69,-1.69 2.69,-3.49 0,-2.84 -2.1,-8.51 -3.09,-11.15 -0.45,-1.2 -0.65,-1.75 -0.65,-2.74 0,-2.34 1.75,-4.09 4.08,-4.09 4.69,0 6.53,7.28 6.53,7.67 0,0.5 -0.45,0.5 -0.6,0.5 -0.5,0 -0.5,-0.15 -0.74,-0.89 -0.75,-2.64 -2.35,-6.18 -5.08,-6.18 -0.85,0 -1.2,0.5 -1.2,1.64 0,1.25 0.45,2.44 0.9,3.54 0.94,2.59 3.03,8.12 3.03,10.96 0,3.24 -1.99,5.33 -5.72,5.33 -3.74,0 -6.28,-2.2 -8.12,-4.84 -0.05,0.65 -0.2,2.35 -1.6,3.54 -1.24,1.05 -2.84,1.3 -4.08,1.3 -4.48,0 -6.92,-3.19 -7.77,-4.34 -0.25,2.84 -2.34,4.34 -4.58,4.34 -2.3,0 -3.24,-1.95 -3.69,-2.84 -0.9,-1.75 -1.54,-4.68 -1.54,-4.83 0,-0.5 0.49,-0.5 0.59,-0.5 0.5,0 0.55,0.05 0.85,1.14 0.84,3.54 1.84,5.93 3.64,5.93 0.79,0 1.54,-0.4 1.54,-2.29 0,-1.04 -0.15,-1.59 -0.8,-4.18 z"
             inkscape:connector-curvature="0"
             style="fill:#000000;stroke-width:0" /><path
             id="path5257"
             d="m 516.61,405.35 -1.19,0 c -0.1,-0.77 -0.45,-2.83 -0.9,-3.18 -0.28,-0.21 -2.97,-0.21 -3.45,-0.21 l -6.42,0 c 3.66,3.25 4.88,4.22 6.97,5.86 2.58,2.06 4.99,4.22 4.99,7.54 0,4.21 -3.7,6.79 -8.16,6.79 -4.33,0 -7.25,-3.03 -7.25,-6.24 0,-1.78 1.5,-1.95 1.84,-1.95 0.84,0 1.85,0.59 1.85,1.85 0,0.62 -0.24,1.85 -2.05,1.85 1.08,2.47 3.45,3.24 5.09,3.24 3.48,0 5.3,-2.72 5.3,-5.54 0,-3.04 -2.16,-5.45 -3.28,-6.7 l -8.4,-8.3 c -0.35,-0.31 -0.35,-0.38 -0.35,-1.36 l 14.36,0 z"
             inkscape:connector-curvature="0"
             style="fill:#000000;stroke-width:0" /></g>      </g>
    </g>
    <g
       transform="matrix(1.8600099,-3.2216316,3.2216316,1.8600099,-59.356382,584.17927)"
       id="g4332"
       style="fill:#000000;fill-opacity:1" />
    <g
       id="g4495"
       transform="matrix(1.9917995,-1.9917995,1.9917995,1.9917995,-3.2618127,531.3038)">
      <g
         id="g5132"
         transform="matrix(0.12996109,0,0,-0.12996109,-22.743191,105.54966)"
         xml:space="preserve"
         stroke-miterlimit="10.433"
         font-style="normal"
         font-variant="normal"
         font-weight="normal"
         font-stretch="normal"
         font-size-adjust="none"
         letter-spacing="normal"
         word-spacing="normal"
         style="font-style:normal;font-variant:normal;font-weight:normal;font-stretch:normal;letter-spacing:normal;word-spacing:normal;text-anchor:start;fill:none;fill-opacity:1;fill-rule:evenodd;stroke:#000000;stroke-linecap:butt;stroke-linejoin:miter;stroke-miterlimit:10.43299961;stroke-dasharray:none;stroke-dashoffset:0;stroke-opacity:1"><path
           d="m 456.8,410.93 -0.02,-0.03 -0.02,-0.03 -0.02,-0.02 -0.02,-0.03 -0.02,-0.03 -0.03,-0.03 -0.02,-0.03 -0.01,-0.03 -0.02,-0.03 -0.01,-0.02 -0.01,-0.01 -0.01,-0.02 0,-0.01 -0.01,-0.02 -0.01,-0.02 0,-0.01 -0.01,-0.02 0,-0.02 -0.01,-0.01 0,-0.02 0,-0.02 0,-0.02 0,-0.02 c 0,-0.25 0.3,-0.64 0.59,-0.64 0.25,0 0.4,0.14 1.8,1.54 0.4,0.35 1.39,1.29 1.79,1.69 0.5,-3.93 1.95,-7.62 5.58,-7.62 1.99,0 3.74,1.15 4.78,1.9 0.7,0.49 3.04,2.43 3.04,2.93 0,0.15 -0.15,0.6 -0.59,0.6 -0.15,0 -0.2,-0.05 -0.65,-0.45 -3.19,-3.13 -5.03,-3.88 -6.48,-3.88 -2.24,0 -3.04,2.59 -3.04,6.47 0,0.3 0.1,2.59 0.25,2.84 0.1,0.15 0.1,0.25 1.1,1.25 4.03,4.03 11.1,12.45 11.1,20.17 0,0.85 0,3.89 -2.93,3.89 l 0.05,-1.1 c 1.69,0 1.69,-1.79 1.69,-2.59 0,-8.32 -8.37,-17.04 -10.76,-19.52 l 0,0 c 0.1,0.54 2.24,11.6 5.08,17.43 1.35,2.69 2.39,4.68 3.99,4.68 l -0.05,1.1 c -4.14,0 -7.82,-8.22 -8.32,-9.37 -2.39,-5.43 -3.94,-11.25 -3.94,-17.18 z"
           id="path4498"
           inkscape:connector-curvature="0"
           style="fill:#000000;stroke-width:0" /><path
           d="m 487.68,421.18 0,0.04 0,0.04 0,0.04 0,0.04 0,0.04 0,0.04 0,0.03 0,0.04 -0.01,0.03 0,0.03 0,0.04 0,0.03 -0.01,0.02 0,0.03 0,0.03 -0.01,0.03 0,0.02 0,0.02 -0.02,0.05 -0.01,0.04 -0.01,0.04 -0.02,0.03 -0.02,0.03 -0.02,0.03 -0.03,0.03 -0.02,0.02 -0.03,0.02 -0.04,0.02 -0.03,0.01 -0.04,0.01 -0.05,0.02 -0.05,0 -0.02,0.01 -0.03,0 -0.03,0.01 -0.02,0 -0.03,0 -0.03,0 -0.04,0 -0.03,0.01 -0.03,0 -0.04,0 -0.03,0 -0.04,0 -0.04,0 -0.04,0 -0.04,0 -0.04,0 -0.05,0 -0.04,0 c -2.24,-2.19 -5.41,-2.23 -6.84,-2.23 l 0,-1.25 c 0.84,0 3.14,0 5.06,0.97 l 0,-17.78 c 0,-1.15 0,-1.61 -3.49,-1.61 l -1.33,0 0,-1.25 12.45,0 0,1.25 -1.32,0 c -3.49,0 -3.49,0.46 -3.49,1.61 z"
           id="path4500"
           inkscape:connector-curvature="0"
           style="fill:#000000;stroke-width:0" /></g>    </g>
    <g
       id="g4636"
       transform="matrix(2.8168299,0,0,2.8168299,114.96748,456.86479)">
      <g
         word-spacing="normal"
         letter-spacing="normal"
         font-size-adjust="none"
         font-stretch="normal"
         font-weight="normal"
         font-variant="normal"
         font-style="normal"
         stroke-miterlimit="10.433"
         xml:space="preserve"
         transform="matrix(0.12996109,0,0,-0.12996109,-22.743191,105.54966)"
         id="g4638"
         style="font-style:normal;font-variant:normal;font-weight:normal;font-stretch:normal;letter-spacing:normal;word-spacing:normal;text-anchor:start;fill:none;fill-opacity:1;fill-rule:evenodd;stroke:#000000;stroke-linecap:butt;stroke-linejoin:miter;stroke-miterlimit:10.43299961;stroke-dasharray:none;stroke-dashoffset:0;stroke-opacity:1"><path
           id="path4640"
           d="m 456.8,410.93 -0.02,-0.03 -0.02,-0.03 -0.02,-0.02 -0.02,-0.03 -0.02,-0.03 -0.03,-0.03 -0.02,-0.03 -0.01,-0.03 -0.02,-0.03 -0.01,-0.02 -0.01,-0.01 -0.01,-0.02 0,-0.01 -0.01,-0.02 -0.01,-0.02 0,-0.01 -0.01,-0.02 0,-0.02 -0.01,-0.01 0,-0.02 0,-0.02 0,-0.02 0,-0.02 c 0,-0.25 0.3,-0.64 0.59,-0.64 0.25,0 0.4,0.14 1.8,1.54 0.4,0.35 1.39,1.29 1.79,1.69 0.5,-3.93 1.95,-7.62 5.58,-7.62 1.99,0 3.74,1.15 4.78,1.9 0.7,0.49 3.04,2.43 3.04,2.93 0,0.15 -0.15,0.6 -0.59,0.6 -0.15,0 -0.2,-0.05 -0.65,-0.45 -3.19,-3.13 -5.03,-3.88 -6.48,-3.88 -2.24,0 -3.04,2.59 -3.04,6.47 0,0.3 0.1,2.59 0.25,2.84 0.1,0.15 0.1,0.25 1.1,1.25 4.03,4.03 11.1,12.45 11.1,20.17 0,0.85 0,3.89 -2.93,3.89 l 0.05,-1.1 c 1.69,0 1.69,-1.79 1.69,-2.59 0,-8.32 -8.37,-17.04 -10.76,-19.52 l 0,0 c 0.1,0.54 2.24,11.6 5.08,17.43 1.35,2.69 2.39,4.68 3.99,4.68 l -0.05,1.1 c -4.14,0 -7.82,-8.22 -8.32,-9.37 -2.39,-5.43 -3.94,-11.25 -3.94,-17.18 z"
           inkscape:connector-curvature="0"
           style="fill:#000000;stroke-width:0" /><path
           id="path4642"
           d="m 493.61,405.35 -1.19,0 c -0.1,-0.77 -0.45,-2.83 -0.9,-3.18 -0.28,-0.21 -2.97,-0.21 -3.45,-0.21 l -6.42,0 c 3.66,3.25 4.88,4.22 6.97,5.86 2.58,2.06 4.99,4.22 4.99,7.54 0,4.21 -3.7,6.79 -8.16,6.79 -4.33,0 -7.25,-3.03 -7.25,-6.24 0,-1.78 1.5,-1.95 1.84,-1.95 0.84,0 1.85,0.59 1.85,1.85 0,0.62 -0.24,1.85 -2.05,1.85 1.08,2.47 3.45,3.24 5.09,3.24 3.48,0 5.3,-2.72 5.3,-5.54 0,-3.04 -2.16,-5.45 -3.28,-6.7 l -8.4,-8.3 c -0.35,-0.31 -0.35,-0.38 -0.35,-1.36 l 14.36,0 z"
           inkscape:connector-curvature="0"
           style="fill:#000000;stroke-width:0" /></g>    </g>
    <g
       id="g4944"
       transform="matrix(2.8168299,0,0,2.8168299,119.09748,384.05496)">
      <g
         word-spacing="normal"
         letter-spacing="normal"
         font-size-adjust="none"
         font-stretch="normal"
         font-weight="normal"
         font-variant="normal"
         font-style="normal"
         stroke-miterlimit="10.433"
         xml:space="preserve"
         transform="matrix(0.12996109,0,0,-0.12996109,-22.743191,105.54966)"
         id="g4946"
         style="font-style:normal;font-variant:normal;font-weight:normal;font-stretch:normal;letter-spacing:normal;word-spacing:normal;text-anchor:start;fill:none;fill-opacity:1;fill-rule:evenodd;stroke:#000000;stroke-linecap:butt;stroke-linejoin:miter;stroke-miterlimit:10.43299961;stroke-dasharray:none;stroke-dashoffset:0;stroke-opacity:1"><path
           id="path4948"
           d="m 486.14,424.53 -0.01,0.21 0,0.2 -0.02,0.2 -0.01,0.18 -0.03,0.19 -0.02,0.18 -0.03,0.17 -0.04,0.16 -0.04,0.16 -0.04,0.15 -0.05,0.15 -0.05,0.14 -0.06,0.13 -0.06,0.13 -0.06,0.12 -0.07,0.11 -0.07,0.11 -0.07,0.1 -0.07,0.1 -0.08,0.08 -0.08,0.09 -0.09,0.07 -0.08,0.07 -0.09,0.06 -0.09,0.05 -0.09,0.05 -0.1,0.04 -0.09,0.03 -0.1,0.02 -0.1,0.02 -0.1,0.01 -0.11,0.01 c -1.29,0 -2.64,-1.2 -2.64,-2.34 0,-0.5 0.25,-1.05 0.75,-1.5 0.85,-0.75 1.75,-2.09 1.75,-4.18 0,-2 -0.95,-4.84 -2.5,-7.12 -1.49,-2.15 -3.33,-3.84 -5.68,-3.84 -2.84,0 -4.38,1.79 -4.83,4.48 0.55,1.3 1.7,4.48 1.7,5.88 0,0.6 -0.25,1.1 -0.9,1.1 -0.4,0 -0.95,-0.11 -1.34,-0.85 -0.55,-1 -1.15,-4.24 -1.15,-6.03 -1.64,-2.34 -3.64,-4.58 -6.77,-4.58 -3.29,0 -4.34,2.94 -4.34,5.73 0,6.22 5.08,11.45 5.08,12.1 0,0.55 -0.39,0.95 -0.94,0.95 -0.65,0 -1,-0.65 -1.3,-1.1 -2.54,-3.68 -4.43,-9.61 -4.43,-14.15 0,-3.43 1.14,-7.12 5.23,-7.12 3.53,0 5.88,2.49 7.67,5.23 0.45,-2.89 2.39,-5.23 5.48,-5.23 3.88,0 6.27,3.04 8.07,6.78 1.19,2.44 3.09,9.21 3.09,12.3 z"
           inkscape:connector-curvature="0"
           style="fill:#000000;stroke-width:0" /><path
           id="path4950"
           d="m 497.68,421.18 0,0.04 0,0.04 0,0.04 0,0.04 0,0.04 0,0.04 0,0.03 0,0.04 -0.01,0.03 0,0.03 0,0.04 0,0.03 -0.01,0.02 0,0.03 0,0.03 -0.01,0.03 0,0.02 0,0.02 -0.02,0.05 -0.01,0.04 -0.01,0.04 -0.02,0.03 -0.02,0.03 -0.02,0.03 -0.03,0.03 -0.02,0.02 -0.03,0.02 -0.04,0.02 -0.03,0.01 -0.04,0.01 -0.05,0.02 -0.05,0 -0.02,0.01 -0.03,0 -0.03,0.01 -0.02,0 -0.03,0 -0.03,0 -0.04,0 -0.03,0.01 -0.03,0 -0.04,0 -0.03,0 -0.04,0 -0.04,0 -0.04,0 -0.04,0 -0.04,0 -0.05,0 -0.04,0 c -2.24,-2.19 -5.41,-2.23 -6.84,-2.23 l 0,-1.25 c 0.84,0 3.14,0 5.06,0.97 l 0,-17.78 c 0,-1.15 0,-1.61 -3.49,-1.61 l -1.33,0 0,-1.25 12.45,0 0,1.25 -1.32,0 c -3.49,0 -3.49,0.46 -3.49,1.61 z"
           inkscape:connector-curvature="0"
           style="fill:#000000;stroke-width:0" /></g>    </g>
  </g>
</svg>
