<?xml version="1.0" encoding="utf-8" standalone="no"?>
<!DOCTYPE svg PUBLIC "-//W3C//DTD SVG 1.1//EN"
  "http://www.w3.org/Graphics/SVG/1.1/DTD/svg11.dtd">
<!-- Created with matplotlib (http://matplotlib.org/) -->
<svg height="288pt" version="1.1" viewBox="0 0 432 288" width="432pt" xmlns="http://www.w3.org/2000/svg" xmlns:xlink="http://www.w3.org/1999/xlink">
 <defs>
  <style type="text/css">
*{stroke-linecap:butt;stroke-linejoin:round;}
  </style>
 </defs>
 <g id="figure_1">
  <g id="patch_1">
   <path d="M 0 288 
L 432 288 
L 432 0 
L 0 0 
z
" style="fill:#ffffff;"/>
  </g>
  <g id="axes_1">
   <g id="patch_2">
    <path d="M 74.085813 229.610711 
L 359.773806 229.610711 
L 359.773806 20.78 
L 74.085813 20.78 
z
" style="fill:#ffffff;"/>
   </g>
   <g id="matplotlib.axis_1">
    <g id="xtick_1">
     <g id="line2d_1">
      <defs>
       <path d="M 0 0 
L 0 3.5 
" id="m086daec980" style="stroke:#000000;stroke-width:0.8;"/>
      </defs>
      <g>
       <use style="stroke:#000000;stroke-width:0.8;" x="87.071631" xlink:href="#m086daec980" y="229.610711"/>
      </g>
     </g>
     <g id="text_1">
      <!-- $10^{1}$ -->
      <defs>
       <path d="M 26.59375 63.40625 
C 26.59375 65.5 26.5 65.5 25.09375 65.5 
C 21.203125 61.1875 15.296875 59.796875 9.703125 59.796875 
C 9.40625 59.796875 8.90625 59.796875 8.796875 59.5 
C 8.703125 59.296875 8.703125 59.09375 8.703125 57 
C 11.796875 57 17 57.59375 21 59.984375 
L 21 7.203125 
C 21 3.6875 20.796875 2.5 12.203125 2.5 
L 9.203125 2.5 
L 9.203125 0 
C 14 0 19 0 23.796875 0 
C 28.59375 0 33.59375 0 38.40625 0 
L 38.40625 2.5 
L 35.40625 2.5 
C 26.796875 2.5 26.59375 3.59375 26.59375 7.15625 
z
" id="CMR17-49"/>
       <path d="M 42 31.640625 
C 42 37.75 41.90625 48.125 37.703125 56.109375 
C 34 63.109375 28.09375 65.59375 22.90625 65.59375 
C 18.09375 65.59375 12 63.40625 8.203125 56.203125 
C 4.203125 48.71875 3.796875 39.4375 3.796875 31.640625 
C 3.796875 25.953125 3.90625 17.28125 7 9.671875 
C 11.296875 -0.609375 19 -2 22.90625 -2 
C 27.5 -2 34.5 -0.109375 38.59375 9.375 
C 41.59375 16.28125 42 24.359375 42 31.640625 
M 22.90625 -0.40625 
C 16.5 -0.40625 12.703125 5.078125 11.296875 12.6875 
C 10.203125 18.5625 10.203125 27.15625 10.203125 32.75 
C 10.203125 40.4375 10.203125 46.828125 11.5 52.921875 
C 13.40625 61.390625 19 64 22.90625 64 
C 27 64 32.296875 61.296875 34.203125 53.125 
C 35.5 47.4375 35.59375 40.734375 35.59375 32.75 
C 35.59375 26.25 35.59375 18.265625 34.40625 12.375 
C 32.296875 1.484375 26.40625 -0.40625 22.90625 -0.40625 
" id="CMR17-48"/>
      </defs>
      <g transform="translate(76.478109 247.6803)scale(0.16 -0.16)">
       <use transform="scale(0.996264)" xlink:href="#CMR17-49"/>
       <use transform="translate(45.690477 0)scale(0.996264)" xlink:href="#CMR17-48"/>
       <use transform="translate(91.380954 36.153639)scale(0.697382)" xlink:href="#CMR17-49"/>
      </g>
     </g>
    </g>
    <g id="xtick_2">
     <g id="line2d_2">
      <g>
       <use style="stroke:#000000;stroke-width:0.8;" x="152.00072" xlink:href="#m086daec980" y="229.610711"/>
      </g>
     </g>
     <g id="text_2">
      <!-- $10^{2}$ -->
      <defs>
       <path d="M 41.703125 15.453125 
L 39.90625 15.453125 
C 38.90625 8.375 38.09375 7.171875 37.703125 6.5625 
C 37.203125 5.765625 30 5.765625 28.59375 5.765625 
L 9.40625 5.765625 
C 13 9.671875 20 16.75 28.5 24.953125 
C 34.59375 30.734375 41.703125 37.53125 41.703125 47.421875 
C 41.703125 59.21875 32.296875 66 21.796875 66 
C 10.796875 66 4.09375 56.3125 4.09375 47.34375 
C 4.09375 43.4375 7 42.9375 8.203125 42.9375 
C 9.203125 42.9375 12.203125 43.546875 12.203125 47.03125 
C 12.203125 50.109375 9.59375 51 8.203125 51 
C 7.59375 51 7 50.90625 6.59375 50.703125 
C 8.5 59.21875 14.296875 63.40625 20.40625 63.40625 
C 29.09375 63.40625 34.796875 56.515625 34.796875 47.421875 
C 34.796875 38.734375 29.703125 31.25 24 24.75 
L 4.09375 2.28125 
L 4.09375 0 
L 39.296875 0 
z
" id="CMR17-50"/>
      </defs>
      <g transform="translate(141.407198 247.6803)scale(0.16 -0.16)">
       <use transform="scale(0.996264)" xlink:href="#CMR17-49"/>
       <use transform="translate(45.690477 0)scale(0.996264)" xlink:href="#CMR17-48"/>
       <use transform="translate(91.380954 36.153639)scale(0.697382)" xlink:href="#CMR17-50"/>
      </g>
     </g>
    </g>
    <g id="xtick_3">
     <g id="line2d_3">
      <g>
       <use style="stroke:#000000;stroke-width:0.8;" x="216.929809" xlink:href="#m086daec980" y="229.610711"/>
      </g>
     </g>
     <g id="text_3">
      <!-- $10^{3}$ -->
      <defs>
       <path d="M 22.09375 33.703125 
C 31 33.703125 34.90625 25.96875 34.90625 17.03125 
C 34.90625 5 28.5 0.390625 22.703125 0.390625 
C 17.40625 0.390625 8.796875 3.03125 6.09375 10.828125 
C 6.59375 10.625 7.09375 10.625 7.59375 10.625 
C 10 10.625 11.796875 12.21875 11.796875 14.8125 
C 11.796875 17.703125 9.59375 19 7.59375 19 
C 5.90625 19 3.296875 18.203125 3.296875 14.46875 
C 3.296875 5.234375 12.296875 -2 22.90625 -2 
C 34 -2 42.5 6.71875 42.5 16.953125 
C 42.5 26.671875 34.5 33.703125 25 34.796875 
C 32.59375 36.375 39.90625 43.0625 39.90625 52.015625 
C 39.90625 59.6875 32 65.296875 23 65.296875 
C 13.90625 65.296875 5.90625 59.828125 5.90625 52.015625 
C 5.90625 48.59375 8.5 48 9.796875 48 
C 11.90625 48 13.703125 49.296875 13.703125 51.890625 
C 13.703125 54.46875 11.90625 55.765625 9.796875 55.765625 
C 9.40625 55.765625 8.90625 55.765625 8.5 55.578125 
C 11.40625 61.859375 19.296875 63 22.796875 63 
C 26.296875 63 32.90625 61.328125 32.90625 51.875 
C 32.90625 49.109375 32.5 44.1875 29.09375 39.84375 
C 26.09375 36 22.703125 36 19.40625 35.6875 
C 18.90625 35.6875 16.59375 35.453125 16.203125 35.453125 
C 15.5 35.359375 15.09375 35.265625 15.09375 34.5 
C 15.09375 33.796875 15.203125 33.703125 17.203125 33.703125 
z
" id="CMR17-51"/>
      </defs>
      <g transform="translate(206.336288 247.6803)scale(0.16 -0.16)">
       <use transform="scale(0.996264)" xlink:href="#CMR17-49"/>
       <use transform="translate(45.690477 0)scale(0.996264)" xlink:href="#CMR17-48"/>
       <use transform="translate(91.380954 36.153639)scale(0.697382)" xlink:href="#CMR17-51"/>
      </g>
     </g>
    </g>
    <g id="xtick_4">
     <g id="line2d_4">
      <g>
       <use style="stroke:#000000;stroke-width:0.8;" x="281.858899" xlink:href="#m086daec980" y="229.610711"/>
      </g>
     </g>
     <g id="text_4">
      <!-- $10^{4}$ -->
      <defs>
       <path d="M 33.59375 64.40625 
C 33.59375 66.5 33.5 66.5 31.703125 66.5 
L 2 19.59375 
L 2 17 
L 27.796875 17 
L 27.796875 7.140625 
C 27.796875 3.5 27.59375 2.5 20.59375 2.5 
L 18.703125 2.5 
L 18.703125 0 
C 21.90625 0 27.296875 0 30.703125 0 
C 34.09375 0 39.5 0 42.703125 0 
L 42.703125 2.5 
L 40.796875 2.5 
C 33.796875 2.5 33.59375 3.5 33.59375 7.140625 
L 33.59375 17 
L 43.796875 17 
L 43.796875 19.59375 
L 33.59375 19.59375 
z
M 28.09375 57.859375 
L 28.09375 19.59375 
L 4 19.59375 
z
" id="CMR17-52"/>
      </defs>
      <g transform="translate(271.265377 247.6803)scale(0.16 -0.16)">
       <use transform="scale(0.996264)" xlink:href="#CMR17-49"/>
       <use transform="translate(45.690477 0)scale(0.996264)" xlink:href="#CMR17-48"/>
       <use transform="translate(91.380954 36.153639)scale(0.697382)" xlink:href="#CMR17-52"/>
      </g>
     </g>
    </g>
    <g id="xtick_5">
     <g id="line2d_5">
      <g>
       <use style="stroke:#000000;stroke-width:0.8;" x="346.787988" xlink:href="#m086daec980" y="229.610711"/>
      </g>
     </g>
     <g id="text_5">
      <!-- $10^{5}$ -->
      <defs>
       <path d="M 11.40625 57.6875 
C 12.40625 57.28125 16.5 56 20.703125 56 
C 30 56 35.09375 61.109375 38 64.0625 
C 38 64.953125 38 65.5 37.40625 65.5 
C 37.296875 65.5 37.09375 65.5 36.296875 65.046875 
C 32.796875 63.40625 28.703125 62.078125 23.703125 62.078125 
C 20.703125 62.078125 16.203125 62.484375 11.296875 64.671875 
C 10.203125 65.171875 10 65.171875 9.90625 65.171875 
C 9.40625 65.171875 9.296875 65.0625 9.296875 63.078125 
L 9.296875 34.421875 
C 9.296875 32.640625 9.296875 32.140625 10.296875 32.140625 
C 10.796875 32.140625 11 32.34375 11.5 33.03125 
C 14.703125 37.515625 19.09375 39.40625 24.09375 39.40625 
C 27.59375 39.40625 35.09375 37.21875 35.09375 20.140625 
C 35.09375 16.953125 35.09375 11.171875 32.09375 6.578125 
C 29.59375 2.484375 25.703125 0.390625 21.40625 0.390625 
C 14.796875 0.390625 8.09375 5 6.296875 12.71875 
C 6.703125 12.609375 7.5 12.421875 7.90625 12.421875 
C 9.203125 12.421875 11.703125 13.125 11.703125 16.21875 
C 11.703125 18.90625 9.796875 20 7.90625 20 
C 5.59375 20 4.09375 18.59375 4.09375 15.796875 
C 4.09375 7.09375 11 -2 21.59375 -2 
C 31.90625 -2 41.703125 6.875 41.703125 19.75 
C 41.703125 31.71875 33.90625 41 24.203125 41 
C 19.09375 41 14.796875 39.109375 11.40625 35.53125 
z
" id="CMR17-53"/>
      </defs>
      <g transform="translate(336.194466 247.6803)scale(0.16 -0.16)">
       <use transform="scale(0.996264)" xlink:href="#CMR17-49"/>
       <use transform="translate(45.690477 0)scale(0.996264)" xlink:href="#CMR17-48"/>
       <use transform="translate(91.380954 36.153639)scale(0.697382)" xlink:href="#CMR17-53"/>
      </g>
     </g>
    </g>
    <g id="xtick_6">
     <g id="line2d_6">
      <defs>
       <path d="M 0 0 
L 0 2 
" id="m177556d0ac" style="stroke:#000000;stroke-width:0.6;"/>
      </defs>
      <g>
       <use style="stroke:#000000;stroke-width:0.6;" x="77.013988" xlink:href="#m177556d0ac" y="229.610711"/>
      </g>
     </g>
    </g>
    <g id="xtick_7">
     <g id="line2d_7">
      <g>
       <use style="stroke:#000000;stroke-width:0.6;" x="80.779352" xlink:href="#m177556d0ac" y="229.610711"/>
      </g>
     </g>
    </g>
    <g id="xtick_8">
     <g id="line2d_8">
      <g>
       <use style="stroke:#000000;stroke-width:0.6;" x="84.100639" xlink:href="#m177556d0ac" y="229.610711"/>
      </g>
     </g>
    </g>
    <g id="xtick_9">
     <g id="line2d_9">
      <g>
       <use style="stroke:#000000;stroke-width:0.6;" x="106.617234" xlink:href="#m177556d0ac" y="229.610711"/>
      </g>
     </g>
    </g>
    <g id="xtick_10">
     <g id="line2d_10">
      <g>
       <use style="stroke:#000000;stroke-width:0.6;" x="118.050679" xlink:href="#m177556d0ac" y="229.610711"/>
      </g>
     </g>
    </g>
    <g id="xtick_11">
     <g id="line2d_11">
      <g>
       <use style="stroke:#000000;stroke-width:0.6;" x="126.162838" xlink:href="#m177556d0ac" y="229.610711"/>
      </g>
     </g>
    </g>
    <g id="xtick_12">
     <g id="line2d_12">
      <g>
       <use style="stroke:#000000;stroke-width:0.6;" x="132.455117" xlink:href="#m177556d0ac" y="229.610711"/>
      </g>
     </g>
    </g>
    <g id="xtick_13">
     <g id="line2d_13">
      <g>
       <use style="stroke:#000000;stroke-width:0.6;" x="137.596283" xlink:href="#m177556d0ac" y="229.610711"/>
      </g>
     </g>
    </g>
    <g id="xtick_14">
     <g id="line2d_14">
      <g>
       <use style="stroke:#000000;stroke-width:0.6;" x="141.943077" xlink:href="#m177556d0ac" y="229.610711"/>
      </g>
     </g>
    </g>
    <g id="xtick_15">
     <g id="line2d_15">
      <g>
       <use style="stroke:#000000;stroke-width:0.6;" x="145.708441" xlink:href="#m177556d0ac" y="229.610711"/>
      </g>
     </g>
    </g>
    <g id="xtick_16">
     <g id="line2d_16">
      <g>
       <use style="stroke:#000000;stroke-width:0.6;" x="149.029728" xlink:href="#m177556d0ac" y="229.610711"/>
      </g>
     </g>
    </g>
    <g id="xtick_17">
     <g id="line2d_17">
      <g>
       <use style="stroke:#000000;stroke-width:0.6;" x="171.546324" xlink:href="#m177556d0ac" y="229.610711"/>
      </g>
     </g>
    </g>
    <g id="xtick_18">
     <g id="line2d_18">
      <g>
       <use style="stroke:#000000;stroke-width:0.6;" x="182.979769" xlink:href="#m177556d0ac" y="229.610711"/>
      </g>
     </g>
    </g>
    <g id="xtick_19">
     <g id="line2d_19">
      <g>
       <use style="stroke:#000000;stroke-width:0.6;" x="191.091927" xlink:href="#m177556d0ac" y="229.610711"/>
      </g>
     </g>
    </g>
    <g id="xtick_20">
     <g id="line2d_20">
      <g>
       <use style="stroke:#000000;stroke-width:0.6;" x="197.384206" xlink:href="#m177556d0ac" y="229.610711"/>
      </g>
     </g>
    </g>
    <g id="xtick_21">
     <g id="line2d_21">
      <g>
       <use style="stroke:#000000;stroke-width:0.6;" x="202.525372" xlink:href="#m177556d0ac" y="229.610711"/>
      </g>
     </g>
    </g>
    <g id="xtick_22">
     <g id="line2d_22">
      <g>
       <use style="stroke:#000000;stroke-width:0.6;" x="206.872166" xlink:href="#m177556d0ac" y="229.610711"/>
      </g>
     </g>
    </g>
    <g id="xtick_23">
     <g id="line2d_23">
      <g>
       <use style="stroke:#000000;stroke-width:0.6;" x="210.637531" xlink:href="#m177556d0ac" y="229.610711"/>
      </g>
     </g>
    </g>
    <g id="xtick_24">
     <g id="line2d_24">
      <g>
       <use style="stroke:#000000;stroke-width:0.6;" x="213.958817" xlink:href="#m177556d0ac" y="229.610711"/>
      </g>
     </g>
    </g>
    <g id="xtick_25">
     <g id="line2d_25">
      <g>
       <use style="stroke:#000000;stroke-width:0.6;" x="236.475413" xlink:href="#m177556d0ac" y="229.610711"/>
      </g>
     </g>
    </g>
    <g id="xtick_26">
     <g id="line2d_26">
      <g>
       <use style="stroke:#000000;stroke-width:0.6;" x="247.908858" xlink:href="#m177556d0ac" y="229.610711"/>
      </g>
     </g>
    </g>
    <g id="xtick_27">
     <g id="line2d_27">
      <g>
       <use style="stroke:#000000;stroke-width:0.6;" x="256.021016" xlink:href="#m177556d0ac" y="229.610711"/>
      </g>
     </g>
    </g>
    <g id="xtick_28">
     <g id="line2d_28">
      <g>
       <use style="stroke:#000000;stroke-width:0.6;" x="262.313295" xlink:href="#m177556d0ac" y="229.610711"/>
      </g>
     </g>
    </g>
    <g id="xtick_29">
     <g id="line2d_29">
      <g>
       <use style="stroke:#000000;stroke-width:0.6;" x="267.454461" xlink:href="#m177556d0ac" y="229.610711"/>
      </g>
     </g>
    </g>
    <g id="xtick_30">
     <g id="line2d_30">
      <g>
       <use style="stroke:#000000;stroke-width:0.6;" x="271.801255" xlink:href="#m177556d0ac" y="229.610711"/>
      </g>
     </g>
    </g>
    <g id="xtick_31">
     <g id="line2d_31">
      <g>
       <use style="stroke:#000000;stroke-width:0.6;" x="275.56662" xlink:href="#m177556d0ac" y="229.610711"/>
      </g>
     </g>
    </g>
    <g id="xtick_32">
     <g id="line2d_32">
      <g>
       <use style="stroke:#000000;stroke-width:0.6;" x="278.887906" xlink:href="#m177556d0ac" y="229.610711"/>
      </g>
     </g>
    </g>
    <g id="xtick_33">
     <g id="line2d_33">
      <g>
       <use style="stroke:#000000;stroke-width:0.6;" x="301.404502" xlink:href="#m177556d0ac" y="229.610711"/>
      </g>
     </g>
    </g>
    <g id="xtick_34">
     <g id="line2d_34">
      <g>
       <use style="stroke:#000000;stroke-width:0.6;" x="312.837947" xlink:href="#m177556d0ac" y="229.610711"/>
      </g>
     </g>
    </g>
    <g id="xtick_35">
     <g id="line2d_35">
      <g>
       <use style="stroke:#000000;stroke-width:0.6;" x="320.950106" xlink:href="#m177556d0ac" y="229.610711"/>
      </g>
     </g>
    </g>
    <g id="xtick_36">
     <g id="line2d_36">
      <g>
       <use style="stroke:#000000;stroke-width:0.6;" x="327.242384" xlink:href="#m177556d0ac" y="229.610711"/>
      </g>
     </g>
    </g>
    <g id="xtick_37">
     <g id="line2d_37">
      <g>
       <use style="stroke:#000000;stroke-width:0.6;" x="332.383551" xlink:href="#m177556d0ac" y="229.610711"/>
      </g>
     </g>
    </g>
    <g id="xtick_38">
     <g id="line2d_38">
      <g>
       <use style="stroke:#000000;stroke-width:0.6;" x="336.730345" xlink:href="#m177556d0ac" y="229.610711"/>
      </g>
     </g>
    </g>
    <g id="xtick_39">
     <g id="line2d_39">
      <g>
       <use style="stroke:#000000;stroke-width:0.6;" x="340.495709" xlink:href="#m177556d0ac" y="229.610711"/>
      </g>
     </g>
    </g>
    <g id="xtick_40">
     <g id="line2d_40">
      <g>
       <use style="stroke:#000000;stroke-width:0.6;" x="343.816996" xlink:href="#m177556d0ac" y="229.610711"/>
      </g>
     </g>
    </g>
    <g id="text_6">
     <!-- $\omega$ (rad/s) -->
     <defs>
      <path d="M 59.40625 37.421875 
C 59.40625 40.3125 58.59375 44 55.09375 44 
C 53.09375 44 50.796875 41.515625 50.796875 39.515625 
C 50.796875 38.625 51.203125 38.03125 52 37.125 
C 53.5 35.4375 55.40625 32.75 55.40625 28.078125 
C 55.40625 24.484375 53.203125 18.8125 51.59375 15.734375 
C 48.796875 10.25 44.203125 5.578125 39 5.578125 
C 32.703125 5.578125 30.296875 9.609375 29.203125 15.234375 
C 30.296875 17.859375 32.59375 24.375 32.59375 27 
C 32.59375 28.09375 32.203125 29 30.90625 29 
C 30.203125 29 29.40625 28.609375 28.90625 27.796875 
C 27.5 25.59375 26.203125 17.640625 26.296875 15.53125 
C 24.40625 11.8125 19 5.578125 12.59375 5.578125 
C 5.90625 5.578125 4.09375 11.453125 4.09375 17.125 
C 4.09375 27.46875 10.59375 36.53125 12.40625 39.015625 
C 13.40625 40.515625 14.09375 41.515625 14.09375 41.703125 
C 14.09375 42.40625 13.703125 43.5 12.796875 43.5 
C 11.203125 43.5 10.703125 42.203125 9.90625 41.015625 
C 4.796875 33.140625 1.203125 22.09375 1.203125 12.546875 
C 1.203125 6.375 3.5 -1 11 -1 
C 19.296875 -1 24.5 6.109375 26.59375 9.90625 
C 27.40625 4.296875 30.40625 -1 37.703125 -1 
C 45.296875 -1 50.09375 5.671875 53.703125 13.734375 
C 56.296875 19.515625 59.40625 31.953125 59.40625 37.421875 
" id="CMMI12-33"/>
      <path d="M 25.203125 74.5 
C 19.796875 69.015625 7.40625 56.265625 7.40625 24.8125 
C 7.40625 -6.765625 19.796875 -19.421875 25.203125 -25 
L 31.296875 -25 
C 19 -12.25 15 5.578125 15 24.703125 
C 15 43.71875 18.796875 61.65625 31.296875 74.5 
z
" id="CMSS17-40"/>
      <path d="M 14.90625 21.296875 
C 14.90625 30.703125 21.796875 37 30.59375 37 
L 30.59375 43.578125 
C 24.203125 43.578125 18.203125 40.390625 14.59375 35.203125 
L 14.59375 43.09375 
L 7.5 43.09375 
L 7.5 0 
L 14.90625 0 
z
" id="CMSS17-114"/>
      <path d="M 37.59375 27.984375 
C 37.59375 37.375 30.90625 43.875 21.90625 43.875 
C 17.5 43.875 12.703125 43.078125 7.203125 39.890625 
L 7.796875 33.359375 
C 10.296875 35.125 14.59375 38 21.796875 38 
C 26.90625 38 30 34.0625 30 27.84375 
L 30 24 
C 14 24 4 19.34375 4 11.34375 
C 4 7.203125 6.5 -1 14.796875 -1 
C 16.296875 -1 24.40625 -1 30.203125 3.390625 
L 30.203125 -0.296875 
L 37.59375 -0.296875 
z
M 30 12.75 
C 30 10.953125 30 8.5625 27 6.78125 
C 24.40625 5.078125 21.09375 5.078125 19.703125 5.078125 
C 14.703125 5.078125 11.296875 7.984375 11.296875 11.625 
C 11.296875 18.921875 26.90625 18.921875 30 18.921875 
z
" id="CMSS17-97"/>
      <path d="M 40.796875 69 
L 33.40625 69 
L 33.40625 38.09375 
C 30.296875 40.671875 25.203125 43.0625 19.59375 43.0625 
C 10.5 43.0625 3.296875 33.296875 3.296875 21.046875 
C 3.296875 8.78125 10.40625 -1 19.296875 -1 
C 26.203125 -1 30.796875 2.6875 33.203125 4.78125 
L 33.203125 -0.203125 
L 40.796875 -0.203125 
z
M 33.203125 13.0625 
C 33.203125 11.671875 33.203125 10.203125 30.09375 7.53125 
C 28.09375 5.859375 25.703125 5.078125 23.40625 5.078125 
C 18 5.078125 10.90625 9 10.90625 20.9375 
C 10.90625 33.34375 18.90625 37 24.40625 37 
C 28.09375 37 31.09375 35.21875 33.203125 32.265625 
z
" id="CMSS17-100"/>
      <path d="M 41.203125 71.015625 
C 41.703125 72.296875 41.703125 72.5 41.703125 72.703125 
C 41.703125 73.890625 40.796875 74.5 40 74.5 
C 38.796875 74.5 38.40625 73.703125 38 72.5 
L 5.703125 -21.515625 
C 5.203125 -22.8125 5.203125 -23.015625 5.203125 -23.21875 
C 5.203125 -24.40625 6.09375 -25 6.90625 -25 
C 8.09375 -25 8.5 -24.203125 8.90625 -23.015625 
z
" id="CMSS17-47"/>
      <path d="M 32.203125 41.046875 
C 26.296875 43.859375 21.703125 43.859375 18.703125 43.859375 
C 11.59375 43.859375 3.09375 41.375 3.09375 31.296875 
C 3.09375 21.234375 14.09375 19.03125 17.09375 18.421875 
C 21.703125 17.53125 26.796875 16.53125 26.796875 11.5625 
C 26.796875 5.265625 19.59375 5.265625 18.296875 5.265625 
C 14.296875 5.265625 8.796875 6.359375 3.796875 9.96875 
L 2.59375 3.28125 
C 8.296875 0 13.796875 -1 18.40625 -1 
C 30.703125 -1 33.796875 6.5 33.796875 12.203125 
C 33.796875 17.09375 31 20.390625 29.09375 21.890625 
C 25.796875 24.5 24.59375 24.796875 16.40625 26.5 
C 15 26.703125 10.09375 27.796875 10.09375 32.28125 
C 10.09375 38 16.40625 38 17.796875 38 
C 24.296875 38 28.296875 35.984375 31 34.5 
z
" id="CMSS17-115"/>
      <path d="M 11.296875 -25 
C 16.703125 -19.515625 29.09375 -6.765625 29.09375 24.703125 
C 29.09375 56.265625 16.703125 68.921875 11.296875 74.5 
L 5.203125 74.5 
C 17.5 61.75 21.5 43.921875 21.5 24.8125 
C 21.5 5.78125 17.703125 -12.15625 5.203125 -25 
z
" id="CMSS17-41"/>
     </defs>
     <g transform="translate(185.828247 266.734944)scale(0.16 -0.16)">
      <use transform="scale(0.996264)" xlink:href="#CMMI12-33"/>
      <use transform="translate(95.547459 0)scale(0.996264)" xlink:href="#CMSS17-40"/>
      <use transform="translate(131.981373 0)scale(0.996264)" xlink:href="#CMSS17-114"/>
      <use transform="translate(163.891146 0)scale(0.996264)" xlink:href="#CMSS17-97"/>
      <use transform="translate(208.813066 0)scale(0.996264)" xlink:href="#CMSS17-100"/>
      <use transform="translate(257.018009 0)scale(0.996264)" xlink:href="#CMSS17-47"/>
      <use transform="translate(303.861633 0)scale(0.996264)" xlink:href="#CMSS17-115"/>
      <use transform="translate(339.775175 0)scale(0.996264)" xlink:href="#CMSS17-41"/>
     </g>
    </g>
   </g>
   <g id="matplotlib.axis_2">
    <g id="ytick_1">
     <g id="line2d_41">
      <defs>
       <path d="M 0 0 
L -3.5 0 
" id="mf59b5c2584" style="stroke:#0000ff;stroke-width:0.8;"/>
      </defs>
      <g>
       <use style="fill:#0000ff;stroke:#0000ff;stroke-width:0.8;" x="74.085813" xlink:href="#mf59b5c2584" y="185.648398"/>
      </g>
     </g>
     <g id="text_7">
      <!-- $10^{-1}$ -->
      <defs>
       <path d="M 65.90625 23 
C 67.59375 23 69.40625 23 69.40625 25 
C 69.40625 27 67.59375 27 65.90625 27 
L 11.796875 27 
C 10.09375 27 8.296875 27 8.296875 25 
C 8.296875 23 10.09375 23 11.796875 23 
z
" id="CMSY10-0"/>
      </defs>
      <g style="fill:#0000ff;" transform="translate(37.220224 191.183192)scale(0.16 -0.16)">
       <use transform="scale(0.996264)" xlink:href="#CMR17-49"/>
       <use transform="translate(45.690477 0)scale(0.996264)" xlink:href="#CMR17-48"/>
       <use transform="translate(91.380954 36.153639)scale(0.697382)" xlink:href="#CMSY10-0"/>
       <use transform="translate(145.621947 36.153639)scale(0.697382)" xlink:href="#CMR17-49"/>
      </g>
     </g>
    </g>
    <g id="ytick_2">
     <g id="line2d_42">
      <g>
       <use style="fill:#0000ff;stroke:#0000ff;stroke-width:0.8;" x="74.085813" xlink:href="#mf59b5c2584" y="30.272229"/>
      </g>
     </g>
     <g id="text_8">
      <!-- $10^{0}$ -->
      <g style="fill:#0000ff;" transform="translate(45.89877 35.807023)scale(0.16 -0.16)">
       <use transform="scale(0.996264)" xlink:href="#CMR17-49"/>
       <use transform="translate(45.690477 0)scale(0.996264)" xlink:href="#CMR17-48"/>
       <use transform="translate(91.380954 36.153639)scale(0.697382)" xlink:href="#CMR17-48"/>
      </g>
     </g>
    </g>
    <g id="ytick_3">
     <g id="line2d_43">
      <defs>
       <path d="M 0 0 
L -2 0 
" id="m259f5bef65" style="stroke:#000000;stroke-width:0.6;"/>
      </defs>
      <g>
       <use style="stroke:#000000;stroke-width:0.6;" x="74.085813" xlink:href="#m259f5bef65" y="220.118406"/>
      </g>
     </g>
    </g>
    <g id="ytick_4">
     <g id="line2d_44">
      <g>
       <use style="stroke:#000000;stroke-width:0.6;" x="74.085813" xlink:href="#m259f5bef65" y="209.716471"/>
      </g>
     </g>
    </g>
    <g id="ytick_5">
     <g id="line2d_45">
      <g>
       <use style="stroke:#000000;stroke-width:0.6;" x="74.085813" xlink:href="#m259f5bef65" y="200.705904"/>
      </g>
     </g>
    </g>
    <g id="ytick_6">
     <g id="line2d_46">
      <g>
       <use style="stroke:#000000;stroke-width:0.6;" x="74.085813" xlink:href="#m259f5bef65" y="192.758021"/>
      </g>
     </g>
    </g>
    <g id="ytick_7">
     <g id="line2d_47">
      <g>
       <use style="stroke:#000000;stroke-width:0.6;" x="74.085813" xlink:href="#m259f5bef65" y="138.87551"/>
      </g>
     </g>
    </g>
    <g id="ytick_8">
     <g id="line2d_48">
      <g>
       <use style="stroke:#000000;stroke-width:0.6;" x="74.085813" xlink:href="#m259f5bef65" y="111.515125"/>
      </g>
     </g>
    </g>
    <g id="ytick_9">
     <g id="line2d_49">
      <g>
       <use style="stroke:#000000;stroke-width:0.6;" x="74.085813" xlink:href="#m259f5bef65" y="92.102623"/>
      </g>
     </g>
    </g>
    <g id="ytick_10">
     <g id="line2d_50">
      <g>
       <use style="stroke:#000000;stroke-width:0.6;" x="74.085813" xlink:href="#m259f5bef65" y="77.045116"/>
      </g>
     </g>
    </g>
    <g id="ytick_11">
     <g id="line2d_51">
      <g>
       <use style="stroke:#000000;stroke-width:0.6;" x="74.085813" xlink:href="#m259f5bef65" y="64.742238"/>
      </g>
     </g>
    </g>
    <g id="ytick_12">
     <g id="line2d_52">
      <g>
       <use style="stroke:#000000;stroke-width:0.6;" x="74.085813" xlink:href="#m259f5bef65" y="54.340302"/>
      </g>
     </g>
    </g>
    <g id="ytick_13">
     <g id="line2d_53">
      <g>
       <use style="stroke:#000000;stroke-width:0.6;" x="74.085813" xlink:href="#m259f5bef65" y="45.329736"/>
      </g>
     </g>
    </g>
    <g id="ytick_14">
     <g id="line2d_54">
      <g>
       <use style="stroke:#000000;stroke-width:0.6;" x="74.085813" xlink:href="#m259f5bef65" y="37.381853"/>
      </g>
     </g>
    </g>
    <g id="text_9">
     <!-- $|T(\omega)|$ -->
     <defs>
      <path d="M 15.90625 71.40625 
C 15.90625 73.203125 15.90625 75 13.90625 75 
C 11.90625 75 11.90625 73.203125 11.90625 71.40625 
L 11.90625 -21.40625 
C 11.90625 -23.203125 11.90625 -25 13.90625 -25 
C 15.90625 -25 15.90625 -23.203125 15.90625 -21.40625 
z
" id="CMSY10-106"/>
      <path d="M 41.703125 61.09375 
C 42.296875 63.5 42.5 64.390625 44 64.796875 
C 44.796875 65 48.09375 65 50.203125 65 
C 60.203125 65 64.90625 64.59375 64.90625 56.78125 
C 64.90625 55.265625 64.5 51.484375 63.90625 47.765625 
L 63.796875 46.5625 
C 63.796875 46.15625 64.203125 45.5625 64.796875 45.5625 
C 65.796875 45.5625 65.796875 46.0625 66.09375 47.65625 
L 69 65.375 
C 69.203125 66.296875 69.203125 66.5 69.203125 66.796875 
C 69.203125 67.890625 68.59375 67.890625 66.59375 67.890625 
L 11.90625 67.890625 
C 9.59375 67.890625 9.5 67.796875 8.90625 66 
L 2.796875 47.96875 
C 2.703125 47.75 2.40625 46.65625 2.40625 46.5625 
C 2.40625 46.0625 2.796875 45.5625 3.40625 45.5625 
C 4.203125 45.5625 4.40625 45.953125 4.796875 47.25 
C 9 59.390625 11.09375 65 24.40625 65 
L 31.09375 65 
C 33.5 65 34.5 65 34.5 63.890625 
C 34.5 63.578125 34.5 63.390625 34 61.578125 
L 20.59375 7.796875 
C 19.59375 3.890625 19.40625 2.890625 8.796875 2.890625 
C 6.296875 2.890625 5.59375 2.890625 5.59375 1 
C 5.59375 0 6.703125 0 7.203125 0 
C 9.703125 0 12.296875 0 14.796875 0 
L 30.40625 0 
C 32.90625 0 35.59375 0 38.09375 0 
C 39.203125 0 40.203125 0 40.203125 1.890625 
C 40.203125 2.890625 39.5 2.890625 36.90625 2.890625 
C 27.90625 2.890625 27.90625 3.796875 27.90625 5.296875 
C 27.90625 5.40625 27.90625 6.109375 28.296875 7.71875 
z
" id="CMMI12-84"/>
      <path d="M 30.59375 -24.390625 
C 30.59375 -24.296875 30.59375 -24.09375 30.296875 -23.796875 
C 25.703125 -19.125 13.40625 -6.359375 13.40625 24.703125 
C 13.40625 55.765625 25.5 68.421875 30.40625 73.390625 
C 30.40625 73.5 30.59375 73.703125 30.59375 74 
C 30.59375 74.296875 30.296875 74.5 29.90625 74.5 
C 28.796875 74.5 20.296875 67.125 15.40625 56.15625 
C 10.40625 45.109375 9 34.359375 9 24.8125 
C 9 17.625 9.703125 5.484375 15.703125 -7.359375 
C 20.5 -17.734375 28.703125 -25 29.90625 -25 
C 30.40625 -25 30.59375 -24.796875 30.59375 -24.390625 
" id="CMR17-40"/>
      <path d="M 26.296875 24.703125 
C 26.296875 31.875 25.59375 44.015625 19.59375 56.859375 
C 14.796875 67.234375 6.59375 74.5 5.40625 74.5 
C 5.09375 74.5 4.703125 74.390625 4.703125 73.890625 
C 4.703125 73.703125 4.796875 73.59375 4.90625 73.390625 
C 9.703125 68.40625 21.90625 55.75 21.90625 24.75 
C 21.90625 -6.359375 9.796875 -19.015625 4.90625 -24.015625 
C 4.796875 -24.203125 4.703125 -24.3125 4.703125 -24.5 
C 4.703125 -25 5.09375 -25 5.40625 -25 
C 6.5 -25 15 -17.625 19.90625 -6.65625 
C 24.90625 4.390625 26.296875 15.140625 26.296875 24.703125 
" id="CMR17-41"/>
     </defs>
     <g style="fill:#0000ff;" transform="translate(29.235168 146.496336)rotate(-90)scale(0.16 -0.16)">
      <use transform="scale(0.996264)" xlink:href="#CMSY10-106"/>
      <use transform="translate(27.674085 0)scale(0.996264)" xlink:href="#CMMI12-84"/>
      <use transform="translate(98.397717 0)scale(0.996264)" xlink:href="#CMR17-40"/>
      <use transform="translate(133.678485 0)scale(0.996264)" xlink:href="#CMMI12-33"/>
      <use transform="translate(197.996831 0)scale(0.996264)" xlink:href="#CMR17-41"/>
      <use transform="translate(233.277599 0)scale(0.996264)" xlink:href="#CMSY10-106"/>
     </g>
    </g>
   </g>
   <g id="LineCollection_1">
    <path clip-path="url(#p065373caae)" d="M 270.425454 220.118406 
L 270.425454 53.668864 
" style="fill:none;stroke:#000000;stroke-dasharray:5.6,2.4;stroke-dashoffset:0;stroke-width:1.5;"/>
   </g>
   <g id="LineCollection_2">
    <path clip-path="url(#p065373caae)" d="M 87.071631 53.668864 
L 270.425454 53.668864 
" style="fill:none;stroke:#0000ff;stroke-dasharray:5.6,2.4;stroke-dashoffset:0;stroke-width:1.5;"/>
   </g>
   <g id="line2d_55">
    <path clip-path="url(#p065373caae)" d="M 87.071631 30.272305 
L 89.695028 30.272321 
L 92.318426 30.272339 
L 94.941824 30.272362 
L 97.565221 30.272389 
L 100.188619 30.272422 
L 102.812016 30.272461 
L 105.435414 30.272508 
L 108.058811 30.272565 
L 110.682209 30.272634 
L 113.305606 30.272717 
L 115.929004 30.272817 
L 118.552401 30.272937 
L 121.175799 30.273082 
L 123.799197 30.273256 
L 126.422594 30.273466 
L 129.045992 30.273719 
L 131.669389 30.274024 
L 134.292787 30.274391 
L 136.916184 30.274833 
L 139.539582 30.275366 
L 142.162979 30.276007 
L 144.786377 30.27678 
L 147.409774 30.27771 
L 150.033172 30.278831 
L 152.65657 30.280181 
L 155.279967 30.281807 
L 157.903365 30.283765 
L 160.526762 30.286124 
L 163.15016 30.288965 
L 165.773557 30.292387 
L 168.396955 30.296507 
L 171.020352 30.30147 
L 173.64375 30.307447 
L 176.267147 30.314644 
L 178.890545 30.323312 
L 181.513943 30.333749 
L 184.13734 30.346316 
L 186.760738 30.361447 
L 189.384135 30.379664 
L 192.007533 30.401593 
L 194.63093 30.427987 
L 197.254328 30.459752 
L 199.877725 30.497973 
L 202.501123 30.543952 
L 205.12452 30.599252 
L 207.747918 30.665741 
L 210.371316 30.745653 
L 212.994713 30.841658 
L 215.618111 30.956933 
L 218.241508 31.095263 
L 220.864906 31.261131 
L 223.488303 31.459844 
L 226.111701 31.69765 
L 228.735098 31.981882 
L 231.358496 32.32109 
L 233.981893 32.725191 
L 236.605291 33.205593 
L 239.228689 33.775302 
L 241.852086 34.448986 
L 244.475484 35.242977 
L 247.098881 36.175179 
L 249.722279 37.264862 
L 252.345676 38.532313 
L 254.969074 39.998327 
L 257.592471 41.683536 
L 260.215869 43.607598 
L 262.839266 45.78828 
L 265.462664 48.240519 
L 268.086062 50.975551 
L 270.709459 54.000198 
L 273.332857 57.316421 
L 275.956254 60.921183 
L 278.579652 64.806657 
L 281.203049 68.960742 
L 283.826447 73.367807 
L 286.449844 78.009597 
L 289.073242 82.866167 
L 291.696639 87.916787 
L 294.320037 93.140718 
L 296.943435 98.517858 
L 299.566832 104.029208 
L 302.19023 109.65719 
L 304.813627 115.385829 
L 307.437025 121.20082 
L 310.060422 127.089508 
L 312.68382 133.04082 
L 315.307217 139.045147 
L 317.930615 145.094212 
L 320.554012 151.180932 
L 323.17741 157.299271 
L 325.800808 163.444113 
L 328.424205 169.611133 
L 331.047603 175.796689 
L 333.671 181.997718 
L 336.294398 188.211653 
L 338.917795 194.436343 
L 341.541193 200.669991 
L 344.16459 206.911095 
L 346.787988 213.158404 
" style="fill:none;stroke:#0000ff;stroke-linecap:square;stroke-width:1.5;"/>
   </g>
   <g id="patch_3">
    <path d="M 74.085813 229.610711 
L 74.085813 20.78 
" style="fill:none;stroke:#000000;stroke-linecap:square;stroke-linejoin:miter;stroke-width:0.8;"/>
   </g>
   <g id="patch_4">
    <path d="M 359.773806 229.610711 
L 359.773806 20.78 
" style="fill:none;stroke:#000000;stroke-linecap:square;stroke-linejoin:miter;stroke-width:0.8;"/>
   </g>
   <g id="patch_5">
    <path d="M 74.085813 229.610711 
L 359.773806 229.610711 
" style="fill:none;stroke:#000000;stroke-linecap:square;stroke-linejoin:miter;stroke-width:0.8;"/>
   </g>
   <g id="patch_6">
    <path d="M 74.085813 20.78 
L 359.773806 20.78 
" style="fill:none;stroke:#000000;stroke-linecap:square;stroke-linejoin:miter;stroke-width:0.8;"/>
   </g>
  </g>
  <g id="axes_2">
   <g id="matplotlib.axis_3">
    <g id="ytick_15">
     <g id="line2d_56">
      <defs>
       <path d="M 0 0 
L 3.5 0 
" id="mb11acfc933" style="stroke:#ff0000;stroke-width:0.8;"/>
      </defs>
      <g>
       <use style="fill:#ff0000;stroke:#ff0000;stroke-width:0.8;" x="359.773806" xlink:href="#mb11acfc933" y="30.082804"/>
      </g>
     </g>
     <g id="text_10">
      <!-- $0$ -->
      <g style="fill:#ff0000;" transform="translate(366.773806 35.617598)scale(0.16 -0.16)">
       <use transform="scale(0.996264)" xlink:href="#CMR17-48"/>
      </g>
     </g>
    </g>
    <g id="ytick_16">
     <g id="line2d_57">
      <g>
       <use style="fill:#ff0000;stroke:#ff0000;stroke-width:0.8;" x="359.773806" xlink:href="#mb11acfc933" y="63.157045"/>
      </g>
     </g>
     <g id="text_11">
      <!-- $-15$ -->
      <g style="fill:#ff0000;" transform="translate(366.773806 68.691839)scale(0.16 -0.16)">
       <use transform="scale(0.996264)" xlink:href="#CMSY10-0"/>
       <use transform="translate(77.487468 0)scale(0.996264)" xlink:href="#CMR17-49"/>
       <use transform="translate(123.177945 0)scale(0.996264)" xlink:href="#CMR17-53"/>
      </g>
     </g>
    </g>
    <g id="ytick_17">
     <g id="line2d_58">
      <g>
       <use style="fill:#ff0000;stroke:#ff0000;stroke-width:0.8;" x="359.773806" xlink:href="#mb11acfc933" y="96.231285"/>
      </g>
     </g>
     <g id="text_12">
      <!-- $-30$ -->
      <g style="fill:#ff0000;" transform="translate(366.773806 101.766079)scale(0.16 -0.16)">
       <use transform="scale(0.996264)" xlink:href="#CMSY10-0"/>
       <use transform="translate(77.487468 0)scale(0.996264)" xlink:href="#CMR17-51"/>
       <use transform="translate(123.177945 0)scale(0.996264)" xlink:href="#CMR17-48"/>
      </g>
     </g>
    </g>
    <g id="ytick_18">
     <g id="line2d_59">
      <g>
       <use style="fill:#ff0000;stroke:#ff0000;stroke-width:0.8;" x="359.773806" xlink:href="#mb11acfc933" y="129.305526"/>
      </g>
     </g>
     <g id="text_13">
      <!-- $-45$ -->
      <g style="fill:#ff0000;" transform="translate(366.773806 134.84032)scale(0.16 -0.16)">
       <use transform="scale(0.996264)" xlink:href="#CMSY10-0"/>
       <use transform="translate(77.487468 0)scale(0.996264)" xlink:href="#CMR17-52"/>
       <use transform="translate(123.177945 0)scale(0.996264)" xlink:href="#CMR17-53"/>
      </g>
     </g>
    </g>
    <g id="ytick_19">
     <g id="line2d_60">
      <g>
       <use style="fill:#ff0000;stroke:#ff0000;stroke-width:0.8;" x="359.773806" xlink:href="#mb11acfc933" y="162.379767"/>
      </g>
     </g>
     <g id="text_14">
      <!-- $-60$ -->
      <defs>
       <path d="M 10.59375 34 
C 10.59375 57.65625 21.796875 63 28.296875 63 
C 30.40625 63 35.5 62.640625 37.5 59 
C 35.90625 59 32.90625 59 32.90625 55.515625 
C 32.90625 52.828125 35.09375 51.921875 36.5 51.921875 
C 37.40625 51.921875 40.09375 52.3125 40.09375 55.625 
C 40.09375 61.78125 35.09375 65.296875 28.203125 65.296875 
C 16.296875 65.296875 3.796875 52.96875 3.796875 31 
C 3.796875 3.953125 15.09375 -2 23.09375 -2 
C 32.796875 -2 42 6.671875 42 20.046875 
C 42 32.515625 33.90625 41.59375 23.703125 41.59375 
C 17.59375 41.59375 13.09375 37.609375 10.59375 30.625 
z
M 23.09375 0.390625 
C 10.796875 0.390625 10.796875 18.75 10.796875 22.4375 
C 10.796875 29.625 14.203125 40 23.5 40 
C 25.203125 40 30.09375 40 33.40625 33.125 
C 35.203125 29.21875 35.203125 25.140625 35.203125 20.140625 
C 35.203125 14.75 35.203125 10.78125 33.09375 6.78125 
C 30.90625 2.671875 27.703125 0.390625 23.09375 0.390625 
" id="CMR17-54"/>
      </defs>
      <g style="fill:#ff0000;" transform="translate(366.773806 167.914561)scale(0.16 -0.16)">
       <use transform="scale(0.996264)" xlink:href="#CMSY10-0"/>
       <use transform="translate(77.487468 0)scale(0.996264)" xlink:href="#CMR17-54"/>
       <use transform="translate(123.177945 0)scale(0.996264)" xlink:href="#CMR17-48"/>
      </g>
     </g>
    </g>
    <g id="ytick_20">
     <g id="line2d_61">
      <g>
       <use style="fill:#ff0000;stroke:#ff0000;stroke-width:0.8;" x="359.773806" xlink:href="#mb11acfc933" y="195.454007"/>
      </g>
     </g>
     <g id="text_15">
      <!-- $-75$ -->
      <defs>
       <path d="M 45.09375 61.578125 
L 45.09375 63.765625 
L 21.59375 63.765625 
C 9.90625 63.765625 9.703125 65.078125 9.296875 67 
L 7.5 67 
L 4.59375 48.34375 
L 6.40625 48.34375 
C 6.703125 50.234375 7.40625 55.3125 8.59375 57.203125 
C 9.203125 58 16.59375 58 18.296875 58 
L 40.296875 58 
L 29.203125 41.578125 
C 21.796875 30.53125 16.703125 15.609375 16.703125 2.578125 
C 16.703125 1.390625 16.703125 -2 20.296875 -2 
C 23.90625 -2 23.90625 1.390625 23.90625 2.671875 
L 23.90625 7.265625 
C 23.90625 23.5625 26.703125 34.3125 31.296875 41.1875 
z
" id="CMR17-55"/>
      </defs>
      <g style="fill:#ff0000;" transform="translate(366.773806 200.988802)scale(0.16 -0.16)">
       <use transform="scale(0.996264)" xlink:href="#CMSY10-0"/>
       <use transform="translate(77.487468 0)scale(0.996264)" xlink:href="#CMR17-55"/>
       <use transform="translate(123.177945 0)scale(0.996264)" xlink:href="#CMR17-53"/>
      </g>
     </g>
    </g>
    <g id="ytick_21">
     <g id="line2d_62">
      <g>
       <use style="fill:#ff0000;stroke:#ff0000;stroke-width:0.8;" x="359.773806" xlink:href="#mb11acfc933" y="228.528248"/>
      </g>
     </g>
     <g id="text_16">
      <!-- $-90$ -->
      <defs>
       <path d="M 35.203125 29.125 
C 35.203125 7.25 26.09375 0.484375 18.59375 0.484375 
C 16.296875 0.484375 10.703125 0.484375 8.40625 4.59375 
C 11 4.1875 12.90625 5.578125 12.90625 8.09375 
C 12.90625 10.8125 10.703125 11.703125 9.296875 11.703125 
C 8.40625 11.703125 5.703125 11.296875 5.703125 7.90625 
C 5.703125 1.109375 11.59375 -2 18.796875 -2 
C 30.296875 -2 42 10.53125 42 32.390625 
C 42 59.640625 30.796875 65.296875 23.203125 65.296875 
C 13.296875 65.296875 3.796875 56.6875 3.796875 43.40625 
C 3.796875 31.109375 11.90625 22 22.09375 22 
C 30.5 22 34.203125 29.734375 35.203125 33 
z
M 22.296875 23.59375 
C 19.59375 23.59375 15.796875 24.09375 12.703125 30.03125 
C 10.59375 33.890625 10.59375 38.453125 10.59375 43.296875 
C 10.59375 49.15625 10.59375 53.203125 13.40625 57.5625 
C 14.796875 59.640625 17.40625 63 23.203125 63 
C 35 63 35 45.078125 35 41.125 
C 35 34.09375 31.796875 23.59375 22.296875 23.59375 
" id="CMR17-57"/>
      </defs>
      <g style="fill:#ff0000;" transform="translate(366.773806 234.063042)scale(0.16 -0.16)">
       <use transform="scale(0.996264)" xlink:href="#CMSY10-0"/>
       <use transform="translate(77.487468 0)scale(0.996264)" xlink:href="#CMR17-57"/>
       <use transform="translate(123.177945 0)scale(0.996264)" xlink:href="#CMR17-48"/>
      </g>
     </g>
    </g>
    <g id="text_17">
     <!-- $\phi$ ($^\circ$) -->
     <defs>
      <path d="M 43 68.59375 
C 43 69.5 42.296875 69.5 42 69.5 
C 41.09375 69.5 41 69.296875 40.59375 67.59375 
L 35.203125 45.921875 
C 34.90625 44.625 34.796875 44.515625 34.703125 44.421875 
C 34.59375 44.21875 33.90625 44.125 33.703125 44.125 
C 17.296875 42.71875 4.703125 29.125 4.703125 16.515625 
C 4.703125 5.640625 13 -1 23.40625 -1 
C 22.59375 -4.078125 21.90625 -7.234375 21.09375 -10.296875 
C 19.703125 -15.546875 18.90625 -18.8125 18.90625 -19.203125 
C 18.90625 -19.390625 18.90625 -20 19.90625 -20 
C 20.203125 -20 20.59375 -20 20.796875 -19.59375 
C 21 -19.390625 21.59375 -17.015625 22 -15.75 
L 25.703125 -1 
C 42.796875 -1 55.796875 13.34375 55.796875 26.25 
C 55.796875 36.609375 48.203125 44 37.09375 44 
z
M 36.5 42.203125 
C 43.09375 42.203125 49.703125 38.484375 49.703125 28.5625 
C 49.703125 17.140625 41.796875 2 26.203125 0.78125 
z
M 23.90625 0.78125 
C 19 0.78125 10.796875 3.4375 10.796875 14.65625 
C 10.796875 27.515625 19.90625 41.8125 34.296875 41.8125 
z
" id="CMMI12-30"/>
      <path d="M 44.40625 25 
C 44.40625 35.578125 35.5 44.1875 25 44.1875 
C 14.203125 44.1875 5.5 35.375 5.5 25 
C 5.5 14.53125 14.203125 5.8125 25 5.8125 
C 35.5 5.8125 44.40625 14.421875 44.40625 25 
M 25 9.8125 
C 16.296875 9.8125 9.5 16.71875 9.5 25 
C 9.5 33.28125 16.40625 40.1875 25 40.1875 
C 33.296875 40.1875 40.40625 33.46875 40.40625 25 
C 40.40625 16.53125 33.296875 9.8125 25 9.8125 
" id="CMSY10-14"/>
     </defs>
     <g style="fill:#ff0000;" transform="translate(410.734944 141.523788)rotate(-90)scale(0.16 -0.16)">
      <use transform="scale(0.996264)" xlink:href="#CMMI12-30"/>
      <use transform="translate(88.963293 0)scale(0.996264)" xlink:href="#CMSS17-40"/>
      <use transform="translate(125.397207 36.153639)scale(0.697382)" xlink:href="#CMSY10-14"/>
      <use transform="translate(160.764549 0)scale(0.996264)" xlink:href="#CMSS17-41"/>
     </g>
    </g>
   </g>
   <g id="LineCollection_3">
    <path clip-path="url(#p065373caae)" d="M 270.425454 129.305526 
L 346.787988 129.305526 
" style="fill:none;stroke:#ff0000;stroke-dasharray:5.6,2.4;stroke-dashoffset:0;stroke-width:1.5;"/>
   </g>
   <g id="line2d_63">
    <path clip-path="url(#p065373caae)" d="M 87.071631 30.272305 
L 89.695028 30.290781 
L 92.318426 30.311059 
L 94.941824 30.333313 
L 97.565221 30.357737 
L 100.188619 30.384543 
L 102.812016 30.413962 
L 105.435414 30.44625 
L 108.058811 30.481685 
L 110.682209 30.520575 
L 113.305606 30.563257 
L 115.929004 30.6101 
L 118.552401 30.66151 
L 121.175799 30.717932 
L 123.799197 30.779855 
L 126.422594 30.847815 
L 129.045992 30.922401 
L 131.669389 31.004257 
L 134.292787 31.094094 
L 136.916184 31.192689 
L 139.539582 31.300895 
L 142.162979 31.419649 
L 144.786377 31.549979 
L 147.409774 31.693012 
L 150.033172 31.849985 
L 152.65657 32.022257 
L 155.279967 32.211318 
L 157.903365 32.4188 
L 160.526762 32.646497 
L 163.15016 32.896375 
L 165.773557 33.17059 
L 168.396955 33.471507 
L 171.020352 33.80172 
L 173.64375 34.164068 
L 176.267147 34.561668 
L 178.890545 34.997931 
L 181.513943 35.476593 
L 184.13734 36.001746 
L 186.760738 36.577864 
L 189.384135 37.209841 
L 192.007533 37.903023 
L 194.63093 38.663246 
L 197.254328 39.496872 
L 199.877725 40.410828 
L 202.501123 41.412644 
L 205.12452 42.51049 
L 207.747918 43.713205 
L 210.371316 45.030326 
L 212.994713 46.472107 
L 215.618111 48.049519 
L 218.241508 49.774242 
L 220.864906 51.658621 
L 223.488303 53.715595 
L 226.111701 55.958583 
L 228.735098 58.401314 
L 231.358496 61.057583 
L 233.981893 63.940936 
L 236.605291 67.064251 
L 239.228689 70.439212 
L 241.852086 74.07567 
L 244.475484 77.980894 
L 247.098881 82.158718 
L 249.722279 86.608636 
L 252.345676 91.324884 
L 254.969074 96.295604 
L 257.592471 101.502189 
L 260.215869 106.918928 
L 262.839266 112.51306 
L 265.462664 118.245326 
L 268.086062 124.071052 
L 270.709459 129.941716 
L 273.332857 135.806894 
L 275.956254 141.616396 
L 278.579652 147.322378 
L 281.203049 152.88122 
L 283.826447 158.254998 
L 286.449844 163.412448 
L 289.073242 168.329409 
L 291.696639 172.988777 
L 294.320037 177.380076 
L 296.943435 181.498757 
L 299.566832 185.345331 
L 302.19023 188.924453 
L 304.813627 192.244019 
L 307.437025 195.314337 
L 310.060422 198.1474 
L 312.68382 200.756271 
L 315.307217 203.154581 
L 317.930615 205.356138 
L 320.554012 207.374618 
L 323.17741 209.22335 
L 325.800808 210.915152 
L 328.424205 212.462232 
L 331.047603 213.876115 
L 333.671 215.167621 
L 336.294398 216.346845 
L 338.917795 217.423172 
L 341.541193 218.405295 
L 344.16459 219.301241 
L 346.787988 220.118406 
" style="fill:none;stroke:#ff0000;stroke-linecap:square;stroke-width:1.5;"/>
   </g>
   <g id="patch_7">
    <path d="M 74.085813 229.610711 
L 74.085813 20.78 
" style="fill:none;stroke:#000000;stroke-linecap:square;stroke-linejoin:miter;stroke-width:0.8;"/>
   </g>
   <g id="patch_8">
    <path d="M 359.773806 229.610711 
L 359.773806 20.78 
" style="fill:none;stroke:#000000;stroke-linecap:square;stroke-linejoin:miter;stroke-width:0.8;"/>
   </g>
   <g id="patch_9">
    <path d="M 74.085813 229.610711 
L 359.773806 229.610711 
" style="fill:none;stroke:#000000;stroke-linecap:square;stroke-linejoin:miter;stroke-width:0.8;"/>
   </g>
   <g id="patch_10">
    <path d="M 74.085813 20.78 
L 359.773806 20.78 
" style="fill:none;stroke:#000000;stroke-linecap:square;stroke-linejoin:miter;stroke-width:0.8;"/>
   </g>
  </g>
 </g>
 <defs>
  <clipPath id="p065373caae">
   <rect height="208.830711" width="285.687993" x="74.085813" y="20.78"/>
  </clipPath>
 </defs>
</svg>
