<?xml version="1.0" encoding="UTF-8" standalone="no"?>
<!-- Created with matplotlib (http://matplotlib.org/) -->

<svg
   xmlns:dc="http://purl.org/dc/elements/1.1/"
   xmlns:cc="http://creativecommons.org/ns#"
   xmlns:rdf="http://www.w3.org/1999/02/22-rdf-syntax-ns#"
   xmlns:svg="http://www.w3.org/2000/svg"
   xmlns="http://www.w3.org/2000/svg"
   xmlns:xlink="http://www.w3.org/1999/xlink"
   xmlns:sodipodi="http://sodipodi.sourceforge.net/DTD/sodipodi-0.dtd"
   xmlns:inkscape="http://www.inkscape.org/namespaces/inkscape"
   height="293.60571"
   version="1.1"
   viewBox="0 0 381.86231 220.20428"
   width="509.14975"
   id="svg405"
   sodipodi:docname="P2_Q3_TransientV.svg"
   inkscape:version="0.92.1 r15371">
  <metadata
     id="metadata409">
    <rdf:RDF>
      <cc:Work
         rdf:about="">
        <dc:format>image/svg+xml</dc:format>
        <dc:type
           rdf:resource="http://purl.org/dc/dcmitype/StillImage" />
        <dc:title></dc:title>
      </cc:Work>
    </rdf:RDF>
  </metadata>
  <sodipodi:namedview
     pagecolor="#ffffff"
     bordercolor="#666666"
     borderopacity="1"
     objecttolerance="10"
     gridtolerance="10"
     guidetolerance="10"
     inkscape:pageopacity="0"
     inkscape:pageshadow="2"
     inkscape:window-width="1920"
     inkscape:window-height="986"
     id="namedview407"
     showgrid="false"
     inkscape:zoom="1.7383042"
     inkscape:cx="280.18831"
     inkscape:cy="165.1734"
     inkscape:window-x="-11"
     inkscape:window-y="-11"
     inkscape:window-maximized="1"
     inkscape:current-layer="svg405"
     units="px"
     fit-margin-top="0"
     fit-margin-left="0"
     fit-margin-right="0"
     fit-margin-bottom="0" />
  <defs
     id="defs4"
     style="stroke-linecap:butt;stroke-linejoin:round">
    <style
       type="text/css"
       id="style2">
*{stroke-linecap:butt;stroke-linejoin:round;}
  </style>
    <defs
       id="defs277">
      <path
         style="stroke-linecap:butt;stroke-linejoin:round"
         inkscape:connector-curvature="0"
         id="CMSS17-116"
         d="m 16.703125,37 h 13 v 5.765625 h -13 V 55 H 9.59375 V 42.765625 H 1.703125 V 37 H 9.40625 V 11.703125 C 9.40625,6 10.703125,-1 17.296875,-1 c 5,0 9.609375,1.390625 14,3.6875 l -1.59375,5.875 c -2.40625,-2.09375 -5.296875,-3.296875 -8.40625,-3.296875 -4.390625,0 -4.59375,5.609375 -4.59375,8.109375 z" />
      <path
         style="stroke-linecap:butt;stroke-linejoin:round"
         inkscape:connector-curvature="0"
         id="CMSS17-115"
         d="m 32.203125,41.046875 c -5.90625,2.8125 -10.5,2.8125 -13.5,2.8125 -7.109375,0 -15.609375,-2.484375 -15.609375,-12.5625 0,-10.0625 11,-12.265625 14,-12.875 4.609375,-0.890625 9.703125,-1.890625 9.703125,-6.859375 0,-6.296875 -7.203125,-6.296875 -8.5,-6.296875 -4,0 -9.5,1.09375 -14.5,4.703125 L 2.59375,3.28125 C 8.296875,0 13.796875,-1 18.40625,-1 c 12.296875,0 15.390625,7.5 15.390625,13.203125 0,4.890625 -2.796875,8.1875 -4.703125,9.6875 C 25.796875,24.5 24.59375,24.796875 16.40625,26.5 15,26.703125 10.09375,27.796875 10.09375,32.28125 10.09375,38 16.40625,38 17.796875,38 c 6.5,0 10.5,-2.015625 13.203125,-3.5 z" />
    </defs>
    <defs
       id="defs385">
      <path
         style="stroke-linecap:butt;stroke-linejoin:round"
         inkscape:connector-curvature="0"
         id="CMMI12-82"
         d="M 36.796875,61.3125 C 37.703125,65 38.09375,65 42,65 h 7.203125 c 8.59375,0 15,-2.578125 15,-10.328125 C 64.203125,49.609375 61.59375,35 41.5,35 H 30.203125 Z m 13.90625,-27.421875 c 12.390625,2.6875 22.09375,10.65625 22.09375,19.203125 C 72.796875,60.84375 64.90625,68 51,68 H 23.90625 C 21.90625,68 21,68 21,66.03125 21,65 21.703125,65 23.59375,65 c 6,0 6,-0.75 6,-1.796875 0,-0.1875 0,-0.796875 -0.390625,-2.28125 l -13.5,-53.4375 C 14.796875,4 14.59375,3 7.703125,3 c -2.296875,0 -3,0 -3,-1.890625 0,-1 1.09375,-1 1.390625,-1 1.8125,0 3.90625,0 5.8125,0 h 11.796875 c 1.796875,0 3.890625,0 5.703125,0 0.796875,0 1.890625,0 1.890625,1.890625 0,1 -0.890625,1 -2.390625,1 -6.109375,0 -6.109375,0.796875 -6.109375,1.78125 0,0.109375 0,0.796875 0.203125,1.578125 L 29.703125,33 h 12 C 51.203125,33 53,27.046875 53,23.78125 53,22.296875 52,18.421875 51.296875,15.84375 50.203125,11.296875 49.90625,10.1875 49.90625,8.3125 49.90625,1.28125 55.703125,-2 62.40625,-2 70.5,-2 74,7.828125 74,9.234375 c 0,0.6875 -0.5,0.984375 -1.09375,0.984375 -0.8125,0 -1,-0.59375 -1.203125,-1.390625 C 69.296875,1.78125 65.203125,0 62.703125,0 c -2.5,0 -4.109375,1.09375 -4.109375,5.5625 0,2.390625 1.203125,11.4375 1.3125,11.9375 0.5,3.671875 0.5,4.0625 0.5,4.875 0,7.25 -5.90625,10.328125 -9.703125,11.515625" />
    </defs>
    <defs
       id="defs300">
      <path
         d="m 65.90625,23 c 1.6875,0 3.5,0 3.5,2 0,2 -1.8125,2 -3.5,2 H 11.796875 c -1.703125,0 -3.5,0 -3.5,-2 0,-2 1.796875,-2 3.5,-2 z"
         id="CMSY10-0"
         inkscape:connector-curvature="0"
         style="stroke-linecap:butt;stroke-linejoin:round" />
    </defs>
    <defs
       id="defs200">
      <path
         d="M 41.703125,15.453125 H 39.90625 C 38.90625,8.375 38.09375,7.171875 37.703125,6.5625 37.203125,5.765625 30,5.765625 28.59375,5.765625 H 9.40625 C 13,9.671875 20,16.75 28.5,24.953125 34.59375,30.734375 41.703125,37.53125 41.703125,47.421875 41.703125,59.21875 32.296875,66 21.796875,66 10.796875,66 4.09375,56.3125 4.09375,47.34375 4.09375,43.4375 7,42.9375 8.203125,42.9375 c 1,0 4,0.609375 4,4.09375 0,3.078125 -2.609375,3.96875 -4,3.96875 C 7.59375,51 7,50.90625 6.59375,50.703125 8.5,59.21875 14.296875,63.40625 20.40625,63.40625 c 8.6875,0 14.390625,-6.890625 14.390625,-15.984375 C 34.796875,38.734375 29.703125,31.25 24,24.75 L 4.09375,2.28125 V 0 h 35.203125 z"
         id="CMR17-50"
         inkscape:connector-curvature="0"
         style="stroke-linecap:butt;stroke-linejoin:round" />
    </defs>
    <defs
       id="defs217">
      <path
         d="M 33.59375,64.40625 C 33.59375,66.5 33.5,66.5 31.703125,66.5 L 2,19.59375 V 17 H 27.796875 V 7.140625 C 27.796875,3.5 27.59375,2.5 20.59375,2.5 H 18.703125 V 0 c 3.203125,0 8.59375,0 12,0 3.390625,0 8.796875,0 12,0 v 2.5 h -1.90625 c -7,0 -7.203125,1 -7.203125,4.640625 V 17 h 10.203125 v 2.59375 H 33.59375 Z m -5.5,-6.546875 V 19.59375 H 4 Z"
         id="CMR17-52"
         inkscape:connector-curvature="0"
         style="stroke-linecap:butt;stroke-linejoin:round" />
    </defs>
    <defs
       id="defs234">
      <path
         d="m 10.59375,34 c 0,23.65625 11.203125,29 17.703125,29 C 30.40625,63 35.5,62.640625 37.5,59 c -1.59375,0 -4.59375,0 -4.59375,-3.484375 0,-2.6875 2.1875,-3.59375 3.59375,-3.59375 0.90625,0 3.59375,0.390625 3.59375,3.703125 0,6.15625 -5,9.671875 -11.890625,9.671875 C 16.296875,65.296875 3.796875,52.96875 3.796875,31 3.796875,3.953125 15.09375,-2 23.09375,-2 32.796875,-2 42,6.671875 42,20.046875 42,32.515625 33.90625,41.59375 23.703125,41.59375 17.59375,41.59375 13.09375,37.609375 10.59375,30.625 Z m 12.5,-33.609375 C 10.796875,0.390625 10.796875,18.75 10.796875,22.4375 10.796875,29.625 14.203125,40 23.5,40 c 1.703125,0 6.59375,0 9.90625,-6.875 1.796875,-3.90625 1.796875,-7.984375 1.796875,-12.984375 0,-5.390625 0,-9.359375 -2.109375,-13.359375 -2.1875,-4.109375 -5.390625,-6.390625 -10,-6.390625"
         id="CMR17-54"
         inkscape:connector-curvature="0"
         style="stroke-linecap:butt;stroke-linejoin:round" />
    </defs>
    <defs
       id="defs251">
      <path
         d="M 27.203125,35.375 C 33.5,38.546875 39.90625,43.328125 39.90625,50.984375 c 0,9.03125 -8.8125,14.3125 -16.90625,14.3125 -9.09375,0 -17.09375,-6.5625 -17.09375,-15.609375 0,-2.484375 0.59375,-6.765625 4.5,-10.546875 1,-0.984375 5.1875,-3.96875 7.890625,-5.859375 -4.5,-2.296875 -15,-7.75 -15,-18.6875 C 3.296875,4.359375 13.09375,-2 22.796875,-2 33.5,-2 42.5,5.65625 42.5,15.78125 c 0,9.0625 -6.09375,13.234375 -10.09375,15.921875 z M 14.09375,44.09375 c -0.796875,0.5 -4.796875,3.578125 -4.796875,8.265625 0,6.0625 6.296875,10.640625 13.5,10.640625 C 30.703125,63 36.5,57.4375 36.5,50.96875 36.5,41.703125 26.09375,36.421875 25.59375,36.421875 c -0.09375,0 -0.1875,0 -1,0.609375 z M 32.5,23.734375 C 34,22.640625 38.796875,19.375 38.796875,13.296875 38.796875,5.953125 31.40625,0.390625 23,0.390625 c -9.09375,0 -16,6.453125 -16,14.296875 0,7.859375 6.09375,14.40625 13,17.5 z"
         id="CMR17-56"
         inkscape:connector-curvature="0"
         style="stroke-linecap:butt;stroke-linejoin:round" />
    </defs>
    <defs
       id="defs111">
      <path
         style="stroke-linecap:butt;stroke-linejoin:round"
         inkscape:connector-curvature="0"
         id="CMSS17-118"
         d="M 41.796875,43 H 34 L 27.296875,24.3125 C 25.203125,18.203125 22.203125,9.796875 21.703125,5.5 H 21.59375 c -0.1875,1.8125 -1,4.40625 -1.5,6.203125 C 19.5,13.90625 18.703125,16.5 18.09375,18.3125 L 9.296875,43 h -8 L 17.09375,0 H 26 Z" />
      <path
         style="stroke-linecap:butt;stroke-linejoin:round"
         inkscape:connector-curvature="0"
         id="CMSS17-40"
         d="M 25.203125,74.5 C 19.796875,69.015625 7.40625,56.265625 7.40625,24.8125 7.40625,-6.765625 19.796875,-19.421875 25.203125,-25 h 6.09375 C 19,-12.25 15,5.578125 15,24.703125 15,43.71875 18.796875,61.65625 31.296875,74.5 Z" />
      <path
         style="stroke-linecap:butt;stroke-linejoin:round"
         inkscape:connector-curvature="0"
         id="CMSS17-86"
         d="M 61.09375,69 H 53.296875 L 36,21.28125 C 35.5,19.890625 32.40625,10.75 31.796875,7.5625 h -0.09375 c -0.796875,3.78125 -4,12.625 -5.703125,17.5 L 14.40625,57.375 10.09375,69 H 1.296875 l 25.5,-69 h 8.796875 z" />
      <path
         style="stroke-linecap:butt;stroke-linejoin:round"
         inkscape:connector-curvature="0"
         id="CMSS17-41"
         d="m 11.296875,-25 c 5.40625,5.484375 17.796875,18.234375 17.796875,49.703125 0,31.5625 -12.390625,44.21875 -17.796875,49.796875 H 5.203125 C 17.5,61.75 21.5,43.921875 21.5,24.8125 21.5,5.78125 17.703125,-12.15625 5.203125,-25 Z" />
    </defs>
    <defs
       id="defs163">
      <path
         style="stroke-linecap:butt;stroke-linejoin:round"
         inkscape:connector-curvature="0"
         id="CMMI12-67"
         d="M 74.703125,69.109375 C 74.703125,70 74,70 73.796875,70 73.59375,70 73.203125,70 72.40625,69 L 65.5,60.65625 C 62,66.625 56.5,70 49,70 27.40625,70 5,48.25 5,24.921875 5,8.328125 16.703125,-2 31.296875,-2 c 8,0 15,3.375 20.796875,8.25 8.703125,7.234375 11.3125,16.890625 11.3125,17.671875 0,0.890625 -0.8125,0.890625 -1.109375,0.890625 -0.890625,0 -1,-0.59375 -1.203125,-1 C 56.5,8.34375 43,0.890625 33,0.890625 c -10.59375,0 -19.796875,6.75 -19.796875,20.84375 0,3.1875 1,20.453125 12.296875,33.453125 5.5,6.359375 14.90625,11.921875 24.40625,11.921875 11,0 15.890625,-9.03125 15.890625,-19.171875 0,-2.578125 -0.296875,-4.75 -0.296875,-5.15625 0,-0.890625 1,-0.890625 1.296875,-0.890625 1.109375,0 1.203125,0.09375 1.609375,1.875 z" />
    </defs>
    <defs
       id="defs151">
      <path
         style="stroke-linecap:butt;stroke-linejoin:round"
         inkscape:connector-curvature="0"
         id="CMMI12-86"
         d="m 61.90625,56.875 c 3.390625,5.375 6.5,7.75 11.59375,8.15625 1,0.09375 1.796875,0.09375 1.796875,1.875 0,0.40625 -0.203125,1 -1.09375,1 -1.796875,0 -6.109375,0 -7.90625,0 -2.890625,0 -5.890625,0 -8.703125,0 -0.796875,0 -1.796875,0 -1.796875,-1.875 0,-0.90625 0.90625,-1 1.296875,-1 3.703125,-0.296875 4.109375,-2.078125 4.109375,-3.28125 0,-1.484375 -1.40625,-3.78125 -1.5,-3.875 l -31.40625,-49.4375 -7,53.578125 C 21.296875,65 26.5,65 27.59375,65 29.09375,65 30,65 30,66.90625 c 0,1 -1.09375,1 -1.40625,1 -1.6875,0 -3.6875,0 -5.390625,0 H 17.59375 c -7.296875,0 -10.296875,0 -10.390625,0 -0.609375,0 -1.796875,0 -1.796875,-1.8125 C 5.40625,65 6.09375,65 7.703125,65 c 5.09375,0 5.390625,-0.90625 5.703125,-3.375 l 8,-61.25 C 21.703125,-1.703125 21.703125,-2 23.09375,-2 c 1.203125,0 1.703125,0.296875 2.703125,1.875 z" />
    </defs>
    <defs
       id="defs82">
      <path
         d="M 42,31.640625 C 42,37.75 41.90625,48.125 37.703125,56.109375 34,63.109375 28.09375,65.59375 22.90625,65.59375 18.09375,65.59375 12,63.40625 8.203125,56.203125 4.203125,48.71875 3.796875,39.4375 3.796875,31.640625 3.796875,25.953125 3.90625,17.28125 7,9.671875 11.296875,-0.609375 19,-2 22.90625,-2 27.5,-2 34.5,-0.109375 38.59375,9.375 41.59375,16.28125 42,24.359375 42,31.640625 M 22.90625,-0.40625 c -6.40625,0 -10.203125,5.484375 -11.609375,13.09375 -1.09375,5.875 -1.09375,14.46875 -1.09375,20.0625 0,7.6875 0,14.078125 1.296875,20.171875 C 13.40625,61.390625 19,64 22.90625,64 27,64 32.296875,61.296875 34.203125,53.125 35.5,47.4375 35.59375,40.734375 35.59375,32.75 c 0,-6.5 0,-14.484375 -1.1875,-20.375 -2.109375,-10.890625 -8,-12.78125 -11.5,-12.78125"
         id="CMR17-48"
         inkscape:connector-curvature="0"
         style="stroke-linecap:butt;stroke-linejoin:round" />
    </defs>
    <defs
       id="defs74">
      <path
         d="M 0,0 H -3.5"
         id="m6aea1f37d7"
         style="stroke:#000000;stroke-width:0.80000001;stroke-linecap:butt;stroke-linejoin:round"
         inkscape:connector-curvature="0" />
    </defs>
    <defs
       id="defs99">
      <path
         d="M 26.59375,63.40625 C 26.59375,65.5 26.5,65.5 25.09375,65.5 21.203125,61.1875 15.296875,59.796875 9.703125,59.796875 c -0.296875,0 -0.796875,0 -0.90625,-0.296875 C 8.703125,59.296875 8.703125,59.09375 8.703125,57 11.796875,57 17,57.59375 21,59.984375 V 7.203125 C 21,3.6875 20.796875,2.5 12.203125,2.5 h -3 V 0 C 14,0 19,0 23.796875,0 28.59375,0 33.59375,0 38.40625,0 v 2.5 h -3 c -8.609375,0 -8.8125,1.09375 -8.8125,4.65625 z"
         id="CMR17-49"
         inkscape:connector-curvature="0"
         style="stroke-linecap:butt;stroke-linejoin:round" />
    </defs>
    <defs
       id="defs16">
      <path
         d="M 0,0 V 3.5"
         id="md8a931e123"
         style="stroke:#000000;stroke-width:0.80000001;stroke-linecap:butt;stroke-linejoin:round"
         inkscape:connector-curvature="0" />
    </defs>
  </defs>
  <g
     id="figure_1"
     style="stroke-linecap:butt;stroke-linejoin:round"
     transform="translate(-29.757697,-30.854656)">
    <g
       id="g5825"
       style="stroke-linecap:butt;stroke-linejoin:round">
      <g
         transform="translate(0,11.035637)"
         style="stroke-linecap:butt;stroke-linejoin:round"
         id="g5682">
        <use
           transform="matrix(0,-0.15940224,-0.15940224,0,41.633164,84.315206)"
           xlink:href="#CMSS17-118"
           id="use113"
           style="stroke-linecap:butt;stroke-linejoin:round"
           x="0"
           y="0"
           width="100%"
           height="100%" />
        <use
           transform="matrix(0,-0.15940224,-0.15940224,0,41.633164,72.438525)"
           xlink:href="#CMSS17-40"
           id="use115"
           style="stroke-linecap:butt;stroke-linejoin:round"
           x="0"
           y="0"
           width="100%"
           height="100%" />
        <use
           transform="matrix(0,-0.15940224,-0.15940224,0,41.633164,66.609099)"
           xlink:href="#CMSS17-86"
           id="use117"
           style="stroke-linecap:butt;stroke-linejoin:round"
           x="0"
           y="0"
           width="100%"
           height="100%" />
        <use
           transform="matrix(0,-0.15940224,-0.15940224,0,41.633164,56.654243)"
           xlink:href="#CMSS17-41"
           id="use119"
           style="stroke-linecap:butt;stroke-linejoin:round"
           x="0"
           y="0"
           width="100%"
           height="100%" />
      </g>
      <g
         transform="translate(0,10.786375)"
         style="stroke-linecap:butt;stroke-linejoin:round"
         id="g5715">
        <path
           d="M 64.422207,113.05536 H 411.22 V 20.78 H 64.422207 Z"
           style="fill:#ffffff;stroke-linecap:butt;stroke-linejoin:round"
           id="path9"
           inkscape:connector-curvature="0" />
        <path
           clip-path="url(#pc426d12566)"
           d="M 80.185743,113.05536 V 20.78"
           style="fill:none;stroke:#b0b0b0;stroke-width:0.80000001;stroke-linecap:square;stroke-linejoin:round"
           id="path12"
           inkscape:connector-curvature="0" />
        <use
           height="100%"
           width="100%"
           id="use18"
           y="113.05536"
           xlink:href="#md8a931e123"
           x="80.185745"
           style="stroke:#000000;stroke-width:0.80000001;stroke-linecap:butt;stroke-linejoin:round" />
        <path
           clip-path="url(#pc426d12566)"
           d="M 143.23989,113.05536 V 20.78"
           style="fill:none;stroke:#b0b0b0;stroke-width:0.80000001;stroke-linecap:square;stroke-linejoin:round"
           id="path24"
           inkscape:connector-curvature="0" />
        <use
           height="100%"
           width="100%"
           id="use27"
           y="113.05536"
           xlink:href="#md8a931e123"
           x="143.23988"
           style="stroke:#000000;stroke-width:0.80000001;stroke-linecap:butt;stroke-linejoin:round" />
        <path
           clip-path="url(#pc426d12566)"
           d="M 206.29403,113.05536 V 20.78"
           style="fill:none;stroke:#b0b0b0;stroke-width:0.80000001;stroke-linecap:square;stroke-linejoin:round"
           id="path33"
           inkscape:connector-curvature="0" />
        <use
           height="100%"
           width="100%"
           id="use36"
           y="113.05536"
           xlink:href="#md8a931e123"
           x="206.29404"
           style="stroke:#000000;stroke-width:0.80000001;stroke-linecap:butt;stroke-linejoin:round" />
        <path
           clip-path="url(#pc426d12566)"
           d="M 269.34818,113.05536 V 20.78"
           style="fill:none;stroke:#b0b0b0;stroke-width:0.80000001;stroke-linecap:square;stroke-linejoin:round"
           id="path42"
           inkscape:connector-curvature="0" />
        <use
           height="100%"
           width="100%"
           id="use45"
           y="113.05536"
           xlink:href="#md8a931e123"
           x="269.34818"
           style="stroke:#000000;stroke-width:0.80000001;stroke-linecap:butt;stroke-linejoin:round" />
        <path
           clip-path="url(#pc426d12566)"
           d="M 332.40232,113.05536 V 20.78"
           style="fill:none;stroke:#b0b0b0;stroke-width:0.80000001;stroke-linecap:square;stroke-linejoin:round"
           id="path51"
           inkscape:connector-curvature="0" />
        <use
           height="100%"
           width="100%"
           id="use54"
           y="113.05536"
           xlink:href="#md8a931e123"
           x="332.40231"
           style="stroke:#000000;stroke-width:0.80000001;stroke-linecap:butt;stroke-linejoin:round" />
        <path
           clip-path="url(#pc426d12566)"
           d="M 395.45646,113.05536 V 20.78"
           style="fill:none;stroke:#b0b0b0;stroke-width:0.80000001;stroke-linecap:square;stroke-linejoin:round"
           id="path60"
           inkscape:connector-curvature="0" />
        <use
           height="100%"
           width="100%"
           id="use63"
           y="113.05536"
           xlink:href="#md8a931e123"
           x="395.45645"
           style="stroke:#000000;stroke-width:0.80000001;stroke-linecap:butt;stroke-linejoin:round" />
        <path
           clip-path="url(#pc426d12566)"
           d="M 64.422207,108.86102 H 411.22"
           style="fill:none;stroke:#b0b0b0;stroke-width:0.80000001;stroke-linecap:square;stroke-linejoin:round"
           id="path70"
           inkscape:connector-curvature="0" />
        <use
           height="100%"
           width="100%"
           id="use76"
           y="108.86102"
           xlink:href="#m6aea1f37d7"
           x="64.422211"
           style="stroke:#000000;stroke-width:0.80000001;stroke-linecap:butt;stroke-linejoin:round" />
        <use
           height="100%"
           width="100%"
           y="0"
           x="0"
           style="stroke-linecap:butt;stroke-linejoin:round"
           id="use84"
           xlink:href="#CMR17-48"
           transform="matrix(0.15940224,0,0,-0.15940224,49.61822,114.39582)" />
        <path
           clip-path="url(#pc426d12566)"
           d="M 64.422207,24.974334 H 411.22"
           style="fill:none;stroke:#b0b0b0;stroke-width:0.80000001;stroke-linecap:square;stroke-linejoin:round"
           id="path90"
           inkscape:connector-curvature="0" />
        <use
           height="100%"
           width="100%"
           id="use93"
           y="24.974335"
           xlink:href="#m6aea1f37d7"
           x="64.422211"
           style="stroke:#000000;stroke-width:0.80000001;stroke-linecap:butt;stroke-linejoin:round" />
        <use
           height="100%"
           width="100%"
           y="0"
           x="0"
           style="stroke-linecap:butt;stroke-linejoin:round"
           id="use101"
           xlink:href="#CMR17-49"
           transform="matrix(0.15940224,0,0,-0.15940224,49.61822,30.509128)" />
        <path
           clip-path="url(#pc426d12566)"
           d="m 80.185743,108.86102 0.03153,-83.886686 h 0.09459 31.372577 l 0.12612,83.886686 h 31.4041 l 0.12612,-83.886686 h 31.40411 l 0.12612,83.886686 h 31.4041 l 0.12612,-83.886686 h 31.40411 l 0.12612,83.886686 h 31.4041 l 0.12612,-83.886686 h 31.40411 l 0.12612,83.886686 h 31.4041 l 0.12612,-83.886686 h 31.40411 l 0.12612,83.886686 h 31.4041 v 0"
           style="fill:none;stroke:#1f77b4;stroke-width:1.5;stroke-linecap:square;stroke-linejoin:round"
           id="path125"
           inkscape:connector-curvature="0" />
        <path
           clip-path="url(#pc426d12566)"
           d="m 80.185743,108.86102 0.882847,-20.577576 0.882846,-15.529855 0.882846,-11.72035 0.882846,-8.845323 0.882847,-6.675548 0.882846,-5.038022 0.882846,-3.802185 0.882847,-2.869501 0.914376,-2.23224 0.914377,-1.667819 0.945906,-1.282936 1.008968,-1.002623 1.103558,-0.783767 1.261209,-0.615412 1.48192,-0.468194 1.891814,-0.351131 2.617008,-0.240016 4.22505,-0.13629 8.07174,-0.04424 0.88284,20.57668 0.88285,15.529179 0.88285,11.719839 0.88284,8.844938 0.88285,6.675257 0.88285,5.037803 0.88284,3.802019 0.88285,2.869373 0.91438,2.23214 0.91437,1.66775 0.94591,1.28288 1.00897,1.00258 1.10355,0.78373 1.26121,0.61539 1.48192,0.46817 1.89182,0.35112 2.617,0.24 4.22505,0.13629 8.10327,0.0443 0.88285,-20.576683 0.88285,-15.529185 0.88284,-11.719845 0.88285,-8.844942 0.88284,-6.67526 0.88285,-5.037804 0.88285,-3.802021 0.88284,-2.869377 0.91438,-2.232145 0.91438,-1.667747 0.9459,-1.282881 1.00897,-1.002579 1.10356,-0.783733 1.26121,-0.615386 1.48192,-0.468173 1.89181,-0.351116 2.61701,-0.240006 4.22505,-0.136284 8.10327,-0.04428 0.88284,20.57669 0.88285,15.529185 0.88285,11.719844 0.88284,8.844943 0.88285,6.675259 0.88285,5.037805 0.88284,3.802021 0.88285,2.86938 0.91437,2.23214 0.91438,1.66775 0.94591,1.28288 1.00897,1.00258 1.10355,0.78373 1.26121,0.61539 1.48192,0.46817 1.89182,0.35112 2.617,0.24 4.22506,0.13629 8.10326,0.0443 0.88285,-20.576685 0.88285,-15.529185 0.88284,-11.719845 0.88285,-8.844942 0.88284,-6.67526 0.88285,-5.037804 0.88285,-3.802021 0.88284,-2.869377 0.91438,-2.232145 0.91438,-1.667747 0.9459,-1.282881 1.00897,-1.002579 1.10356,-0.783733 1.26121,-0.615386 1.48192,-0.468173 1.89181,-0.351116 2.61701,-0.240006 4.22505,-0.136284 8.10327,-0.04428 0.88284,20.57669 0.88285,15.529185 0.88285,11.719844 0.88284,8.844943 0.88285,6.675259 0.88285,5.037805 0.88284,3.802021 0.88285,2.869382 0.91437,2.23214 0.91438,1.66775 0.94591,1.28288 1.00897,1.00258 1.10355,0.78373 1.26121,0.61539 1.48192,0.46817 1.89182,0.35112 2.61701,0.24 4.22505,0.13629 8.10326,0.0443 0.88285,-20.576687 0.88285,-15.529185 0.88284,-11.719845 0.88285,-8.844942 0.88284,-6.67526 0.88285,-5.037804 0.88285,-3.802021 0.88284,-2.869377 0.91438,-2.232145 0.91438,-1.667747 0.9459,-1.282881 1.00897,-1.002579 1.10356,-0.783733 1.26121,-0.615386 1.48192,-0.468173 1.89181,-0.351116 2.61701,-0.240006 4.22505,-0.136284 8.10327,-0.04428 0.88284,20.57669 0.88285,15.529185 0.88285,11.719844 0.88284,8.844943 0.88285,6.675259 0.88285,5.037805 0.88284,3.802021 0.88285,2.869384 0.91438,2.23214 0.91437,1.66775 0.94591,1.28288 1.00897,1.00258 1.10355,0.78373 1.26121,0.61539 1.48192,0.46817 1.89182,0.35112 2.61701,0.24 4.22505,0.13629 8.10326,0.0443 0.88285,-20.576689 0.88285,-15.529185 0.88284,-11.719845 0.88285,-8.844942 0.88284,-6.67526 0.88285,-5.037804 0.88285,-3.802021 0.88284,-2.869377 0.91438,-2.232145 0.91438,-1.667747 0.9459,-1.282881 1.00897,-1.002579 1.10356,-0.783733 1.26121,-0.615386 1.48192,-0.468173 1.89181,-0.351116 2.61701,-0.240006 4.22505,-0.136284 8.10327,-0.04428 0.88284,20.57669 0.88285,15.529185 0.88285,11.719844 0.88284,8.844943 0.88285,6.675259 0.88285,5.037805 0.88284,3.802021 0.88285,2.869386 0.91438,2.23214 0.91437,1.66775 0.94591,1.28288 1.00897,1.00258 1.10355,0.78373 1.26121,0.61539 1.48192,0.46817 1.89182,0.35112 2.61701,0.24 4.22505,0.13629 8.10326,0.0443 v 0"
           style="fill:none;stroke:#ff7f0e;stroke-width:1.5;stroke-linecap:square;stroke-linejoin:round"
           id="path128"
           inkscape:connector-curvature="0" />
        <path
           d="M 64.422207,113.05536 V 20.78"
           style="fill:none;stroke:#000000;stroke-width:0.80000001;stroke-linecap:square;stroke-linejoin:miter"
           id="path131"
           inkscape:connector-curvature="0" />
        <path
           d="M 411.22,113.05536 V 20.78"
           style="fill:none;stroke:#000000;stroke-width:0.80000001;stroke-linecap:square;stroke-linejoin:miter"
           id="path134"
           inkscape:connector-curvature="0" />
        <path
           d="M 64.422207,113.05536 H 411.22"
           style="fill:none;stroke:#000000;stroke-width:0.80000001;stroke-linecap:square;stroke-linejoin:miter"
           id="path137"
           inkscape:connector-curvature="0" />
        <path
           d="M 64.422207,20.78 H 411.22"
           style="fill:none;stroke:#000000;stroke-width:0.80000001;stroke-linecap:square;stroke-linejoin:miter"
           id="path140"
           inkscape:connector-curvature="0" />
        <path
           inkscape:connector-curvature="0"
           id="path143"
           style="opacity:0.8;fill:#ffffff;stroke:#cccccc;stroke-linecap:butt;stroke-linejoin:miter"
           d="M 331.74594,91.617154 H 400.02 q 3.2,0 3.2,-3.2 V 45.418202 q 0,-3.2 -3.2,-3.2 h -68.27406 q -3.2,0 -3.2,3.2 v 42.998952 q 0,3.2 3.2,3.2 z" />
        <path
           inkscape:connector-curvature="0"
           id="path146"
           style="fill:none;stroke:#1f77b4;stroke-width:1.5;stroke-linecap:square;stroke-linejoin:round"
           d="m 334.94594,54.218202 h 32" />
        <use
           transform="matrix(0.15940224,0,0,-0.15940224,379.74594,59.818202)"
           xlink:href="#CMMI12-86"
           id="use153"
           style="stroke-linecap:butt;stroke-linejoin:round"
           x="0"
           y="0"
           width="100%"
           height="100%" />
        <path
           inkscape:connector-curvature="0"
           id="path158"
           style="fill:none;stroke:#ff7f0e;stroke-width:1.5;stroke-linecap:square;stroke-linejoin:round"
           d="m 334.94594,76.517678 h 32" />
        <use
           transform="matrix(0.15940224,0,0,-0.15940224,379.74594,79.726652)"
           xlink:href="#CMMI12-86"
           id="use165"
           style="stroke-linecap:butt;stroke-linejoin:round"
           x="0"
           y="0"
           width="100%"
           height="100%" />
        <use
           transform="matrix(0.11158112,0,0,-0.11158112,388.84507,82.117678)"
           xlink:href="#CMMI12-67"
           id="use167"
           style="stroke-linecap:butt;stroke-linejoin:round"
           x="0"
           y="0"
           width="100%"
           height="100%" />
      </g>
    </g>
    <g
       id="g5786"
       style="stroke-linecap:butt;stroke-linejoin:round">
      <path
         inkscape:connector-curvature="0"
         id="path174"
         style="fill:#ffffff;stroke-linecap:butt;stroke-linejoin:round"
         d="M 64.422207,229.61071 H 411.22 V 137.33536 H 64.422207 Z" />
      <path
         inkscape:connector-curvature="0"
         id="path177"
         style="fill:none;stroke:#b0b0b0;stroke-width:0.80000001;stroke-linecap:square;stroke-linejoin:round"
         d="M 80.185743,229.61071 V 137.33536"
         clip-path="url(#p9bd4e341af)" />
      <g
         style="stroke-linecap:butt;stroke-linejoin:round"
         id="g182">
        <use
           height="100%"
           width="100%"
           id="use180"
           y="229.61072"
           xlink:href="#md8a931e123"
           x="80.185745"
           style="stroke:#000000;stroke-width:0.80000001;stroke-linecap:butt;stroke-linejoin:round" />
      </g>
      <path
         inkscape:connector-curvature="0"
         id="path191"
         style="fill:none;stroke:#b0b0b0;stroke-width:0.80000001;stroke-linecap:square;stroke-linejoin:round"
         d="M 143.23989,229.61071 V 137.33536"
         clip-path="url(#p9bd4e341af)" />
      <g
         style="stroke-linecap:butt;stroke-linejoin:round"
         id="g196">
        <use
           height="100%"
           width="100%"
           id="use194"
           y="229.61072"
           xlink:href="#md8a931e123"
           x="143.23988"
           style="stroke:#000000;stroke-width:0.80000001;stroke-linecap:butt;stroke-linejoin:round" />
      </g>
      <path
         inkscape:connector-curvature="0"
         id="path208"
         style="fill:none;stroke:#b0b0b0;stroke-width:0.80000001;stroke-linecap:square;stroke-linejoin:round"
         d="M 206.29403,229.61071 V 137.33536"
         clip-path="url(#p9bd4e341af)" />
      <g
         style="stroke-linecap:butt;stroke-linejoin:round"
         id="g213">
        <use
           height="100%"
           width="100%"
           id="use211"
           y="229.61072"
           xlink:href="#md8a931e123"
           x="206.29404"
           style="stroke:#000000;stroke-width:0.80000001;stroke-linecap:butt;stroke-linejoin:round" />
      </g>
      <path
         inkscape:connector-curvature="0"
         id="path225"
         style="fill:none;stroke:#b0b0b0;stroke-width:0.80000001;stroke-linecap:square;stroke-linejoin:round"
         d="M 269.34818,229.61071 V 137.33536"
         clip-path="url(#p9bd4e341af)" />
      <g
         style="stroke-linecap:butt;stroke-linejoin:round"
         id="g230">
        <use
           height="100%"
           width="100%"
           id="use228"
           y="229.61072"
           xlink:href="#md8a931e123"
           x="269.34818"
           style="stroke:#000000;stroke-width:0.80000001;stroke-linecap:butt;stroke-linejoin:round" />
      </g>
      <path
         inkscape:connector-curvature="0"
         id="path242"
         style="fill:none;stroke:#b0b0b0;stroke-width:0.80000001;stroke-linecap:square;stroke-linejoin:round"
         d="M 332.40232,229.61071 V 137.33536"
         clip-path="url(#p9bd4e341af)" />
      <g
         style="stroke-linecap:butt;stroke-linejoin:round"
         id="g247">
        <use
           height="100%"
           width="100%"
           id="use245"
           y="229.61072"
           xlink:href="#md8a931e123"
           x="332.40231"
           style="stroke:#000000;stroke-width:0.80000001;stroke-linecap:butt;stroke-linejoin:round" />
      </g>
      <path
         inkscape:connector-curvature="0"
         id="path259"
         style="fill:none;stroke:#b0b0b0;stroke-width:0.80000001;stroke-linecap:square;stroke-linejoin:round"
         d="M 395.45646,229.61071 V 137.33536"
         clip-path="url(#p9bd4e341af)" />
      <g
         style="stroke-linecap:butt;stroke-linejoin:round"
         id="g264">
        <use
           height="100%"
           width="100%"
           id="use262"
           y="229.61072"
           xlink:href="#md8a931e123"
           x="395.45645"
           style="stroke:#000000;stroke-width:0.80000001;stroke-linecap:butt;stroke-linejoin:round" />
      </g>
      <path
         inkscape:connector-curvature="0"
         id="path291"
         style="fill:none;stroke:#b0b0b0;stroke-width:0.80000001;stroke-linecap:square;stroke-linejoin:round"
         d="M 64.422207,225.83977 H 411.22"
         clip-path="url(#p9bd4e341af)" />
      <g
         style="stroke-linecap:butt;stroke-linejoin:round"
         id="g296">
        <use
           height="100%"
           width="100%"
           id="use294"
           y="225.83977"
           xlink:href="#m6aea1f37d7"
           x="64.422211"
           style="stroke:#000000;stroke-width:0.80000001;stroke-linecap:butt;stroke-linejoin:round" />
      </g>
      <g
         style="stroke-linecap:butt;stroke-linejoin:round"
         id="g306"
         transform="matrix(0.16,0,0,-0.16,37.220224,231.37456)">
        <use
           height="100%"
           width="100%"
           y="0"
           x="0"
           style="stroke-linecap:butt;stroke-linejoin:round"
           id="use302"
           xlink:href="#CMSY10-0"
           transform="scale(0.996264)" />
        <use
           height="100%"
           width="100%"
           y="0"
           x="0"
           style="stroke-linecap:butt;stroke-linejoin:round"
           id="use304"
           xlink:href="#CMR17-49"
           transform="matrix(0.996264,0,0,0.996264,77.487468,0)" />
      </g>
      <path
         inkscape:connector-curvature="0"
         id="path310"
         style="fill:none;stroke:#b0b0b0;stroke-width:0.80000001;stroke-linecap:square;stroke-linejoin:round"
         d="M 64.422207,183.68473 H 411.22"
         clip-path="url(#p9bd4e341af)" />
      <g
         style="stroke-linecap:butt;stroke-linejoin:round"
         id="g315">
        <use
           height="100%"
           width="100%"
           id="use313"
           y="183.68472"
           xlink:href="#m6aea1f37d7"
           x="64.422211"
           style="stroke:#000000;stroke-width:0.80000001;stroke-linecap:butt;stroke-linejoin:round" />
      </g>
      <g
         style="stroke-linecap:butt;stroke-linejoin:round"
         id="g320"
         transform="matrix(0.16,0,0,-0.16,49.61822,189.21952)">
        <use
           height="100%"
           width="100%"
           y="0"
           x="0"
           style="stroke-linecap:butt;stroke-linejoin:round"
           id="use318"
           xlink:href="#CMR17-48"
           transform="scale(0.996264)" />
      </g>
      <path
         inkscape:connector-curvature="0"
         id="path324"
         style="fill:none;stroke:#b0b0b0;stroke-width:0.80000001;stroke-linecap:square;stroke-linejoin:round"
         d="M 64.422207,141.52969 H 411.22"
         clip-path="url(#p9bd4e341af)" />
      <g
         style="stroke-linecap:butt;stroke-linejoin:round"
         id="g329">
        <use
           height="100%"
           width="100%"
           id="use327"
           y="141.52969"
           xlink:href="#m6aea1f37d7"
           x="64.422211"
           style="stroke:#000000;stroke-width:0.80000001;stroke-linecap:butt;stroke-linejoin:round" />
      </g>
      <g
         style="stroke-linecap:butt;stroke-linejoin:round"
         id="g334"
         transform="matrix(0.16,0,0,-0.16,49.61822,147.06448)">
        <use
           height="100%"
           width="100%"
           y="0"
           x="0"
           style="stroke-linecap:butt;stroke-linejoin:round"
           id="use332"
           xlink:href="#CMR17-49"
           transform="scale(0.996264)" />
      </g>
      <g
         transform="translate(12.397996)"
         style="stroke-linecap:butt;stroke-linejoin:round"
         id="g5676">
        <use
           transform="matrix(0,-0.15940224,-0.15940224,0,29.235168,200.87056)"
           xlink:href="#CMSS17-118"
           id="use338"
           style="stroke-linecap:butt;stroke-linejoin:round"
           x="0"
           y="0"
           width="100%"
           height="100%" />
        <use
           transform="matrix(0,-0.15940224,-0.15940224,0,29.235168,188.99388)"
           xlink:href="#CMSS17-40"
           id="use340"
           style="stroke-linecap:butt;stroke-linejoin:round"
           x="0"
           y="0"
           width="100%"
           height="100%" />
        <use
           transform="matrix(0,-0.15940224,-0.15940224,0,29.235168,183.16445)"
           xlink:href="#CMSS17-86"
           id="use342"
           style="stroke-linecap:butt;stroke-linejoin:round"
           x="0"
           y="0"
           width="100%"
           height="100%" />
        <use
           transform="matrix(0,-0.15940224,-0.15940224,0,29.235168,173.2096)"
           xlink:href="#CMSS17-41"
           id="use344"
           style="stroke-linecap:butt;stroke-linejoin:round"
           x="0"
           y="0"
           width="100%"
           height="100%" />
      </g>
      <path
         inkscape:connector-curvature="0"
         id="path350"
         style="fill:none;stroke:#1f77b4;stroke-width:1.5;stroke-linecap:square;stroke-linejoin:round"
         d="m 80.185743,183.68473 0.03153,-42.15504 h 0.09459 31.372577 l 0.12612,42.15504 h 31.4041 l 0.12612,-42.15504 h 31.40411 l 0.12612,42.15504 h 31.4041 l 0.12612,-42.15504 h 31.40411 l 0.12612,42.15504 h 31.4041 l 0.12612,-42.15504 h 31.40411 l 0.12612,42.15504 h 31.4041 l 0.12612,-42.15504 h 31.40411 l 0.12612,42.15504 h 31.4041 v 0"
         clip-path="url(#p9bd4e341af)" />
      <path
         inkscape:connector-curvature="0"
         id="path353"
         style="fill:none;stroke:#ff7f0e;stroke-width:1.5;stroke-linecap:square;stroke-linejoin:round"
         d="m 80.185743,183.68473 0.03153,-41.73345 v 0 0 l 0.882847,10.2373 0.882846,7.72607 0.882846,5.83085 0.882847,4.40053 0.882846,3.32107 0.882846,2.50641 0.914377,1.94978 0.945907,1.49983 0.977437,1.14091 1.040497,0.88096 1.166618,0.69561 1.3558,0.54187 1.639572,0.40799 2.175585,0.29725 3.184553,0.1894 5.927683,0.0914 6.84206,0.0144 0.0315,41.73347 0.0946,-1.2396 0.88285,-9.93278 0.88284,-7.49624 0.88285,-5.65741 0.88284,-4.26963 0.88285,-3.22228 0.88285,-2.43185 0.91437,-1.89178 0.94591,-1.45522 0.97744,-1.10698 1.07203,-0.87647 1.16661,-0.66818 1.38733,-0.53012 1.70264,-0.39922 2.23864,-0.28255 3.3422,-0.17783 6.49523,-0.0817 5.86462,-0.01 0.0315,-41.73347 0.0946,1.2396 0.88285,9.93278 0.88285,7.49625 0.88284,5.65741 0.88285,4.26963 0.88285,3.22228 0.88284,2.43185 0.91438,1.89179 0.9459,1.45521 0.97744,1.10698 1.07203,0.87648 1.16662,0.66817 1.38733,0.53013 1.70263,0.39922 2.23865,0.28255 3.3422,0.17783 6.49523,0.0817 5.86462,0.01 0.0315,41.73347 0.0946,-1.2396 0.88285,-9.93278 0.88284,-7.49625 0.88285,-5.65741 0.88284,-4.26963 0.88285,-3.22228 0.88285,-2.43185 0.91437,-1.89179 0.94591,-1.45521 0.97744,-1.10698 1.07202,-0.87648 1.16662,-0.66817 1.38733,-0.53013 1.70263,-0.39922 2.23865,-0.28255 3.3422,-0.17783 6.49523,-0.0817 5.86462,-0.01 0.0315,-41.73347 0.0946,1.2396 0.88285,9.93278 0.88285,7.49625 0.88284,5.65741 0.88285,4.26963 0.88285,3.22228 0.88284,2.43185 0.91438,1.89179 0.9459,1.45521 0.97744,1.10698 1.07203,0.87648 1.16662,0.66817 1.38733,0.53013 1.70263,0.39922 2.23865,0.28255 3.3422,0.17783 6.49523,0.0817 5.86462,0.01 0.0315,41.73347 0.0946,-1.2396 0.88285,-9.93278 0.88284,-7.49625 0.88285,-5.65741 0.88284,-4.26963 0.88285,-3.22228 0.88285,-2.43185 0.91437,-1.89179 0.94591,-1.45521 0.97744,-1.10698 1.07202,-0.87648 1.16662,-0.66817 1.38733,-0.53013 1.70264,-0.39922 2.23864,-0.28255 3.3422,-0.17783 6.49523,-0.0817 5.86462,-0.01 0.0315,-41.73347 0.0946,1.2396 0.88285,9.93278 0.88285,7.49625 0.88284,5.65741 0.88285,4.26963 0.88285,3.22228 0.88284,2.43185 0.91438,1.89179 0.94591,1.45521 0.97743,1.10698 1.07203,0.87648 1.16662,0.66817 1.38733,0.53013 1.70263,0.39922 2.23865,0.28255 3.3422,0.17783 6.49523,0.0817 5.86462,0.01 0.0315,41.73347 0.0946,-1.2396 0.88285,-9.93278 0.88284,-7.49625 0.88285,-5.65741 0.88285,-4.26963 0.88284,-3.22228 0.88285,-2.43185 0.91437,-1.89179 0.94591,-1.45521 0.97744,-1.10698 1.07202,-0.87648 1.16662,-0.66817 1.38733,-0.53013 1.70264,-0.39922 2.23864,-0.28255 3.34221,-0.17783 6.49522,-0.0817 5.86462,-0.01 0.0315,-41.73347 0.0946,1.2396 0.88285,9.93278 0.88285,7.49625 0.88284,5.65741 0.88285,4.26963 0.88285,3.22228 0.88284,2.43185 0.91438,1.89179 0.94591,1.45521 0.97743,1.10698 1.07203,0.87648 1.16662,0.66817 1.38733,0.53013 1.70263,0.39922 2.23865,0.28255 3.3422,0.17783 6.49523,0.0817 5.86462,0.01 0.0315,41.73347 0.0946,-1.2396 0.88285,-9.93278 0.88284,-7.49625 0.88285,-5.65741 0.88285,-4.26963 0.88284,-3.22228 0.88285,-2.43185 0.91437,-1.89179 0.94591,-1.45521 0.97744,-1.10698 1.07202,-0.87648 1.16662,-0.66817 1.38733,-0.53013 1.70264,-0.39922 2.23864,-0.28255 3.34221,-0.17783 6.49522,-0.0817 5.86462,-0.01 v 0"
         clip-path="url(#p9bd4e341af)" />
      <path
         inkscape:connector-curvature="0"
         id="path356"
         style="fill:none;stroke:#000000;stroke-width:0.80000001;stroke-linecap:square;stroke-linejoin:miter"
         d="M 64.422207,229.61071 V 137.33536" />
      <path
         inkscape:connector-curvature="0"
         id="path359"
         style="fill:none;stroke:#000000;stroke-width:0.80000001;stroke-linecap:square;stroke-linejoin:miter"
         d="M 411.22,229.61071 V 137.33536" />
      <path
         inkscape:connector-curvature="0"
         id="path362"
         style="fill:none;stroke:#000000;stroke-width:0.80000001;stroke-linecap:square;stroke-linejoin:miter"
         d="M 64.422207,229.61071 H 411.22" />
      <path
         inkscape:connector-curvature="0"
         id="path365"
         style="fill:none;stroke:#000000;stroke-width:0.80000001;stroke-linecap:square;stroke-linejoin:miter"
         d="M 64.422207,137.33536 H 411.22" />
      <path
         d="M 331.24864,208.17251 H 400.02 q 3.2,0 3.2,-3.2 v -42.99895 q 0,-3.2 -3.2,-3.2 h -68.77136 q -3.2,0 -3.2,3.2 v 42.99895 q 0,3.2 3.2,3.2 z"
         style="opacity:0.8;fill:#ffffff;stroke:#cccccc;stroke-linecap:butt;stroke-linejoin:miter"
         id="path368"
         inkscape:connector-curvature="0" />
      <path
         d="m 334.44864,170.77356 h 32"
         style="fill:none;stroke:#1f77b4;stroke-width:1.5;stroke-linecap:square;stroke-linejoin:round"
         id="path371"
         inkscape:connector-curvature="0" />
      <use
         height="100%"
         width="100%"
         y="0"
         x="0"
         style="stroke-linecap:butt;stroke-linejoin:round"
         id="use375"
         xlink:href="#CMMI12-86"
         transform="matrix(0.15940224,0,0,-0.15940224,379.24864,176.37356)" />
      <path
         d="m 334.44864,193.07303 h 32"
         style="fill:none;stroke:#ff7f0e;stroke-width:1.5;stroke-linecap:square;stroke-linejoin:round"
         id="path380"
         inkscape:connector-curvature="0" />
      <use
         height="100%"
         width="100%"
         y="0"
         x="0"
         style="stroke-linecap:butt;stroke-linejoin:round"
         id="use387"
         xlink:href="#CMMI12-86"
         transform="matrix(0.15940224,0,0,-0.15940224,379.24864,196.282)" />
      <use
         height="100%"
         width="100%"
         y="0"
         x="0"
         style="stroke-linecap:butt;stroke-linejoin:round"
         id="use389"
         xlink:href="#CMMI12-82"
         transform="matrix(0.11158112,0,0,-0.11158112,388.34777,198.67303)" />
      <g
         id="g6027"
         style="stroke-linecap:butt;stroke-linejoin:round"
         transform="translate(1.0335381,-19.661053)">
        <use
           transform="matrix(0.15940224,0,0,-0.15940224,223.34037,266.73494)"
           xlink:href="#CMSS17-116"
           id="use279"
           style="stroke-linecap:butt;stroke-linejoin:round"
           x="0"
           y="0"
           width="100%"
           height="100%" />
        <use
           transform="matrix(0.15940224,0,0,-0.15940224,233.75008,266.73494)"
           xlink:href="#CMSS17-40"
           id="use281"
           style="stroke-linecap:butt;stroke-linejoin:round"
           x="0"
           y="0"
           width="100%"
           height="100%" />
        <use
           transform="matrix(0.15940224,0,0,-0.15940224,239.5795,266.73494)"
           xlink:href="#CMSS17-115"
           id="use283"
           style="stroke-linecap:butt;stroke-linejoin:round"
           x="0"
           y="0"
           width="100%"
           height="100%" />
        <use
           transform="matrix(0.15940224,0,0,-0.15940224,245.32567,266.73494)"
           xlink:href="#CMSS17-41"
           id="use285"
           style="stroke-linecap:butt;stroke-linejoin:round"
           x="0"
           y="0"
           width="100%"
           height="100%" />
      </g>
    </g>
  </g>
  <defs
     id="defs403">
    <clipPath
       id="pc426d12566"
       style="stroke-linecap:butt;stroke-linejoin:round">
      <rect
         height="92.275352"
         width="346.79779"
         x="64.422211"
         y="20.780001"
         id="rect397"
         style="stroke-linecap:butt;stroke-linejoin:round" />
    </clipPath>
    <clipPath
       id="p9bd4e341af"
       style="stroke-linecap:butt;stroke-linejoin:round">
      <rect
         height="92.275352"
         width="346.79779"
         x="64.422211"
         y="137.33536"
         id="rect400"
         style="stroke-linecap:butt;stroke-linejoin:round" />
    </clipPath>
  </defs>
</svg>
