<?xml version="1.0" encoding="utf-8" standalone="no"?>
<!DOCTYPE svg PUBLIC "-//W3C//DTD SVG 1.1//EN"
  "http://www.w3.org/Graphics/SVG/1.1/DTD/svg11.dtd">
<!-- Created with matplotlib (http://matplotlib.org/) -->
<svg height="288pt" version="1.1" viewBox="0 0 432 288" width="432pt" xmlns="http://www.w3.org/2000/svg" xmlns:xlink="http://www.w3.org/1999/xlink">
 <defs>
  <style type="text/css">
*{stroke-linecap:butt;stroke-linejoin:round;}
  </style>
 </defs>
 <g id="figure_1">
  <g id="patch_1">
   <path d="M 0 288 
L 432 288 
L 432 0 
L 0 0 
z
" style="fill:#ffffff;"/>
  </g>
  <g id="axes_1">
   <g id="patch_2">
    <path d="M 56.621518 267.22 
L 411.22 267.22 
L 411.22 20.78 
L 56.621518 20.78 
z
" style="fill:#ffffff;"/>
   </g>
   <g id="matplotlib.axis_1">
    <g id="xtick_1">
     <g id="line2d_1">
      <path clip-path="url(#p57469d1916)" d="M 72.739631 267.22 
L 72.739631 20.78 
" style="fill:none;stroke:#b0b0b0;stroke-linecap:square;stroke-width:0.8;"/>
     </g>
     <g id="line2d_2">
      <defs>
       <path d="M 0 0 
L 0 3.5 
" id="m3471c60cba" style="stroke:#000000;stroke-width:0.8;"/>
      </defs>
      <g>
       <use style="stroke:#000000;stroke-width:0.8;" x="72.739631" xlink:href="#m3471c60cba" y="267.22"/>
      </g>
     </g>
    </g>
    <g id="xtick_2">
     <g id="line2d_3">
      <path clip-path="url(#p57469d1916)" d="M 104.975857 267.22 
L 104.975857 20.78 
" style="fill:none;stroke:#b0b0b0;stroke-linecap:square;stroke-width:0.8;"/>
     </g>
     <g id="line2d_4">
      <g>
       <use style="stroke:#000000;stroke-width:0.8;" x="104.975857" xlink:href="#m3471c60cba" y="267.22"/>
      </g>
     </g>
    </g>
    <g id="xtick_3">
     <g id="line2d_5">
      <path clip-path="url(#p57469d1916)" d="M 137.212082 267.22 
L 137.212082 20.78 
" style="fill:none;stroke:#b0b0b0;stroke-linecap:square;stroke-width:0.8;"/>
     </g>
     <g id="line2d_6">
      <g>
       <use style="stroke:#000000;stroke-width:0.8;" x="137.212082" xlink:href="#m3471c60cba" y="267.22"/>
      </g>
     </g>
    </g>
    <g id="xtick_4">
     <g id="line2d_7">
      <path clip-path="url(#p57469d1916)" d="M 169.448308 267.22 
L 169.448308 20.78 
" style="fill:none;stroke:#b0b0b0;stroke-linecap:square;stroke-width:0.8;"/>
     </g>
     <g id="line2d_8">
      <g>
       <use style="stroke:#000000;stroke-width:0.8;" x="169.448308" xlink:href="#m3471c60cba" y="267.22"/>
      </g>
     </g>
    </g>
    <g id="xtick_5">
     <g id="line2d_9">
      <path clip-path="url(#p57469d1916)" d="M 201.684534 267.22 
L 201.684534 20.78 
" style="fill:none;stroke:#b0b0b0;stroke-linecap:square;stroke-width:0.8;"/>
     </g>
     <g id="line2d_10">
      <g>
       <use style="stroke:#000000;stroke-width:0.8;" x="201.684534" xlink:href="#m3471c60cba" y="267.22"/>
      </g>
     </g>
    </g>
    <g id="xtick_6">
     <g id="line2d_11">
      <path clip-path="url(#p57469d1916)" d="M 233.920759 267.22 
L 233.920759 20.78 
" style="fill:none;stroke:#b0b0b0;stroke-linecap:square;stroke-width:0.8;"/>
     </g>
     <g id="line2d_12">
      <g>
       <use style="stroke:#000000;stroke-width:0.8;" x="233.920759" xlink:href="#m3471c60cba" y="267.22"/>
      </g>
     </g>
    </g>
    <g id="xtick_7">
     <g id="line2d_13">
      <path clip-path="url(#p57469d1916)" d="M 266.156985 267.22 
L 266.156985 20.78 
" style="fill:none;stroke:#b0b0b0;stroke-linecap:square;stroke-width:0.8;"/>
     </g>
     <g id="line2d_14">
      <g>
       <use style="stroke:#000000;stroke-width:0.8;" x="266.156985" xlink:href="#m3471c60cba" y="267.22"/>
      </g>
     </g>
    </g>
    <g id="xtick_8">
     <g id="line2d_15">
      <path clip-path="url(#p57469d1916)" d="M 298.39321 267.22 
L 298.39321 20.78 
" style="fill:none;stroke:#b0b0b0;stroke-linecap:square;stroke-width:0.8;"/>
     </g>
     <g id="line2d_16">
      <g>
       <use style="stroke:#000000;stroke-width:0.8;" x="298.39321" xlink:href="#m3471c60cba" y="267.22"/>
      </g>
     </g>
    </g>
    <g id="xtick_9">
     <g id="line2d_17">
      <path clip-path="url(#p57469d1916)" d="M 330.629436 267.22 
L 330.629436 20.78 
" style="fill:none;stroke:#b0b0b0;stroke-linecap:square;stroke-width:0.8;"/>
     </g>
     <g id="line2d_18">
      <g>
       <use style="stroke:#000000;stroke-width:0.8;" x="330.629436" xlink:href="#m3471c60cba" y="267.22"/>
      </g>
     </g>
    </g>
    <g id="xtick_10">
     <g id="line2d_19">
      <path clip-path="url(#p57469d1916)" d="M 362.865662 267.22 
L 362.865662 20.78 
" style="fill:none;stroke:#b0b0b0;stroke-linecap:square;stroke-width:0.8;"/>
     </g>
     <g id="line2d_20">
      <g>
       <use style="stroke:#000000;stroke-width:0.8;" x="362.865662" xlink:href="#m3471c60cba" y="267.22"/>
      </g>
     </g>
    </g>
    <g id="xtick_11">
     <g id="line2d_21">
      <path clip-path="url(#p57469d1916)" d="M 395.101887 267.22 
L 395.101887 20.78 
" style="fill:none;stroke:#b0b0b0;stroke-linecap:square;stroke-width:0.8;"/>
     </g>
     <g id="line2d_22">
      <g>
       <use style="stroke:#000000;stroke-width:0.8;" x="395.101887" xlink:href="#m3471c60cba" y="267.22"/>
      </g>
     </g>
    </g>
   </g>
   <g id="matplotlib.axis_2">
    <g id="ytick_1">
     <g id="line2d_23">
      <path clip-path="url(#p57469d1916)" d="M 56.621518 256.018182 
L 411.22 256.018182 
" style="fill:none;stroke:#b0b0b0;stroke-linecap:square;stroke-width:0.8;"/>
     </g>
     <g id="line2d_24">
      <defs>
       <path d="M 0 0 
L -3.5 0 
" id="m80f760baff" style="stroke:#000000;stroke-width:0.8;"/>
      </defs>
      <g>
       <use style="stroke:#000000;stroke-width:0.8;" x="56.621518" xlink:href="#m80f760baff" y="256.018182"/>
      </g>
     </g>
     <g id="text_1">
      <!-- $-1.0$ -->
      <defs>
       <path d="M 65.90625 23 
C 67.59375 23 69.40625 23 69.40625 25 
C 69.40625 27 67.59375 27 65.90625 27 
L 11.796875 27 
C 10.09375 27 8.296875 27 8.296875 25 
C 8.296875 23 10.09375 23 11.796875 23 
z
" id="CMSY10-0"/>
       <path d="M 26.59375 63.40625 
C 26.59375 65.5 26.5 65.5 25.09375 65.5 
C 21.203125 61.1875 15.296875 59.796875 9.703125 59.796875 
C 9.40625 59.796875 8.90625 59.796875 8.796875 59.5 
C 8.703125 59.296875 8.703125 59.09375 8.703125 57 
C 11.796875 57 17 57.59375 21 59.984375 
L 21 7.203125 
C 21 3.6875 20.796875 2.5 12.203125 2.5 
L 9.203125 2.5 
L 9.203125 0 
C 14 0 19 0 23.796875 0 
C 28.59375 0 33.59375 0 38.40625 0 
L 38.40625 2.5 
L 35.40625 2.5 
C 26.796875 2.5 26.59375 3.59375 26.59375 7.15625 
z
" id="CMR17-49"/>
       <path d="M 18.40625 4.796875 
C 18.40625 7.6875 16 9.671875 13.59375 9.671875 
C 10.703125 9.671875 8.703125 7.28125 8.703125 4.890625 
C 8.703125 2 11.09375 0 13.5 0 
C 16.40625 0 18.40625 2.390625 18.40625 4.796875 
" id="CMMI12-58"/>
       <path d="M 42 31.640625 
C 42 37.75 41.90625 48.125 37.703125 56.109375 
C 34 63.109375 28.09375 65.59375 22.90625 65.59375 
C 18.09375 65.59375 12 63.40625 8.203125 56.203125 
C 4.203125 48.71875 3.796875 39.4375 3.796875 31.640625 
C 3.796875 25.953125 3.90625 17.28125 7 9.671875 
C 11.296875 -0.609375 19 -2 22.90625 -2 
C 27.5 -2 34.5 -0.109375 38.59375 9.375 
C 41.59375 16.28125 42 24.359375 42 31.640625 
M 22.90625 -0.40625 
C 16.5 -0.40625 12.703125 5.078125 11.296875 12.6875 
C 10.203125 18.5625 10.203125 27.15625 10.203125 32.75 
C 10.203125 40.4375 10.203125 46.828125 11.5 52.921875 
C 13.40625 61.390625 19 64 22.90625 64 
C 27 64 32.296875 61.296875 34.203125 53.125 
C 35.5 47.4375 35.59375 40.734375 35.59375 32.75 
C 35.59375 26.25 35.59375 18.265625 34.40625 12.375 
C 32.296875 1.484375 26.40625 -0.40625 22.90625 -0.40625 
" id="CMR17-48"/>
      </defs>
      <g transform="translate(17.28 261.552976)scale(0.16 -0.16)">
       <use transform="scale(0.996264)" xlink:href="#CMSY10-0"/>
       <use transform="translate(77.487468 0)scale(0.996264)" xlink:href="#CMR17-49"/>
       <use transform="translate(123.177945 0)scale(0.996264)" xlink:href="#CMMI12-58"/>
       <use transform="translate(150.275122 0)scale(0.996264)" xlink:href="#CMR17-48"/>
      </g>
     </g>
    </g>
    <g id="ytick_2">
     <g id="line2d_25">
      <path clip-path="url(#p57469d1916)" d="M 56.621518 200.006722 
L 411.22 200.006722 
" style="fill:none;stroke:#b0b0b0;stroke-linecap:square;stroke-width:0.8;"/>
     </g>
     <g id="line2d_26">
      <g>
       <use style="stroke:#000000;stroke-width:0.8;" x="56.621518" xlink:href="#m80f760baff" y="200.006722"/>
      </g>
     </g>
     <g id="text_2">
      <!-- $-0.5$ -->
      <defs>
       <path d="M 11.40625 57.6875 
C 12.40625 57.28125 16.5 56 20.703125 56 
C 30 56 35.09375 61.109375 38 64.0625 
C 38 64.953125 38 65.5 37.40625 65.5 
C 37.296875 65.5 37.09375 65.5 36.296875 65.046875 
C 32.796875 63.40625 28.703125 62.078125 23.703125 62.078125 
C 20.703125 62.078125 16.203125 62.484375 11.296875 64.671875 
C 10.203125 65.171875 10 65.171875 9.90625 65.171875 
C 9.40625 65.171875 9.296875 65.0625 9.296875 63.078125 
L 9.296875 34.421875 
C 9.296875 32.640625 9.296875 32.140625 10.296875 32.140625 
C 10.796875 32.140625 11 32.34375 11.5 33.03125 
C 14.703125 37.515625 19.09375 39.40625 24.09375 39.40625 
C 27.59375 39.40625 35.09375 37.21875 35.09375 20.140625 
C 35.09375 16.953125 35.09375 11.171875 32.09375 6.578125 
C 29.59375 2.484375 25.703125 0.390625 21.40625 0.390625 
C 14.796875 0.390625 8.09375 5 6.296875 12.71875 
C 6.703125 12.609375 7.5 12.421875 7.90625 12.421875 
C 9.203125 12.421875 11.703125 13.125 11.703125 16.21875 
C 11.703125 18.90625 9.796875 20 7.90625 20 
C 5.59375 20 4.09375 18.59375 4.09375 15.796875 
C 4.09375 7.09375 11 -2 21.59375 -2 
C 31.90625 -2 41.703125 6.875 41.703125 19.75 
C 41.703125 31.71875 33.90625 41 24.203125 41 
C 19.09375 41 14.796875 39.109375 11.40625 35.53125 
z
" id="CMR17-53"/>
      </defs>
      <g transform="translate(17.28 205.541516)scale(0.16 -0.16)">
       <use transform="scale(0.996264)" xlink:href="#CMSY10-0"/>
       <use transform="translate(77.487468 0)scale(0.996264)" xlink:href="#CMR17-48"/>
       <use transform="translate(123.177945 0)scale(0.996264)" xlink:href="#CMMI12-58"/>
       <use transform="translate(150.275122 0)scale(0.996264)" xlink:href="#CMR17-53"/>
      </g>
     </g>
    </g>
    <g id="ytick_3">
     <g id="line2d_27">
      <path clip-path="url(#p57469d1916)" d="M 56.621518 143.995262 
L 411.22 143.995262 
" style="fill:none;stroke:#b0b0b0;stroke-linecap:square;stroke-width:0.8;"/>
     </g>
     <g id="line2d_28">
      <g>
       <use style="stroke:#000000;stroke-width:0.8;" x="56.621518" xlink:href="#m80f760baff" y="143.995262"/>
      </g>
     </g>
     <g id="text_3">
      <!-- $0.0$ -->
      <g transform="translate(29.677996 149.530056)scale(0.16 -0.16)">
       <use transform="scale(0.996264)" xlink:href="#CMR17-48"/>
       <use transform="translate(45.690477 0)scale(0.996264)" xlink:href="#CMMI12-58"/>
       <use transform="translate(72.787654 0)scale(0.996264)" xlink:href="#CMR17-48"/>
      </g>
     </g>
    </g>
    <g id="ytick_4">
     <g id="line2d_29">
      <path clip-path="url(#p57469d1916)" d="M 56.621518 87.983802 
L 411.22 87.983802 
" style="fill:none;stroke:#b0b0b0;stroke-linecap:square;stroke-width:0.8;"/>
     </g>
     <g id="line2d_30">
      <g>
       <use style="stroke:#000000;stroke-width:0.8;" x="56.621518" xlink:href="#m80f760baff" y="87.983802"/>
      </g>
     </g>
     <g id="text_4">
      <!-- $0.5$ -->
      <g transform="translate(29.677996 93.518596)scale(0.16 -0.16)">
       <use transform="scale(0.996264)" xlink:href="#CMR17-48"/>
       <use transform="translate(45.690477 0)scale(0.996264)" xlink:href="#CMMI12-58"/>
       <use transform="translate(72.787654 0)scale(0.996264)" xlink:href="#CMR17-53"/>
      </g>
     </g>
    </g>
    <g id="ytick_5">
     <g id="line2d_31">
      <path clip-path="url(#p57469d1916)" d="M 56.621518 31.972342 
L 411.22 31.972342 
" style="fill:none;stroke:#b0b0b0;stroke-linecap:square;stroke-width:0.8;"/>
     </g>
     <g id="line2d_32">
      <g>
       <use style="stroke:#000000;stroke-width:0.8;" x="56.621518" xlink:href="#m80f760baff" y="31.972342"/>
      </g>
     </g>
     <g id="text_5">
      <!-- $1.0$ -->
      <g transform="translate(29.677996 37.507136)scale(0.16 -0.16)">
       <use transform="scale(0.996264)" xlink:href="#CMR17-49"/>
       <use transform="translate(45.690477 0)scale(0.996264)" xlink:href="#CMMI12-58"/>
       <use transform="translate(72.787654 0)scale(0.996264)" xlink:href="#CMR17-48"/>
      </g>
     </g>
    </g>
   </g>
   <g id="LineCollection_1">
    <path clip-path="url(#p57469d1916)" d="M 174.012721 143.995262 
L 224.649265 143.995262 
" style="fill:none;stroke:#000000;stroke-width:4;"/>
   </g>
   <g id="line2d_33">
    <path clip-path="url(#p57469d1916)" d="M 72.739631 143.995262 
L 80.839185 116.144012 
L 85.698918 100.164173 
L 88.93874 90.041774 
L 92.178561 80.463888 
L 95.418383 71.527176 
L 98.658205 63.321831 
L 101.898026 55.930662 
L 105.137848 49.428264 
L 106.757759 46.531231 
L 108.37767 43.880261 
L 109.99758 41.482047 
L 111.617491 39.342643 
L 113.237402 37.467452 
L 114.857313 35.861207 
L 116.477224 34.527963 
L 118.097135 33.471087 
L 119.717045 32.693247 
L 121.336956 32.196405 
L 122.956867 31.981818 
L 124.576778 32.050026 
L 126.196689 32.400858 
L 127.8166 33.033427 
L 129.43651 33.946137 
L 131.056421 35.136684 
L 132.676332 36.602061 
L 134.296243 38.338568 
L 135.916154 40.341823 
L 137.536065 42.606768 
L 139.155975 45.127683 
L 140.775886 47.898205 
L 142.395797 50.91134 
L 145.635619 57.634423 
L 148.87544 65.229083 
L 152.115262 73.61867 
L 155.355084 82.718516 
L 158.594905 92.436783 
L 163.454638 107.957709 
L 168.31437 124.2961 
L 186.13339 185.129906 
L 190.993122 200.312067 
L 194.232944 209.743947 
L 197.472765 218.512276 
L 200.712587 226.528559 
L 203.952409 233.711895 
L 207.19223 239.989788 
L 208.812141 242.769019 
L 210.432052 245.29888 
L 212.051963 247.572984 
L 213.671874 249.585589 
L 215.291785 251.331616 
L 216.911695 252.806655 
L 218.531606 254.006982 
L 220.151517 254.929567 
L 221.771428 255.572081 
L 223.391339 255.932902 
L 225.01125 256.011119 
L 226.63116 255.806534 
L 228.251071 255.319664 
L 229.870982 254.551738 
L 231.490893 253.504695 
L 233.110804 252.181178 
L 234.730715 250.584529 
L 236.350625 248.718778 
L 237.970536 246.588636 
L 239.590447 244.199481 
L 241.210358 241.557345 
L 242.830269 238.668898 
L 246.07009 232.182844 
L 249.309912 224.806779 
L 252.549734 216.615143 
L 255.789555 207.690608 
L 259.029377 198.123244 
L 263.88911 182.779644 
L 268.748842 166.556272 
L 278.468307 132.95384 
L 284.94795 110.9192 
L 289.807683 95.220434 
L 293.047505 85.348218 
L 296.287326 76.067884 
L 299.527148 67.47309 
L 302.76697 59.650577 
L 306.006791 52.679292 
L 309.246613 46.629592 
L 310.866524 43.969796 
L 312.486435 41.56253 
L 314.106345 39.413872 
L 315.726256 37.529246 
L 317.346167 35.913411 
L 318.966078 34.570444 
L 320.585989 33.503739 
L 322.2059 32.715986 
L 323.82581 32.209175 
L 325.445721 31.984586 
L 327.065632 32.042786 
L 328.685543 32.383627 
L 330.305454 33.00625 
L 331.925365 33.909081 
L 333.545275 35.089843 
L 335.165186 36.545553 
L 336.785097 38.272537 
L 338.405008 40.266435 
L 340.024919 42.522212 
L 341.64483 45.034174 
L 343.264741 47.795979 
L 344.884651 50.800655 
L 348.124473 57.507679 
L 351.364295 65.087558 
L 354.604116 73.463793 
L 357.843938 82.551851 
L 361.08376 92.26001 
L 365.943492 107.769148 
L 370.803225 124.100028 
L 388.622244 184.94455 
L 393.481976 200.139774 
L 395.101887 204.938095 
L 395.101887 204.938095 
" style="fill:none;stroke:#1f77b4;stroke-linecap:square;stroke-width:1.5;"/>
   </g>
   <g id="line2d_34">
    <path clip-path="url(#p57469d1916)" d="M 72.739631 256.018182 
L 74.359542 255.876772 
L 75.979453 255.4529 
L 77.599364 254.747635 
L 79.219275 253.762759 
L 80.839185 252.500757 
L 82.459096 250.964816 
L 84.079007 249.158814 
L 85.698918 247.087309 
L 87.318829 244.755533 
L 88.93874 242.169371 
L 90.55865 239.335354 
L 93.798472 232.952978 
L 97.038294 225.672818 
L 100.278115 217.568348 
L 103.517937 208.721359 
L 106.757759 199.221137 
L 109.99758 189.163562 
L 114.857313 173.255488 
L 121.336956 151.076954 
L 131.056421 117.557701 
L 135.916154 101.508801 
L 139.155975 91.323291 
L 142.395797 81.669359 
L 145.635619 72.644437 
L 148.87544 64.339605 
L 152.115262 56.838679 
L 155.355084 50.217359 
L 156.974995 47.2578 
L 158.594905 44.542469 
L 160.214816 42.078224 
L 161.834727 39.871283 
L 163.454638 37.92722 
L 165.074549 36.250943 
L 166.69446 34.846683 
L 168.31437 33.717985 
L 169.934281 32.867701 
L 171.554192 32.297975 
L 173.174103 32.010246 
L 174.794014 32.005242 
L 176.413925 32.282973 
L 178.033835 32.84274 
L 179.653746 33.683129 
L 181.273657 34.802019 
L 182.893568 36.196584 
L 184.513479 37.863303 
L 186.13339 39.79797 
L 187.7533 41.995699 
L 189.373211 44.450942 
L 190.993122 47.1575 
L 192.613033 50.10854 
L 195.852855 56.713668 
L 199.092676 64.199663 
L 202.332498 72.490977 
L 205.57232 81.503929 
L 208.812141 91.147561 
L 213.671874 106.581129 
L 218.531606 122.863388 
L 236.350625 183.771131 
L 241.210358 199.047732 
L 244.45018 208.558667 
L 247.690001 217.418011 
L 250.929823 225.536353 
L 254.169645 232.831763 
L 257.409466 239.230611 
L 259.029377 242.073272 
L 260.649288 244.66832 
L 262.269199 247.009203 
L 263.88911 249.090011 
L 265.50902 250.905491 
L 267.128931 252.451059 
L 268.748842 253.722813 
L 270.368753 254.717543 
L 271.988664 255.432736 
L 273.608575 255.866589 
L 275.228485 256.018005 
L 276.848396 255.886601 
L 278.468307 255.472711 
L 280.088218 254.777378 
L 281.708129 253.802358 
L 283.32804 252.550113 
L 284.94795 251.023804 
L 286.567861 249.227284 
L 288.187772 247.16509 
L 289.807683 244.842427 
L 291.427594 242.26516 
L 293.047505 239.439795 
L 296.287326 233.073912 
L 299.527148 225.809025 
L 302.76697 217.718452 
L 306.006791 208.883846 
L 309.246613 199.394367 
L 312.486435 189.345787 
L 317.346167 173.447733 
L 323.82581 151.275751 
L 333.545275 117.751323 
L 338.405008 101.693192 
L 341.64483 91.499187 
L 344.884651 81.834986 
L 348.124473 72.798123 
L 351.364295 64.479799 
L 354.604116 56.963965 
L 357.843938 50.326474 
L 359.463849 47.358405 
L 361.08376 44.634312 
L 362.703671 42.16107 
L 364.323581 39.944926 
L 365.943492 37.991472 
L 367.563403 36.305642 
L 369.183314 34.891692 
L 370.803225 33.75319 
L 372.423136 32.893012 
L 374.043046 32.313329 
L 375.662957 32.015605 
L 377.282868 32.000591 
L 378.902779 32.268325 
L 380.52269 32.818132 
L 382.142601 33.648622 
L 383.762511 34.7577 
L 385.382422 36.142566 
L 387.002333 37.799722 
L 388.622244 39.724986 
L 390.242155 41.913497 
L 391.862066 44.359729 
L 393.481976 47.057507 
L 395.101887 50.000019 
L 395.101887 50.000019 
" style="fill:none;stroke:#ff7f0e;stroke-linecap:square;stroke-width:1.5;"/>
   </g>
   <g id="patch_3">
    <path d="M 56.621518 267.22 
L 56.621518 20.78 
" style="fill:none;stroke:#000000;stroke-linecap:square;stroke-linejoin:miter;stroke-width:0.8;"/>
   </g>
   <g id="patch_4">
    <path d="M 411.22 267.22 
L 411.22 20.78 
" style="fill:none;stroke:#000000;stroke-linecap:square;stroke-linejoin:miter;stroke-width:0.8;"/>
   </g>
   <g id="patch_5">
    <path d="M 56.621518 267.22 
L 411.22 267.22 
" style="fill:none;stroke:#000000;stroke-linecap:square;stroke-linejoin:miter;stroke-width:0.8;"/>
   </g>
   <g id="patch_6">
    <path d="M 56.621518 20.78 
L 411.22 20.78 
" style="fill:none;stroke:#000000;stroke-linecap:square;stroke-linejoin:miter;stroke-width:0.8;"/>
   </g>
   <g id="text_6">
    <!-- $\Delta T$ -->
    <defs>
     <path d="M 40.59375 68.796875 
C 39.796875 70.5 39.40625 70.5 38.59375 70.5 
C 37.40625 70.5 37.296875 70.296875 36.59375 68.890625 
L 4.203125 1.703125 
C 4.09375 1.5 3.703125 0.59375 3.703125 0.5 
C 3.703125 0.09375 3.796875 0 5.59375 0 
L 71.5 0 
C 73.296875 0 73.40625 0.09375 73.40625 0.5 
C 73.40625 0.59375 73 1.5 72.90625 1.703125 
z
M 36.09375 63.09375 
L 63.796875 5.59375 
L 8.296875 5.59375 
z
" id="CMR17-1"/>
     <path d="M 41.703125 61.09375 
C 42.296875 63.5 42.5 64.390625 44 64.796875 
C 44.796875 65 48.09375 65 50.203125 65 
C 60.203125 65 64.90625 64.59375 64.90625 56.78125 
C 64.90625 55.265625 64.5 51.484375 63.90625 47.765625 
L 63.796875 46.5625 
C 63.796875 46.15625 64.203125 45.5625 64.796875 45.5625 
C 65.796875 45.5625 65.796875 46.0625 66.09375 47.65625 
L 69 65.375 
C 69.203125 66.296875 69.203125 66.5 69.203125 66.796875 
C 69.203125 67.890625 68.59375 67.890625 66.59375 67.890625 
L 11.90625 67.890625 
C 9.59375 67.890625 9.5 67.796875 8.90625 66 
L 2.796875 47.96875 
C 2.703125 47.75 2.40625 46.65625 2.40625 46.5625 
C 2.40625 46.0625 2.796875 45.5625 3.40625 45.5625 
C 4.203125 45.5625 4.40625 45.953125 4.796875 47.25 
C 9 59.390625 11.09375 65 24.40625 65 
L 31.09375 65 
C 33.5 65 34.5 65 34.5 63.890625 
C 34.5 63.578125 34.5 63.390625 34 61.578125 
L 20.59375 7.796875 
C 19.59375 3.890625 19.40625 2.890625 8.796875 2.890625 
C 6.296875 2.890625 5.59375 2.890625 5.59375 1 
C 5.59375 0 6.703125 0 7.203125 0 
C 9.703125 0 12.296875 0 14.796875 0 
L 30.40625 0 
C 32.90625 0 35.59375 0 38.09375 0 
C 39.203125 0 40.203125 0 40.203125 1.890625 
C 40.203125 2.890625 39.5 2.890625 36.90625 2.890625 
C 27.90625 2.890625 27.90625 3.796875 27.90625 5.296875 
C 27.90625 5.40625 27.90625 6.109375 28.296875 7.71875 
z
" id="CMMI12-84"/>
    </defs>
    <g transform="translate(184.14003 132.79297)scale(0.16 -0.16)">
     <use transform="scale(0.996264)" xlink:href="#CMR17-1"/>
     <use transform="translate(76.91959 0)scale(0.996264)" xlink:href="#CMMI12-84"/>
    </g>
   </g>
  </g>
 </g>
 <defs>
  <clipPath id="p57469d1916">
   <rect height="246.44" width="354.598482" x="56.621518" y="20.78"/>
  </clipPath>
 </defs>
</svg>
