<?xml version="1.0" encoding="utf-8" standalone="no"?>
<!DOCTYPE svg PUBLIC "-//W3C//DTD SVG 1.1//EN"
  "http://www.w3.org/Graphics/SVG/1.1/DTD/svg11.dtd">
<!-- Created with matplotlib (http://matplotlib.org/) -->
<svg height="288pt" version="1.1" viewBox="0 0 432 288" width="432pt" xmlns="http://www.w3.org/2000/svg" xmlns:xlink="http://www.w3.org/1999/xlink">
 <defs>
  <style type="text/css">
*{stroke-linecap:butt;stroke-linejoin:round;}
  </style>
 </defs>
 <g id="figure_1">
  <g id="patch_1">
   <path d="M 0 288 
L 432 288 
L 432 0 
L 0 0 
z
" style="fill:#ffffff;"/>
  </g>
  <g id="axes_1">
   <g id="patch_2">
    <path d="M 64.422207 120.139888 
L 411.22 120.139888 
L 411.22 20.78 
L 64.422207 20.78 
z
" style="fill:#ffffff;"/>
   </g>
   <g id="matplotlib.axis_1">
    <g id="xtick_1">
     <g id="line2d_1">
      <path clip-path="url(#p945f4b363a)" d="M 79.817366 120.139888 
L 79.817366 20.78 
" style="fill:none;stroke:#b0b0b0;stroke-linecap:square;stroke-width:0.8;"/>
     </g>
     <g id="line2d_2">
      <defs>
       <path d="M 0 0 
L 0 3.5 
" id="m5392ca31be" style="stroke:#000000;stroke-width:0.8;"/>
      </defs>
      <g>
       <use style="stroke:#000000;stroke-width:0.8;" x="79.817366" xlink:href="#m5392ca31be" y="120.139888"/>
      </g>
     </g>
    </g>
    <g id="xtick_2">
     <g id="line2d_3">
      <path clip-path="url(#p945f4b363a)" d="M 109.944878 120.139888 
L 109.944878 20.78 
" style="fill:none;stroke:#b0b0b0;stroke-linecap:square;stroke-width:0.8;"/>
     </g>
     <g id="line2d_4">
      <g>
       <use style="stroke:#000000;stroke-width:0.8;" x="109.944878" xlink:href="#m5392ca31be" y="120.139888"/>
      </g>
     </g>
    </g>
    <g id="xtick_3">
     <g id="line2d_5">
      <path clip-path="url(#p945f4b363a)" d="M 140.07239 120.139888 
L 140.07239 20.78 
" style="fill:none;stroke:#b0b0b0;stroke-linecap:square;stroke-width:0.8;"/>
     </g>
     <g id="line2d_6">
      <g>
       <use style="stroke:#000000;stroke-width:0.8;" x="140.07239" xlink:href="#m5392ca31be" y="120.139888"/>
      </g>
     </g>
    </g>
    <g id="xtick_4">
     <g id="line2d_7">
      <path clip-path="url(#p945f4b363a)" d="M 170.199902 120.139888 
L 170.199902 20.78 
" style="fill:none;stroke:#b0b0b0;stroke-linecap:square;stroke-width:0.8;"/>
     </g>
     <g id="line2d_8">
      <g>
       <use style="stroke:#000000;stroke-width:0.8;" x="170.199902" xlink:href="#m5392ca31be" y="120.139888"/>
      </g>
     </g>
    </g>
    <g id="xtick_5">
     <g id="line2d_9">
      <path clip-path="url(#p945f4b363a)" d="M 200.327415 120.139888 
L 200.327415 20.78 
" style="fill:none;stroke:#b0b0b0;stroke-linecap:square;stroke-width:0.8;"/>
     </g>
     <g id="line2d_10">
      <g>
       <use style="stroke:#000000;stroke-width:0.8;" x="200.327415" xlink:href="#m5392ca31be" y="120.139888"/>
      </g>
     </g>
    </g>
    <g id="xtick_6">
     <g id="line2d_11">
      <path clip-path="url(#p945f4b363a)" d="M 230.454927 120.139888 
L 230.454927 20.78 
" style="fill:none;stroke:#b0b0b0;stroke-linecap:square;stroke-width:0.8;"/>
     </g>
     <g id="line2d_12">
      <g>
       <use style="stroke:#000000;stroke-width:0.8;" x="230.454927" xlink:href="#m5392ca31be" y="120.139888"/>
      </g>
     </g>
    </g>
    <g id="xtick_7">
     <g id="line2d_13">
      <path clip-path="url(#p945f4b363a)" d="M 260.582439 120.139888 
L 260.582439 20.78 
" style="fill:none;stroke:#b0b0b0;stroke-linecap:square;stroke-width:0.8;"/>
     </g>
     <g id="line2d_14">
      <g>
       <use style="stroke:#000000;stroke-width:0.8;" x="260.582439" xlink:href="#m5392ca31be" y="120.139888"/>
      </g>
     </g>
    </g>
    <g id="xtick_8">
     <g id="line2d_15">
      <path clip-path="url(#p945f4b363a)" d="M 290.709951 120.139888 
L 290.709951 20.78 
" style="fill:none;stroke:#b0b0b0;stroke-linecap:square;stroke-width:0.8;"/>
     </g>
     <g id="line2d_16">
      <g>
       <use style="stroke:#000000;stroke-width:0.8;" x="290.709951" xlink:href="#m5392ca31be" y="120.139888"/>
      </g>
     </g>
    </g>
    <g id="xtick_9">
     <g id="line2d_17">
      <path clip-path="url(#p945f4b363a)" d="M 320.837463 120.139888 
L 320.837463 20.78 
" style="fill:none;stroke:#b0b0b0;stroke-linecap:square;stroke-width:0.8;"/>
     </g>
     <g id="line2d_18">
      <g>
       <use style="stroke:#000000;stroke-width:0.8;" x="320.837463" xlink:href="#m5392ca31be" y="120.139888"/>
      </g>
     </g>
    </g>
    <g id="xtick_10">
     <g id="line2d_19">
      <path clip-path="url(#p945f4b363a)" d="M 350.964976 120.139888 
L 350.964976 20.78 
" style="fill:none;stroke:#b0b0b0;stroke-linecap:square;stroke-width:0.8;"/>
     </g>
     <g id="line2d_20">
      <g>
       <use style="stroke:#000000;stroke-width:0.8;" x="350.964976" xlink:href="#m5392ca31be" y="120.139888"/>
      </g>
     </g>
    </g>
    <g id="xtick_11">
     <g id="line2d_21">
      <path clip-path="url(#p945f4b363a)" d="M 381.092488 120.139888 
L 381.092488 20.78 
" style="fill:none;stroke:#b0b0b0;stroke-linecap:square;stroke-width:0.8;"/>
     </g>
     <g id="line2d_22">
      <g>
       <use style="stroke:#000000;stroke-width:0.8;" x="381.092488" xlink:href="#m5392ca31be" y="120.139888"/>
      </g>
     </g>
    </g>
    <g id="xtick_12">
     <g id="line2d_23">
      <path clip-path="url(#p945f4b363a)" d="M 411.22 120.139888 
L 411.22 20.78 
" style="fill:none;stroke:#b0b0b0;stroke-linecap:square;stroke-width:0.8;"/>
     </g>
     <g id="line2d_24">
      <g>
       <use style="stroke:#000000;stroke-width:0.8;" x="411.22" xlink:href="#m5392ca31be" y="120.139888"/>
      </g>
     </g>
    </g>
   </g>
   <g id="matplotlib.axis_2">
    <g id="ytick_1">
     <g id="line2d_25">
      <path clip-path="url(#p945f4b363a)" d="M 64.422207 105.931384 
L 411.22 105.931384 
" style="fill:none;stroke:#b0b0b0;stroke-linecap:square;stroke-width:0.8;"/>
     </g>
     <g id="line2d_26">
      <defs>
       <path d="M 0 0 
L -3.5 0 
" id="m0c9451d50e" style="stroke:#000000;stroke-width:0.8;"/>
      </defs>
      <g>
       <use style="stroke:#000000;stroke-width:0.8;" x="64.422207" xlink:href="#m0c9451d50e" y="105.931384"/>
      </g>
     </g>
     <g id="text_1">
      <!-- $-1$ -->
      <defs>
       <path d="M 65.90625 23 
C 67.59375 23 69.40625 23 69.40625 25 
C 69.40625 27 67.59375 27 65.90625 27 
L 11.796875 27 
C 10.09375 27 8.296875 27 8.296875 25 
C 8.296875 23 10.09375 23 11.796875 23 
z
" id="CMSY10-0"/>
       <path d="M 26.59375 63.40625 
C 26.59375 65.5 26.5 65.5 25.09375 65.5 
C 21.203125 61.1875 15.296875 59.796875 9.703125 59.796875 
C 9.40625 59.796875 8.90625 59.796875 8.796875 59.5 
C 8.703125 59.296875 8.703125 59.09375 8.703125 57 
C 11.796875 57 17 57.59375 21 59.984375 
L 21 7.203125 
C 21 3.6875 20.796875 2.5 12.203125 2.5 
L 9.203125 2.5 
L 9.203125 0 
C 14 0 19 0 23.796875 0 
C 28.59375 0 33.59375 0 38.40625 0 
L 38.40625 2.5 
L 35.40625 2.5 
C 26.796875 2.5 26.59375 3.59375 26.59375 7.15625 
z
" id="CMR17-49"/>
      </defs>
      <g transform="translate(37.220224 111.466179)scale(0.16 -0.16)">
       <use transform="scale(0.996264)" xlink:href="#CMSY10-0"/>
       <use transform="translate(77.487468 0)scale(0.996264)" xlink:href="#CMR17-49"/>
      </g>
     </g>
    </g>
    <g id="ytick_2">
     <g id="line2d_27">
      <path clip-path="url(#p945f4b363a)" d="M 64.422207 70.459944 
L 411.22 70.459944 
" style="fill:none;stroke:#b0b0b0;stroke-linecap:square;stroke-width:0.8;"/>
     </g>
     <g id="line2d_28">
      <g>
       <use style="stroke:#000000;stroke-width:0.8;" x="64.422207" xlink:href="#m0c9451d50e" y="70.459944"/>
      </g>
     </g>
     <g id="text_2">
      <!-- $0$ -->
      <defs>
       <path d="M 42 31.640625 
C 42 37.75 41.90625 48.125 37.703125 56.109375 
C 34 63.109375 28.09375 65.59375 22.90625 65.59375 
C 18.09375 65.59375 12 63.40625 8.203125 56.203125 
C 4.203125 48.71875 3.796875 39.4375 3.796875 31.640625 
C 3.796875 25.953125 3.90625 17.28125 7 9.671875 
C 11.296875 -0.609375 19 -2 22.90625 -2 
C 27.5 -2 34.5 -0.109375 38.59375 9.375 
C 41.59375 16.28125 42 24.359375 42 31.640625 
M 22.90625 -0.40625 
C 16.5 -0.40625 12.703125 5.078125 11.296875 12.6875 
C 10.203125 18.5625 10.203125 27.15625 10.203125 32.75 
C 10.203125 40.4375 10.203125 46.828125 11.5 52.921875 
C 13.40625 61.390625 19 64 22.90625 64 
C 27 64 32.296875 61.296875 34.203125 53.125 
C 35.5 47.4375 35.59375 40.734375 35.59375 32.75 
C 35.59375 26.25 35.59375 18.265625 34.40625 12.375 
C 32.296875 1.484375 26.40625 -0.40625 22.90625 -0.40625 
" id="CMR17-48"/>
      </defs>
      <g transform="translate(49.61822 75.994738)scale(0.16 -0.16)">
       <use transform="scale(0.996264)" xlink:href="#CMR17-48"/>
      </g>
     </g>
    </g>
    <g id="ytick_3">
     <g id="line2d_29">
      <path clip-path="url(#p945f4b363a)" d="M 64.422207 34.988503 
L 411.22 34.988503 
" style="fill:none;stroke:#b0b0b0;stroke-linecap:square;stroke-width:0.8;"/>
     </g>
     <g id="line2d_30">
      <g>
       <use style="stroke:#000000;stroke-width:0.8;" x="64.422207" xlink:href="#m0c9451d50e" y="34.988503"/>
      </g>
     </g>
     <g id="text_3">
      <!-- $1$ -->
      <g transform="translate(49.61822 40.523298)scale(0.16 -0.16)">
       <use transform="scale(0.996264)" xlink:href="#CMR17-49"/>
      </g>
     </g>
    </g>
    <g id="text_4">
     <!-- v (V) -->
     <defs>
      <path d="M 41.796875 43 
L 34 43 
L 27.296875 24.3125 
C 25.203125 18.203125 22.203125 9.796875 21.703125 5.5 
L 21.59375 5.5 
C 21.40625 7.3125 20.59375 9.90625 20.09375 11.703125 
C 19.5 13.90625 18.703125 16.5 18.09375 18.3125 
L 9.296875 43 
L 1.296875 43 
L 17.09375 0 
L 26 0 
z
" id="CMSS17-118"/>
      <path d="M 25.203125 74.5 
C 19.796875 69.015625 7.40625 56.265625 7.40625 24.8125 
C 7.40625 -6.765625 19.796875 -19.421875 25.203125 -25 
L 31.296875 -25 
C 19 -12.25 15 5.578125 15 24.703125 
C 15 43.71875 18.796875 61.65625 31.296875 74.5 
z
" id="CMSS17-40"/>
      <path d="M 61.09375 69 
L 53.296875 69 
L 36 21.28125 
C 35.5 19.890625 32.40625 10.75 31.796875 7.5625 
L 31.703125 7.5625 
C 30.90625 11.34375 27.703125 20.1875 26 25.0625 
L 14.40625 57.375 
L 10.09375 69 
L 1.296875 69 
L 26.796875 0 
L 35.59375 0 
z
" id="CMSS17-86"/>
      <path d="M 11.296875 -25 
C 16.703125 -19.515625 29.09375 -6.765625 29.09375 24.703125 
C 29.09375 56.265625 16.703125 68.921875 11.296875 74.5 
L 5.203125 74.5 
C 17.5 61.75 21.5 43.921875 21.5 24.8125 
C 21.5 5.78125 17.703125 -12.15625 5.203125 -25 
z
" id="CMSS17-41"/>
     </defs>
     <g transform="translate(29.235168 87.857472)rotate(-90)scale(0.16 -0.16)">
      <use transform="scale(0.996264)" xlink:href="#CMSS17-118"/>
      <use transform="translate(74.229254 0)scale(0.996264)" xlink:href="#CMSS17-40"/>
      <use transform="translate(110.663169 0)scale(0.996264)" xlink:href="#CMSS17-86"/>
      <use transform="translate(172.881024 0)scale(0.996264)" xlink:href="#CMSS17-41"/>
     </g>
    </g>
   </g>
   <g id="line2d_31">
    <path clip-path="url(#p945f4b363a)" d="M 79.516091 70.743714 
L 92.812004 58.369547 
L 99.762141 52.210981 
L 105.503558 47.40673 
L 110.640616 43.386073 
L 115.475493 39.884743 
L 120.008191 36.883706 
L 124.238709 34.352741 
L 128.167047 32.253682 
L 132.095385 30.410919 
L 135.721543 28.94811 
L 139.347701 27.722597 
L 142.97386 26.741387 
L 146.297838 26.061372 
L 149.621816 25.594635 
L 152.945795 25.343417 
L 156.269773 25.308925 
L 159.593752 25.491325 
L 162.91773 25.88974 
L 166.241708 26.502258 
L 169.565687 27.325935 
L 173.191845 28.460641 
L 176.818003 29.835432 
L 180.444161 31.442446 
L 184.372499 33.434752 
L 188.300838 35.675431 
L 192.531355 38.348962 
L 197.064053 41.49007 
L 201.898931 45.124982 
L 207.035988 49.268186 
L 212.777406 54.184086 
L 219.727542 60.439881 
L 230.001657 70.033015 
L 243.297571 82.412341 
L 250.247707 88.577859 
L 255.989124 93.389933 
L 261.126182 97.41909 
L 265.961059 100.929624 
L 270.493757 103.940264 
L 274.724275 106.480967 
L 278.652613 108.58967 
L 282.580951 110.442591 
L 286.20711 111.915174 
L 289.833268 113.150783 
L 293.459426 114.142357 
L 296.783404 114.832053 
L 300.107383 115.3086 
L 303.431361 115.569707 
L 306.755339 115.614121 
L 310.079318 115.441627 
L 313.403296 115.053056 
L 316.727275 114.450272 
L 320.051253 113.636172 
L 323.677411 112.51168 
L 327.303569 111.146805 
L 330.929728 109.549349 
L 334.858066 107.566932 
L 338.786404 105.335594 
L 343.016922 102.671438 
L 347.54962 99.539503 
L 352.384497 95.913296 
L 357.521555 91.778021 
L 363.262972 86.869265 
L 370.213108 80.619553 
L 380.185044 71.314616 
L 381.393763 70.176174 
L 381.393763 70.176174 
" style="fill:none;stroke:#1f77b4;stroke-linecap:square;stroke-width:1.5;"/>
   </g>
   <g id="line2d_32">
    <path clip-path="url(#p945f4b363a)" d="M 79.516091 70.743699 
L 85.861868 64.901361 
L 89.185846 62.132434 
L 91.905465 60.128956 
L 94.322904 58.596974 
L 96.740342 57.335857 
L 98.855601 56.477374 
L 100.97086 55.863434 
L 103.086119 55.504776 
L 104.899198 55.405415 
L 106.712277 55.499567 
L 108.827536 55.852238 
L 110.942795 56.460385 
L 113.058054 57.313373 
L 115.173313 58.396284 
L 117.590752 59.890966 
L 120.310371 61.859015 
L 123.332169 64.334373 
L 127.260507 67.864494 
L 137.534622 77.271777 
L 140.556421 79.673509 
L 143.27604 81.556537 
L 145.693478 82.962765 
L 147.808737 83.959977 
L 149.923996 84.721086 
L 152.039255 85.232778 
L 154.154514 85.486107 
L 155.967593 85.494126 
L 157.780672 85.308893 
L 159.895931 84.851853 
L 162.01119 84.143111 
L 164.126449 83.195062 
L 166.543888 81.839998 
L 168.961327 80.225097 
L 171.680946 78.14386 
L 175.004924 75.305323 
L 179.839802 70.839118 
L 186.487758 64.725991 
L 189.811737 61.975493 
L 192.531355 59.992169 
L 194.948794 58.481439 
L 197.366233 57.244212 
L 199.481492 56.40837 
L 201.596751 55.818278 
L 203.71201 55.484256 
L 205.525089 55.406314 
L 207.338168 55.521874 
L 209.453427 55.89914 
L 211.568686 56.531061 
L 213.683945 57.406587 
L 215.799204 58.510406 
L 218.216643 60.026519 
L 220.936262 62.014957 
L 223.95806 64.507664 
L 227.886398 68.051042 
L 237.858333 77.186527 
L 240.880132 79.597844 
L 243.59975 81.491815 
L 246.017189 82.909351 
L 248.132448 83.917468 
L 250.247707 84.690224 
L 252.362966 85.214104 
L 254.478225 85.479947 
L 256.291304 85.498786 
L 258.104383 85.324314 
L 260.219642 84.879568 
L 262.334901 84.182635 
L 264.45016 83.245704 
L 266.867599 81.902252 
L 269.285038 80.29754 
L 272.004657 78.22578 
L 275.328635 75.395589 
L 280.163513 70.934522 
L 286.811469 64.814354 
L 290.135448 62.054505 
L 292.855066 60.060973 
L 295.272505 58.539492 
L 297.689944 57.290187 
L 299.805203 56.442906 
L 301.920462 55.840771 
L 304.035721 55.494313 
L 305.8488 55.405563 
L 307.661879 55.510325 
L 309.777138 55.87519 
L 311.892397 56.495129 
L 314.007656 57.359302 
L 316.122915 58.452594 
L 318.540354 59.957925 
L 321.259972 61.936115 
L 324.281771 64.420119 
L 328.210109 67.956878 
L 338.182044 77.101007 
L 341.203843 79.521811 
L 343.923461 81.42665 
L 346.3409 82.855437 
L 348.456159 83.874417 
L 350.571418 84.65879 
L 352.686677 85.194837 
L 354.801936 85.473183 
L 356.615015 85.502843 
L 358.428094 85.339138 
L 360.543353 84.906704 
L 362.658612 84.221608 
L 364.773871 83.295833 
L 367.19131 81.964046 
L 369.608749 80.369588 
L 372.328367 78.307387 
L 375.652346 75.485657 
L 380.185044 71.314208 
L 381.393763 70.176189 
L 381.393763 70.176189 
" style="fill:none;stroke:#ff7f0e;stroke-linecap:square;stroke-width:1.5;"/>
   </g>
   <g id="line2d_33">
    <path clip-path="url(#p945f4b363a)" d="M 79.516091 70.743669 
L 84.048789 66.602433 
L 86.466227 64.687178 
L 88.581486 63.307048 
L 90.394565 62.397843 
L 91.905465 61.858577 
L 93.416364 61.532376 
L 94.927263 61.42732 
L 96.438163 61.546013 
L 97.949062 61.885515 
L 99.459961 62.437414 
L 101.27304 63.360458 
L 103.086119 64.536514 
L 105.201378 66.172008 
L 107.920997 68.567766 
L 115.173313 75.144242 
L 117.288572 76.72049 
L 119.101651 77.832632 
L 120.914731 78.682025 
L 122.42563 79.166996 
L 123.936529 79.436284 
L 125.447428 79.483218 
L 126.958328 79.306636 
L 128.469227 78.91091 
L 129.980126 78.305845 
L 131.793205 77.324886 
L 133.606284 76.099274 
L 136.023723 74.161113 
L 139.347701 71.14188 
L 144.484759 66.449019 
L 146.902198 64.557128 
L 149.017457 63.204249 
L 150.830536 62.322424 
L 152.341435 61.808071 
L 153.852334 61.508035 
L 155.363234 61.429748 
L 156.874133 61.575149 
L 158.385032 61.940636 
L 159.895931 62.517156 
L 161.709011 63.467088 
L 163.52209 64.666231 
L 165.637349 66.322768 
L 168.659147 69.014939 
L 175.004924 74.798793 
L 177.422363 76.637679 
L 179.235442 77.766072 
L 181.048521 78.634089 
L 182.55942 79.135915 
L 184.07032 79.422828 
L 185.581219 79.48772 
L 187.092118 79.328984 
L 188.603017 78.950552 
L 190.113917 78.361798 
L 191.926996 77.398549 
L 193.740075 76.188023 
L 195.855334 74.521185 
L 198.877132 71.820766 
L 205.222909 66.046547 
L 207.640348 64.220315 
L 209.453427 63.104034 
L 211.266506 62.249902 
L 212.777406 61.760646 
L 214.288305 61.486882 
L 215.799204 61.435391 
L 217.310103 61.607448 
L 218.821003 61.998791 
L 220.331902 62.599727 
L 222.144981 63.576207 
L 223.95806 64.79801 
L 226.375499 66.732365 
L 229.699477 69.74912 
L 234.836535 74.444888 
L 237.253974 76.340798 
L 239.369233 77.698344 
L 241.182312 78.584846 
L 242.693211 79.103448 
L 244.20411 79.407939 
L 245.715009 79.490779 
L 247.225909 79.349915 
L 248.736808 78.988837 
L 250.247707 78.416488 
L 252.060786 77.471104 
L 253.873865 76.275856 
L 255.989124 74.622855 
L 259.010923 71.933542 
L 265.3567 66.146529 
L 267.774139 64.303379 
L 269.587218 63.170891 
L 271.400297 62.29817 
L 272.911196 61.79208 
L 274.422095 61.500702 
L 275.932995 61.431255 
L 277.443894 61.585459 
L 278.954793 61.959493 
L 280.465692 62.544093 
L 282.278771 63.502824 
L 284.091851 64.709492 
L 286.20711 66.372844 
L 289.228908 69.070486 
L 295.574685 74.848039 
L 297.992124 76.678591 
L 299.805203 77.799001 
L 301.618282 78.657863 
L 303.129181 79.151398 
L 304.640081 79.429635 
L 306.15098 79.485683 
L 307.661879 79.318154 
L 309.172778 78.931196 
L 310.683678 78.334396 
L 312.496757 77.362405 
L 314.309836 76.144424 
L 316.425095 74.470869 
L 319.446893 71.765139 
L 325.49049 66.2472 
L 327.907929 64.387426 
L 329.721008 63.238913 
L 331.534087 62.347743 
L 333.044987 61.824898 
L 334.555886 61.515954 
L 336.066785 61.428562 
L 337.577684 61.564888 
L 339.088584 61.921554 
L 340.599483 62.489725 
L 342.412562 63.430553 
L 344.225641 64.621893 
L 346.3409 66.271341 
L 349.362699 68.957769 
L 356.010655 74.996219 
L 358.125914 76.595277 
L 359.938993 77.731848 
L 361.752073 78.609263 
L 363.262972 79.119612 
L 364.773871 79.415451 
L 366.28477 79.489453 
L 367.79567 79.339783 
L 369.306569 78.97015 
L 370.817468 78.38971 
L 372.630547 77.435507 
L 374.443626 76.23271 
L 376.558885 74.572861 
L 379.580684 71.878024 
L 381.393763 70.176219 
L 381.393763 70.176219 
" style="fill:none;stroke:#2ca02c;stroke-linecap:square;stroke-width:1.5;"/>
   </g>
   <g id="patch_3">
    <path d="M 64.422207 120.139888 
L 64.422207 20.78 
" style="fill:none;stroke:#000000;stroke-linecap:square;stroke-linejoin:miter;stroke-width:0.8;"/>
   </g>
   <g id="patch_4">
    <path d="M 411.22 120.139888 
L 411.22 20.78 
" style="fill:none;stroke:#000000;stroke-linecap:square;stroke-linejoin:miter;stroke-width:0.8;"/>
   </g>
   <g id="patch_5">
    <path d="M 64.422207 120.139888 
L 411.22 120.139888 
" style="fill:none;stroke:#000000;stroke-linecap:square;stroke-linejoin:miter;stroke-width:0.8;"/>
   </g>
   <g id="patch_6">
    <path d="M 64.422207 20.78 
L 411.22 20.78 
" style="fill:none;stroke:#000000;stroke-linecap:square;stroke-linejoin:miter;stroke-width:0.8;"/>
   </g>
   <g id="legend_1">
    <g id="patch_7">
     <path d="M 250.008111 105.400672 
L 400.02 105.400672 
Q 403.22 105.400672 403.22 102.200672 
L 403.22 31.98 
Q 403.22 28.78 400.02 28.78 
L 250.008111 28.78 
Q 246.808111 28.78 246.808111 31.98 
L 246.808111 102.200672 
Q 246.808111 105.400672 250.008111 105.400672 
z
" style="fill:#ffffff;opacity:0.8;stroke:#cccccc;stroke-linejoin:miter;"/>
    </g>
    <g id="line2d_34">
     <path d="M 253.208111 41.535168 
L 285.208111 41.535168 
" style="fill:none;stroke:#1f77b4;stroke-linecap:square;stroke-width:1.5;"/>
    </g>
    <g id="line2d_35"/>
    <g id="text_5">
     <!-- $\sin(1\omega t)\cdot 4/1\pi$ -->
     <defs>
      <path d="M 30.90625 42.140625 
C 30.90625 43.953125 30.796875 44.046875 30.203125 44.046875 
C 29.796875 44.046875 29.703125 43.953125 28.5 42.453125 
C 28.203125 42.046875 27.296875 41.03125 27 40.640625 
C 23.796875 44.046875 19.296875 44.046875 17.59375 44.046875 
C 6.5 44.046875 2.5 38.234375 2.5 32.4375 
C 2.5 23.40625 12.703125 21.328125 15.59375 20.703125 
C 21.90625 19.421875 24.09375 19.015625 26.203125 17.203125 
C 27.5 16.015625 29.703125 13.8125 29.703125 10.21875 
C 29.703125 6 27.296875 0.59375 18.09375 0.59375 
C 9.40625 0.59375 6.296875 7.1875 4.5 15.953125 
C 4.203125 17.34375 4.203125 17.453125 3.40625 17.453125 
C 2.59375 17.453125 2.5 17.34375 2.5 15.359375 
L 2.5 0.984375 
C 2.5 -0.796875 2.59375 -0.90625 3.203125 -0.90625 
C 3.703125 -0.90625 3.796875 -0.796875 4.296875 0 
C 4.90625 0.890625 6.40625 3.296875 7 4.3125 
C 9 1.609375 12.5 -1 18.09375 -1 
C 28 -1 33.296875 4.421875 33.296875 12.25 
C 33.296875 17.375 30.59375 20.078125 29.296875 21.28125 
C 26.296875 24.390625 22.796875 25.09375 18.59375 25.890625 
C 13.09375 27.109375 6.09375 28.515625 6.09375 34.640625 
C 6.09375 37.234375 7.5 42.765625 17.59375 42.765625 
C 28.296875 42.765625 28.90625 32.71875 29.09375 29.5 
C 29.203125 29 29.703125 28.890625 30 28.890625 
C 30.90625 28.890625 30.90625 29.203125 30.90625 30.90625 
z
" id="CMR17-115"/>
      <path d="M 15.5 61.078125 
C 15.5 63.265625 13.703125 65.15625 11.40625 65.15625 
C 9.203125 65.15625 7.296875 63.375 7.296875 61.078125 
C 7.296875 58.890625 9.09375 57 11.40625 57 
C 13.59375 57 15.5 58.796875 15.5 61.078125 
M 3.796875 42.28125 
L 3.796875 39.703125 
C 9.40625 39.703125 10.203125 39.09375 10.203125 34.328125 
L 10.203125 6.671875 
C 10.203125 2.875 9.796875 2.390625 3.40625 2.390625 
L 3.40625 -0.203125 
C 5.796875 0 10.09375 0 12.59375 0 
C 15 0 19.09375 0 21.40625 -0.203125 
L 21.40625 2.390625 
C 15.5 2.390625 15.296875 2.984375 15.296875 6.5625 
L 15.296875 43.375 
z
" id="CMR17-105"/>
      <path d="M 41.5 30.203125 
C 41.5 35.296875 40.5 43.59375 28.703125 43.59375 
C 20.796875 43.59375 16.703125 37.5 15.203125 33.5 
L 15.09375 33.5 
L 15.09375 43.59375 
L 3.296875 42.5 
L 3.296875 39.90625 
C 9.203125 39.90625 10.09375 39.296875 10.09375 34.5 
L 10.09375 6.6875 
C 10.09375 2.875 9.703125 2.390625 3.296875 2.390625 
L 3.296875 -0.203125 
C 5.703125 0 10.09375 0 12.703125 0 
C 15.296875 0 19.796875 0 22.203125 -0.203125 
L 22.203125 2.390625 
C 15.796875 2.390625 15.40625 2.78125 15.40625 6.6875 
L 15.40625 25.90625 
C 15.40625 35.109375 21 42 28 42 
C 35.40625 42 36.203125 35.40625 36.203125 30.59375 
L 36.203125 6.6875 
C 36.203125 2.875 35.796875 2.390625 29.40625 2.390625 
L 29.40625 -0.203125 
C 31.796875 0 36.203125 0 38.796875 0 
C 41.40625 0 45.90625 0 48.296875 -0.203125 
L 48.296875 2.390625 
C 41.90625 2.390625 41.5 2.78125 41.5 6.6875 
z
" id="CMR17-110"/>
      <path d="M 30.59375 -24.390625 
C 30.59375 -24.296875 30.59375 -24.09375 30.296875 -23.796875 
C 25.703125 -19.125 13.40625 -6.359375 13.40625 24.703125 
C 13.40625 55.765625 25.5 68.421875 30.40625 73.390625 
C 30.40625 73.5 30.59375 73.703125 30.59375 74 
C 30.59375 74.296875 30.296875 74.5 29.90625 74.5 
C 28.796875 74.5 20.296875 67.125 15.40625 56.15625 
C 10.40625 45.109375 9 34.359375 9 24.8125 
C 9 17.625 9.703125 5.484375 15.703125 -7.359375 
C 20.5 -17.734375 28.703125 -25 29.90625 -25 
C 30.40625 -25 30.59375 -24.796875 30.59375 -24.390625 
" id="CMR17-40"/>
      <path d="M 59.40625 37.421875 
C 59.40625 40.3125 58.59375 44 55.09375 44 
C 53.09375 44 50.796875 41.515625 50.796875 39.515625 
C 50.796875 38.625 51.203125 38.03125 52 37.125 
C 53.5 35.4375 55.40625 32.75 55.40625 28.078125 
C 55.40625 24.484375 53.203125 18.8125 51.59375 15.734375 
C 48.796875 10.25 44.203125 5.578125 39 5.578125 
C 32.703125 5.578125 30.296875 9.609375 29.203125 15.234375 
C 30.296875 17.859375 32.59375 24.375 32.59375 27 
C 32.59375 28.09375 32.203125 29 30.90625 29 
C 30.203125 29 29.40625 28.609375 28.90625 27.796875 
C 27.5 25.59375 26.203125 17.640625 26.296875 15.53125 
C 24.40625 11.8125 19 5.578125 12.59375 5.578125 
C 5.90625 5.578125 4.09375 11.453125 4.09375 17.125 
C 4.09375 27.46875 10.59375 36.53125 12.40625 39.015625 
C 13.40625 40.515625 14.09375 41.515625 14.09375 41.703125 
C 14.09375 42.40625 13.703125 43.5 12.796875 43.5 
C 11.203125 43.5 10.703125 42.203125 9.90625 41.015625 
C 4.796875 33.140625 1.203125 22.09375 1.203125 12.546875 
C 1.203125 6.375 3.5 -1 11 -1 
C 19.296875 -1 24.5 6.109375 26.59375 9.90625 
C 27.40625 4.296875 30.40625 -1 37.703125 -1 
C 45.296875 -1 50.09375 5.671875 53.703125 13.734375 
C 56.296875 19.515625 59.40625 31.953125 59.40625 37.421875 
" id="CMMI12-33"/>
      <path d="M 20.09375 40.09375 
L 29.296875 40.09375 
C 31.203125 40.09375 32.203125 40.09375 32.203125 41.890625 
C 32.203125 43 31.59375 43 29.59375 43 
L 20.796875 43 
L 24.5 57.6875 
C 24.90625 59.078125 24.90625 59.28125 24.90625 60 
C 24.90625 61.609375 23.59375 62.5 22.296875 62.5 
C 21.5 62.5 19.203125 62.203125 18.40625 58.984375 
L 14.5 43 
L 5.09375 43 
C 3.09375 43 2.203125 43 2.203125 41.09375 
C 2.203125 40.09375 2.90625 40.09375 4.796875 40.09375 
L 13.703125 40.09375 
L 7.09375 13.765625 
C 6.296875 10.28125 6 9.28125 6 7.984375 
C 6 3.296875 9.296875 -1 14.90625 -1 
C 25 -1 30.40625 13.5625 30.40625 14.25 
C 30.40625 14.859375 30 15.15625 29.40625 15.15625 
C 29.203125 15.15625 28.796875 15.15625 28.59375 14.75 
C 28.5 14.65625 28.40625 14.546875 27.703125 12.953125 
C 25.59375 7.984375 21 1 15.203125 1 
C 12.203125 1 12 3.5 12 5.6875 
C 12 5.78125 12 7.6875 12.296875 8.875 
z
" id="CMMI12-116"/>
      <path d="M 26.296875 24.703125 
C 26.296875 31.875 25.59375 44.015625 19.59375 56.859375 
C 14.796875 67.234375 6.59375 74.5 5.40625 74.5 
C 5.09375 74.5 4.703125 74.390625 4.703125 73.890625 
C 4.703125 73.703125 4.796875 73.59375 4.90625 73.390625 
C 9.703125 68.40625 21.90625 55.75 21.90625 24.75 
C 21.90625 -6.359375 9.796875 -19.015625 4.90625 -24.015625 
C 4.796875 -24.203125 4.703125 -24.3125 4.703125 -24.5 
C 4.703125 -25 5.09375 -25 5.40625 -25 
C 6.5 -25 15 -17.625 19.90625 -6.65625 
C 24.90625 4.390625 26.296875 15.140625 26.296875 24.703125 
" id="CMR17-41"/>
      <path d="M 19.203125 25.296875 
C 19.203125 28.203125 16.796875 30.59375 13.90625 30.59375 
C 11 30.59375 8.59375 28.203125 8.59375 25.296875 
C 8.59375 22.390625 11 20 13.90625 20 
C 16.796875 20 19.203125 22.390625 19.203125 25.296875 
" id="CMSY10-1"/>
      <path d="M 33.59375 64.40625 
C 33.59375 66.5 33.5 66.5 31.703125 66.5 
L 2 19.59375 
L 2 17 
L 27.796875 17 
L 27.796875 7.140625 
C 27.796875 3.5 27.59375 2.5 20.59375 2.5 
L 18.703125 2.5 
L 18.703125 0 
C 21.90625 0 27.296875 0 30.703125 0 
C 34.09375 0 39.5 0 42.703125 0 
L 42.703125 2.5 
L 40.796875 2.5 
C 33.796875 2.5 33.59375 3.5 33.59375 7.140625 
L 33.59375 17 
L 43.796875 17 
L 43.796875 19.59375 
L 33.59375 19.59375 
z
M 28.09375 57.859375 
L 28.09375 19.59375 
L 4 19.59375 
z
" id="CMR17-52"/>
      <path d="M 42.90625 71.28125 
C 42.90625 71.390625 43.5 72.90625 43.5 73.09375 
C 43.5 74.296875 42.5 75 41.703125 75 
C 41.203125 75 40.296875 75 39.5 72.796875 
L 6 -21.296875 
C 6 -21.40625 5.40625 -22.890625 5.40625 -23.09375 
C 5.40625 -24.296875 6.40625 -25 7.203125 -25 
C 7.796875 -25 8.703125 -24.890625 9.40625 -22.796875 
z
" id="CMMI12-61"/>
      <path d="M 25.90625 37.625 
L 37.203125 37.625 
C 34.5 26.4375 32.796875 19.15625 32.796875 11.1875 
C 32.796875 9.78125 32.796875 -1 36.90625 -1 
C 39 -1 40.796875 0.890625 40.796875 2.59375 
C 40.796875 3.078125 40.796875 3.28125 40.09375 4.78125 
C 37.40625 11.671875 37.40625 20.25 37.40625 20.953125 
C 37.40625 21.546875 37.40625 28.625 39.5 37.625 
L 50.703125 37.625 
C 52 37.625 55.296875 37.625 55.296875 40.8125 
C 55.296875 43 53.40625 43 51.59375 43 
L 18.703125 43 
C 16.40625 43 13 43 8.40625 38.125 
C 5.796875 35.21875 2.59375 29.9375 2.59375 29.34375 
C 2.59375 28.75 3.09375 28.546875 3.703125 28.546875 
C 4.40625 28.546875 4.5 28.84375 5 29.4375 
C 10.203125 37.625 15.40625 37.625 17.90625 37.625 
L 23.59375 37.625 
C 21.40625 30.140625 18.90625 21.453125 10.703125 4 
C 9.90625 2.40625 9.90625 2.1875 9.90625 1.59375 
C 9.90625 -0.5 11.703125 -1 12.59375 -1 
C 15.5 -1 16.296875 1.59375 17.5 5.78125 
C 19.09375 10.875 19.09375 11.078125 20.09375 15.0625 
z
" id="CMMI12-25"/>
     </defs>
     <g transform="translate(298.008111 47.135168)scale(0.16 -0.16)">
      <use transform="scale(0.996264)" xlink:href="#CMR17-115"/>
      <use transform="translate(35.801338 0)scale(0.996264)" xlink:href="#CMR17-105"/>
      <use transform="translate(60.672396 0)scale(0.996264)" xlink:href="#CMR17-110"/>
      <use transform="translate(111.567766 0)scale(0.996264)" xlink:href="#CMR17-40"/>
      <use transform="translate(146.848534 0)scale(0.996264)" xlink:href="#CMR17-49"/>
      <use transform="translate(192.539011 0)scale(0.996264)" xlink:href="#CMMI12-33"/>
      <use transform="translate(256.857357 0)scale(0.996264)" xlink:href="#CMMI12-116"/>
      <use transform="translate(292.083687 0)scale(0.996264)" xlink:href="#CMR17-41"/>
      <use transform="translate(349.503662 0)scale(0.996264)" xlink:href="#CMSY10-1"/>
      <use transform="translate(399.316954 0)scale(0.996264)" xlink:href="#CMR17-52"/>
      <use transform="translate(445.007431 0)scale(0.996264)" xlink:href="#CMMI12-61"/>
      <use transform="translate(493.782349 0)scale(0.996264)" xlink:href="#CMR17-49"/>
      <use transform="translate(539.472827 0)scale(0.996264)" xlink:href="#CMMI12-25"/>
     </g>
    </g>
    <g id="line2d_36">
     <path d="M 253.208111 65.475392 
L 285.208111 65.475392 
" style="fill:none;stroke:#ff7f0e;stroke-linecap:square;stroke-width:1.5;"/>
    </g>
    <g id="line2d_37"/>
    <g id="text_6">
     <!-- $\sin(3\omega t)\cdot 4/3\pi$ -->
     <defs>
      <path d="M 22.09375 33.703125 
C 31 33.703125 34.90625 25.96875 34.90625 17.03125 
C 34.90625 5 28.5 0.390625 22.703125 0.390625 
C 17.40625 0.390625 8.796875 3.03125 6.09375 10.828125 
C 6.59375 10.625 7.09375 10.625 7.59375 10.625 
C 10 10.625 11.796875 12.21875 11.796875 14.8125 
C 11.796875 17.703125 9.59375 19 7.59375 19 
C 5.90625 19 3.296875 18.203125 3.296875 14.46875 
C 3.296875 5.234375 12.296875 -2 22.90625 -2 
C 34 -2 42.5 6.71875 42.5 16.953125 
C 42.5 26.671875 34.5 33.703125 25 34.796875 
C 32.59375 36.375 39.90625 43.0625 39.90625 52.015625 
C 39.90625 59.6875 32 65.296875 23 65.296875 
C 13.90625 65.296875 5.90625 59.828125 5.90625 52.015625 
C 5.90625 48.59375 8.5 48 9.796875 48 
C 11.90625 48 13.703125 49.296875 13.703125 51.890625 
C 13.703125 54.46875 11.90625 55.765625 9.796875 55.765625 
C 9.40625 55.765625 8.90625 55.765625 8.5 55.578125 
C 11.40625 61.859375 19.296875 63 22.796875 63 
C 26.296875 63 32.90625 61.328125 32.90625 51.875 
C 32.90625 49.109375 32.5 44.1875 29.09375 39.84375 
C 26.09375 36 22.703125 36 19.40625 35.6875 
C 18.90625 35.6875 16.59375 35.453125 16.203125 35.453125 
C 15.5 35.359375 15.09375 35.265625 15.09375 34.5 
C 15.09375 33.796875 15.203125 33.703125 17.203125 33.703125 
z
" id="CMR17-51"/>
     </defs>
     <g transform="translate(298.008111 71.075392)scale(0.16 -0.16)">
      <use transform="scale(0.996264)" xlink:href="#CMR17-115"/>
      <use transform="translate(35.801338 0)scale(0.996264)" xlink:href="#CMR17-105"/>
      <use transform="translate(60.672396 0)scale(0.996264)" xlink:href="#CMR17-110"/>
      <use transform="translate(111.567766 0)scale(0.996264)" xlink:href="#CMR17-40"/>
      <use transform="translate(146.848534 0)scale(0.996264)" xlink:href="#CMR17-51"/>
      <use transform="translate(192.539011 0)scale(0.996264)" xlink:href="#CMMI12-33"/>
      <use transform="translate(256.857357 0)scale(0.996264)" xlink:href="#CMMI12-116"/>
      <use transform="translate(292.083687 0)scale(0.996264)" xlink:href="#CMR17-41"/>
      <use transform="translate(349.503662 0)scale(0.996264)" xlink:href="#CMSY10-1"/>
      <use transform="translate(399.316954 0)scale(0.996264)" xlink:href="#CMR17-52"/>
      <use transform="translate(445.007431 0)scale(0.996264)" xlink:href="#CMMI12-61"/>
      <use transform="translate(493.782349 0)scale(0.996264)" xlink:href="#CMR17-51"/>
      <use transform="translate(539.472827 0)scale(0.996264)" xlink:href="#CMMI12-25"/>
     </g>
    </g>
    <g id="line2d_38">
     <path d="M 253.208111 89.415616 
L 285.208111 89.415616 
" style="fill:none;stroke:#2ca02c;stroke-linecap:square;stroke-width:1.5;"/>
    </g>
    <g id="line2d_39"/>
    <g id="text_7">
     <!-- $\sin(5\omega t)\cdot 4/5\pi$ -->
     <defs>
      <path d="M 11.40625 57.6875 
C 12.40625 57.28125 16.5 56 20.703125 56 
C 30 56 35.09375 61.109375 38 64.0625 
C 38 64.953125 38 65.5 37.40625 65.5 
C 37.296875 65.5 37.09375 65.5 36.296875 65.046875 
C 32.796875 63.40625 28.703125 62.078125 23.703125 62.078125 
C 20.703125 62.078125 16.203125 62.484375 11.296875 64.671875 
C 10.203125 65.171875 10 65.171875 9.90625 65.171875 
C 9.40625 65.171875 9.296875 65.0625 9.296875 63.078125 
L 9.296875 34.421875 
C 9.296875 32.640625 9.296875 32.140625 10.296875 32.140625 
C 10.796875 32.140625 11 32.34375 11.5 33.03125 
C 14.703125 37.515625 19.09375 39.40625 24.09375 39.40625 
C 27.59375 39.40625 35.09375 37.21875 35.09375 20.140625 
C 35.09375 16.953125 35.09375 11.171875 32.09375 6.578125 
C 29.59375 2.484375 25.703125 0.390625 21.40625 0.390625 
C 14.796875 0.390625 8.09375 5 6.296875 12.71875 
C 6.703125 12.609375 7.5 12.421875 7.90625 12.421875 
C 9.203125 12.421875 11.703125 13.125 11.703125 16.21875 
C 11.703125 18.90625 9.796875 20 7.90625 20 
C 5.59375 20 4.09375 18.59375 4.09375 15.796875 
C 4.09375 7.09375 11 -2 21.59375 -2 
C 31.90625 -2 41.703125 6.875 41.703125 19.75 
C 41.703125 31.71875 33.90625 41 24.203125 41 
C 19.09375 41 14.796875 39.109375 11.40625 35.53125 
z
" id="CMR17-53"/>
     </defs>
     <g transform="translate(298.008111 95.015616)scale(0.16 -0.16)">
      <use transform="scale(0.996264)" xlink:href="#CMR17-115"/>
      <use transform="translate(35.801338 0)scale(0.996264)" xlink:href="#CMR17-105"/>
      <use transform="translate(60.672396 0)scale(0.996264)" xlink:href="#CMR17-110"/>
      <use transform="translate(111.567766 0)scale(0.996264)" xlink:href="#CMR17-40"/>
      <use transform="translate(146.848534 0)scale(0.996264)" xlink:href="#CMR17-53"/>
      <use transform="translate(192.539011 0)scale(0.996264)" xlink:href="#CMMI12-33"/>
      <use transform="translate(256.857357 0)scale(0.996264)" xlink:href="#CMMI12-116"/>
      <use transform="translate(292.083687 0)scale(0.996264)" xlink:href="#CMR17-41"/>
      <use transform="translate(349.503662 0)scale(0.996264)" xlink:href="#CMSY10-1"/>
      <use transform="translate(399.316954 0)scale(0.996264)" xlink:href="#CMR17-52"/>
      <use transform="translate(445.007431 0)scale(0.996264)" xlink:href="#CMMI12-61"/>
      <use transform="translate(493.782349 0)scale(0.996264)" xlink:href="#CMR17-53"/>
      <use transform="translate(539.472827 0)scale(0.996264)" xlink:href="#CMMI12-25"/>
     </g>
    </g>
   </g>
  </g>
  <g id="axes_2">
   <g id="patch_8">
    <path d="M 64.422207 243.779776 
L 411.22 243.779776 
L 411.22 144.419888 
L 64.422207 144.419888 
z
" style="fill:#ffffff;"/>
   </g>
   <g id="matplotlib.axis_3">
    <g id="xtick_13">
     <g id="line2d_40">
      <path clip-path="url(#p0a8c5ec494)" d="M 79.817366 243.779776 
L 79.817366 144.419888 
" style="fill:none;stroke:#b0b0b0;stroke-linecap:square;stroke-width:0.8;"/>
     </g>
     <g id="line2d_41">
      <g>
       <use style="stroke:#000000;stroke-width:0.8;" x="79.817366" xlink:href="#m5392ca31be" y="243.779776"/>
      </g>
     </g>
    </g>
    <g id="xtick_14">
     <g id="line2d_42">
      <path clip-path="url(#p0a8c5ec494)" d="M 109.944878 243.779776 
L 109.944878 144.419888 
" style="fill:none;stroke:#b0b0b0;stroke-linecap:square;stroke-width:0.8;"/>
     </g>
     <g id="line2d_43">
      <g>
       <use style="stroke:#000000;stroke-width:0.8;" x="109.944878" xlink:href="#m5392ca31be" y="243.779776"/>
      </g>
     </g>
    </g>
    <g id="xtick_15">
     <g id="line2d_44">
      <path clip-path="url(#p0a8c5ec494)" d="M 140.07239 243.779776 
L 140.07239 144.419888 
" style="fill:none;stroke:#b0b0b0;stroke-linecap:square;stroke-width:0.8;"/>
     </g>
     <g id="line2d_45">
      <g>
       <use style="stroke:#000000;stroke-width:0.8;" x="140.07239" xlink:href="#m5392ca31be" y="243.779776"/>
      </g>
     </g>
    </g>
    <g id="xtick_16">
     <g id="line2d_46">
      <path clip-path="url(#p0a8c5ec494)" d="M 170.199902 243.779776 
L 170.199902 144.419888 
" style="fill:none;stroke:#b0b0b0;stroke-linecap:square;stroke-width:0.8;"/>
     </g>
     <g id="line2d_47">
      <g>
       <use style="stroke:#000000;stroke-width:0.8;" x="170.199902" xlink:href="#m5392ca31be" y="243.779776"/>
      </g>
     </g>
    </g>
    <g id="xtick_17">
     <g id="line2d_48">
      <path clip-path="url(#p0a8c5ec494)" d="M 200.327415 243.779776 
L 200.327415 144.419888 
" style="fill:none;stroke:#b0b0b0;stroke-linecap:square;stroke-width:0.8;"/>
     </g>
     <g id="line2d_49">
      <g>
       <use style="stroke:#000000;stroke-width:0.8;" x="200.327415" xlink:href="#m5392ca31be" y="243.779776"/>
      </g>
     </g>
    </g>
    <g id="xtick_18">
     <g id="line2d_50">
      <path clip-path="url(#p0a8c5ec494)" d="M 230.454927 243.779776 
L 230.454927 144.419888 
" style="fill:none;stroke:#b0b0b0;stroke-linecap:square;stroke-width:0.8;"/>
     </g>
     <g id="line2d_51">
      <g>
       <use style="stroke:#000000;stroke-width:0.8;" x="230.454927" xlink:href="#m5392ca31be" y="243.779776"/>
      </g>
     </g>
    </g>
    <g id="xtick_19">
     <g id="line2d_52">
      <path clip-path="url(#p0a8c5ec494)" d="M 260.582439 243.779776 
L 260.582439 144.419888 
" style="fill:none;stroke:#b0b0b0;stroke-linecap:square;stroke-width:0.8;"/>
     </g>
     <g id="line2d_53">
      <g>
       <use style="stroke:#000000;stroke-width:0.8;" x="260.582439" xlink:href="#m5392ca31be" y="243.779776"/>
      </g>
     </g>
    </g>
    <g id="xtick_20">
     <g id="line2d_54">
      <path clip-path="url(#p0a8c5ec494)" d="M 290.709951 243.779776 
L 290.709951 144.419888 
" style="fill:none;stroke:#b0b0b0;stroke-linecap:square;stroke-width:0.8;"/>
     </g>
     <g id="line2d_55">
      <g>
       <use style="stroke:#000000;stroke-width:0.8;" x="290.709951" xlink:href="#m5392ca31be" y="243.779776"/>
      </g>
     </g>
    </g>
    <g id="xtick_21">
     <g id="line2d_56">
      <path clip-path="url(#p0a8c5ec494)" d="M 320.837463 243.779776 
L 320.837463 144.419888 
" style="fill:none;stroke:#b0b0b0;stroke-linecap:square;stroke-width:0.8;"/>
     </g>
     <g id="line2d_57">
      <g>
       <use style="stroke:#000000;stroke-width:0.8;" x="320.837463" xlink:href="#m5392ca31be" y="243.779776"/>
      </g>
     </g>
    </g>
    <g id="xtick_22">
     <g id="line2d_58">
      <path clip-path="url(#p0a8c5ec494)" d="M 350.964976 243.779776 
L 350.964976 144.419888 
" style="fill:none;stroke:#b0b0b0;stroke-linecap:square;stroke-width:0.8;"/>
     </g>
     <g id="line2d_59">
      <g>
       <use style="stroke:#000000;stroke-width:0.8;" x="350.964976" xlink:href="#m5392ca31be" y="243.779776"/>
      </g>
     </g>
    </g>
    <g id="xtick_23">
     <g id="line2d_60">
      <path clip-path="url(#p0a8c5ec494)" d="M 381.092488 243.779776 
L 381.092488 144.419888 
" style="fill:none;stroke:#b0b0b0;stroke-linecap:square;stroke-width:0.8;"/>
     </g>
     <g id="line2d_61">
      <g>
       <use style="stroke:#000000;stroke-width:0.8;" x="381.092488" xlink:href="#m5392ca31be" y="243.779776"/>
      </g>
     </g>
    </g>
    <g id="xtick_24">
     <g id="line2d_62">
      <path clip-path="url(#p0a8c5ec494)" d="M 411.22 243.779776 
L 411.22 144.419888 
" style="fill:none;stroke:#b0b0b0;stroke-linecap:square;stroke-width:0.8;"/>
     </g>
     <g id="line2d_63">
      <g>
       <use style="stroke:#000000;stroke-width:0.8;" x="411.22" xlink:href="#m5392ca31be" y="243.779776"/>
      </g>
     </g>
    </g>
    <g id="text_8">
     <!-- t/T -->
     <defs>
      <path d="M 16.703125 37 
L 29.703125 37 
L 29.703125 42.765625 
L 16.703125 42.765625 
L 16.703125 55 
L 9.59375 55 
L 9.59375 42.765625 
L 1.703125 42.765625 
L 1.703125 37 
L 9.40625 37 
L 9.40625 11.703125 
C 9.40625 6 10.703125 -1 17.296875 -1 
C 22.296875 -1 26.90625 0.390625 31.296875 2.6875 
L 29.703125 8.5625 
C 27.296875 6.46875 24.40625 5.265625 21.296875 5.265625 
C 16.90625 5.265625 16.703125 10.875 16.703125 13.375 
z
" id="CMSS17-116"/>
      <path d="M 41.203125 71.015625 
C 41.703125 72.296875 41.703125 72.5 41.703125 72.703125 
C 41.703125 73.890625 40.796875 74.5 40 74.5 
C 38.796875 74.5 38.40625 73.703125 38 72.5 
L 5.703125 -21.515625 
C 5.203125 -22.8125 5.203125 -23.015625 5.203125 -23.21875 
C 5.203125 -24.40625 6.09375 -25 6.90625 -25 
C 8.09375 -25 8.5 -24.203125 8.90625 -23.015625 
z
" id="CMSS17-47"/>
      <path d="M 36.203125 62 
L 44.5 62 
C 45.703125 62 46.90625 62 48.09375 62 
L 60.59375 62 
L 60.59375 68.375 
L 3.40625 68.375 
L 3.40625 62 
L 15.90625 62 
C 17.09375 62 18.296875 62 19.5 62 
L 27.796875 62 
L 27.796875 -0.5 
L 36.203125 -0.5 
z
" id="CMSS17-84"/>
     </defs>
     <g transform="translate(225.778434 266.734944)scale(0.16 -0.16)">
      <use transform="scale(0.996264)" xlink:href="#CMSS17-116"/>
      <use transform="translate(33.831567 0)scale(0.996264)" xlink:href="#CMSS17-47"/>
      <use transform="translate(80.67519 0)scale(0.996264)" xlink:href="#CMSS17-84"/>
     </g>
    </g>
   </g>
   <g id="matplotlib.axis_4">
    <g id="ytick_4">
     <g id="line2d_64">
      <path clip-path="url(#p0a8c5ec494)" d="M 64.422207 229.571272 
L 411.22 229.571272 
" style="fill:none;stroke:#b0b0b0;stroke-linecap:square;stroke-width:0.8;"/>
     </g>
     <g id="line2d_65">
      <g>
       <use style="stroke:#000000;stroke-width:0.8;" x="64.422207" xlink:href="#m0c9451d50e" y="229.571272"/>
      </g>
     </g>
     <g id="text_9">
      <!-- $-1$ -->
      <g transform="translate(37.220224 235.106067)scale(0.16 -0.16)">
       <use transform="scale(0.996264)" xlink:href="#CMSY10-0"/>
       <use transform="translate(77.487468 0)scale(0.996264)" xlink:href="#CMR17-49"/>
      </g>
     </g>
    </g>
    <g id="ytick_5">
     <g id="line2d_66">
      <path clip-path="url(#p0a8c5ec494)" d="M 64.422207 194.099832 
L 411.22 194.099832 
" style="fill:none;stroke:#b0b0b0;stroke-linecap:square;stroke-width:0.8;"/>
     </g>
     <g id="line2d_67">
      <g>
       <use style="stroke:#000000;stroke-width:0.8;" x="64.422207" xlink:href="#m0c9451d50e" y="194.099832"/>
      </g>
     </g>
     <g id="text_10">
      <!-- $0$ -->
      <g transform="translate(49.61822 199.634626)scale(0.16 -0.16)">
       <use transform="scale(0.996264)" xlink:href="#CMR17-48"/>
      </g>
     </g>
    </g>
    <g id="ytick_6">
     <g id="line2d_68">
      <path clip-path="url(#p0a8c5ec494)" d="M 64.422207 158.628391 
L 411.22 158.628391 
" style="fill:none;stroke:#b0b0b0;stroke-linecap:square;stroke-width:0.8;"/>
     </g>
     <g id="line2d_69">
      <g>
       <use style="stroke:#000000;stroke-width:0.8;" x="64.422207" xlink:href="#m0c9451d50e" y="158.628391"/>
      </g>
     </g>
     <g id="text_11">
      <!-- $1$ -->
      <g transform="translate(49.61822 164.163185)scale(0.16 -0.16)">
       <use transform="scale(0.996264)" xlink:href="#CMR17-49"/>
      </g>
     </g>
    </g>
    <g id="text_12">
     <!-- v (V) -->
     <g transform="translate(29.235168 211.49736)rotate(-90)scale(0.16 -0.16)">
      <use transform="scale(0.996264)" xlink:href="#CMSS17-118"/>
      <use transform="translate(74.229254 0)scale(0.996264)" xlink:href="#CMSS17-40"/>
      <use transform="translate(110.663169 0)scale(0.996264)" xlink:href="#CMSS17-86"/>
      <use transform="translate(172.881024 0)scale(0.996264)" xlink:href="#CMSS17-41"/>
     </g>
    </g>
   </g>
   <g id="line2d_70">
    <path clip-path="url(#p0a8c5ec494)" d="M 79.516091 194.383602 
L 92.812004 182.009435 
L 99.762141 175.850869 
L 105.503558 171.046618 
L 110.640616 167.025961 
L 115.475493 163.524631 
L 120.008191 160.523594 
L 124.238709 157.992629 
L 128.167047 155.89357 
L 132.095385 154.050807 
L 135.721543 152.587998 
L 139.347701 151.362485 
L 142.97386 150.381274 
L 146.297838 149.70126 
L 149.621816 149.234522 
L 152.945795 148.983304 
L 156.269773 148.948813 
L 159.593752 149.131213 
L 162.91773 149.529628 
L 166.241708 150.142146 
L 169.565687 150.965822 
L 173.191845 152.100529 
L 176.818003 153.47532 
L 180.444161 155.082334 
L 184.372499 157.07464 
L 188.300838 159.315319 
L 192.531355 161.98885 
L 197.064053 165.129958 
L 201.898931 168.76487 
L 207.035988 172.908074 
L 212.777406 177.823973 
L 219.727542 184.079769 
L 230.001657 193.672903 
L 243.297571 206.052229 
L 250.247707 212.217747 
L 255.989124 217.029821 
L 261.126182 221.058978 
L 265.961059 224.569511 
L 270.493757 227.580152 
L 274.724275 230.120855 
L 278.652613 232.229558 
L 282.580951 234.082479 
L 286.20711 235.555062 
L 289.833268 236.790671 
L 293.459426 237.782245 
L 296.783404 238.471941 
L 300.107383 238.948488 
L 303.431361 239.209595 
L 306.755339 239.254009 
L 310.079318 239.081515 
L 313.403296 238.692943 
L 316.727275 238.09016 
L 320.051253 237.27606 
L 323.677411 236.151568 
L 327.303569 234.786692 
L 330.929728 233.189237 
L 334.858066 231.20682 
L 338.786404 228.975482 
L 343.016922 226.311326 
L 347.54962 223.179391 
L 352.384497 219.553184 
L 357.521555 215.417908 
L 363.262972 210.509153 
L 370.213108 204.25944 
L 380.185044 194.954504 
L 381.393763 193.816062 
L 381.393763 193.816062 
" style="fill:none;stroke:#1f77b4;stroke-linecap:square;stroke-width:1.5;"/>
   </g>
   <g id="line2d_71">
    <path clip-path="url(#p0a8c5ec494)" d="M 79.516091 194.667356 
L 86.768407 181.232788 
L 90.394565 174.966493 
L 93.416364 170.143472 
L 96.135983 166.188412 
L 98.553421 163.023376 
L 100.97086 160.218851 
L 103.086119 158.07793 
L 105.201378 156.239552 
L 107.316637 154.708806 
L 109.431896 153.486085 
L 111.244975 152.680105 
L 113.058054 152.092053 
L 114.871133 151.714249 
L 116.684213 151.536782 
L 118.799472 151.566832 
L 120.914731 151.830859 
L 123.332169 152.3864 
L 125.749608 153.172244 
L 128.771407 154.408917 
L 132.699745 156.293931 
L 141.76514 160.767575 
L 145.089119 162.10089 
L 147.808737 162.962542 
L 150.528356 163.57783 
L 152.945795 163.896708 
L 155.363234 163.989725 
L 157.780672 163.853812 
L 160.198111 163.493455 
L 162.61555 162.920591 
L 165.335169 162.046159 
L 168.356967 160.833416 
L 171.983126 159.133069 
L 183.16378 153.698164 
L 185.883399 152.704192 
L 188.300838 152.042582 
L 190.416096 151.671005 
L 192.531355 151.521075 
L 194.646614 151.616697 
L 196.459694 151.9098 
L 198.272773 152.40929 
L 200.085852 153.123791 
L 201.898931 154.059623 
L 203.71201 155.220697 
L 205.827269 156.861733 
L 207.942528 158.809119 
L 210.057787 161.056096 
L 212.475226 163.976111 
L 214.892664 167.248292 
L 217.612283 171.311196 
L 220.634082 176.235013 
L 224.26024 182.591464 
L 229.397297 192.108274 
L 237.556153 207.234829 
L 241.182312 213.482342 
L 244.20411 218.284709 
L 246.923729 222.217872 
L 249.341168 225.361286 
L 251.758606 228.142617 
L 253.873865 230.262325 
L 255.989124 232.078973 
L 258.104383 233.587807 
L 259.917462 234.635925 
L 261.730542 235.46045 
L 263.543621 236.066509 
L 265.3567 236.461588 
L 267.169779 236.655417 
L 269.285038 236.643078 
L 271.400297 236.395051 
L 273.515556 235.936528 
L 275.932995 235.190573 
L 278.652613 234.122311 
L 282.278771 232.434182 
L 293.761606 226.854328 
L 296.783404 225.736824 
L 299.503023 224.967108 
L 301.920462 224.498548 
L 304.337901 224.249383 
L 306.755339 224.227846 
L 309.172778 224.434649 
L 311.590217 224.86296 
L 314.309836 225.591608 
L 317.029454 226.551569 
L 320.353433 227.978134 
L 324.886131 230.208755 
L 331.836267 233.654776 
L 334.858066 234.915231 
L 337.577684 235.813264 
L 339.995123 236.368805 
L 342.110382 236.632832 
L 344.225641 236.662882 
L 346.03872 236.485415 
L 347.851799 236.107611 
L 349.664878 235.519559 
L 351.477958 234.713578 
L 353.291037 233.684342 
L 355.104116 232.428964 
L 357.219375 230.678167 
L 359.334634 228.622895 
L 361.449893 226.271566 
L 363.867332 223.238694 
L 366.28477 219.862682 
L 369.004389 215.696398 
L 372.328367 210.156327 
L 376.256705 203.132603 
L 381.393763 193.532308 
L 381.393763 193.532308 
" style="fill:none;stroke:#ff7f0e;stroke-linecap:square;stroke-width:1.5;"/>
   </g>
   <g id="line2d_72">
    <path clip-path="url(#p0a8c5ec494)" d="M 79.516091 194.951081 
L 84.955328 179.901869 
L 87.674947 173.025013 
L 90.092386 167.540829 
L 92.207645 163.338705 
L 94.020724 160.234429 
L 95.531623 158.020786 
L 97.042522 156.156693 
L 98.553421 154.64487 
L 100.064321 153.481562 
L 101.27304 152.795316 
L 102.48176 152.317945 
L 103.690479 152.039299 
L 104.899198 151.947136 
L 106.410098 152.072502 
L 107.920997 152.435948 
L 109.734076 153.137827 
L 111.849335 154.242249 
L 114.568954 155.951612 
L 120.914731 160.05294 
L 123.332169 161.281456 
L 125.447428 162.08622 
L 127.260507 162.545097 
L 129.073587 162.778222 
L 130.886666 162.78476 
L 132.699745 162.574106 
L 134.815004 162.079432 
L 136.930263 161.359101 
L 139.649881 160.192962 
L 148.413097 156.219191 
L 150.830536 155.492231 
L 152.945795 155.098565 
L 155.061054 154.958176 
L 156.874133 155.046692 
L 158.989392 155.387778 
L 161.104651 155.963603 
L 163.52209 156.860946 
L 166.846068 158.373021 
L 172.889665 161.180963 
L 175.307104 162.035129 
L 177.422363 162.547439 
L 179.235442 162.775362 
L 181.048521 162.787307 
L 182.8616 162.573064 
L 184.674679 162.132598 
L 186.487758 161.476506 
L 188.603017 160.467524 
L 191.020456 159.057955 
L 194.948794 156.456318 
L 198.574952 154.154718 
L 200.690211 153.069262 
L 202.503291 152.389577 
L 204.01419 152.048576 
L 205.525089 151.948942 
L 206.733808 152.063816 
L 207.942528 152.36682 
L 209.151247 152.869944 
L 210.359967 153.583061 
L 211.568686 154.513752 
L 213.079585 155.99066 
L 214.590485 157.819752 
L 216.101384 159.998956 
L 217.914463 163.063563 
L 219.727542 166.592419 
L 221.842801 171.24211 
L 224.26024 177.154071 
L 227.282038 185.210183 
L 237.556153 213.328765 
L 239.973592 219.01602 
L 242.088851 223.427494 
L 243.90193 226.728443 
L 245.715009 229.549908 
L 247.225909 231.51966 
L 248.736808 233.137273 
L 250.247707 234.40457 
L 251.758606 235.32972 
L 252.967326 235.832844 
L 254.176045 236.135848 
L 255.384765 236.250721 
L 256.895664 236.151088 
L 258.406563 235.810087 
L 260.219642 235.130402 
L 262.334901 234.044946 
L 265.05452 232.348766 
L 271.702477 228.062171 
L 274.119915 226.85213 
L 276.235174 226.067066 
L 278.048254 225.6266 
L 279.861333 225.412356 
L 281.674412 225.424302 
L 283.487491 225.652225 
L 285.60275 226.164535 
L 288.020189 227.018701 
L 291.041987 228.361373 
L 297.992124 231.583393 
L 300.409563 232.42264 
L 302.524822 232.934547 
L 304.640081 233.203846 
L 306.45316 233.228059 
L 308.568419 233.013659 
L 310.683678 232.551582 
L 313.101116 231.758945 
L 315.820735 230.611447 
L 325.18831 226.404351 
L 327.303569 225.806788 
L 329.116649 225.494049 
L 330.929728 225.390204 
L 332.742807 225.509486 
L 334.555886 225.856252 
L 336.368965 226.42437 
L 338.484224 227.343871 
L 340.901663 228.676693 
L 344.225641 230.824831 
L 349.060519 233.957415 
L 351.175778 235.061837 
L 352.988857 235.763716 
L 354.499756 236.127161 
L 356.010655 236.252528 
L 357.219375 236.160365 
L 358.428094 235.881719 
L 359.636814 235.404348 
L 360.845533 234.718102 
L 362.054252 233.815105 
L 363.565152 232.373489 
L 365.076051 230.579841 
L 366.58695 228.435577 
L 368.400029 225.411307 
L 370.213108 221.920006 
L 372.328367 217.309223 
L 374.745806 211.433452 
L 377.767605 203.407557 
L 381.393763 193.248583 
L 381.393763 193.248583 
" style="fill:none;stroke:#2ca02c;stroke-linecap:square;stroke-width:1.5;"/>
   </g>
   <g id="line2d_73">
    <path clip-path="url(#p0a8c5ec494)" d="M 79.516091 229.571272 
L 79.818271 158.628391 
L 230.303837 158.628391 
L 230.606017 229.571272 
L 381.091583 229.571272 
L 381.393763 158.628391 
L 381.393763 158.628391 
" style="fill:none;stroke:#d62728;stroke-linecap:square;stroke-width:1.5;"/>
   </g>
   <g id="patch_9">
    <path d="M 64.422207 243.779776 
L 64.422207 144.419888 
" style="fill:none;stroke:#000000;stroke-linecap:square;stroke-linejoin:miter;stroke-width:0.8;"/>
   </g>
   <g id="patch_10">
    <path d="M 411.22 243.779776 
L 411.22 144.419888 
" style="fill:none;stroke:#000000;stroke-linecap:square;stroke-linejoin:miter;stroke-width:0.8;"/>
   </g>
   <g id="patch_11">
    <path d="M 64.422207 243.779776 
L 411.22 243.779776 
" style="fill:none;stroke:#000000;stroke-linecap:square;stroke-linejoin:miter;stroke-width:0.8;"/>
   </g>
   <g id="patch_12">
    <path d="M 64.422207 144.419888 
L 411.22 144.419888 
" style="fill:none;stroke:#000000;stroke-linecap:square;stroke-linejoin:miter;stroke-width:0.8;"/>
   </g>
   <g id="legend_2">
    <g id="patch_13">
     <path d="M 268.394666 229.04056 
L 400.02 229.04056 
Q 403.22 229.04056 403.22 225.84056 
L 403.22 155.619888 
Q 403.22 152.419888 400.02 152.419888 
L 268.394666 152.419888 
Q 265.194666 152.419888 265.194666 155.619888 
L 265.194666 225.84056 
Q 265.194666 229.04056 268.394666 229.04056 
z
" style="fill:#ffffff;opacity:0.8;stroke:#cccccc;stroke-linejoin:miter;"/>
    </g>
    <g id="line2d_74">
     <path d="M 271.594666 165.175056 
L 303.594666 165.175056 
" style="fill:none;stroke:#1f77b4;stroke-linecap:square;stroke-width:1.5;"/>
    </g>
    <g id="line2d_75"/>
    <g id="text_13">
     <!-- $\Sigma$1 termo(s) -->
     <defs>
      <path d="M 32.296875 32.765625 
C 33 33.5625 33 33.765625 33 34.0625 
C 33 34.4375 32.59375 35.046875 32.5 35.25 
L 12.796875 65.40625 
L 37 65.40625 
C 53.59375 65.40625 58.59375 61.8125 60.296875 46 
L 62.09375 46 
L 59.703125 68 
L 6.796875 68 
C 4.703125 68 4.59375 67.90625 4.59375 65.8125 
L 27.703125 30.375 
L 5.40625 1.890625 
C 4.703125 1 4.703125 0.90625 4.703125 0.703125 
C 4.703125 0 5.296875 0 6.796875 0 
L 59.703125 0 
L 62.09375 22.8125 
L 60.296875 22.8125 
C 58.703125 6.6875 53 3.40625 36.796875 3.40625 
L 9.203125 3.40625 
z
" id="CMR17-6"/>
      <path d="M 28.40625 67 
L 26.5 67 
C 21.09375 61.5625 14.796875 60.78125 8.40625 60.78125 
L 8.40625 55 
C 11.296875 55 16 55 20.703125 57.296875 
L 20.703125 5.765625 
L 8.90625 5.765625 
L 8.90625 0 
L 40.203125 0 
L 40.203125 5.765625 
L 28.40625 5.765625 
z
" id="CMSS17-49"/>
      <path d="M 39.09375 21.515625 
C 39.09375 24.84375 38.90625 31.296875 35.703125 36.640625 
C 32.203125 42.390625 26.5 44 22.203125 44 
C 11.796875 44 3 34.1875 3 21.484375 
C 3 9.09375 12.09375 -1 23.59375 -1 
C 28.09375 -1 33.59375 0.296875 38.59375 3.875 
C 38.59375 4.28125 38.40625 6.46875 38.296875 6.5625 
C 38.296875 6.765625 38 9.84375 38 10.25 
C 33.203125 6.359375 27.703125 5.078125 23.703125 5.078125 
C 17.296875 5.078125 10.40625 10.421875 10.09375 21.515625 
z
M 10.90625 27 
C 12.203125 32.5625 16.59375 37.828125 22.203125 37.828125 
C 23.703125 37.828125 30.703125 37.828125 32.5 27 
z
" id="CMSS17-101"/>
      <path d="M 14.90625 21.296875 
C 14.90625 30.703125 21.796875 37 30.59375 37 
L 30.59375 43.578125 
C 24.203125 43.578125 18.203125 40.390625 14.59375 35.203125 
L 14.59375 43.09375 
L 7.5 43.09375 
L 7.5 0 
L 14.90625 0 
z
" id="CMSS17-114"/>
      <path d="M 67 29.328125 
C 67 36.0625 65.296875 44 54.09375 44 
C 46.59375 44 42.09375 39.3125 40.09375 36.421875 
C 38.296875 41.71875 34.09375 44 28.09375 44 
C 21.296875 44 17 40.125 14.703125 37.328125 
L 14.703125 43.09375 
L 7.40625 43.09375 
L 7.40625 0 
L 15 0 
L 15 24.359375 
C 15 30.296875 17.203125 37.9375 24.296875 37.9375 
C 33.40625 37.9375 33.40625 31.5 33.40625 28.578125 
L 33.40625 0 
L 41 0 
L 41 24.359375 
C 41 30.296875 43.203125 37.9375 50.296875 37.9375 
C 59.40625 37.9375 59.40625 31.5 59.40625 28.578125 
L 59.40625 0 
L 67 0 
z
" id="CMSS17-109"/>
      <path d="M 44.203125 21.1875 
C 44.203125 34 34.703125 44 23.5 44 
C 12 44 2.703125 33.703125 2.703125 21.1875 
C 2.703125 8.5 12.296875 -1 23.40625 -1 
C 34.796875 -1 44.203125 8.796875 44.203125 21.1875 
M 23.5 5.265625 
C 16.40625 5.265625 10.296875 11.078125 10.296875 22 
C 10.296875 33.609375 17.40625 37.921875 23.40625 37.921875 
C 29.90625 37.921875 36.59375 33.21875 36.59375 22 
C 36.59375 10.671875 30.09375 5.265625 23.5 5.265625 
" id="CMSS17-111"/>
      <path d="M 32.203125 41.046875 
C 26.296875 43.859375 21.703125 43.859375 18.703125 43.859375 
C 11.59375 43.859375 3.09375 41.375 3.09375 31.296875 
C 3.09375 21.234375 14.09375 19.03125 17.09375 18.421875 
C 21.703125 17.53125 26.796875 16.53125 26.796875 11.5625 
C 26.796875 5.265625 19.59375 5.265625 18.296875 5.265625 
C 14.296875 5.265625 8.796875 6.359375 3.796875 9.96875 
L 2.59375 3.28125 
C 8.296875 0 13.796875 -1 18.40625 -1 
C 30.703125 -1 33.796875 6.5 33.796875 12.203125 
C 33.796875 17.09375 31 20.390625 29.09375 21.890625 
C 25.796875 24.5 24.59375 24.796875 16.40625 26.5 
C 15 26.703125 10.09375 27.796875 10.09375 32.28125 
C 10.09375 38 16.40625 38 17.796875 38 
C 24.296875 38 28.296875 35.984375 31 34.5 
z
" id="CMSS17-115"/>
     </defs>
     <g transform="translate(316.394666 170.775056)scale(0.16 -0.16)">
      <use transform="scale(0.996264)" xlink:href="#CMR17-6"/>
      <use transform="translate(66.509881 0)scale(0.996264)" xlink:href="#CMSS17-49"/>
      <use transform="translate(144.582617 0)scale(0.996264)" xlink:href="#CMSS17-116"/>
      <use transform="translate(178.414184 0)scale(0.996264)" xlink:href="#CMSS17-101"/>
      <use transform="translate(220.053006 0)scale(0.996264)" xlink:href="#CMSS17-114"/>
      <use transform="translate(251.962778 0)scale(0.996264)" xlink:href="#CMSS17-109"/>
      <use transform="translate(326.192033 0)scale(0.996264)" xlink:href="#CMSS17-111"/>
      <use transform="translate(373.035656 0)scale(0.996264)" xlink:href="#CMSS17-40"/>
      <use transform="translate(409.46957 0)scale(0.996264)" xlink:href="#CMSS17-115"/>
      <use transform="translate(445.383112 0)scale(0.996264)" xlink:href="#CMSS17-41"/>
     </g>
    </g>
    <g id="line2d_76">
     <path d="M 271.594666 189.11528 
L 303.594666 189.11528 
" style="fill:none;stroke:#ff7f0e;stroke-linecap:square;stroke-width:1.5;"/>
    </g>
    <g id="line2d_77"/>
    <g id="text_14">
     <!-- $\Sigma$2 termo(s) -->
     <defs>
      <path d="M 25.796875 21.203125 
C 28.59375 24.078125 32.796875 27.5625 35.703125 31.046875 
C 38.5 34.4375 42.203125 39.234375 42.203125 46.203125 
C 42.203125 57.140625 34.796875 67 22.203125 67 
C 12.296875 67 6.59375 60.828125 3.90625 51.15625 
L 7.796875 45.765625 
C 10 54.84375 13.09375 60.625 20.90625 60.625 
C 29.5 60.625 34.296875 53.640625 34.296875 45.96875 
C 34.296875 36.796875 27.296875 29.703125 22 24.421875 
C 16.09375 18.546875 10.296875 12.5625 4.703125 6.375 
L 4.703125 0 
L 42.203125 0 
L 42.203125 6.765625 
L 25.203125 6.765625 
C 24 6.765625 22.796875 6.765625 21.59375 6.765625 
L 11.59375 6.765625 
L 11.59375 6.859375 
z
" id="CMSS17-50"/>
     </defs>
     <g transform="translate(316.394666 194.71528)scale(0.16 -0.16)">
      <use transform="scale(0.996264)" xlink:href="#CMR17-6"/>
      <use transform="translate(66.509881 0)scale(0.996264)" xlink:href="#CMSS17-50"/>
      <use transform="translate(144.582617 0)scale(0.996264)" xlink:href="#CMSS17-116"/>
      <use transform="translate(178.414184 0)scale(0.996264)" xlink:href="#CMSS17-101"/>
      <use transform="translate(220.053006 0)scale(0.996264)" xlink:href="#CMSS17-114"/>
      <use transform="translate(251.962778 0)scale(0.996264)" xlink:href="#CMSS17-109"/>
      <use transform="translate(326.192033 0)scale(0.996264)" xlink:href="#CMSS17-111"/>
      <use transform="translate(373.035656 0)scale(0.996264)" xlink:href="#CMSS17-40"/>
      <use transform="translate(409.46957 0)scale(0.996264)" xlink:href="#CMSS17-115"/>
      <use transform="translate(445.383112 0)scale(0.996264)" xlink:href="#CMSS17-41"/>
     </g>
    </g>
    <g id="line2d_78">
     <path d="M 271.594666 213.055504 
L 303.594666 213.055504 
" style="fill:none;stroke:#2ca02c;stroke-linecap:square;stroke-width:1.5;"/>
    </g>
    <g id="line2d_79"/>
    <g id="text_15">
     <!-- $\Sigma$3 termo(s) -->
     <defs>
      <path d="M 15.703125 31.640625 
L 22.5 31.640625 
C 31.90625 31.640625 34.59375 23.546875 34.59375 17.90625 
C 34.59375 10.203125 30.203125 4.171875 23 4.171875 
C 17.40625 4.171875 9.5 6.9375 5 14.25 
C 4.296875 10.796875 4.296875 10.59375 3.90625 8.21875 
C 8.59375 1.375 16.203125 -2 23.203125 -2 
C 34.59375 -2 43 7.390625 43 17.78125 
C 43 25.59375 37.5 32.140625 30 34.609375 
C 36 37.875 40.40625 44 40.40625 51.140625 
C 40.40625 59.453125 32.703125 66.078125 23.296875 66.078125 
C 14.703125 66.078125 8 60.8125 5.203125 55.15625 
C 5.90625 54.1875 7.703125 51.3125 8.59375 49.828125 
C 10.796875 55.65625 16.5 60 23.203125 60 
C 28.796875 60 32.5 56.359375 32.5 51.109375 
C 32.5 45.671875 29 39.734375 23.09375 38.359375 
C 22.703125 38.359375 16.5 37.765625 15.703125 37.671875 
z
" id="CMSS17-51"/>
     </defs>
     <g transform="translate(316.394666 218.655504)scale(0.16 -0.16)">
      <use transform="scale(0.996264)" xlink:href="#CMR17-6"/>
      <use transform="translate(66.509881 0)scale(0.996264)" xlink:href="#CMSS17-51"/>
      <use transform="translate(144.582617 0)scale(0.996264)" xlink:href="#CMSS17-116"/>
      <use transform="translate(178.414184 0)scale(0.996264)" xlink:href="#CMSS17-101"/>
      <use transform="translate(220.053006 0)scale(0.996264)" xlink:href="#CMSS17-114"/>
      <use transform="translate(251.962778 0)scale(0.996264)" xlink:href="#CMSS17-109"/>
      <use transform="translate(326.192033 0)scale(0.996264)" xlink:href="#CMSS17-111"/>
      <use transform="translate(373.035656 0)scale(0.996264)" xlink:href="#CMSS17-40"/>
      <use transform="translate(409.46957 0)scale(0.996264)" xlink:href="#CMSS17-115"/>
      <use transform="translate(445.383112 0)scale(0.996264)" xlink:href="#CMSS17-41"/>
     </g>
    </g>
   </g>
  </g>
 </g>
 <defs>
  <clipPath id="p945f4b363a">
   <rect height="99.359888" width="346.797793" x="64.422207" y="20.78"/>
  </clipPath>
  <clipPath id="p0a8c5ec494">
   <rect height="99.359888" width="346.797793" x="64.422207" y="144.419888"/>
  </clipPath>
 </defs>
</svg>
