<?xml version="1.0" encoding="UTF-8" standalone="no"?>
<!-- Created with Inkscape (http://www.inkscape.org/) -->

<svg
   xmlns:ns0="http://www.iki.fi/pav/software/textext/"
   xmlns:dc="http://purl.org/dc/elements/1.1/"
   xmlns:cc="http://creativecommons.org/ns#"
   xmlns:rdf="http://www.w3.org/1999/02/22-rdf-syntax-ns#"
   xmlns:svg="http://www.w3.org/2000/svg"
   xmlns="http://www.w3.org/2000/svg"
   xmlns:sodipodi="http://sodipodi.sourceforge.net/DTD/sodipodi-0.dtd"
   xmlns:inkscape="http://www.inkscape.org/namespaces/inkscape"
   width="1200"
   height="300"
   id="svg2"
   version="1.1"
   inkscape:version="0.91 r13725"
   sodipodi:docname="404.svg">
  <sodipodi:namedview
     id="base"
     pagecolor="#ffffff"
     bordercolor="#666666"
     borderopacity="1.0"
     inkscape:pageopacity="0.0"
     inkscape:pageshadow="2"
     inkscape:zoom="0.49497475"
     inkscape:cx="533.58312"
     inkscape:cy="433.55104"
     inkscape:document-units="px"
     inkscape:current-layer="layer1"
     showgrid="false"
     inkscape:window-width="1301"
     inkscape:window-height="744"
     inkscape:window-x="65"
     inkscape:window-y="24"
     inkscape:window-maximized="1" />
  <defs
     id="defs4" />
  <metadata
     id="metadata7">
    <rdf:RDF>
      <cc:Work
         rdf:about="">
        <dc:format>image/svg+xml</dc:format>
        <dc:type
           rdf:resource="http://purl.org/dc/dcmitype/StillImage" />
        <dc:title />
      </cc:Work>
    </rdf:RDF>
  </metadata>
  <g
     id="layer1"
     inkscape:groupmode="layer"
     inkscape:label="Layer 1"
     transform="translate(0,-752.36218)">
    <g
       style="font-style:normal;font-variant:normal;font-weight:normal;font-stretch:normal;letter-spacing:normal;word-spacing:normal;text-anchor:start;fill:#4d4d4d;fill-opacity:1;fill-rule:evenodd;stroke:#000000;stroke-width:0.11560896;stroke-linecap:butt;stroke-linejoin:miter;stroke-miterlimit:10.43299961;stroke-dasharray:none;stroke-dashoffset:0;stroke-opacity:1"
       ns0:preamble=""
       ns0:text="$\\mathbf{1}_{\\mbox{request}}\\left|\\psi_{\\mbox{web}}\\right\\rangle =\\mbox{Error 404}\\left|0\\right\\rangle $"
       word-spacing="normal"
       letter-spacing="normal"
       font-size-adjust="none"
       font-stretch="normal"
       font-weight="normal"
       font-variant="normal"
       font-style="normal"
       stroke-miterlimit="10.433"
       xml:space="preserve"
       transform="matrix(8.2816755,0,0,-9.0343925,-1826.738,7309.1016)"
       id="content"><path
         id="path4171"
         d="m 226.96,713.33 0,0.02 0,0.02 0,0.02 0,0.02 0,0.01 0,0.02 0,0.02 -0.01,0.01 0,0.02 0,0.01 0,0.01 0,0.02 -0.01,0.01 0,0.01 -0.01,0.01 0,0.01 -0.01,0.01 -0.01,0.01 -0.01,0.01 0,0 -0.01,0.01 -0.02,0.01 0,0 -0.01,0 0,0.01 -0.01,0 -0.01,0 0,0 -0.01,0.01 -0.01,0 -0.01,0 -0.01,0 -0.01,0 0,0 -0.01,0 -0.01,0.01 -0.01,0 -0.01,0 -0.02,0 -0.01,0 -0.01,0 -0.01,0 c -0.11,0 -0.13,0 -0.22,-0.07 -0.77,-0.57 -1.79,-0.57 -2,-0.57 l -0.2,0 0,-0.47 0.2,0 c 0.16,0 0.71,0.01 1.29,0.2 l 0,-5.15 -1.38,0 0,-0.47 c 0.44,0.03 1.49,0.03 1.98,0.03 0.49,0 1.55,0 1.98,-0.03 l 0,0.47 -1.39,0 z"
         inkscape:connector-curvature="0"
         style="fill:#000000;stroke-width:0" /><path
         id="path4173"
         d="m 230.83,707.74 0,1.09 -1.39,-0.11 0,-0.31 c 0.7,0 0.78,-0.07 0.78,-0.55 l 0,-2.67 c 0,-0.45 -0.11,-0.45 -0.78,-0.45 l 0,-0.31 c 0.39,0.01 0.86,0.03 1.14,0.03 0.4,0 0.86,0 1.26,-0.03 l 0,0.31 -0.21,0 c -0.73,0 -0.75,0.11 -0.75,0.47 l 0,1.53 c 0,0.99 0.41,1.87 1.17,1.87 0.07,0 0.09,0 0.11,-0.01 -0.03,-0.01 -0.23,-0.13 -0.23,-0.38 0,-0.28 0.21,-0.43 0.43,-0.43 0.18,0 0.43,0.12 0.43,0.44 0,0.31 -0.31,0.6 -0.74,0.6 -0.73,0 -1.08,-0.66 -1.22,-1.09 z"
         inkscape:connector-curvature="0"
         style="fill:#000000;stroke-width:0" /><path
         id="path4175"
         d="m 234.17,706.73 0.01,0.21 c 0.06,1.48 0.89,1.73 1.23,1.73 1.03,0 1.13,-1.34 1.13,-1.73 l -2.36,0 -0.01,-0.21 2.78,0 c 0.22,0 0.25,0 0.25,0.21 0,0.99 -0.54,1.95 -1.79,1.95 -1.15,0 -2.07,-1.02 -2.07,-2.27 0,-1.33 1.05,-2.3 2.19,-2.3 1.22,0 1.67,1.11 1.67,1.3 0,0.1 -0.08,0.11 -0.13,0.11 -0.09,0 -0.11,-0.06 -0.13,-0.13 -0.35,-1.03 -1.25,-1.03 -1.35,-1.03 -0.49,0 -0.89,0.3 -1.12,0.67 -0.3,0.48 -0.3,1.13 -0.3,1.49 z"
         inkscape:connector-curvature="0"
         style="fill:#000000;stroke-width:0" /><path
         id="path4177"
         d="m 241.27,705.04 0,-1.79 c 0,-0.44 -0.11,-0.44 -0.77,-0.44 l 0,-0.31 c 0.34,0.01 0.85,0.03 1.11,0.03 0.27,0 0.78,-0.02 1.13,-0.03 l 0,0.31 c -0.67,0 -0.78,0 -0.78,0.44 l 0,5.58 -0.22,0 -0.38,-0.9 c -0.13,0.28 -0.54,0.9 -1.33,0.9 -1.16,0 -2.2,-0.96 -2.2,-2.26 0,-1.24 0.96,-2.25 2.12,-2.25 l 0.04,0.22 c -0.73,0 -1.34,0.89 -1.34,2.03 0,1.19 0.7,2.01 1.44,2.01 0.79,0 1.21,-0.86 1.21,-1.39 l 0,0 0,-1.41 c 0,-0.31 -0.18,-0.59 -0.4,-0.83 -0.13,-0.14 -0.44,-0.41 -0.91,-0.41 l -0.04,-0.22 c 0.7,0 1.1,0.43 1.32,0.72 z"
         inkscape:connector-curvature="0"
         style="fill:#000000;stroke-width:0" /><path
         id="path4179"
         d="m 246.65,705.22 0,-0.9 1.43,0.11 0,0.31 c -0.7,0 -0.78,0.07 -0.78,0.56 l 0,3.53 -1.46,-0.11 0,-0.31 c 0.7,0 0.78,-0.07 0.78,-0.55 l 0,-1.78 c 0,-0.86 -0.48,-1.54 -1.21,-1.54 -0.83,0 -0.87,0.47 -0.87,0.99 l 0,3.3 -1.47,-0.11 0,-0.31 c 0.78,0 0.78,-0.02 0.78,-0.91 l 0,-1.5 c 0,-0.77 0,-1.68 1.51,-1.68 0.56,0 1,0.28 1.29,0.9 z"
         inkscape:connector-curvature="0"
         style="fill:#000000;stroke-width:0" /><path
         id="path4181"
         d="m 249.39,706.73 0.01,0.21 c 0.06,1.48 0.9,1.73 1.24,1.73 1.02,0 1.12,-1.34 1.12,-1.73 l -2.36,0 -0.01,-0.21 2.78,0 c 0.22,0 0.25,0 0.25,0.21 0,0.99 -0.54,1.95 -1.78,1.95 -1.16,0 -2.07,-1.02 -2.07,-2.27 0,-1.33 1.04,-2.3 2.19,-2.3 1.21,0 1.66,1.11 1.66,1.3 0,0.1 -0.08,0.11 -0.13,0.11 -0.09,0 -0.11,-0.06 -0.13,-0.13 -0.35,-1.03 -1.24,-1.03 -1.34,-1.03 -0.5,0 -0.9,0.3 -1.13,0.67 -0.3,0.48 -0.3,1.13 -0.3,1.49 z"
         inkscape:connector-curvature="0"
         style="fill:#000000;stroke-width:0" /><path
         id="path4183"
         d="m 254.79,706.36 0.02,0 0.02,-0.01 0.03,0 0.03,-0.01 0.04,-0.01 0.03,0 0.04,-0.01 0.04,-0.02 0.04,-0.01 0.04,-0.01 0.05,-0.02 0.04,-0.02 0.04,-0.01 0.05,-0.02 0.04,-0.03 0.05,-0.02 0.04,-0.03 0.04,-0.03 0.04,-0.03 0.04,-0.03 0.04,-0.03 0.03,-0.04 0.04,-0.04 0.03,-0.04 0.03,-0.05 0.01,-0.02 0.01,-0.03 0.02,-0.02 0.01,-0.03 0.01,-0.02 0.01,-0.03 0,-0.03 0.01,-0.03 0.01,-0.03 0,-0.03 0.01,-0.03 0,-0.03 0,-0.03 0,-0.03 c 0,-0.51 -0.35,-0.91 -1.12,-0.91 -0.84,0 -1.2,0.57 -1.39,1.41 -0.03,0.13 -0.04,0.17 -0.14,0.17 -0.13,0 -0.13,-0.07 -0.13,-0.24 l 0,-1.32 c 0,-0.17 0,-0.24 0.11,-0.24 0.05,0 0.06,0.01 0.25,0.2 0.02,0.02 0.02,0.04 0.2,0.23 0.44,-0.42 0.89,-0.43 1.1,-0.43 1.14,0 1.6,0.67 1.6,1.39 0,0.52 -0.3,0.82 -0.42,0.94 -0.33,0.32 -0.72,0.4 -1.14,0.48 -0.55,0.11 -1.22,0.24 -1.22,0.82 0,0.35 0.26,0.75 1.11,0.75 1.1,0 1.15,-0.89 1.17,-1.2 0.01,-0.09 0.1,-0.09 0.12,-0.09 0.13,0 0.13,0.05 0.13,0.24 l 0,1 c 0,0.17 0,0.24 -0.11,0.24 -0.05,0 -0.07,0 -0.2,-0.12 -0.03,-0.04 -0.13,-0.13 -0.17,-0.16 -0.38,0.28 -0.78,0.28 -0.94,0.28 -1.21,0 -1.59,-0.66 -1.59,-1.22 0,-0.35 0.16,-0.63 0.43,-0.85 0.32,-0.26 0.6,-0.32 1.32,-0.46 z"
         inkscape:connector-curvature="0"
         style="fill:#000000;stroke-width:0" /><path
         id="path4185"
         d="m 258.37,708.41 1.42,0 0,0.31 -1.42,0 0,1.84 -0.25,0 c -0.01,-0.82 -0.31,-1.89 -1.29,-1.93 l 0,-0.22 0.85,0 0,-2.75 c 0,-1.22 0.93,-1.34 1.28,-1.34 0.71,0 0.99,0.71 0.99,1.34 l 0,0.57 -0.25,0 0,-0.55 c 0,-0.73 -0.3,-1.11 -0.67,-1.11 -0.66,0 -0.66,0.91 -0.66,1.08 z"
         inkscape:connector-curvature="0"
         style="fill:#000000;stroke-width:0" /><path
         id="path4187"
         d="m 264.12,709.77 0,-0.03 0,-0.03 0,-0.03 0,-0.02 0,-0.01 0,-0.02 0,-0.01 0.01,-0.02 0,-0.02 0,-0.01 0,-0.01 0.01,-0.02 0,-0.01 0.01,-0.02 0,-0.01 0.01,-0.01 0.01,-0.01 0.01,-0.01 0,-0.01 0.01,-0.01 0.02,-0.01 0,-0.01 0.01,0 0,0 0.01,-0.01 0.01,0 0,0 0.01,-0.01 0.01,0 0,0 0.01,0 0.01,0 0.01,0 0.01,-0.01 0.01,0 0.01,0 0.01,0 c 0.22,0 0.22,0.2 0.22,0.37 l 0,5.66 c 0,0.16 0,0.37 -0.21,0.37 -0.22,0 -0.22,-0.2 -0.22,-0.37 z"
         inkscape:connector-curvature="0"
         style="fill:#000000;stroke-width:0" /><path
         id="path4189"
         d="m 264.12,703.79 0,-0.03 0,-0.03 0,-0.03 0,-0.01 0,-0.02 0,-0.02 0,-0.01 0.01,-0.02 0,-0.01 0,-0.02 0,-0.01 0.01,-0.02 0,-0.01 0.01,-0.01 0,-0.02 0.01,-0.01 0.01,-0.01 0.01,-0.01 0,-0.01 0.01,-0.01 0.02,-0.01 0,0 0.01,-0.01 0,0 0.01,0 0.01,-0.01 0,0 0.01,0 0.01,0 0,-0.01 0.01,0 0.01,0 0.01,0 0.01,0 0.01,0 0.01,0 0.01,0 c 0.22,0 0.22,0.19 0.22,0.36 l 0,5.66 c 0,0.16 0,0.37 -0.21,0.37 -0.22,0 -0.22,-0.2 -0.22,-0.37 z"
         inkscape:connector-curvature="0"
         style="fill:#000000;stroke-width:0" /><path
         id="path4191"
         d="m 270.8,713.78 0,0 0,0.01 0,0 0,0 0,0.01 0.01,0.01 0,0.01 0,0.01 0,0.01 0.01,0.01 0,0.01 0,0.01 0,0.01 0,0.01 0.01,0.01 0,0.01 0,0 0,0.01 0,0 0,0.01 c 0,0.1 -0.07,0.11 -0.12,0.11 -0.1,0 -0.11,-0.02 -0.15,-0.2 l -1.66,-6.59 c -0.75,0.09 -1.13,0.46 -1.13,1.12 0,0.2 0,0.46 0.54,1.85 0.04,0.12 0.11,0.29 0.11,0.49 0,0.45 -0.32,0.82 -0.82,0.82 -0.95,0 -1.32,-1.45 -1.32,-1.54 0,-0.1 0.1,-0.1 0.12,-0.1 0.1,0 0.11,0.02 0.16,0.18 0.27,0.95 0.67,1.24 1.01,1.24 0.08,0 0.25,0 0.25,-0.32 0,-0.26 -0.1,-0.51 -0.23,-0.86 -0.48,-1.25 -0.48,-1.51 -0.48,-1.68 0,-0.95 0.78,-1.36 1.73,-1.42 -0.07,-0.36 -0.07,-0.38 -0.22,-0.9 -0.02,-0.11 -0.22,-0.92 -0.22,-0.95 0,-0.01 0,-0.1 0.12,-0.1 0.02,0 0.06,0 0.09,0.04 0.03,0.02 0.09,0.27 0.12,0.41 l 0.37,1.48 c 0.37,0 1.25,0 2.19,1.07 0.4,0.46 0.61,0.9 0.72,1.19 0.09,0.25 0.31,1.12 0.31,1.56 0,0.56 -0.27,0.7 -0.44,0.7 -0.25,0 -0.49,-0.26 -0.49,-0.48 0,-0.13 0.06,-0.19 0.14,-0.27 0.11,-0.11 0.36,-0.37 0.36,-0.85 0,-0.64 -0.51,-1.45 -0.86,-1.81 -0.88,-0.89 -1.52,-0.89 -1.88,-0.89 z"
         inkscape:connector-curvature="0"
         style="fill:#000000;stroke-width:0" /><path
         id="path4193"
         d="m 278.65,706.98 0.02,0.05 0.01,0.04 0.02,0.04 0.02,0.04 0.02,0.04 0.02,0.04 0.02,0.03 0.03,0.03 0.02,0.03 0.02,0.03 0.03,0.03 0.02,0.02 0.03,0.02 0.02,0.03 0.03,0.02 0.02,0.01 0.03,0.02 0.03,0.02 0.03,0.01 0.03,0.02 0.02,0.01 0.03,0.01 0.03,0.01 0.03,0.01 0.03,0 0.03,0.01 0.04,0.01 0.03,0 0.03,0 0.03,0.01 0.03,0 0.04,0 0,0.31 c -0.22,-0.02 -0.51,-0.03 -0.73,-0.03 -0.29,0 -0.74,0.02 -0.93,0.03 l 0,-0.31 c 0.36,-0.01 0.58,-0.19 0.58,-0.48 0,-0.06 0,-0.08 -0.05,-0.21 l -0.91,-2.55 -0.98,2.78 c -0.04,0.12 -0.05,0.14 -0.05,0.19 0,0.27 0.39,0.27 0.59,0.27 l 0,0.31 c -0.29,-0.01 -0.8,-0.03 -1.04,-0.03 -0.3,0 -0.59,0.01 -0.89,0.03 l 0,-0.31 c 0.37,0 0.53,-0.02 0.63,-0.15 0.05,-0.06 0.16,-0.36 0.23,-0.55 l -0.86,-2.41 -0.94,2.66 c -0.05,0.12 -0.05,0.14 -0.05,0.18 0,0.27 0.39,0.27 0.58,0.27 l 0,0.31 c -0.29,-0.01 -0.85,-0.03 -1.08,-0.03 -0.04,0 -0.57,0.01 -0.93,0.03 l 0,-0.31 c 0.5,0 0.62,-0.03 0.74,-0.35 l 1.25,-3.53 c 0.05,-0.14 0.08,-0.21 0.21,-0.21 0.13,0 0.15,0.06 0.2,0.19 l 1.01,2.82 1.01,-2.82 c 0.04,-0.12 0.07,-0.19 0.2,-0.19 0.13,0 0.16,0.08 0.2,0.19 z"
         inkscape:connector-curvature="0"
         style="fill:#000000;stroke-width:0" /><path
         id="path4195"
         d="m 280.5,705.94 0.01,0.21 c 0.06,1.48 0.9,1.73 1.24,1.73 1.02,0 1.12,-1.35 1.12,-1.73 l -2.36,0 -0.01,-0.21 2.78,0 c 0.22,0 0.25,0 0.25,0.21 0,0.98 -0.54,1.95 -1.78,1.95 -1.16,0 -2.07,-1.03 -2.07,-2.27 0,-1.34 1.04,-2.3 2.19,-2.3 1.21,0 1.66,1.1 1.66,1.29 0,0.1 -0.08,0.12 -0.13,0.12 -0.09,0 -0.11,-0.06 -0.13,-0.14 -0.35,-1.02 -1.24,-1.02 -1.34,-1.02 -0.5,0 -0.9,0.29 -1.13,0.66 -0.3,0.48 -0.3,1.14 -0.3,1.5 z"
         inkscape:connector-curvature="0"
         style="fill:#000000;stroke-width:0" /><path
         id="path4197"
         d="m 285.54,707.39 0,3.16 -1.43,-0.11 0,-0.31 c 0.7,0 0.78,-0.07 0.78,-0.56 l 0,-5.93 0.25,0 c 0,0.01 0.09,0.14 0.35,0.61 0.15,-0.23 0.57,-0.72 1.31,-0.72 l -0.04,0.21 c -0.45,0 -0.81,0.24 -1.05,0.61 -0.14,0.21 -0.14,0.24 -0.14,0.42 l 0,0 0,2.05 c 0,0.19 0,0.2 0.11,0.36 0.39,0.56 0.94,0.64 1.18,0.64 0.45,0 0.81,-0.26 1.04,-0.64 0.26,-0.41 0.29,-0.97 0.29,-1.38 0,-0.37 -0.02,-0.97 -0.3,-1.42 -0.21,-0.31 -0.59,-0.64 -1.13,-0.64 l 0.04,-0.21 c 1.18,0 2.22,0.97 2.22,2.26 0,1.26 -0.98,2.25 -2.11,2.25 -0.78,0 -1.21,-0.47 -1.37,-0.65 z"
         inkscape:connector-curvature="0"
         style="fill:#000000;stroke-width:0" /><path
         id="path4199"
         d="m 293.17,709.61 -2.47,-5.59 c -0.06,-0.12 -0.06,-0.18 -0.06,-0.18 0,-0.11 0.09,-0.2 0.2,-0.2 0.13,0 0.16,0.08 0.22,0.2 l 2.46,5.58 c 0.06,0.13 0.06,0.18 0.06,0.19 0,0.01 0,0.06 -0.06,0.19 l -2.46,5.57 c -0.07,0.16 -0.1,0.22 -0.22,0.22 -0.11,0 -0.2,-0.09 -0.2,-0.2 0,-0.01 0,-0.06 0.06,-0.19 z"
         inkscape:connector-curvature="0"
         style="fill:#000000;stroke-width:0" /><path
         id="path4201"
         d="m 304.18,710.38 0.03,0 0.03,0 0.03,0 0.01,0 0.02,0 0.01,0 0.02,0.01 0.01,0 0.01,0 0.02,0 0.01,0.01 0.01,0 0.02,0.01 0.01,0 0.01,0.01 0.01,0 0.01,0.01 0.01,0.01 0.01,0 0.01,0.01 0.01,0.01 0,0.01 0.01,0.01 0,0 0,0.01 0.01,0 0,0.01 0,0.01 0,0 0,0.01 0.01,0.01 0,0.01 0,0 0,0.01 0,0.01 0,0.01 0,0.01 c 0,0.2 -0.19,0.2 -0.33,0.2 l -5.97,0 c -0.14,0 -0.33,0 -0.33,-0.2 0,-0.2 0.19,-0.2 0.34,-0.2 z"
         inkscape:connector-curvature="0"
         style="fill:#000000;stroke-width:0" /><path
         id="path4203"
         d="m 304.19,708.45 0.02,0 0.01,0 0.03,0 0.02,0 0.02,0 0.01,0 0.02,0 0.01,0 0.01,0.01 0.02,0 0.01,0 0.01,0 0.02,0.01 0.01,0 0.01,0.01 0.01,0 0.01,0.01 0.01,0.01 0.01,0 0.01,0.01 0.01,0.01 0.01,0.01 0,0 0,0.01 0.01,0 0,0.01 0,0 0.01,0.01 0,0.01 0,0 0,0.01 0,0.01 0.01,0.01 0,0 0,0.01 0,0.01 0,0.01 0,0.01 0,0.01 c 0,0.2 -0.19,0.2 -0.34,0.2 l -5.95,0 c -0.15,0 -0.34,0 -0.34,-0.2 0,-0.2 0.19,-0.2 0.33,-0.2 z"
         inkscape:connector-curvature="0"
         style="fill:#000000;stroke-width:0" /><path
         id="path4205"
         d="m 309.21,707.9 0,-0.03 0,-0.03 0,-0.03 -0.01,-0.03 0,-0.03 0,-0.03 0,-0.02 -0.01,-0.02 0,-0.03 -0.01,-0.02 -0.01,-0.02 -0.01,-0.02 -0.01,-0.01 -0.02,-0.02 -0.01,-0.02 -0.02,-0.01 -0.02,-0.01 -0.02,-0.01 -0.01,-0.01 -0.02,-0.01 -0.01,0 -0.01,-0.01 -0.02,0 -0.01,0 -0.02,-0.01 -0.02,0 -0.01,-0.01 -0.02,0 -0.02,0 -0.02,-0.01 -0.02,0 -0.03,0 -0.02,0 -0.02,-0.01 -0.03,0 -0.02,0 -0.03,0 -0.03,0 -0.02,0 -0.03,-0.01 -0.03,0 -0.03,0 -0.04,0 -0.03,0 -0.03,0 -0.04,0 -0.24,0 0,-0.31 5.75,0 0.42,2.57 -0.25,0 c -0.25,-1.53 -0.48,-2.26 -2.19,-2.26 l -1.33,0 c -0.47,0 -0.49,0.07 -0.49,0.4 l 0,2.66 0.9,0 c 0.97,0 1.08,-0.32 1.08,-1.17 l 0.25,0 0,2.64 -0.25,0 c 0,-0.85 -0.11,-1.16 -1.08,-1.16 l -0.9,0 0,2.39 c 0,0.33 0.02,0.4 0.49,0.4 l 1.29,0 c 1.52,0 1.79,-0.55 1.95,-1.93 l 0.25,0 -0.28,2.24 -5.61,0 0,-0.31 0.24,0 c 0.77,0 0.79,-0.11 0.79,-0.47 z"
         inkscape:connector-curvature="0"
         style="fill:#ff0000;stroke-width:0" /><path
         id="path4207"
         d="m 316.3,710.43 0,1.1 -1.39,-0.11 0,-0.31 c 0.7,0 0.78,-0.07 0.78,-0.56 l 0,-2.67 c 0,-0.45 -0.11,-0.45 -0.78,-0.45 l 0,-0.31 c 0.39,0.01 0.86,0.03 1.14,0.03 0.4,0 0.86,0 1.26,-0.03 l 0,0.31 -0.21,0 c -0.73,0 -0.75,0.11 -0.75,0.47 l 0,1.53 c 0,0.99 0.41,1.88 1.17,1.88 0.07,0 0.09,0 0.11,-0.01 -0.03,-0.01 -0.23,-0.13 -0.23,-0.39 0,-0.28 0.21,-0.43 0.43,-0.43 0.18,0 0.43,0.12 0.43,0.44 0,0.32 -0.31,0.61 -0.74,0.61 -0.73,0 -1.08,-0.67 -1.22,-1.1 z"
         inkscape:connector-curvature="0"
         style="fill:#ff0000;stroke-width:0" /><path
         id="path4209"
         d="m 320.2,710.43 0,1.1 -1.38,-0.11 0,-0.31 c 0.7,0 0.78,-0.07 0.78,-0.56 l 0,-2.67 c 0,-0.45 -0.11,-0.45 -0.78,-0.45 l 0,-0.31 c 0.39,0.01 0.86,0.03 1.13,0.03 0.4,0 0.87,0 1.27,-0.03 l 0,0.31 -0.21,0 c -0.74,0 -0.76,0.11 -0.76,0.47 l 0,1.53 c 0,0.99 0.42,1.88 1.18,1.88 0.07,0 0.09,0 0.11,-0.01 -0.03,-0.01 -0.23,-0.13 -0.23,-0.39 0,-0.28 0.21,-0.43 0.43,-0.43 0.18,0 0.43,0.12 0.43,0.44 0,0.32 -0.31,0.61 -0.74,0.61 -0.73,0 -1.09,-0.67 -1.23,-1.1 z"
         inkscape:connector-curvature="0"
         style="fill:#ff0000;stroke-width:0" /><path
         id="path4211"
         d="m 327.13,709.26 0,0.11 -0.01,0.12 -0.01,0.12 -0.02,0.11 -0.03,0.11 -0.03,0.11 -0.03,0.11 -0.04,0.11 -0.05,0.1 -0.05,0.1 -0.05,0.1 -0.06,0.09 -0.06,0.09 -0.06,0.09 -0.07,0.09 -0.08,0.08 -0.07,0.08 -0.08,0.07 -0.09,0.07 -0.08,0.06 -0.09,0.07 -0.09,0.05 -0.1,0.05 -0.1,0.05 -0.1,0.04 -0.1,0.04 -0.1,0.03 -0.11,0.03 -0.11,0.02 -0.11,0.01 -0.11,0.01 -0.11,0.01 -0.01,-0.22 c 0.44,0 0.87,-0.22 1.13,-0.65 0.26,-0.43 0.26,-1.01 0.26,-1.39 0,-0.35 0,-0.89 -0.22,-1.33 -0.22,-0.45 -0.66,-0.74 -1.16,-0.74 l 0,0 c -0.43,0 -0.87,0.21 -1.13,0.67 -0.25,0.44 -0.25,1.05 -0.25,1.4 0,0.39 0,0.93 0.24,1.37 0.26,0.46 0.73,0.67 1.13,0.67 l 0.01,0.22 c -1.25,0 -2.21,-1.09 -2.21,-2.33 0,-1.29 1.04,-2.25 2.2,-2.25 1.21,0 2.21,0.98 2.21,2.25 z"
         inkscape:connector-curvature="0"
         style="fill:#ff0000;stroke-width:0" /><path
         id="path4213"
         d="m 329.08,710.43 0,1.1 -1.38,-0.11 0,-0.31 c 0.7,0 0.78,-0.07 0.78,-0.56 l 0,-2.67 c 0,-0.45 -0.11,-0.45 -0.78,-0.45 l 0,-0.31 c 0.39,0.01 0.86,0.03 1.13,0.03 0.4,0 0.87,0 1.27,-0.03 l 0,0.31 -0.21,0 c -0.74,0 -0.76,0.11 -0.76,0.47 l 0,1.53 c 0,0.99 0.42,1.88 1.18,1.88 0.07,0 0.09,0 0.11,-0.01 -0.03,-0.01 -0.23,-0.13 -0.23,-0.39 0,-0.28 0.21,-0.43 0.43,-0.43 0.18,0 0.43,0.12 0.43,0.44 0,0.32 -0.31,0.61 -0.74,0.61 -0.73,0 -1.09,-0.67 -1.23,-1.1 z"
         inkscape:connector-curvature="0"
         style="fill:#ff0000;stroke-width:0" /><path
         id="path4215"
         d="m 337.57,708.77 0,-0.87 c 0,-0.36 -0.02,-0.47 -0.76,-0.47 l -0.2,0 0,-0.31 c 0.4,0.03 0.92,0.03 1.34,0.03 0.42,0 0.95,0 1.35,-0.03 l 0,0.31 -0.2,0 c -0.74,0 -0.76,0.11 -0.76,0.47 l 0,0.87 0.99,0 0,0.31 -0.99,0 0,4.53 c 0,0.2 0,0.26 -0.16,0.26 -0.09,0 -0.12,0 -0.2,-0.12 l -3.06,-4.67 0.28,0 2.43,3.71 0,-3.71 -2.43,0 -0.28,0 0,-0.31 z"
         inkscape:connector-curvature="0"
         style="fill:#ff0000;stroke-width:0" /><path
         id="path4217"
         d="m 344.2,710.31 0,0.15 0,0.15 0,0.15 -0.01,0.15 -0.01,0.15 -0.01,0.14 -0.01,0.15 -0.02,0.15 -0.03,0.15 -0.02,0.14 -0.04,0.15 -0.03,0.14 -0.05,0.14 -0.05,0.14 -0.05,0.14 -0.03,0.07 -0.03,0.07 c -0.46,0.96 -1.28,1.12 -1.7,1.12 -0.59,0 -1.32,-0.26 -1.73,-1.19 -0.32,-0.68 -0.37,-1.46 -0.37,-2.26 0,-0.75 0.04,-1.64 0.45,-2.4 0.43,-0.81 1.15,-1.01 1.64,-1.01 l 0,0.22 c -0.39,0 -0.97,0.25 -1.15,1.21 -0.11,0.6 -0.11,1.51 -0.11,2.1 0,0.64 0,1.29 0.08,1.83 0.19,1.19 0.93,1.28 1.18,1.28 0.33,0 0.99,-0.18 1.18,-1.17 0.1,-0.55 0.1,-1.31 0.1,-1.94 0,-0.75 0,-1.42 -0.11,-2.06 -0.15,-0.95 -0.72,-1.25 -1.17,-1.25 l 0,0 0,-0.22 c 0.54,0 1.3,0.21 1.74,1.16 0.31,0.69 0.36,1.46 0.36,2.25 z"
         inkscape:connector-curvature="0"
         style="fill:#ff0000;stroke-width:0" /><path
         id="path4219"
         d="m 347.53,708.77 0,-0.87 c 0,-0.36 -0.02,-0.47 -0.76,-0.47 l -0.2,0 0,-0.31 c 0.4,0.03 0.92,0.03 1.34,0.03 0.42,0 0.95,0 1.36,-0.03 l 0,0.31 -0.21,0 c -0.74,0 -0.76,0.11 -0.76,0.47 l 0,0.87 1,0 0,0.31 -1,0 0,4.53 c 0,0.2 0,0.26 -0.16,0.26 -0.09,0 -0.12,0 -0.2,-0.12 l -3.06,-4.67 0.28,0 2.43,3.71 0,-3.71 -2.43,0 -0.28,0 0,-0.31 z"
         inkscape:connector-curvature="0"
         style="fill:#ff0000;stroke-width:0" /><path
         id="path4221"
         d="m 352.83,714.24 0,0.03 0,0.03 0,0.04 0,0.01 0,0.02 0,0.01 0,0.02 -0.01,0.01 0,0.02 0,0.01 0,0.02 -0.01,0.01 0,0.01 -0.01,0.01 0,0.02 -0.01,0.01 -0.01,0.01 0,0.01 -0.01,0.01 -0.01,0.01 -0.01,0 -0.01,0.01 -0.01,0 -0.01,0.01 0,0 -0.01,0 0,0 -0.01,0.01 -0.01,0 -0.01,0 0,0 -0.01,0 -0.01,0 -0.01,0 -0.01,0 -0.01,0 c -0.2,0 -0.2,-0.18 -0.2,-0.35 l 0,-9.25 c 0,-0.18 0,-0.36 0.2,-0.36 0.2,0 0.2,0.18 0.2,0.36 z"
         inkscape:connector-curvature="0"
         style="fill:#000000;stroke-width:0" /><path
         id="path4223"
         d="m 358.6,710.31 0,0.15 0,0.15 -0.01,0.15 -0.01,0.15 0,0.15 -0.02,0.14 -0.01,0.15 -0.02,0.15 -0.02,0.15 -0.03,0.14 -0.03,0.15 -0.04,0.14 -0.04,0.14 -0.05,0.14 -0.06,0.14 -0.03,0.07 -0.03,0.07 c -0.46,0.96 -1.28,1.12 -1.69,1.12 -0.6,0 -1.33,-0.26 -1.74,-1.19 -0.32,-0.68 -0.37,-1.46 -0.37,-2.26 0,-0.75 0.04,-1.64 0.45,-2.4 0.43,-0.81 1.16,-1.01 1.65,-1.01 l 0,0.22 c -0.39,0 -0.98,0.25 -1.16,1.21 -0.11,0.6 -0.11,1.51 -0.11,2.1 0,0.64 0,1.29 0.08,1.83 0.19,1.19 0.94,1.28 1.19,1.28 0.32,0 0.98,-0.18 1.17,-1.17 0.1,-0.55 0.1,-1.31 0.1,-1.94 0,-0.75 0,-1.42 -0.11,-2.06 -0.15,-0.95 -0.72,-1.25 -1.16,-1.25 l 0,0 0,-0.22 c 0.53,0 1.29,0.21 1.73,1.16 0.32,0.69 0.37,1.46 0.37,2.25 z"
         inkscape:connector-curvature="0"
         style="fill:#000000;stroke-width:0" /><path
         id="path4225"
         d="m 361.71,709.44 0.01,0.01 0,0 0,0.01 0,0.01 0.01,0 0,0 0,0.01 0,0 0,0.01 0,0 0.01,0.01 0,0 0,0.01 0,0.01 0.01,0 0,0.01 0,0.01 0,0 0,0.01 0.01,0 0,0.01 0,0 0,0.01 0,0 0,0 0,0.01 0,0 0,0 0,0.01 0,0 0,0.01 0,0 0.01,0.01 0,0 c 0,0.03 0,0.05 -0.06,0.17 l -1.74,4.58 c -0.06,0.17 -0.12,0.23 -0.23,0.23 -0.11,0 -0.2,-0.08 -0.2,-0.19 0,-0.04 0,-0.06 0.05,-0.16 l 1.77,-4.63 -1.77,-4.6 c -0.05,-0.11 -0.05,-0.13 -0.05,-0.18 0,-0.11 0.09,-0.2 0.2,-0.2 0.13,0 0.17,0.1 0.21,0.2 z"
         inkscape:connector-curvature="0"
         style="fill:#000000;stroke-width:0" /></g>    <rect
       y="752.36218"
       x="0"
       height="300"
       width="1200"
       id="rect3143"
       style="fill:#000000;fill-opacity:0.14619882;stroke:none" />
  </g>
</svg>
