<?xml version="1.0" encoding="UTF-8" standalone="no"?>
<!-- Created with Inkscape (http://www.inkscape.org/) -->

<svg
   xmlns:ns0="http://www.iki.fi/pav/software/textext/"
   xmlns:dc="http://purl.org/dc/elements/1.1/"
   xmlns:cc="http://creativecommons.org/ns#"
   xmlns:rdf="http://www.w3.org/1999/02/22-rdf-syntax-ns#"
   xmlns:svg="http://www.w3.org/2000/svg"
   xmlns="http://www.w3.org/2000/svg"
   xmlns:sodipodi="http://sodipodi.sourceforge.net/DTD/sodipodi-0.dtd"
   xmlns:inkscape="http://www.inkscape.org/namespaces/inkscape"
   width="1200"
   height="300"
   id="svg2"
   version="1.1"
   inkscape:version="0.48.4 r9939"
   sodipodi:docname="404.svg">
  <sodipodi:namedview
     id="base"
     pagecolor="#ffffff"
     bordercolor="#666666"
     borderopacity="1.0"
     inkscape:pageopacity="0.0"
     inkscape:pageshadow="2"
     inkscape:zoom="0.7"
     inkscape:cx="572.49315"
     inkscape:cy="41.790444"
     inkscape:document-units="px"
     inkscape:current-layer="layer1"
     showgrid="false"
     inkscape:window-width="1366"
     inkscape:window-height="705"
     inkscape:window-x="-8"
     inkscape:window-y="-8"
     inkscape:window-maximized="1" />
  <defs
     id="defs4" />
  <metadata
     id="metadata7">
    <rdf:RDF>
      <cc:Work
         rdf:about="">
        <dc:format>image/svg+xml</dc:format>
        <dc:type
           rdf:resource="http://purl.org/dc/dcmitype/StillImage" />
        <dc:title></dc:title>
      </cc:Work>
    </rdf:RDF>
  </metadata>
  <g
     transform="translate(0,-752.36218)"
     inkscape:label="Layer 1"
     inkscape:groupmode="layer"
     id="layer1">
    <g
       style="font-style:normal;font-variant:normal;font-weight:normal;font-stretch:normal;letter-spacing:normal;word-spacing:normal;text-anchor:start;fill:#4d4d4d;stroke:#000000;stroke-width:0.11560896;stroke-linecap:butt;stroke-linejoin:miter;stroke-miterlimit:10.43299961;stroke-opacity:1;stroke-dasharray:none;stroke-dashoffset:0"
       ns0:preamble="C:\\Program Files (x86)\\Inkscape\\share\\extensions\\textext_preamble.tex"
       ns0:text="$\\mathbf{1}_{\\mbox{web}}\\left|\\psi_{\\mbox{request}}\\right\\rangle =\\mbox{Error 404}\\left|0\\right\\rangle $"
       word-spacing="normal"
       letter-spacing="normal"
       font-size-adjust="none"
       font-stretch="normal"
       font-weight="normal"
       font-variant="normal"
       font-style="normal"
       stroke-miterlimit="10.433"
       xml:space="preserve"
       transform="matrix(8.2816755,0,0,-9.0343925,-1832.4109,7299.8865)"
       id="content">
<path
   id="path3052"
   d="m 226.95,711.82 0,0.02 0,0.02 0,0.02 0,0.02 0,0.01 0,0.02 0,0.02 0,0.01 0,0.02 0,0.01 -0.01,0.01 0,0.02 0,0.01 -0.01,0.01 0,0.01 -0.01,0.01 0,0.01 -0.01,0.01 -0.01,0.01 -0.01,0 -0.01,0.01 -0.01,0.01 -0.01,0 0,0 -0.01,0.01 -0.01,0 0,0 -0.01,0 -0.01,0.01 0,0 -0.01,0 -0.01,0 -0.01,0 -0.01,0 -0.01,0 -0.01,0.01 -0.01,0 -0.01,0 -0.01,0 -0.01,0 -0.01,0 -0.01,0 c -0.11,0 -0.13,0 -0.22,-0.07 -0.77,-0.57 -1.79,-0.57 -2,-0.57 h -0.2 v -0.47 h 0.2 c 0.16,0 0.7,0.01 1.29,0.2 v -5.13 h -1.38 v -0.47 c 0.43,0.03 1.49,0.03 1.98,0.03 0.48,0 1.54,0 1.98,-0.03 v 0.47 h -1.4 z"
   inkscape:connector-curvature="0"
   style="fill:#4d4d4d;stroke-width:0" />
<path
   id="path3054"
   d="m 235.32,705.48 0.02,0.05 0.02,0.04 0.01,0.04 0.02,0.04 0.02,0.04 0.02,0.03 0.03,0.04 0.02,0.03 0.02,0.03 0.02,0.03 0.03,0.02 0.02,0.03 0.03,0.02 0.02,0.02 0.03,0.02 0.02,0.02 0.03,0.02 0.03,0.02 0.03,0.01 0.03,0.01 0.02,0.02 0.03,0.01 0.03,0.01 0.03,0 0.03,0.01 0.03,0.01 0.04,0 0.03,0.01 0.03,0 0.03,0 0.03,0.01 0.03,0 v 0.3 c -0.21,-0.01 -0.5,-0.02 -0.72,-0.02 -0.29,0 -0.74,0.02 -0.93,0.02 v -0.3 c 0.36,-0.01 0.58,-0.19 0.58,-0.48 0,-0.06 0,-0.08 -0.05,-0.21 l -0.9,-2.54 -0.99,2.77 c -0.04,0.12 -0.05,0.14 -0.05,0.19 0,0.27 0.39,0.27 0.59,0.27 v 0.3 c -0.29,0 -0.8,-0.02 -1.04,-0.02 -0.29,0 -0.58,0.01 -0.88,0.02 v -0.3 c 0.37,0 0.53,-0.02 0.62,-0.15 0.05,-0.06 0.16,-0.36 0.23,-0.55 l -0.85,-2.4 -0.95,2.65 c -0.05,0.12 -0.05,0.14 -0.05,0.18 0,0.27 0.39,0.27 0.59,0.27 v 0.3 c -0.3,0 -0.86,-0.02 -1.09,-0.02 -0.03,0 -0.56,0.01 -0.92,0.02 v -0.3 c 0.5,0 0.62,-0.03 0.74,-0.35 l 1.25,-3.52 c 0.05,-0.14 0.08,-0.22 0.21,-0.22 0.13,0 0.15,0.06 0.2,0.2 l 1,2.81 1.02,-2.82 c 0.04,-0.11 0.07,-0.19 0.2,-0.19 0.13,0 0.16,0.09 0.2,0.19 z"
   inkscape:connector-curvature="0"
   style="fill:#4d4d4d;stroke-width:0" />
<path
   id="path3056"
   d="m 237.18,704.44 0.01,0.21 c 0.06,1.48 0.9,1.73 1.24,1.73 1.02,0 1.12,-1.35 1.12,-1.73 h -2.36 l -0.01,-0.21 h 2.78 c 0.22,0 0.25,0 0.25,0.21 0,0.98 -0.54,1.94 -1.78,1.94 -1.16,0 -2.07,-1.02 -2.07,-2.26 0,-1.33 1.04,-2.3 2.18,-2.3 1.22,0 1.67,1.11 1.67,1.3 0,0.09 -0.08,0.12 -0.13,0.12 -0.09,0 -0.11,-0.06 -0.13,-0.14 -0.35,-1.03 -1.25,-1.03 -1.35,-1.03 -0.49,0 -0.89,0.3 -1.12,0.67 -0.3,0.47 -0.3,1.13 -0.3,1.49 z"
   inkscape:connector-curvature="0"
   style="fill:#4d4d4d;stroke-width:0" />
<path
   id="path3058"
   d="m 242.22,705.89 v 3.15 l -1.44,-0.11 v -0.31 c 0.7,0 0.78,-0.07 0.78,-0.55 v -5.93 h 0.25 c 0.01,0.01 0.09,0.15 0.36,0.62 0.15,-0.23 0.56,-0.73 1.3,-0.73 l -0.04,0.22 c -0.45,0 -0.81,0.24 -1.05,0.61 -0.14,0.21 -0.14,0.24 -0.14,0.42 h 0 v 2.04 c 0,0.19 0,0.2 0.11,0.36 0.39,0.56 0.94,0.64 1.18,0.64 0.45,0 0.81,-0.26 1.04,-0.64 0.26,-0.41 0.29,-0.97 0.29,-1.38 0,-0.37 -0.02,-0.96 -0.31,-1.41 -0.2,-0.31 -0.58,-0.64 -1.12,-0.64 l 0.04,-0.22 c 1.18,0 2.22,0.98 2.22,2.26 0,1.26 -0.98,2.24 -2.11,2.24 -0.78,0 -1.2,-0.46 -1.36,-0.64 z"
   inkscape:connector-curvature="0"
   style="fill:#4d4d4d;stroke-width:0" />
<path
   id="path3060"
   d="m 249.64,711.29 0,-0.03 0,-0.03 0,-0.04 0.01,-0.01 0,-0.02 0,-0.01 0,-0.02 0,-0.01 0,-0.02 0.01,-0.01 0,-0.02 0,-0.01 0.01,-0.02 0,-0.01 0.01,-0.01 0.01,-0.01 0,-0.02 0.01,-0.01 0.01,-0.01 0.01,-0.01 0.01,-0.01 0.01,0 0,0 0.01,-0.01 0.01,0 0,0 0.01,-0.01 0.01,0 0,0 0.01,0 0.01,-0.01 0.01,0 0.01,0 0,0 0.01,0 0.01,0 0.01,0 c 0.22,0 0.22,0.2 0.22,0.37 v 5.64 c 0,0.16 0,0.37 -0.21,0.37 -0.22,0 -0.22,-0.2 -0.22,-0.37 z"
   inkscape:connector-curvature="0"
   style="fill:#4d4d4d;stroke-width:0" />
<path
   id="path3062"
   d="m 249.64,705.31 0,-0.03 0,-0.03 0,-0.03 0.01,-0.02 0,-0.02 0,-0.01 0,-0.02 0,-0.01 0,-0.02 0.01,-0.01 0,-0.02 0,-0.01 0.01,-0.01 0,-0.02 0.01,-0.01 0.01,-0.01 0,-0.01 0.01,-0.02 0.01,-0.01 0.01,-0.01 0.01,0 0.01,-0.01 0,0 0.01,-0.01 0.01,0 0,0 0.01,0 0.01,-0.01 0,0 0.01,0 0.01,0 0.01,-0.01 0.01,0 0,0 0.01,0 0.01,0 0.01,0 c 0.22,0 0.22,0.2 0.22,0.37 v 5.64 c 0,0.16 0,0.37 -0.21,0.37 -0.22,0 -0.22,-0.2 -0.22,-0.37 z"
   inkscape:connector-curvature="0"
   style="fill:#4d4d4d;stroke-width:0" />
<path
   id="path3064"
   d="m 249.64,699.33 0,-0.03 0,-0.03 0,-0.03 0.01,-0.02 0,-0.01 0,-0.02 0,-0.01 0,-0.02 0,-0.02 0.01,-0.01 0,-0.01 0,-0.02 0.01,-0.01 0,-0.02 0.01,-0.01 0.01,-0.01 0,-0.01 0.01,-0.01 0.01,-0.01 0.01,-0.01 0.01,-0.01 0.01,-0.01 0,0 0.01,0 0.01,-0.01 0,0 0.01,0 0.01,-0.01 0,0 0.01,0 0.01,0 0.01,0 0.01,0 0,-0.01 0.01,0 0.01,0 0.01,0 c 0.22,0 0.22,0.2 0.22,0.37 v 5.64 c 0,0.16 0,0.37 -0.21,0.37 -0.22,0 -0.22,-0.2 -0.22,-0.37 z"
   inkscape:connector-curvature="0"
   style="fill:#4d4d4d;stroke-width:0" />
<path
   id="path3066"
   d="m 256.32,712.27 0,0 0,0 0,0.01 0,0.01 0.01,0.01 0,0.01 0,0.01 0,0.01 0.01,0.01 0,0.01 0,0.01 0,0.01 0,0.01 0,0.01 0.01,0.01 0,0.01 0,0 0,0.01 c 0,0.1 -0.07,0.11 -0.12,0.11 -0.1,0 -0.11,-0.02 -0.15,-0.2 l -1.65,-6.57 c -0.76,0.09 -1.14,0.46 -1.14,1.11 0,0.2 0,0.46 0.54,1.85 0.04,0.12 0.11,0.29 0.11,0.49 0,0.44 -0.32,0.81 -0.82,0.81 -0.94,0 -1.31,-1.44 -1.31,-1.53 0,-0.1 0.1,-0.1 0.12,-0.1 0.1,0 0.11,0.02 0.16,0.18 0.27,0.95 0.67,1.23 1,1.23 0.08,0 0.25,0 0.25,-0.32 0,-0.25 -0.1,-0.5 -0.23,-0.85 -0.48,-1.25 -0.48,-1.51 -0.48,-1.68 0,-0.94 0.78,-1.35 1.74,-1.41 -0.08,-0.36 -0.08,-0.38 -0.22,-0.9 -0.03,-0.11 -0.23,-0.92 -0.23,-0.95 0,-0.01 0,-0.1 0.12,-0.1 0.02,0 0.07,0 0.09,0.04 0.03,0.02 0.09,0.27 0.12,0.41 l 0.38,1.48 c 0.36,0 1.24,0 2.17,1.07 0.41,0.45 0.62,0.89 0.73,1.19 0.09,0.25 0.31,1.11 0.31,1.55 0,0.55 -0.27,0.69 -0.44,0.69 -0.25,0 -0.5,-0.26 -0.5,-0.48 0,-0.12 0.06,-0.18 0.15,-0.26 0.11,-0.11 0.36,-0.37 0.36,-0.85 0,-0.63 -0.52,-1.45 -0.86,-1.81 -0.88,-0.88 -1.52,-0.88 -1.87,-0.88 z"
   inkscape:connector-curvature="0"
   style="fill:#4d4d4d;stroke-width:0" />
<path
   id="path3068"
   d="m 259.67,706.23 v 1.1 l -1.38,-0.11 v -0.31 c 0.7,0 0.78,-0.07 0.78,-0.56 v -2.66 c 0,-0.45 -0.11,-0.45 -0.78,-0.45 v -0.31 c 0.39,0.01 0.85,0.03 1.13,0.03 0.4,0 0.87,0 1.27,-0.03 v 0.31 h -0.21 c -0.74,0 -0.76,0.11 -0.76,0.47 v 1.53 c 0,0.98 0.42,1.87 1.18,1.87 0.07,0 0.09,0 0.11,-0.01 -0.03,-0.01 -0.23,-0.13 -0.23,-0.39 0,-0.28 0.21,-0.43 0.42,-0.43 0.18,0 0.43,0.12 0.43,0.44 0,0.32 -0.31,0.61 -0.73,0.61 -0.73,0 -1.09,-0.67 -1.23,-1.1 z"
   inkscape:connector-curvature="0"
   style="fill:#4d4d4d;stroke-width:0" />
<path
   id="path3070"
   d="m 263.02,705.23 0.01,0.21 c 0.06,1.48 0.89,1.73 1.23,1.73 1.03,0 1.13,-1.34 1.13,-1.73 h -2.36 l -0.01,-0.21 h 2.77 c 0.22,0 0.25,0 0.25,0.21 0,0.98 -0.53,1.94 -1.78,1.94 -1.15,0 -2.07,-1.02 -2.07,-2.26 0,-1.33 1.05,-2.29 2.19,-2.29 1.22,0 1.66,1.1 1.66,1.29 0,0.1 -0.08,0.11 -0.13,0.11 -0.09,0 -0.11,-0.05 -0.13,-0.13 -0.35,-1.03 -1.24,-1.03 -1.34,-1.03 -0.5,0 -0.89,0.3 -1.12,0.67 -0.3,0.48 -0.3,1.13 -0.3,1.49 z"
   inkscape:connector-curvature="0"
   style="fill:#4d4d4d;stroke-width:0" />
<path
   id="path3072"
   d="m 270.12,703.54 v -1.78 c 0,-0.44 -0.11,-0.44 -0.77,-0.44 v -0.31 c 0.33,0.01 0.85,0.03 1.11,0.03 0.27,0 0.78,-0.02 1.12,-0.03 v 0.31 c -0.66,0 -0.77,0 -0.77,0.44 v 5.57 h -0.22 l -0.38,-0.91 c -0.13,0.28 -0.54,0.91 -1.33,0.91 -1.16,0 -2.2,-0.97 -2.2,-2.26 0,-1.24 0.96,-2.24 2.12,-2.24 l 0.04,0.21 c -0.73,0 -1.33,0.89 -1.33,2.03 0,1.18 0.69,2.01 1.43,2.01 0.79,0 1.21,-0.87 1.21,-1.39 h 0 v -1.41 c 0,-0.31 -0.18,-0.59 -0.4,-0.83 -0.13,-0.14 -0.44,-0.41 -0.91,-0.41 l -0.04,-0.21 c 0.69,0 1.1,0.42 1.32,0.71 z"
   inkscape:connector-curvature="0"
   style="fill:#4d4d4d;stroke-width:0" />
<path
   id="path3074"
   d="m 275.49,703.72 v -0.89 l 1.43,0.1 v 0.31 c -0.69,0 -0.77,0.07 -0.77,0.56 v 3.53 l -1.47,-0.11 v -0.31 c 0.7,0 0.78,-0.07 0.78,-0.56 v -1.77 c 0,-0.86 -0.48,-1.54 -1.2,-1.54 -0.84,0 -0.88,0.47 -0.88,0.99 v 3.3 l -1.46,-0.11 v -0.31 c 0.77,0 0.77,-0.03 0.77,-0.92 v -1.49 c 0,-0.77 0,-1.67 1.52,-1.67 0.55,0 0.99,0.27 1.28,0.89 z"
   inkscape:connector-curvature="0"
   style="fill:#4d4d4d;stroke-width:0" />
<path
   id="path3076"
   d="m 278.24,705.23 0.01,0.21 c 0.06,1.48 0.89,1.73 1.23,1.73 1.03,0 1.13,-1.34 1.13,-1.73 h -2.36 l -0.01,-0.21 h 2.77 c 0.22,0 0.25,0 0.25,0.21 0,0.98 -0.53,1.94 -1.78,1.94 -1.15,0 -2.07,-1.02 -2.07,-2.26 0,-1.33 1.05,-2.29 2.19,-2.29 1.22,0 1.66,1.1 1.66,1.29 0,0.1 -0.08,0.11 -0.13,0.11 -0.09,0 -0.11,-0.05 -0.13,-0.13 -0.34,-1.03 -1.24,-1.03 -1.34,-1.03 -0.5,0 -0.89,0.3 -1.12,0.67 -0.3,0.48 -0.3,1.13 -0.3,1.49 z"
   inkscape:connector-curvature="0"
   style="fill:#4d4d4d;stroke-width:0" />
<path
   id="path3078"
   d="m 283.63,704.86 0.02,0 0.03,-0.01 0.03,0 0.03,-0.01 0.03,-0.01 0.04,-0.01 0.04,-0.01 0.04,-0.01 0.04,-0.01 0.04,-0.01 0.04,-0.02 0.04,-0.02 0.05,-0.02 0.04,-0.02 0.05,-0.02 0.04,-0.02 0.04,-0.03 0.05,-0.03 0.04,-0.03 0.04,-0.03 0.03,-0.04 0.04,-0.03 0.03,-0.04 0.04,-0.04 0.02,-0.05 0.02,-0.02 0.01,-0.03 0.01,-0.02 0.01,-0.03 0.01,-0.02 0.01,-0.03 0.01,-0.03 0.01,-0.03 0,-0.03 0.01,-0.03 0,-0.03 0,-0.03 0.01,-0.03 0,-0.03 c 0,-0.51 -0.35,-0.91 -1.13,-0.91 -0.83,0 -1.19,0.57 -1.38,1.41 -0.03,0.13 -0.04,0.17 -0.14,0.17 -0.13,0 -0.13,-0.07 -0.13,-0.25 v -1.31 c 0,-0.17 0,-0.23 0.11,-0.23 0.05,0 0.06,0.01 0.25,0.19 0.02,0.02 0.02,0.04 0.2,0.23 0.44,-0.41 0.88,-0.42 1.09,-0.42 1.15,0 1.6,0.66 1.6,1.38 0,0.52 -0.29,0.82 -0.41,0.94 -0.33,0.32 -0.72,0.4 -1.14,0.48 -0.56,0.1 -1.22,0.23 -1.22,0.81 0,0.35 0.26,0.76 1.11,0.76 1.1,0 1.15,-0.9 1.17,-1.21 0.01,-0.09 0.09,-0.09 0.12,-0.09 0.12,0 0.12,0.05 0.12,0.24 v 1.01 c 0,0.17 0,0.23 -0.1,0.23 -0.06,0 -0.08,0 -0.2,-0.11 -0.03,-0.05 -0.13,-0.13 -0.17,-0.16 -0.38,0.27 -0.79,0.27 -0.94,0.27 -1.21,0 -1.59,-0.66 -1.59,-1.22 0,-0.34 0.16,-0.62 0.43,-0.84 0.32,-0.26 0.6,-0.32 1.31,-0.46 z"
   inkscape:connector-curvature="0"
   style="fill:#4d4d4d;stroke-width:0" />
<path
   id="path3080"
   d="m 287.21,706.91 h 1.43 v 0.31 h -1.43 v 1.82 h -0.25 c -0.01,-0.81 -0.31,-1.87 -1.28,-1.91 v -0.22 h 0.85 v -2.74 c 0,-1.23 0.92,-1.34 1.28,-1.34 0.71,0 0.98,0.7 0.98,1.34 v 0.56 h -0.24 v -0.54 c 0,-0.74 -0.3,-1.12 -0.67,-1.12 -0.67,0 -0.67,0.91 -0.67,1.08 z"
   inkscape:connector-curvature="0"
   style="fill:#4d4d4d;stroke-width:0" />
<path
   id="path3082"
   d="m 290.8,699.64 0,0 -0.01,-0.01 0,0 0,-0.01 0,-0.01 -0.01,-0.01 0,-0.01 -0.01,-0.01 0,0 0,-0.01 0,-0.01 -0.01,0 0,-0.01 0,-0.01 0,0 -0.01,-0.01 0,0 0,-0.01 0,0 0,-0.01 0,0 0,-0.01 -0.01,0 0,0 0,-0.01 0,-0.01 0,-0.01 0,-0.01 0,0 0,-0.01 c 0,-0.16 0.13,-0.23 0.23,-0.23 0.16,0 0.2,0.08 0.26,0.23 l 3.53,8.51 c 0.05,0.12 0.06,0.14 0.06,0.19 0,0.06 -0.01,0.07 -0.06,0.19 l -3.53,8.51 c -0.06,0.15 -0.1,0.24 -0.26,0.24 -0.1,0 -0.23,-0.08 -0.23,-0.24 0,-0.05 0.01,-0.07 0.06,-0.19 l 3.53,-8.5 z"
   inkscape:connector-curvature="0"
   style="fill:#4d4d4d;stroke-width:0" />
<path
   id="path3084"
   d="m 305.55,708.88 0.03,0 0.03,0 0.03,0 0.02,0 0.01,0 0.01,0 0.02,0.01 0.01,0 0.02,0 0.01,0 0.01,0.01 0.02,0 0.01,0 0.01,0.01 0.01,0 0.01,0.01 0.01,0.01 0.01,0.01 0.01,0 0.01,0.01 0.01,0.01 0,0.01 0.01,0 0,0.01 0,0.01 0.01,0 0,0.01 0,0.01 0,0 0.01,0.01 0,0.01 0,0 0,0.01 0,0.01 0,0.01 0,0.01 0,0.01 c 0,0.2 -0.19,0.2 -0.33,0.2 h -5.96 c -0.14,0 -0.32,0 -0.32,-0.2 0,-0.2 0.18,-0.2 0.33,-0.2 z"
   inkscape:connector-curvature="0"
   style="fill:#4d4d4d;stroke-width:0" />
<path
   id="path3086"
   d="m 305.56,706.95 0.02,0 0.01,0 0.03,0 0.03,0 0.01,0 0.01,0.01 0.02,0 0.01,0 0.02,0 0.01,0 0.01,0.01 0.02,0 0.01,0 0.01,0.01 0.01,0 0.01,0.01 0.01,0 0.01,0.01 0.01,0.01 0.01,0.01 0.01,0.01 0.01,0 0,0.01 0,0 0.01,0.01 0,0 0,0.01 0.01,0.01 0,0 0,0.01 0,0.01 0.01,0 0,0.01 0,0.01 0,0.01 0,0 0,0.01 0,0.01 0,0.01 c 0,0.2 -0.19,0.2 -0.34,0.2 h -5.94 c -0.15,0 -0.33,0 -0.33,-0.2 0,-0.2 0.18,-0.2 0.32,-0.2 z"
   inkscape:connector-curvature="0"
   style="fill:#4d4d4d;stroke-width:0" />
<path
   id="path3088"
   d="m 310.59,706.41 0,-0.04 0,-0.03 0,-0.03 0,-0.03 0,-0.02 -0.01,-0.03 0,-0.02 0,-0.03 -0.01,-0.02 -0.01,-0.02 -0.01,-0.02 -0.01,-0.02 -0.01,-0.02 -0.01,-0.01 -0.02,-0.02 -0.01,-0.01 -0.02,-0.01 -0.03,-0.02 -0.01,0 -0.01,-0.01 -0.02,0 -0.01,-0.01 -0.01,0 -0.02,-0.01 -0.02,0 -0.01,0 -0.02,-0.01 -0.02,0 -0.02,-0.01 -0.02,0 -0.02,0 -0.02,0 -0.02,-0.01 -0.03,0 -0.02,0 -0.03,0 -0.02,0 -0.03,-0.01 -0.03,0 -0.03,0 -0.03,0 -0.03,0 -0.03,0 -0.04,0 -0.03,0 -0.04,0 h -0.23 v -0.31 h 5.74 l 0.41,2.56 h -0.24 c -0.25,-1.53 -0.48,-2.25 -2.19,-2.25 h -1.33 c -0.46,0 -0.48,0.07 -0.48,0.4 v 2.65 h 0.89 c 0.97,0 1.08,-0.32 1.08,-1.16 h 0.25 v 2.63 h -0.25 c 0,-0.86 -0.11,-1.16 -1.08,-1.16 h -0.89 v 2.38 c 0,0.33 0.02,0.4 0.48,0.4 h 1.29 c 1.52,0 1.79,-0.55 1.95,-1.93 h 0.25 l -0.28,2.24 h -5.6 v -0.31 h 0.23 c 0.77,0 0.79,-0.11 0.79,-0.47 z"
   inkscape:connector-curvature="0"
   style="fill:#ff0000;stroke-width:0" />
<path
   id="path3090"
   d="m 317.68,708.93 v 1.09 l -1.38,-0.11 v -0.31 c 0.69,0 0.77,-0.07 0.77,-0.55 v -2.66 c 0,-0.45 -0.11,-0.45 -0.77,-0.45 v -0.31 c 0.38,0.01 0.85,0.03 1.13,0.03 0.4,0 0.87,0 1.26,-0.03 v 0.31 h -0.21 c -0.73,0 -0.75,0.11 -0.75,0.47 v 1.53 c 0,0.98 0.42,1.86 1.17,1.86 0.07,0 0.09,0 0.11,-0.01 -0.03,-0.01 -0.23,-0.13 -0.23,-0.38 0,-0.28 0.21,-0.43 0.43,-0.43 0.18,0 0.43,0.12 0.43,0.44 0,0.31 -0.31,0.6 -0.74,0.6 -0.72,0 -1.08,-0.66 -1.22,-1.09 z"
   inkscape:connector-curvature="0"
   style="fill:#ff0000;stroke-width:0" />
<path
   id="path3092"
   d="m 321.58,708.93 v 1.09 l -1.38,-0.11 v -0.31 c 0.69,0 0.78,-0.07 0.78,-0.55 v -2.66 c 0,-0.45 -0.11,-0.45 -0.78,-0.45 v -0.31 c 0.39,0.01 0.85,0.03 1.13,0.03 0.4,0 0.87,0 1.27,-0.03 v 0.31 h -0.21 c -0.74,0 -0.76,0.11 -0.76,0.47 v 1.53 c 0,0.98 0.42,1.86 1.18,1.86 0.07,0 0.08,0 0.11,-0.01 -0.03,-0.01 -0.23,-0.13 -0.23,-0.38 0,-0.28 0.2,-0.43 0.42,-0.43 0.18,0 0.43,0.12 0.43,0.44 0,0.31 -0.31,0.6 -0.73,0.6 -0.73,0 -1.09,-0.66 -1.23,-1.09 z"
   inkscape:connector-curvature="0"
   style="fill:#ff0000;stroke-width:0" />
<path
   id="path3094"
   d="m 328.51,707.76 0,0.12 -0.01,0.11 -0.02,0.12 -0.02,0.11 -0.02,0.11 -0.03,0.11 -0.04,0.11 -0.04,0.11 -0.04,0.1 -0.05,0.1 -0.05,0.1 -0.06,0.09 -0.06,0.09 -0.07,0.09 -0.07,0.08 -0.07,0.09 -0.08,0.07 -0.08,0.08 -0.08,0.07 -0.09,0.06 -0.08,0.06 -0.1,0.06 -0.09,0.05 -0.1,0.05 -0.1,0.04 -0.1,0.04 -0.1,0.03 -0.11,0.02 -0.11,0.02 -0.11,0.02 -0.11,0.01 -0.11,0 -0.01,-0.22 c 0.44,0 0.87,-0.22 1.12,-0.64 0.26,-0.43 0.26,-1.01 0.26,-1.38 0,-0.36 0,-0.9 -0.22,-1.33 -0.22,-0.45 -0.65,-0.74 -1.15,-0.74 h 0 c -0.43,0 -0.86,0.21 -1.13,0.67 -0.25,0.43 -0.25,1.04 -0.25,1.4 0,0.38 0,0.92 0.24,1.36 0.26,0.45 0.73,0.66 1.13,0.66 l 0.01,0.22 c -1.24,0 -2.21,-1.08 -2.21,-2.32 0,-1.29 1.04,-2.24 2.2,-2.24 1.2,0 2.21,0.97 2.21,2.24 z"
   inkscape:connector-curvature="0"
   style="fill:#ff0000;stroke-width:0" />
<path
   id="path3096"
   d="m 330.47,708.93 v 1.09 l -1.39,-0.11 v -0.31 c 0.7,0 0.78,-0.07 0.78,-0.55 v -2.66 c 0,-0.45 -0.11,-0.45 -0.78,-0.45 v -0.31 c 0.39,0.01 0.86,0.03 1.14,0.03 0.39,0 0.86,0 1.26,-0.03 v 0.31 h -0.21 c -0.73,0 -0.75,0.11 -0.75,0.47 v 1.53 c 0,0.98 0.41,1.86 1.17,1.86 0.07,0 0.09,0 0.11,-0.01 -0.03,-0.01 -0.23,-0.13 -0.23,-0.38 0,-0.28 0.21,-0.43 0.43,-0.43 0.18,0 0.43,0.12 0.43,0.44 0,0.31 -0.31,0.6 -0.74,0.6 -0.73,0 -1.08,-0.66 -1.22,-1.09 z"
   inkscape:connector-curvature="0"
   style="fill:#ff0000;stroke-width:0" />
<path
   id="path3098"
   d="m 338.95,707.27 v -0.86 c 0,-0.36 -0.02,-0.47 -0.76,-0.47 h -0.21 v -0.31 c 0.41,0.03 0.93,0.03 1.35,0.03 0.41,0 0.94,0 1.35,-0.03 v 0.31 h -0.21 c -0.74,0 -0.76,0.11 -0.76,0.47 v 0.86 h 1 v 0.31 h -1 v 4.52 c 0,0.2 0,0.26 -0.15,0.26 -0.09,0 -0.12,0 -0.2,-0.12 l -3.06,-4.66 h 0.28 l 2.43,3.7 v -3.7 h -2.43 -0.28 v -0.31 z"
   inkscape:connector-curvature="0"
   style="fill:#ff0000;stroke-width:0" />
<path
   id="path3100"
   d="m 345.58,708.81 0,0.15 0,0.15 0,0.15 -0.01,0.15 -0.01,0.14 -0.01,0.15 -0.02,0.15 -0.02,0.14 -0.02,0.15 -0.03,0.15 -0.03,0.14 -0.04,0.14 -0.04,0.14 -0.05,0.15 -0.05,0.14 -0.03,0.06 -0.04,0.07 c -0.45,0.96 -1.27,1.12 -1.69,1.12 -0.59,0 -1.32,-0.26 -1.73,-1.18 -0.32,-0.69 -0.37,-1.47 -0.37,-2.26 0,-0.74 0.04,-1.64 0.45,-2.39 0.43,-0.81 1.15,-1.01 1.64,-1.01 v 0.22 c -0.38,0 -0.97,0.25 -1.15,1.2 -0.11,0.6 -0.11,1.51 -0.11,2.1 0,0.64 0,1.29 0.08,1.83 0.19,1.18 0.93,1.27 1.18,1.27 0.33,0 0.99,-0.18 1.18,-1.16 0.1,-0.56 0.1,-1.32 0.1,-1.94 0,-0.75 0,-1.42 -0.11,-2.06 -0.15,-0.94 -0.72,-1.24 -1.17,-1.24 h 0 v -0.22 c 0.54,0 1.3,0.21 1.73,1.16 0.32,0.68 0.37,1.46 0.37,2.24 z"
   inkscape:connector-curvature="0"
   style="fill:#ff0000;stroke-width:0" />
<path
   id="path3102"
   d="m 348.91,707.27 v -0.86 c 0,-0.36 -0.02,-0.47 -0.76,-0.47 h -0.2 v -0.31 c 0.4,0.03 0.92,0.03 1.34,0.03 0.42,0 0.94,0 1.35,-0.03 v 0.31 h -0.21 c -0.73,0 -0.75,0.11 -0.75,0.47 v 0.86 h 0.99 v 0.31 h -0.99 v 4.52 c 0,0.2 0,0.26 -0.16,0.26 -0.09,0 -0.12,0 -0.2,-0.12 l -3.05,-4.66 h 0.27 l 2.43,3.7 v -3.7 h -2.43 -0.27 v -0.31 z"
   inkscape:connector-curvature="0"
   style="fill:#ff0000;stroke-width:0" />
<path
   id="path3104"
   d="m 354.21,712.72 0,0.04 0,0.03 0,0.03 0,0.02 0,0.02 0,0.01 -0.01,0.02 0,0.01 0,0.02 0,0.01 -0.01,0.01 0,0.02 0,0.01 -0.01,0.01 -0.01,0.01 0,0.01 -0.01,0.02 -0.01,0.01 0,0 -0.01,0.01 -0.01,0.01 -0.01,0.01 -0.01,0 -0.01,0 0,0.01 -0.01,0 -0.01,0 0,0 -0.01,0 -0.01,0.01 -0.01,0 0,0 -0.01,0 -0.01,0 -0.01,0 -0.01,0 c -0.2,0 -0.2,-0.18 -0.2,-0.36 v -9.21 c 0,-0.18 0,-0.36 0.2,-0.36 0.2,0 0.2,0.18 0.2,0.36 z"
   inkscape:connector-curvature="0"
   style="fill:#4d4d4d;stroke-width:0" />
<path
   id="path3106"
   d="m 359.97,708.81 0,0.15 0,0.15 0,0.15 -0.01,0.15 -0.01,0.14 -0.01,0.15 -0.02,0.15 -0.02,0.14 -0.02,0.15 -0.03,0.15 -0.03,0.14 -0.04,0.14 -0.04,0.14 -0.05,0.15 -0.05,0.14 -0.03,0.06 -0.03,0.07 c -0.46,0.96 -1.28,1.12 -1.7,1.12 -0.59,0 -1.32,-0.26 -1.73,-1.18 -0.32,-0.69 -0.37,-1.47 -0.37,-2.26 0,-0.74 0.04,-1.64 0.45,-2.39 0.43,-0.81 1.16,-1.01 1.64,-1.01 v 0.22 c -0.39,0 -0.97,0.25 -1.15,1.2 -0.11,0.6 -0.11,1.51 -0.11,2.1 0,0.64 0,1.29 0.08,1.83 0.19,1.18 0.94,1.27 1.18,1.27 0.33,0 0.99,-0.18 1.18,-1.16 0.1,-0.56 0.1,-1.32 0.1,-1.94 0,-0.75 0,-1.42 -0.11,-2.06 -0.15,-0.94 -0.72,-1.24 -1.17,-1.24 h 0 v -0.22 c 0.54,0 1.3,0.21 1.74,1.16 0.31,0.68 0.36,1.46 0.36,2.24 z"
   inkscape:connector-curvature="0"
   style="fill:#4d4d4d;stroke-width:0" />
<path
   id="path3108"
   d="m 363.09,707.95 0.01,0 0,0.01 0,0 0,0.01 0,0 0.01,0.01 0,0 0,0.01 0,0 0,0 0,0.01 0.01,0 0,0.01 0,0.01 0,0.01 0.01,0 0,0.01 0,0 0,0.01 0,0 0.01,0.01 0,0 0,0.01 0,0 0,0.01 0,0 0,0 0,0.01 0,0 0,0 0,0.01 0,0 0,0.01 0,0 c 0,0.03 0,0.05 -0.05,0.17 l -1.74,4.57 c -0.06,0.17 -0.12,0.23 -0.23,0.23 -0.11,0 -0.2,-0.09 -0.2,-0.2 0,-0.03 0,-0.05 0.05,-0.16 l 1.76,-4.61 -1.76,-4.58 c -0.05,-0.11 -0.05,-0.13 -0.05,-0.18 0,-0.11 0.09,-0.2 0.2,-0.2 0.13,0 0.17,0.1 0.21,0.2 z"
   inkscape:connector-curvature="0"
   style="fill:#4d4d4d;stroke-width:0" />
</g>    <rect
       style="fill:#000000;fill-opacity:0.14619882;stroke:none"
       id="rect3143"
       width="1200"
       height="300"
       x="0"
       y="752.36218" />
  </g>
</svg>
