<?xml version="1.0" encoding="UTF-8" standalone="no"?>
<!-- Created with Inkscape (http://www.inkscape.org/) -->

<svg
   xmlns:dc="http://purl.org/dc/elements/1.1/"
   xmlns:cc="http://creativecommons.org/ns#"
   xmlns:rdf="http://www.w3.org/1999/02/22-rdf-syntax-ns#"
   xmlns:svg="http://www.w3.org/2000/svg"
   xmlns="http://www.w3.org/2000/svg"
   xmlns:sodipodi="http://sodipodi.sourceforge.net/DTD/sodipodi-0.dtd"
   xmlns:inkscape="http://www.inkscape.org/namespaces/inkscape"
   width="498.54337"
   height="398.07889"
   id="svg2"
   version="1.1"
   inkscape:version="0.48.4 r9939"
   sodipodi:docname="background.svg">
  <defs
     id="defs4" />
  <sodipodi:namedview
     id="base"
     pagecolor="#ffffff"
     bordercolor="#666666"
     borderopacity="1.0"
     inkscape:pageopacity="0.0"
     inkscape:pageshadow="2"
     inkscape:zoom="0.98994949"
     inkscape:cx="237.32246"
     inkscape:cy="150.9877"
     inkscape:document-units="px"
     inkscape:current-layer="layer1"
     showgrid="false"
     fit-margin-top="0"
     fit-margin-left="0"
     fit-margin-right="0"
     fit-margin-bottom="0"
     inkscape:window-width="1366"
     inkscape:window-height="705"
     inkscape:window-x="-8"
     inkscape:window-y="-8"
     inkscape:window-maximized="1" />
  <metadata
     id="metadata7">
    <rdf:RDF>
      <cc:Work
         rdf:about="">
        <dc:format>image/svg+xml</dc:format>
        <dc:type
           rdf:resource="http://purl.org/dc/dcmitype/StillImage" />
        <dc:title />
      </cc:Work>
    </rdf:RDF>
  </metadata>
  <g
     inkscape:label="Layer 1"
     inkscape:groupmode="layer"
     id="layer1"
     transform="translate(-1.2801575,-553.51621)">
    <path
       style="fill:#808080;fill-opacity:0.24867727000000001;stroke:none"
       id="path2987"
       d="m 19.439973,903.17231 c 5.672333,-0.2268 11.124783,-1.70601 16.260497,-4.09795 2.061986,-0.96036 8.029781,-4.27451 6.062337,-3.1329 -3.436583,1.99405 -6.981808,3.79468 -10.472718,5.69201 21.050494,-14.33065 41.683318,-29.4723 60.746259,-46.39498 4.832345,-4.28982 9.490082,-8.77242 14.235112,-13.15861 23.70225,-23.08267 45.5739,-48.61792 61.66338,-77.6845 3.15181,-5.69398 5.84453,-11.63025 8.76682,-17.44538 15.74782,-33.67782 25.491,-69.58342 33.45776,-105.7611 3.87697,-17.94356 6.53389,-36.11238 9.23536,-54.26006 1.4488,-8.95305 0.25617,-5.05955 20.63199,-10.84764 1.04763,-0.29761 -0.26019,2.16286 -0.42304,3.23969 -0.31453,2.07959 -0.71054,4.14654 -1.00895,6.2285 -1.03692,7.23438 -1.92374,14.48952 -2.91496,21.73031 -3.07196,24.90254 -5.84406,49.8612 -7.94084,74.86742 -1.26629,15.10169 -1.97598,28.73263 -2.86878,43.86417 -1.85001,38.48554 -2.65894,77.02246 -2.00616,115.5472 0.56895,25.93992 3.38036,51.71619 6.93901,77.38926 0.58737,5.39858 1.80251,10.73425 2.14752,16.16255 0.002,0.0262 0.24636,4.39024 -0.4086,4.8079 -6.74533,4.30151 -13.97893,7.78459 -20.96839,11.67689 -0.89957,-0.56694 -1.85865,-1.04893 -2.69872,-1.70081 -3.06263,-2.37653 -5.84764,-5.09099 -8.7411,-7.67079 -6.52239,-5.81535 -12.95668,-11.7179 -19.52315,-17.4846 -11.25381,-9.93688 -23.79125,-18.24793 -36.5448,-26.10648 -7.29734,-4.04532 -13.95343,-8.961 -20.30125,-14.34355 -6.59608,-5.81036 -13.00286,-11.83641 -20.04122,-17.11669 -1.35129,-1.39937 -4.252139,-2.52083 -4.657371,-4.73112 -0.115525,-0.62988 -0.402337,-1.57444 0.139327,-1.91606 18.993004,-11.9795 13.779384,-11.22422 24.343634,-11.96952 10.42493,-0.90496 20.3765,-4.05015 29.74243,-8.66471 3.32978,-1.64058 6.54347,-3.50692 9.8152,-5.26037 -1.99074,1.04046 -7.75517,4.4877 -5.97225,3.12138 3.6385,-2.78831 7.76409,-4.87769 11.57957,-7.41847 4.00308,-2.6657 7.95615,-5.4072 11.8726,-8.19863 12.32116,-8.7818 24.2084,-18.16213 36.16955,-27.4215 18.73016,-14.91266 38.34021,-28.74306 56.31891,-44.5766 10.67278,-9.91525 18.71451,-22.03538 25.10677,-35.05894 1.57445,-3.20776 2.94824,-6.51017 4.42235,-9.76526 11.6004,-28.19661 19.09234,-57.81466 27.40197,-87.08426 5.30423,-17.14876 9.82014,-34.51771 14.40327,-51.86704 2.91246,-9.70337 3.36971,-9.19337 22.14023,-12.02016 1.64978,-0.24846 0.18023,3.33372 0.17509,5.00208 -0.024,7.78749 -0.31313,15.57193 -0.43906,23.35843 -0.87217,43.72259 -0.32835,87.46887 1.61259,131.15574 1.71167,29.93023 3.47405,59.90095 6.68965,89.71655 1.72667,16.00997 2.5991,21.43508 4.77631,37.07722 3.3589,24.53586 8.21917,48.81705 14.09354,72.86373 3.83169,15.87164 7.12252,14.04651 -16.69111,24.77808 -1.13909,0.51333 -1.62622,-1.89792 -2.40535,-2.87463 -1.12619,-1.41179 -2.20633,-2.8597 -3.30949,-4.28955 -12.93632,-16.73931 -27.46747,-32.28301 -43.37033,-46.24477 -4.87514,-4.28009 -9.95609,-8.3199 -14.93413,-12.47985 -26.40383,-21.10777 -54.39607,-40.20297 -83.95334,-56.60676 -5.83746,-3.027 -11.74812,-6.00104 -18.00052,-8.09085 -1.90841,-0.63785 -3.9742,-1.29141 -6.02982,-1.24256 -0.63272,0.0152 -1.24167,0.246 -1.8625,0.369 -6.82608,5.14208 -1.45623,1.0165 17.17973,-9.52225 0.24988,-0.1413 -0.45862,0.37347 -0.7361,0.44697 -0.0243,0.006 -1.10072,-0.45777 -0.057,-0.66044 0.90821,-0.17633 1.84922,-0.0641 2.77382,-0.0961 24.41578,-0.93223 47.86537,-8.58866 70.7075,-16.65401 31.0168,-12.65884 60.43336,-28.86576 89.87135,-44.76688 15.84117,-8.69773 31.6813,-17.40505 47.401,-26.32152 0.94988,-0.53878 -3.82094,2.11148 -2.89832,1.52728 7.61296,-4.82052 15.38077,-9.39236 23.03558,-14.14614 10.15404,-6.53389 20.38739,-13.00397 30.08658,-20.2077 0,0 20.55833,-8.17127 20.55833,-8.17127 l 0,0 c -10.10679,7.59189 -20.98063,14.1285 -31.58057,20.99366 -33.2483,20.51563 -67.21079,39.82245 -101.58332,58.3895 -29.6386,16.0957 -59.30681,32.47091 -90.67143,45.00056 -23.64501,8.19555 -47.93774,15.86449 -73.07959,17.37053 -1.88398,-0.25755 -5.89913,-0.24779 -5.5729,-3.45009 0.0391,-0.38348 0.25895,-0.79535 0.58836,-0.99552 6.77313,-4.11589 13.64339,-8.07581 20.59719,-11.87849 0.46574,-0.25469 1.04896,-0.16368 1.57345,-0.2455 9.25783,0.59553 17.2129,6.9725 25.17505,11.01729 28.638,17.65599 56.03285,37.27785 82.69412,57.77915 5.13168,4.1049 10.36952,8.08049 15.39504,12.31469 16.38527,13.80517 31.25334,29.25686 45.46806,45.24974 1.23224,1.26435 2.37125,2.62677 3.69668,3.79303 0.26315,0.23154 1.28109,0.13205 0.99628,0.33631 -25.72648,18.45445 -17.41168,18.67029 -18.26511,9.69421 -0.28643,-3.01268 -1.17346,-7.1598 -1.70766,-9.95896 -4.79793,-24.53807 -9.22341,-49.15169 -12.40588,-73.96006 -1.51818,-12.37098 -3.15083,-25.00257 -4.32062,-37.40586 -2.82755,-29.98042 -4.49614,-60.05698 -6.07914,-90.12276 -0.59701,-12.82982 -1.73118,-35.79473 -2.07079,-48.67591 -0.71649,-27.17482 -0.56685,-54.37455 -1.52484,-81.54511 -0.33754,-10.6476 -0.26614,-12.75319 -1.00753,-22.47246 -0.11006,-1.4423 -1.56968,-3.39982 -0.45038,-4.31604 5.93945,-4.86192 13.24861,-7.75484 19.89237,-11.59876 1.17716,-0.68107 -8.15444,4.92806 -2.30269,3.36807 -5.62456,17.46899 -10.26486,35.24827 -16.08474,52.6594 -8.66811,29.06408 -16.16636,58.50956 -26.6092,87.01197 -3.92075,9.16713 -7.83195,17.63724 -13.09609,26.12551 -1.55124,2.50133 -3.05744,5.04129 -4.82194,7.39704 -2.27758,3.04073 -8.43294,9.36605 -10.93051,12.00164 -18.2744,16.12589 -38.3865,29.9657 -57.41883,45.16188 -28.25946,21.87088 -56.49302,43.82302 -88.38785,60.33612 -7.96703,4.18528 -11.04923,6.13279 -19.2283,9.25579 -7.11485,2.71664 -14.6247,4.04422 -22.13477,5.0712 -0.90225,0.16082 -3.4577,1.00784 -2.70678,0.48246 5.56896,-3.89624 11.75022,-6.86026 17.34288,-10.72241 0.002,-10e-4 -2.15774,-1.04473 -1.16967,0.33645 0.58451,0.81703 3.00482,2.76397 3.55869,3.23315 6.8297,5.56234 13.19016,11.66611 20.00973,17.24153 6.2396,5.29984 12.92681,9.94063 19.88791,14.24788 12.51975,8.22687 24.79252,16.87524 36.04296,26.79963 6.67474,5.71383 13.24209,11.55221 20.02808,17.13442 2.06606,1.69957 6.43708,5.39275 9.0352,6.79098 0.6552,0.35261 1.43889,0.37961 2.15834,0.56942 -5.91656,3.77256 -11.71175,7.74264 -17.74971,11.3177 -0.47462,0.28102 0.77759,-0.83556 0.93774,-1.36338 0.26454,-0.87192 0.27359,-1.80621 0.30023,-2.71699 0.16156,-5.52534 -0.96485,-11.0042 -1.2446,-16.50261 -2.55906,-26.04615 -5.18985,-52.11295 -5.62886,-78.30423 -0.5044,-38.71844 1.0392,-77.45509 2.84021,-116.12612 2.23392,-39.4034 5.28725,-78.7383 9.14544,-118.01585 3.21068,-38.33444 -0.57451,7.18014 1.71836,-21.17137 0.15926,-1.96937 0.359,-3.93541 0.50771,-5.90562 0.0731,-0.96807 -0.64371,-2.36009 0.15757,-2.90824 6.38023,-4.36468 13.34413,-7.85468 20.35039,-11.12114 0.63994,-0.29835 -0.49836,1.32128 -0.74754,1.98191 -4.3112,18.35349 -6.92599,37.07304 -11.42701,55.38971 -8.24779,36.34183 -18.21236,72.44341 -33.77154,106.42662 -2.89022,5.85852 -5.5354,11.84445 -8.67064,17.57558 -9.52238,17.4066 -21.22883,33.24054 -33.94256,48.4106 -4.46883,5.33226 -8.92295,10.68443 -13.64477,15.79401 -4.44876,4.81407 -9.23374,9.30618 -13.85062,13.95926 -4.65903,4.38104 -9.22527,8.8629 -13.97709,13.1431 -12.602744,11.35193 -25.992343,21.61662 -39.514431,31.8246 -3.733128,2.81817 -7.40117,5.72363 -11.181842,8.47767 -2.726862,1.9864 -5.557211,3.8267 -8.335817,5.74005 -10.225864,6.04986 -25.106335,16.67343 -38.173401,20.63504 -3.7526987,1.13773 -7.6914595,1.58269 -11.5698515,2.02854 0,0 18.1598255,-13.47245 18.1598255,-13.47245 z"
       inkscape:connector-curvature="0" />
  </g>
</svg>
