<?xml version="1.0" encoding="UTF-8" standalone="no"?>
<!-- Created with Inkscape (http://www.inkscape.org/) -->

<svg
   xmlns:ns0="http://www.iki.fi/pav/software/textext/"
   xmlns:dc="http://purl.org/dc/elements/1.1/"
   xmlns:cc="http://creativecommons.org/ns#"
   xmlns:rdf="http://www.w3.org/1999/02/22-rdf-syntax-ns#"
   xmlns:svg="http://www.w3.org/2000/svg"
   xmlns="http://www.w3.org/2000/svg"
   xmlns:sodipodi="http://sodipodi.sourceforge.net/DTD/sodipodi-0.dtd"
   xmlns:inkscape="http://www.inkscape.org/namespaces/inkscape"
   width="1900"
   height="1080"
   id="svg2"
   version="1.1"
   inkscape:version="0.91 r13725"
   sodipodi:docname="nlo.svg"
   inkscape:export-filename="C:\Users\Anderson\Dropbox\website\img\img1.png"
   inkscape:export-xdpi="90"
   inkscape:export-ydpi="90">
  <sodipodi:namedview
     id="base"
     pagecolor="#ffffff"
     bordercolor="#666666"
     borderopacity="1.0"
     inkscape:pageopacity="0.0"
     inkscape:pageshadow="2"
     inkscape:zoom="0.98994949"
     inkscape:cx="976.82038"
     inkscape:cy="848.61888"
     inkscape:document-units="px"
     inkscape:current-layer="layer1"
     showgrid="false"
     inkscape:window-width="1301"
     inkscape:window-height="744"
     inkscape:window-x="65"
     inkscape:window-y="24"
     inkscape:window-maximized="1" />
  <defs
     id="defs4">
    <marker
       inkscape:stockid="Arrow2Mend"
       orient="auto"
       refY="0.0"
       refX="0.0"
       id="Arrow2Mend"
       style="overflow:visible;">
      <path
         id="path4006"
         style="fill-rule:evenodd;stroke-width:0.62500000;stroke-linejoin:round;"
         d="M 8.7185878,4.0337352 L -2.2072895,0.016013256 L 8.7185884,-4.0017078 C 6.9730900,-1.6296469 6.9831476,1.6157441 8.7185878,4.0337352 z "
         transform="scale(0.6) rotate(180) translate(0,0)" />
    </marker>
    <inkscape:perspective
       sodipodi:type="inkscape:persp3d"
       inkscape:vp_x="90.665992 : 261.76946 : 1"
       inkscape:vp_y="0 : 1057.3058 : 0"
       inkscape:vp_z="2099.5471 : 261.76946 : 1"
       inkscape:persp3d-origin="1095.1066 : 71.454406 : 1"
       id="perspective2985" />
    <marker
       inkscape:stockid="Arrow2MendR"
       orient="auto"
       refY="0.0"
       refX="0.0"
       id="Arrow2MendR"
       style="overflow:visible;">
      <path
         id="path4975"
         style="stroke-linejoin:round;stroke:#ff0000;stroke-width:0.62500000;fill:#ff0000;fill-rule:evenodd"
         d="M 8.7185878,4.0337352 L -2.2072895,0.016013256 L 8.7185884,-4.0017078 C 6.9730900,-1.6296469 6.9831476,1.6157441 8.7185878,4.0337352 z "
         transform="scale(0.6) rotate(180) translate(0,0)" />
    </marker>
    <marker
       inkscape:stockid="Arrow2Mendz"
       orient="auto"
       refY="0.0"
       refX="0.0"
       id="Arrow2Mendz"
       style="overflow:visible;">
      <path
         id="path4978"
         style="stroke-linejoin:round;stroke:#0000ff;stroke-width:0.62500000;fill:#0000ff;fill-rule:evenodd"
         d="M 8.7185878,4.0337352 L -2.2072895,0.016013256 L 8.7185884,-4.0017078 C 6.9730900,-1.6296469 6.9831476,1.6157441 8.7185878,4.0337352 z "
         transform="scale(0.6) rotate(180) translate(0,0)" />
    </marker>
    <marker
       inkscape:stockid="Arrow2Mend9"
       orient="auto"
       refY="0.0"
       refX="0.0"
       id="Arrow2Mend9"
       style="overflow:visible;">
      <path
         id="path4981"
         style="stroke-linejoin:round;stroke:#ff0000;stroke-width:0.62500000;fill:#ff0000;fill-rule:evenodd"
         d="M 8.7185878,4.0337352 L -2.2072895,0.016013256 L 8.7185884,-4.0017078 C 6.9730900,-1.6296469 6.9831476,1.6157441 8.7185878,4.0337352 z "
         transform="scale(0.6) rotate(180) translate(0,0)" />
    </marker>
    <marker
       inkscape:stockid="Arrow2Mend9"
       orient="auto"
       refY="0"
       refX="0"
       id="Arrow2Mend9-1"
       style="overflow:visible">
      <path
         id="path4981-7"
         style="fill:#ff0000;fill-rule:evenodd;stroke:#ff0000;stroke-width:0.625;stroke-linejoin:round"
         d="M 8.7185878,4.0337352 -2.2072895,0.01601326 8.7185884,-4.0017078 c -1.7454984,2.3720609 -1.7354408,5.6174519 -6e-7,8.035443 z"
         transform="scale(-0.6,-0.6)"
         inkscape:connector-curvature="0" />
    </marker>
    <marker
       inkscape:stockid="Arrow2Mend9n"
       orient="auto"
       refY="0.0"
       refX="0.0"
       id="Arrow2Mend9n"
       style="overflow:visible;">
      <path
         id="path5083"
         style="stroke-linejoin:round;fill-rule:evenodd;stroke:#0000ff;stroke-width:0.62500000;fill:#0000ff"
         d="M 8.7185878,4.0337352 L -2.2072895,0.016013256 L 8.7185884,-4.0017078 C 6.9730900,-1.6296469 6.9831476,1.6157441 8.7185878,4.0337352 z "
         transform="scale(0.6) rotate(180) translate(0,0)" />
    </marker>
  </defs>
  <metadata
     id="metadata7">
    <rdf:RDF>
      <cc:Work
         rdf:about="">
        <dc:format>image/svg+xml</dc:format>
        <dc:type
           rdf:resource="http://purl.org/dc/dcmitype/StillImage" />
        <dc:title />
      </cc:Work>
    </rdf:RDF>
  </metadata>
  <g
     inkscape:label="Layer 1"
     inkscape:groupmode="layer"
     id="layer1"
     transform="translate(0,27.63782)">
    <g
       transform="matrix(1.0573058,0,0,1.0573058,-24.637218,-0.61445566)"
       id="g5018">
      <g
         transform="translate(0,-15.451552)"
         id="g3083">
        <path
           sodipodi:nodetypes="cc"
           inkscape:connector-curvature="0"
           id="path4783"
           d="M 80,666.20868 C 1385.7534,418.10282 1754.2857,343.35153 1754.2857,343.35153"
           style="fill:none;stroke:#ff0000;stroke-width:9.45800114;stroke-linecap:butt;stroke-linejoin:miter;stroke-miterlimit:4;stroke-opacity:1;stroke-dasharray:none;marker-end:url(#Arrow2Mend9)" />
        <path
           style="fill:none;stroke:#ff0000;stroke-width:9.45800114;stroke-linecap:butt;stroke-linejoin:miter;stroke-miterlimit:4;stroke-opacity:1;stroke-dasharray:none;marker-end:url(#Arrow2MendR)"
           d="M 80,362.85714 C 1385.7534,610.963 1754.2857,685.71429 1754.2857,685.71429"
           id="path3023"
           inkscape:connector-curvature="0"
           sodipodi:nodetypes="cc"
           transform="translate(0,-27.63782)" />
        <path
           style="fill:none;stroke:#0000ff;stroke-width:9.45800114;stroke-linecap:butt;stroke-linejoin:miter;stroke-miterlimit:4;stroke-opacity:1;stroke-dasharray:none;marker-end:url(#Arrow2Mendz)"
           d="m 946.44114,501.16552 796.00016,0"
           id="path4785"
           inkscape:connector-curvature="0" />
      </g>
      <g
         inkscape:corner7="0.26908396 : 0.33041666 : 0.25 : 1"
         inkscape:corner0="0.38541665 : 0.77103053 : 0 : 1"
         inkscape:perspectiveID="#perspective2985"
         id="g3009"
         style="opacity:0.85;fill:#aa0000;fill-opacity:1;stroke:#d40000;stroke-width:3.35126019;stroke-miterlimit:4;stroke-opacity:1;stroke-dasharray:none;stroke-dashoffset:0"
         sodipodi:type="inkscape:box3d">
        <path
           d="m 980.39145,386.92942 66.72775,-27.67589 0,290.05235 -66.72775,7.04348 z"
           inkscape:box3dsidetype="11"
           style="fill:#e9e9ff;fill-rule:evenodd;stroke:none"
           id="path3021"
           sodipodi:type="inkscape:box3dside" />
        <path
           d="m 794.76816,321.71538 0,318.03708 185.62329,16.5969 0,-269.41994 z"
           inkscape:box3dsidetype="6"
           style="fill:#353564;fill-rule:evenodd;stroke:none"
           id="path3011"
           sodipodi:type="inkscape:box3dside" />
        <path
           d="m 794.76816,321.71538 62.85714,-39.10578 189.4939,76.64393 -66.72775,27.67589 z"
           inkscape:box3dsidetype="5"
           style="fill:#4d4d9f;fill-rule:evenodd;stroke:none"
           id="path3013"
           sodipodi:type="inkscape:box3dside" />
        <path
           d="m 794.76816,639.75246 62.85714,-9.95238 189.4939,19.5058 -66.72775,7.04348 z"
           inkscape:box3dsidetype="13"
           style="fill:#afafde;fill-rule:evenodd;stroke:none"
           id="path3019"
           sodipodi:type="inkscape:box3dside" />
        <path
           d="m 857.6253,282.6096 0,347.19048 189.4939,19.5058 0,-290.05235 z"
           inkscape:box3dsidetype="14"
           style="fill:#d7d7ff;fill-rule:evenodd;stroke:none"
           id="path3017"
           sodipodi:type="inkscape:box3dside" />
        <path
           d="m 794.76816,321.71538 62.85714,-39.10578 0,347.19048 -62.85714,9.95238 z"
           inkscape:box3dsidetype="3"
           style="fill:#8686bf;fill-rule:evenodd;stroke:none"
           id="path3015"
           sodipodi:type="inkscape:box3dside" />
      </g>
    </g>
    <g
       id="g5137"
       transform="matrix(0.32978417,0,0,0.32978417,680.79857,231.2781)"
       style="stroke-width:15.16143131;stroke-miterlimit:4;stroke-dasharray:none">
      <path
         sodipodi:nodetypes="cc"
         style="fill:none;stroke:#000000;stroke-width:15.16143131;stroke-linecap:butt;stroke-linejoin:miter;stroke-miterlimit:4;stroke-opacity:1;stroke-dasharray:none"
         d="m 779.83776,1015.9155 219.94348,0"
         id="path5034"
         inkscape:connector-curvature="0" />
      <path
         sodipodi:nodetypes="cc"
         inkscape:connector-curvature="0"
         id="path5036"
         d="m 779.83776,676.48693 211.37205,0"
         style="fill:none;stroke:#000000;stroke-width:15.16143131;stroke-linecap:butt;stroke-linejoin:miter;stroke-miterlimit:4;stroke-opacity:1;stroke-dasharray:30.32286237, 15.16143119;stroke-dashoffset:0" />
      <path
         style="fill:none;stroke:#ff0000;stroke-width:15.16143131;stroke-linecap:butt;stroke-linejoin:miter;stroke-miterlimit:4;stroke-opacity:1;stroke-dasharray:none;marker-end:url(#Arrow2Mend9)"
         d="m 844.80415,848.56287 0,-151.35877"
         id="path5038"
         inkscape:connector-curvature="0"
         sodipodi:nodetypes="cc" />
      <path
         sodipodi:nodetypes="cc"
         inkscape:connector-curvature="0"
         id="path5064"
         d="m 844.80415,1013.1343 0,-151.35877"
         style="fill:none;stroke:#ff0000;stroke-width:15.16143131;stroke-linecap:butt;stroke-linejoin:miter;stroke-miterlimit:4;stroke-opacity:1;stroke-dasharray:none;marker-end:url(#Arrow2Mend9)" />
      <path
         sodipodi:nodetypes="cc"
         inkscape:connector-curvature="0"
         id="path5066"
         d="m 935.37558,679.9425 0,319.9302"
         style="fill:none;stroke:#0000ff;stroke-width:15.16143131;stroke-linecap:butt;stroke-linejoin:miter;stroke-miterlimit:4;stroke-opacity:1;stroke-dasharray:none;marker-end:url(#Arrow2Mend9n)" />
    </g>
    <rect
       y="-27.637819"
       x="0"
       height="1080"
       width="1900"
       id="rect5030"
       style="opacity:0.5;fill:#808080;stroke:none" />
    <g
       style="font-style:normal;font-variant:normal;font-weight:normal;font-stretch:normal;letter-spacing:normal;word-spacing:normal;text-anchor:start;fill:#000000;fill-opacity:1;fill-rule:evenodd;stroke:#000000;stroke-linecap:butt;stroke-linejoin:miter;stroke-miterlimit:10.43299961;stroke-dasharray:none;stroke-dashoffset:0;stroke-opacity:1"
       ns0:preamble="/home/anderson/.config/inkscape/extensions/textext_default.tex"
       ns0:text="$P^{(NL)}=\\chi^{(2)}EE$"
       word-spacing="normal"
       letter-spacing="normal"
       font-size-adjust="none"
       font-stretch="normal"
       font-weight="normal"
       font-variant="normal"
       font-style="normal"
       stroke-miterlimit="10.433"
       xml:space="preserve"
       transform="matrix(3.5718252,0,0,-3.5718252,21.240121,2942.582)"
       id="content"><path
         id="path4411"
         d="m 226.45,710.27 0.04,0.26 0.68,2.71 c 0.09,0.35 0.11,0.38 0.54,0.38 l 0.95,0 c 0.83,0 1.36,-0.27 1.36,-0.96 0,-0.39 -0.2,-1.24 -0.59,-1.6 -0.5,-0.45 -1.1,-0.53 -1.53,-0.53 l -1.41,0 -0.04,-0.26 1.7,0 c 1.41,0 2.79,1.04 2.79,2.15 0,0.77 -0.65,1.51 -1.96,1.51 l -3.23,0 c -0.19,0 -0.29,0 -0.29,-0.19 0,-0.12 0.08,-0.12 0.28,-0.12 0.13,0 0.31,-0.01 0.43,-0.02 0.16,-0.02 0.22,-0.05 0.22,-0.16 0,-0.04 -0.01,-0.07 -0.04,-0.19 l -1.33,-5.35 c -0.1,-0.39 -0.12,-0.47 -0.91,-0.47 -0.17,0 -0.28,0 -0.28,-0.19 0,-0.12 0.12,-0.12 0.15,-0.12 0.28,0 0.99,0.03 1.27,0.03 0.21,0 0.42,-0.01 0.63,-0.01 0.22,0 0.44,-0.02 0.65,-0.02 0.07,0 0.2,0 0.2,0.2 0,0.11 -0.09,0.11 -0.28,0.11 -0.37,0 -0.65,0 -0.65,0.18 0,0.06 0.02,0.11 0.03,0.17 z"
         inkscape:connector-curvature="0"
         style="fill:#000000;stroke-width:0" /><path
         id="path4413"
         d="m 233.69,715.97 -0.13,-0.09 -0.11,-0.09 -0.11,-0.1 -0.11,-0.1 -0.1,-0.1 -0.09,-0.1 -0.09,-0.1 -0.08,-0.11 -0.08,-0.11 -0.08,-0.11 -0.07,-0.11 -0.07,-0.11 -0.06,-0.12 -0.06,-0.11 -0.05,-0.12 -0.05,-0.11 -0.04,-0.12 -0.05,-0.12 -0.03,-0.11 -0.04,-0.12 -0.03,-0.11 -0.03,-0.12 -0.02,-0.12 -0.02,-0.11 -0.02,-0.11 -0.02,-0.11 -0.01,-0.12 -0.01,-0.1 -0.01,-0.11 0,-0.11 -0.01,-0.1 0,-0.1 c 0,-0.98 0.29,-2.51 1.68,-3.49 0.05,0 0.13,0 0.13,0.09 0,0.04 -0.02,0.05 -0.06,0.1 -0.93,0.84 -1.27,2.02 -1.27,3.29 0,1.88 0.72,2.8 1.29,3.32 0.02,0.03 0.04,0.05 0.04,0.08 0,0.09 -0.08,0.09 -0.13,0.09 z"
         inkscape:connector-curvature="0"
         style="fill:#000000;stroke-width:0" /><path
         id="path4415"
         d="m 240.14,714.74 0.01,0.05 0.02,0.05 0.01,0.02 0.01,0.02 0,0.03 0.02,0.02 0.01,0.02 0.01,0.02 0.01,0.02 0.02,0.02 0.01,0.02 0.02,0.02 0.02,0.02 0.02,0.02 0.02,0.02 0.02,0.01 0.02,0.02 0.03,0.01 0.02,0.02 0.03,0.01 0.03,0.01 0.04,0.01 0.03,0.01 0.04,0.01 0.04,0.01 0.04,0 0.04,0.01 0.03,0 0.02,0 0.02,0.01 0.03,0 0.02,0 0.03,0 c 0.03,0 0.14,0.01 0.14,0.15 0,0.05 -0.04,0.1 -0.11,0.1 -0.23,0 -0.48,-0.03 -0.72,-0.03 -0.17,0 -0.57,0.03 -0.74,0.03 -0.04,0 -0.14,0 -0.14,-0.15 0,-0.09 0.09,-0.1 0.15,-0.1 0.33,-0.01 0.45,-0.11 0.45,-0.29 0,-0.05 -0.01,-0.09 -0.03,-0.16 l -0.76,-3.04 -1.77,3.62 c -0.06,0.12 -0.07,0.12 -0.24,0.12 l -0.95,0 c -0.14,0 -0.23,0 -0.23,-0.15 0,-0.1 0.09,-0.1 0.23,-0.1 0.15,0 0.3,-0.01 0.45,-0.03 l -0.93,-3.74 c -0.07,-0.26 -0.19,-0.47 -0.73,-0.49 -0.05,0 -0.15,-0.01 -0.15,-0.15 0,-0.07 0.06,-0.1 0.11,-0.1 0.23,0 0.49,0.03 0.72,0.03 0.17,0 0.58,-0.03 0.74,-0.03 0.07,0 0.14,0.03 0.14,0.14 0,0.1 -0.08,0.11 -0.16,0.11 -0.44,0.01 -0.44,0.19 -0.44,0.29 0,0.03 0,0.06 0.03,0.18 l 0.89,3.57 2.04,-4.17 c 0.06,-0.12 0.08,-0.12 0.15,-0.12 0.11,0 0.11,0.02 0.15,0.14 z"
         inkscape:connector-curvature="0"
         style="fill:#000000;stroke-width:0" /><path
         id="path4417"
         d="m 244.25,714.93 0.01,0.02 0,0.02 0.01,0.02 0.01,0.02 0,0.02 0.01,0.02 0.01,0.02 0,0.02 0.01,0.01 0.01,0.01 0.01,0.02 0.01,0.01 0.01,0.01 0.02,0.01 0.01,0.01 0.02,0.01 0.02,0.01 0.02,0.01 0.02,0.01 0.02,0 0.02,0.01 0.01,0 0.01,0 0.02,0.01 0.01,0 0.02,0 0.02,0 0.01,0.01 0.02,0 0.02,0 0.02,0 0.02,0 0.02,0 0.02,0 0.02,0.01 0.03,0 0.02,0 0.02,0 0.03,0 0.02,0 0.03,0 0.03,0 0.03,0 0.03,0 c 0.22,0 0.28,0 0.28,0.15 0,0.01 0,0.1 -0.11,0.1 -0.16,0 -0.35,-0.01 -0.52,-0.02 -0.17,-0.01 -0.38,-0.01 -0.56,-0.01 -0.14,0 -0.33,0.01 -0.48,0.01 -0.15,0 -0.31,0.02 -0.45,0.02 -0.04,0 -0.15,0 -0.15,-0.15 0,-0.1 0.08,-0.1 0.22,-0.1 0.01,0 0.14,0 0.27,-0.01 0.15,-0.02 0.16,-0.03 0.16,-0.1 0,-0.02 0,-0.05 -0.03,-0.16 l -0.93,-3.7 c -0.06,-0.24 -0.07,-0.29 -0.61,-0.29 -0.12,0 -0.21,0 -0.21,-0.15 0,-0.1 0.09,-0.1 0.21,-0.1 l 3.51,0 c 0.17,0 0.18,0 0.24,0.14 0.06,0.19 0.59,1.54 0.59,1.59 0,0.02 -0.02,0.1 -0.12,0.1 -0.08,0 -0.1,-0.03 -0.14,-0.15 -0.27,-0.66 -0.57,-1.43 -1.85,-1.43 l -0.79,0 c -0.21,0 -0.22,0.01 -0.22,0.07 0,0.01 0,0.04 0.03,0.15 z"
         inkscape:connector-curvature="0"
         style="fill:#000000;stroke-width:0" /><path
         id="path4419"
         d="m 247.48,715.97 -0.01,0 0,0 -0.01,0 0,0 -0.01,0 -0.01,0 0,0 -0.01,0 0,0 -0.01,0 0,-0.01 -0.01,0 0,0 -0.01,0 0,0 -0.01,0 0,0 -0.01,-0.01 0,0 -0.01,0 0,-0.01 -0.01,0 0,0 0,-0.01 0,0 0,0 -0.01,0 0,0 0,-0.01 0,0 0,0 0,-0.01 0,0 0,0 0,0 -0.01,-0.01 0,0 0,0 0,-0.01 0,0 0,-0.01 c 0,-0.03 0.02,-0.05 0.06,-0.1 0.61,-0.55 1.28,-1.49 1.28,-3.29 0,-1.46 -0.46,-2.56 -1.21,-3.25 -0.12,-0.11 -0.13,-0.12 -0.13,-0.15 0,-0.04 0.02,-0.09 0.09,-0.09 0.09,0 0.75,0.46 1.21,1.33 0.31,0.58 0.51,1.33 0.51,2.15 0,0.98 -0.29,2.51 -1.67,3.49 z"
         inkscape:connector-curvature="0"
         style="fill:#000000;stroke-width:0" /><path
         id="path4421"
         d="m 260.07,710.38 0.03,0 0.03,0 0.03,0 0.02,0 0.01,0 0.01,0 0.02,0.01 0.01,0 0.02,0 0.01,0 0.01,0.01 0.02,0 0.01,0.01 0.01,0 0.01,0.01 0.01,0 0.02,0.01 0.01,0.01 0,0 0.01,0.01 0.01,0.01 0,0.01 0.01,0.01 0,0 0,0.01 0.01,0 0,0.01 0,0.01 0,0 0.01,0.01 0,0.01 0,0.01 0,0 0,0.01 0,0.01 0,0.01 0,0.01 c 0,0.2 -0.19,0.2 -0.33,0.2 l -5.96,0 c -0.14,0 -0.33,0 -0.33,-0.2 0,-0.2 0.19,-0.2 0.34,-0.2 z"
         inkscape:connector-curvature="0"
         style="fill:#000000;stroke-width:0" /><path
         id="path4423"
         d="m 260.08,708.45 0.03,0 0.03,0 0.03,0 0.01,0 0.01,0 0.02,0 0.01,0 0.02,0.01 0.01,0 0.01,0 0.02,0 0.01,0.01 0.01,0 0.01,0.01 0.01,0 0.02,0.01 0.01,0.01 0.01,0 0,0.01 0.01,0.01 0.01,0.01 0,0 0,0.01 0.01,0 0,0.01 0,0 0.01,0.01 0,0.01 0,0 0,0.01 0.01,0.01 0,0.01 0,0 0,0.01 0,0.01 0,0.01 0,0.01 0,0.01 c 0,0.2 -0.19,0.2 -0.34,0.2 l -5.94,0 c -0.15,0 -0.34,0 -0.34,-0.2 0,-0.2 0.19,-0.2 0.33,-0.2 z"
         inkscape:connector-curvature="0"
         style="fill:#000000;stroke-width:0" /><path
         id="path4425"
         d="m 269.55,711.14 0.01,0 0,0.01 0.01,0 0,0.01 0.01,0 0,0.01 0.01,0 0,0 0,0.01 0.01,0 0,0.01 0,0 0.01,0 0,0.01 0,0 0.01,0 0,0.01 0,0 0,0 0.01,0.01 0,0 0.01,0.01 0,0 0,0.01 0.01,0 0,0.01 0,0 0,0.01 0.01,0 0,0 0,0.01 0,0 0,0 0,0 0,0.01 0,0 0,0.01 0,0 0,0.01 c 0,0.06 -0.04,0.12 -0.12,0.12 -0.06,0 -0.1,-0.05 -0.16,-0.12 l -2.28,-2.54 c -0.4,1.26 -0.48,1.51 -0.71,2.04 -0.1,0.23 -0.32,0.73 -1.2,0.73 -0.58,0 -0.84,-0.52 -0.84,-0.66 0,-0.01 0,-0.1 0.12,-0.1 0.09,0 0.11,0.06 0.13,0.11 0.15,0.39 0.47,0.43 0.53,0.43 0.3,0 0.6,-0.76 0.77,-1.2 0.32,-0.79 0.64,-1.94 0.64,-1.97 0,-0.01 0,-0.03 -0.09,-0.11 l -2.29,-2.56 c -0.11,-0.11 -0.11,-0.13 -0.11,-0.16 0,-0.06 0.06,-0.12 0.12,-0.12 0.07,0 0.12,0.07 0.16,0.11 l 2.28,2.56 c 0.32,-1.04 0.44,-1.43 0.68,-1.98 0.13,-0.3 0.35,-0.8 1.24,-0.8 0.58,0 0.84,0.52 0.84,0.65 0,0.05 -0.02,0.11 -0.12,0.11 -0.1,0 -0.11,-0.04 -0.14,-0.14 -0.09,-0.24 -0.33,-0.4 -0.52,-0.4 -0.51,0 -1.19,2.41 -1.41,3.18 z"
         inkscape:connector-curvature="0"
         style="fill:#000000;stroke-width:0" /><path
         id="path4427"
         d="m 272.45,715.97 -0.12,-0.09 -0.11,-0.09 -0.11,-0.1 -0.11,-0.1 -0.1,-0.1 -0.09,-0.1 -0.09,-0.1 -0.09,-0.11 -0.08,-0.11 -0.07,-0.11 -0.07,-0.11 -0.07,-0.11 -0.06,-0.12 -0.06,-0.11 -0.05,-0.12 -0.05,-0.11 -0.05,-0.12 -0.04,-0.12 -0.04,-0.11 -0.03,-0.12 -0.03,-0.11 -0.03,-0.12 -0.02,-0.12 -0.03,-0.11 -0.01,-0.11 -0.02,-0.11 -0.01,-0.12 -0.01,-0.1 -0.01,-0.11 -0.01,-0.11 0,-0.1 0,-0.1 c 0,-0.98 0.29,-2.51 1.67,-3.49 0.06,0 0.14,0 0.14,0.09 0,0.04 -0.02,0.05 -0.07,0.1 -0.92,0.84 -1.27,2.02 -1.27,3.29 0,1.88 0.72,2.8 1.29,3.32 0.03,0.03 0.05,0.05 0.05,0.08 0,0.09 -0.08,0.09 -0.14,0.09 z"
         inkscape:connector-curvature="0"
         style="fill:#000000;stroke-width:0" /><path
         id="path4429"
         d="m 276.61,712.01 -0.23,0 c -0.03,-0.16 -0.1,-0.57 -0.19,-0.64 -0.05,-0.04 -0.59,-0.04 -0.69,-0.04 l -1.28,0 c 0.73,0.65 0.98,0.84 1.39,1.17 0.52,0.41 1,0.85 1,1.51 0,0.84 -0.74,1.36 -1.63,1.36 -0.87,0 -1.45,-0.61 -1.45,-1.25 0,-0.36 0.3,-0.39 0.37,-0.39 0.17,0 0.37,0.12 0.37,0.37 0,0.12 -0.05,0.37 -0.41,0.37 0.21,0.49 0.69,0.65 1.02,0.65 0.69,0 1.05,-0.55 1.05,-1.11 0,-0.61 -0.43,-1.09 -0.65,-1.34 l -1.68,-1.66 c -0.07,-0.06 -0.07,-0.08 -0.07,-0.27 l 2.87,0 z"
         inkscape:connector-curvature="0"
         style="fill:#000000;stroke-width:0" /><path
         id="path4431"
         d="m 277.69,715.97 0,0 -0.01,0 0,0 -0.01,0 0,0 -0.01,0 0,0 -0.01,0 0,0 -0.01,0 -0.01,-0.01 0,0 -0.01,0 0,0 -0.01,0 0,0 -0.01,0 0,-0.01 -0.01,0 0,0 -0.01,-0.01 0,0 0,0 0,-0.01 -0.01,0 0,0 0,0 0,0 0,-0.01 0,0 0,0 -0.01,-0.01 0,0 0,0 0,0 0,-0.01 0,0 0,0 0,-0.01 0,0 0,-0.01 c 0,-0.03 0.02,-0.05 0.06,-0.1 0.6,-0.55 1.27,-1.49 1.27,-3.29 0,-1.46 -0.45,-2.56 -1.2,-3.25 -0.12,-0.11 -0.13,-0.12 -0.13,-0.15 0,-0.04 0.02,-0.09 0.09,-0.09 0.08,0 0.75,0.46 1.21,1.33 0.3,0.58 0.51,1.33 0.51,2.15 0,0.98 -0.3,2.51 -1.68,3.49 z"
         inkscape:connector-curvature="0"
         style="fill:#000000;stroke-width:0" /><path
         id="path4433"
         d="m 287.73,709.44 0,0.01 0,0 0,0.01 0.01,0.01 0,0.01 0.01,0.01 0,0.01 0,0.01 0.01,0.01 0,0.01 0,0 0,0.01 0.01,0 0,0.01 0,0 0,0.01 0,0 0,0 0,0.01 0,0 0,0 0.01,0.01 0,0 0,0 0,0 c 0,0.01 0,0.11 -0.12,0.11 -0.09,0 -0.11,-0.06 -0.13,-0.12 -0.65,-1.47 -1.02,-2.14 -2.72,-2.14 l -1.46,0 c -0.14,0 -0.16,0 -0.22,0.01 -0.1,0.01 -0.13,0.02 -0.13,0.1 0,0.03 0,0.05 0.05,0.23 l 0.68,2.72 0.99,0 c 0.84,0 0.84,-0.21 0.84,-0.46 0,-0.07 0,-0.19 -0.07,-0.49 -0.02,-0.05 -0.03,-0.08 -0.03,-0.11 0,-0.05 0.04,-0.11 0.13,-0.11 0.08,0 0.11,0.05 0.15,0.2 l 0.57,2.33 c 0,0.06 -0.05,0.11 -0.12,0.11 -0.09,0 -0.11,-0.05 -0.14,-0.18 -0.21,-0.75 -0.39,-0.98 -1.3,-0.98 l -0.94,0 0.6,2.4 c 0.09,0.35 0.1,0.39 0.54,0.39 l 1.4,0 c 1.22,0 1.52,-0.29 1.52,-1.11 0,-0.24 0,-0.26 -0.04,-0.53 0,-0.05 -0.01,-0.12 -0.01,-0.17 0,-0.06 0.03,-0.12 0.11,-0.12 0.12,0 0.12,0.06 0.15,0.25 l 0.19,1.72 c 0.03,0.27 -0.02,0.27 -0.26,0.27 l -5.04,0 c -0.2,0 -0.3,0 -0.3,-0.2 0,-0.11 0.1,-0.11 0.28,-0.11 0.37,0 0.65,0 0.65,-0.18 0,-0.04 0,-0.06 -0.05,-0.24 l -1.31,-5.27 c -0.1,-0.39 -0.12,-0.47 -0.91,-0.47 -0.17,0 -0.28,0 -0.28,-0.19 0,-0.12 0.09,-0.12 0.28,-0.12 l 5.17,0 c 0.23,0 0.24,0.01 0.31,0.17 z"
         inkscape:connector-curvature="0"
         style="fill:#000000;stroke-width:0" /><path
         id="path4435"
         d="m 295.66,709.44 0,0.01 0,0 0.01,0.01 0,0.01 0.01,0.01 0,0.01 0.01,0.01 0,0.01 0,0.01 0.01,0.01 0,0 0,0.01 0,0 0,0.01 0,0 0,0.01 0.01,0 0,0 0,0.01 0,0 0,0 0,0.01 0,0 0,0 0,0 c 0,0.01 0,0.11 -0.12,0.11 -0.09,0 -0.11,-0.06 -0.13,-0.12 -0.65,-1.47 -1.01,-2.14 -2.72,-2.14 l -1.45,0 c -0.14,0 -0.16,0 -0.22,0.01 -0.1,0.01 -0.13,0.02 -0.13,0.1 0,0.03 0,0.05 0.05,0.23 l 0.68,2.72 0.98,0 c 0.85,0 0.85,-0.21 0.85,-0.46 0,-0.07 0,-0.19 -0.07,-0.49 -0.02,-0.05 -0.03,-0.08 -0.03,-0.11 0,-0.05 0.04,-0.11 0.13,-0.11 0.08,0 0.11,0.05 0.15,0.2 l 0.57,2.33 c 0,0.06 -0.05,0.11 -0.12,0.11 -0.09,0 -0.11,-0.05 -0.14,-0.18 -0.21,-0.75 -0.39,-0.98 -1.31,-0.98 l -0.93,0 0.59,2.4 c 0.09,0.35 0.1,0.39 0.54,0.39 l 1.41,0 c 1.21,0 1.51,-0.29 1.51,-1.11 0,-0.24 0,-0.26 -0.04,-0.53 0,-0.05 -0.01,-0.12 -0.01,-0.17 0,-0.06 0.03,-0.12 0.12,-0.12 0.11,0 0.12,0.06 0.14,0.25 l 0.2,1.72 c 0.03,0.27 -0.02,0.27 -0.27,0.27 l -5.03,0 c -0.2,0 -0.3,0 -0.3,-0.2 0,-0.11 0.09,-0.11 0.28,-0.11 0.37,0 0.65,0 0.65,-0.18 0,-0.04 0,-0.06 -0.05,-0.24 l -1.32,-5.27 c -0.1,-0.39 -0.12,-0.47 -0.9,-0.47 -0.17,0 -0.28,0 -0.28,-0.19 0,-0.12 0.09,-0.12 0.28,-0.12 l 5.17,0 c 0.23,0 0.23,0.01 0.3,0.17 z"
         inkscape:connector-curvature="0"
         style="fill:#000000;stroke-width:0" /></g>  </g>
</svg>
