<?xml version="1.0" encoding="UTF-8" standalone="no"?>
<!-- Created with Inkscape (http://www.inkscape.org/) -->

<svg
   xmlns:dc="http://purl.org/dc/elements/1.1/"
   xmlns:cc="http://creativecommons.org/ns#"
   xmlns:rdf="http://www.w3.org/1999/02/22-rdf-syntax-ns#"
   xmlns:svg="http://www.w3.org/2000/svg"
   xmlns="http://www.w3.org/2000/svg"
   xmlns:xlink="http://www.w3.org/1999/xlink"
   xmlns:sodipodi="http://sodipodi.sourceforge.net/DTD/sodipodi-0.dtd"
   xmlns:inkscape="http://www.inkscape.org/namespaces/inkscape"
   width="1900"
   height="1080"
   id="svg2"
   version="1.1"
   inkscape:version="0.48.4 r9939"
   sodipodi:docname="qo.svg"
   inkscape:export-filename="C:\Users\Anderson\Dropbox\website\img\img1.png"
   inkscape:export-xdpi="90"
   inkscape:export-ydpi="90">
  <defs
     id="defs4">
    <inkscape:perspective
       sodipodi:type="inkscape:persp3d"
       inkscape:vp_x="-54.285716 : 502.85714 : 1"
       inkscape:vp_y="0 : 1000 : 0"
       inkscape:vp_z="1845.7143 : 502.85714 : 1"
       inkscape:persp3d-origin="895.71428 : 322.85714 : 1"
       id="perspective2985" />
  </defs>
  <sodipodi:namedview
     id="base"
     pagecolor="#ffffff"
     bordercolor="#666666"
     borderopacity="1.0"
     inkscape:pageopacity="0.0"
     inkscape:pageshadow="2"
     inkscape:zoom="0.35"
     inkscape:cx="908.71372"
     inkscape:cy="476.87363"
     inkscape:document-units="px"
     inkscape:current-layer="layer1"
     showgrid="false"
     inkscape:window-width="1366"
     inkscape:window-height="705"
     inkscape:window-x="-8"
     inkscape:window-y="-8"
     inkscape:window-maximized="1" />
  <metadata
     id="metadata7">
    <rdf:RDF>
      <cc:Work
         rdf:about="">
        <dc:format>image/svg+xml</dc:format>
        <dc:type
           rdf:resource="http://purl.org/dc/dcmitype/StillImage" />
        <dc:title />
      </cc:Work>
    </rdf:RDF>
  </metadata>
  <g
     inkscape:label="Layer 1"
     inkscape:groupmode="layer"
     id="layer1"
     transform="translate(0,27.63782)">
    <g
       id="g2987"
       style="opacity:0.5;fill:#ff0000;fill-opacity:1;stroke:#e6e6e6;stroke-width:3.54330707;stroke-miterlimit:4;stroke-opacity:1;stroke-dasharray:none;stroke-dashoffset:0">
      <path
         d="m 578.20093,282.79381 125.53161,-52.93502 0,163.58367 -125.53161,25.84474 z"
         style="fill:#e9e9ff;fill-rule:evenodd;stroke:none"
         id="path3000" />
      <path
         d="m 420.00001,249.50504 0,153.52941 158.20092,16.25275 0,-136.49339 z"
         style="fill:#353564;fill-rule:evenodd;stroke:none"
         id="path3002" />
      <path
         d="m 420.00001,249.50504 108.57141,-68.6747 175.16112,49.02845 -125.53161,52.93502 z"
         style="fill:#4d4d9f;fill-rule:evenodd;stroke:none"
         id="path3004" />
      <path
         d="M 420.00001,403.03445 528.57142,369.50504 703.73254,393.44246 578.20093,419.2872 z"
         style="fill:#afafde;fill-rule:evenodd;stroke:none"
         id="path3006" />
      <path
         d="m 528.57142,180.83034 0,188.6747 175.16112,23.93742 0,-163.58367 z"
         style="fill:#d7d7ff;fill-rule:evenodd;stroke:none"
         id="path3008" />
      <path
         d="m 420.00001,249.50504 108.57141,-68.6747 0,188.6747 -108.57141,33.52941 z"
         style="fill:#8686bf;fill-rule:evenodd;stroke:none"
         id="path3010" />
    </g>
    <use
       id="use3012"
       xlink:href="#g2987"
       x="0"
       y="0"
       width="1900"
       height="1080"
       transform="translate(-269.43569,277.72308)" />
    <use
       id="use3014"
       xlink:href="#g2987"
       x="0"
       y="0"
       width="1900"
       height="1080"
       transform="translate(-312.09672,325.18489)" />
    <use
       id="use3016"
       xlink:href="#g2987"
       x="0"
       y="0"
       width="1900"
       height="1080"
       transform="translate(-276.55611,251.28301)" />
    <use
       id="use3018"
       xlink:href="#g2987"
       x="0"
       y="0"
       width="1900"
       height="1080"
       transform="translate(-324.28993,305.71512)" />
    <use
       id="use3020"
       xlink:href="#g2987"
       x="0"
       y="0"
       width="1900"
       height="1080"
       transform="translate(-333.63515,213.53099)" />
    <use
       id="use3022"
       xlink:href="#g2987"
       x="0"
       y="0"
       width="1900"
       height="1080"
       transform="translate(-283.98121,299.16588)" />
    <use
       id="use3024"
       xlink:href="#g2987"
       x="0"
       y="0"
       width="1900"
       height="1080"
       transform="translate(-177.38015,224.86091)" />
    <use
       id="use3026"
       xlink:href="#g2987"
       x="0"
       y="0"
       width="1900"
       height="1080"
       transform="translate(-258.21094,146.40284)" />
    <use
       id="use3028"
       xlink:href="#g2987"
       x="0"
       y="0"
       width="1900"
       height="1080"
       transform="translate(-183.41827,192.46472)" />
    <use
       id="use3030"
       xlink:href="#g2987"
       x="0"
       y="0"
       width="1900"
       height="1080"
       transform="translate(-162.0669,25.814495)" />
    <use
       id="use3032"
       xlink:href="#g2987"
       x="0"
       y="0"
       width="1900"
       height="1080"
       transform="translate(-168.03333,54.667886)" />
    <use
       id="use3034"
       xlink:href="#g2987"
       x="0"
       y="0"
       width="1900"
       height="1080"
       transform="translate(-104.82727,-42.976642)" />
    <use
       id="use3036"
       xlink:href="#g2987"
       x="0"
       y="0"
       width="1900"
       height="1080"
       transform="translate(-56.585468,32.210657)" />
    <use
       id="use3038"
       xlink:href="#g2987"
       x="0"
       y="0"
       width="1900"
       height="1080"
       transform="translate(-77.118455,-69.266555)" />
    <use
       id="use3040"
       xlink:href="#g2987"
       x="0"
       y="0"
       width="1900"
       height="1080"
       transform="translate(-80.76978,29.867564)" />
    <use
       id="use3042"
       xlink:href="#g2987"
       x="0"
       y="0"
       width="1900"
       height="1080"
       transform="translate(-109.15496,-138.93149)" />
    <use
       id="use3044"
       xlink:href="#g2987"
       x="0"
       y="0"
       width="1900"
       height="1080"
       transform="translate(-164.99206,-42.273463)" />
    <use
       id="use3046"
       xlink:href="#g2987"
       x="0"
       y="0"
       width="1900"
       height="1080"
       transform="translate(-75.576768,-63.288795)" />
    <use
       id="use3048"
       xlink:href="#g2987"
       x="0"
       y="0"
       width="1900"
       height="1080"
       transform="translate(-98.427786,-51.441809)" />
    <use
       id="use3050"
       xlink:href="#g2987"
       x="0"
       y="0"
       width="1900"
       height="1080"
       transform="translate(-120.01907,-63.249113)" />
    <use
       id="use3052"
       xlink:href="#g2987"
       x="0"
       y="0"
       width="1900"
       height="1080"
       transform="translate(41.817873,-73.843211)" />
    <use
       id="use3054"
       xlink:href="#g2987"
       x="0"
       y="0"
       width="1900"
       height="1080"
       transform="translate(-50.240931,0.53464247)" />
    <use
       id="use3056"
       xlink:href="#g2987"
       x="0"
       y="0"
       width="1900"
       height="1080"
       transform="translate(-90.634469,-157.77788)" />
    <use
       id="use3058"
       xlink:href="#g2987"
       x="0"
       y="0"
       width="1900"
       height="1080"
       transform="translate(-40.307551,161.01205)" />
    <use
       id="use3060"
       xlink:href="#g2987"
       x="0"
       y="0"
       width="1900"
       height="1080"
       transform="translate(-55.708501,131.73562)" />
    <use
       id="use3062"
       xlink:href="#g2987"
       x="0"
       y="0"
       width="1900"
       height="1080"
       transform="translate(-59.707955,352.04121)" />
    <use
       id="use3064"
       xlink:href="#g2987"
       x="0"
       y="0"
       width="1900"
       height="1080"
       transform="translate(-111.24238,348.48754)" />
    <use
       id="use3066"
       xlink:href="#g2987"
       x="0"
       y="0"
       width="1900"
       height="1080"
       transform="translate(-96.439785,334.07759)" />
    <use
       id="use3068"
       xlink:href="#g2987"
       x="0"
       y="0"
       width="1900"
       height="1080"
       transform="translate(-99.47016,298.28015)" />
    <use
       id="use3070"
       xlink:href="#g2987"
       x="0"
       y="0"
       width="1900"
       height="1080"
       transform="translate(5.560201,358.44204)" />
    <use
       id="use3072"
       xlink:href="#g2987"
       x="0"
       y="0"
       width="1900"
       height="1080"
       transform="translate(8.9302065,178.60545)" />
    <use
       id="use3074"
       xlink:href="#g2987"
       x="0"
       y="0"
       width="1900"
       height="1080"
       transform="translate(123.61066,239.96944)" />
    <use
       id="use3076"
       xlink:href="#g2987"
       x="0"
       y="0"
       width="1900"
       height="1080"
       transform="translate(268.30867,96.415566)" />
    <use
       id="use3078"
       xlink:href="#g2987"
       x="0"
       y="0"
       width="1900"
       height="1080"
       transform="translate(222.78031,103.99018)" />
    <use
       id="use3080"
       xlink:href="#g2987"
       x="0"
       y="0"
       width="1900"
       height="1080"
       transform="translate(219.63257,73.178548)" />
    <use
       id="use3082"
       xlink:href="#g2987"
       x="0"
       y="0"
       width="1900"
       height="1080"
       transform="translate(305.95716,138.40121)" />
    <use
       id="use3084"
       xlink:href="#g2987"
       x="0"
       y="0"
       width="1900"
       height="1080"
       transform="translate(294.39616,13.11775)" />
    <use
       id="use3086"
       xlink:href="#g2987"
       x="0"
       y="0"
       width="1900"
       height="1080"
       transform="translate(277.39963,-60.950474)" />
    <use
       id="use3088"
       xlink:href="#g2987"
       x="0"
       y="0"
       width="1900"
       height="1080"
       transform="translate(351.44038,-66.989327)" />
    <use
       id="use3090"
       xlink:href="#g2987"
       x="0"
       y="0"
       width="1900"
       height="1080"
       transform="translate(298.11619,-54.262725)" />
    <use
       id="use3092"
       xlink:href="#g2987"
       x="0"
       y="0"
       width="1900"
       height="1080"
       transform="translate(284.91879,10.882898)" />
    <use
       id="use3094"
       xlink:href="#g2987"
       x="0"
       y="0"
       width="1900"
       height="1080"
       transform="translate(326.21703,89.68761)" />
    <use
       id="use3096"
       xlink:href="#g2987"
       x="0"
       y="0"
       width="1900"
       height="1080"
       transform="translate(341.50739,47.006067)" />
    <use
       id="use3098"
       xlink:href="#g2987"
       x="0"
       y="0"
       width="1900"
       height="1080"
       transform="translate(285.3259,81.203995)" />
    <use
       id="use3100"
       xlink:href="#g2987"
       x="0"
       y="0"
       width="1900"
       height="1080"
       transform="translate(214.01211,166.45928)" />
    <use
       id="use3102"
       xlink:href="#g2987"
       x="0"
       y="0"
       width="1900"
       height="1080"
       transform="translate(334.64257,141.35132)" />
    <rect
       style="opacity:0.59999999999999998;fill:#5500d4;fill-opacity:1;stroke:#e6e6e6;stroke-width:3.54330707000000000;stroke-miterlimit:4;stroke-opacity:1;stroke-dasharray:none;stroke-dashoffset:0"
       id="rect2987"
       width="1896.4567"
       height="1076.4567"
       x="1.7716535"
       y="-25.866167" />
  </g>
</svg>
